<?xml version="1.0" encoding="UTF-8" standalone="no"?>
<!-- Generator: Adobe Illustrator 18.0.0, SVG Export Plug-In . SVG Version: 6.00 Build 0)  -->

<svg
   xmlns:dc="http://purl.org/dc/elements/1.1/"
   xmlns:cc="http://creativecommons.org/ns#"
   xmlns:rdf="http://www.w3.org/1999/02/22-rdf-syntax-ns#"
   xmlns:svg="http://www.w3.org/2000/svg"
   xmlns="http://www.w3.org/2000/svg"
   xmlns:sodipodi="http://sodipodi.sourceforge.net/DTD/sodipodi-0.dtd"
   xmlns:inkscape="http://www.inkscape.org/namespaces/inkscape"
   version="1.1"
   id="Capa_1"
   x="0px"
   y="0px"
   viewBox="0 0 299.99999 499.99998"
   xml:space="preserve"
   sodipodi:docname="appuntamenti-300px.svg"
   width="300"
   height="500"
   inkscape:version="0.92.3 (2405546, 2018-03-11)"
   inkscape:export-filename="C:\Deto\GitHub\100giorni\il-matrimonio-di-claudia-e-samuele.com\html5\assets\images\appuntamenti-300px.png"
   inkscape:export-xdpi="96"
   inkscape:export-ydpi="96"><metadata
   id="metadata75"><rdf:RDF><cc:Work
       rdf:about=""><dc:format>image/svg+xml</dc:format><dc:type
         rdf:resource="http://purl.org/dc/dcmitype/StillImage" /><dc:title></dc:title></cc:Work></rdf:RDF></metadata><defs
   id="defs73" /><sodipodi:namedview
   pagecolor="#ffffff"
   bordercolor="#666666"
   borderopacity="1"
   objecttolerance="10"
   gridtolerance="10"
   guidetolerance="10"
   inkscape:pageopacity="0"
   inkscape:pageshadow="2"
   inkscape:window-width="1366"
   inkscape:window-height="745"
   id="namedview71"
   showgrid="false"
   inkscape:zoom="1.0407892"
   inkscape:cx="27.303581"
   inkscape:cy="271.94494"
   inkscape:window-x="-8"
   inkscape:window-y="-8"
   inkscape:window-maximized="1"
   inkscape:current-layer="Capa_1" />
<g
   id="g38"
   transform="matrix(0.26599179,0,0,0.26599179,163.69185,37.850342)"
   style="stroke-width:3.75951481">
	<path
   d="m 436.406,207.709 c 4.08,2.62 7.09,6.67 4.65,11.07 -1.66,2.98 -5.87,5.35 -9.39,6.28 -3.72,0.98 -8.03,0.29 -11.99,-0.31 -9.44,-1.46 -18.81,-3.29 -28.81,-5.07 -3.19,10.55 -11.34,10.88 -20.94,9.08 -4.61,13.07 -14.92,11.58 -25.71,9.02 -7.56,19.19 -25.2,18 -41.33,20.61 0,3.12 0,5.91 0,9.11 1.63,0 3.09,0.34 4.32,-0.05 19.39,-6.07 38.12,-13.72 55.7,-23.96 5.37,-3.13 10.97,-4.01 16.93,-3.72 7.21,0.36 12.77,4.43 14.62,11.32 4.3,15.97 2.3,30.09 -10.02,42.74 -17.08,17.52 -37.35,28.45 -60.98,33.58 -17.49,3.79 -33.73,10.49 -48.73,20.2 -18.55,12.01 -36.94,24.27 -55.59,36.14 -6.19,3.93 -12.75,7.4 -19.47,10.35 -22.77,10 -42.01,24.52 -56.92,44.38 -7.13,9.49 -15.63,16.3 -27.76,14.82 -14.49,-1.78 -27.97,-6.47 -37.03,-19.35 -3.68,-5.22 -3.61,-9.98 -0.27,-15.23 5.72,-8.96 14.01,-15.03 22.63,-20.77 11.04,-7.34 22.34,-14.31 33.08,-22.07 6.17,-4.46 11.45,-10.16 18.08,-16.16 -8.17,-3.23 -14.86,-5.88 -21.97,-8.69 -7.88,4.64 -16.34,7.97 -26.14,4.08 -5.66,8.23 -9.48,19.24 -22.93,13.9 -5.76,6.52 -9.77,16.41 -21.11,10.14 -5.1,9.01 -9.62,17.44 -14.58,25.6 -2.27,3.73 -5.1,7.24 -8.22,10.3 -2.94,2.88 -7.14,5.37 -10.87,2.36 -2.47,-1.99 -4.24,-5.9 -4.63,-9.16 -0.51,-4.28 0.36,-8.81 1.13,-13.14 2.99,-16.67 6.18,-33.3 9.42,-50.6 -8.29,-2.51 -9.12,-8.56 -8.06,-15.79 4.16,-28.43 0.53,-56.5 -3.12,-84.73 -2.21,-17.05 -2.55,-34.56 -1.68,-51.75 1.11,-21.72 11.82,-39.36 28.87,-52.64 20.85,-16.24 44.98,-24.81 71.05,-28.01 3.82,-0.47 7.81,0.4 13.02,0.73 -1.13,8.35 -1.73,15.57 -3.14,22.63 -3.38,16.9 -1.47,32.39 7.07,47.96 8.8,16.06 15.24,33.44 22.32,50.4 10.87,26.04 9.81,52.4 1.31,78.82 -0.57,1.75 -1.22,3.48 -1.77,5.24 -0.09,0.28 0.18,0.67 0.44,1.51 4.51,2.35 9.68,4.4 14.13,7.5 7.66,5.32 14.41,3.77 21.24,-1.3 7.69,-5.72 15.49,-11.28 23.16,-17.02 16.04,-12.01 33.44,-21.47 52.28,-28.33 6.13,-2.24 12.08,-4.96 19.36,-7.98 0.67,-3.84 1.52,-8.74 2.19,-12.65 -11.12,-4.73 -21.66,-8.77 -31.82,-13.62 -19.35,-9.24 -32.67,-24.76 -43.16,-43.01 -9.9,-17.24 -19.91,-34.45 -26.48,-53.35 -4.32,-12.44 -12.61,-21.45 -23.73,-28.11 -6.32,-3.78 -12.69,-7.49 -18.97,-11.35 -2.09,-1.29 -3.94,-2.97 -6.87,-5.21 2.98,-3.9 5.18,-7.7 8.22,-10.62 18.45,-17.69 40,-30.07 64.94,-35.92 24.96,-5.85 47.8,-0.38 67.33,16.02 12.93,10.87 25.56,22.38 36.75,35 17.25,19.46 36.04,36.88 57.91,50.89 6.13,3.92 10.6,8.03 6.89,16.19 13.48,7.48 26.39,14.54 39.2,21.8 5.44,3.09 10.68,6.52 15.95,9.9 z m -8.35,8.35 c 0.26,-0.72 0.51,-1.44 0.76,-2.16 -17.46,-10.33 -34.93,-20.66 -52.6,-31.11 -9.63,10.39 -21.28,13.53 -33.82,11.64 -28.63,-4.32 -53.55,-15.82 -71.24,-39.91 -2.38,-3.23 -4.66,-6.53 -6.99,-9.8 2.55,-0.04 3.6,0.95 4.68,1.89 18.22,15.88 38.01,29.08 61.54,35.79 8.91,2.54 17.92,4.19 27.24,2.1 7.58,-1.69 13.13,-5.59 16.29,-13.69 -27.37,-13.23 -47.74,-33.77 -66.37,-56.4 -7.25,-8.82 -14.84,-17.37 -22.63,-25.71 -23.29,-24.93 -51.18,-32.06 -83.42,-20.52 -17.69,6.33 -33.85,15.41 -48.23,28.44 14.5,5.68 24.81,1.76 27.08,-9.93 5.09,1.94 7.9,5.02 6.93,10.78 -9.09,3.5 -17.97,6.92 -27.4,10.56 1.44,0.94 2.85,2 4.38,2.85 19.15,10.58 32.9,25.5 39.66,46.79 2.3,7.25 6.79,13.82 10.43,20.63 0.35,0.66 1.69,0.8 2.64,1.22 0.72,-3.27 1.37,-6.21 2.55,-11.57 1.95,12.62 -1.9,24.3 8.84,32.02 1.81,-9.14 3.56,-17.96 5.3,-26.78 0.95,9.83 0.16,19.35 -0.62,28.87 -0.45,5.43 0.54,10.2 6.25,13.17 1.99,-10.54 3.93,-20.83 5.88,-31.11 1.48,5.04 1.72,9.82 1.42,14.56 -0.37,5.87 -1.34,11.7 -1.77,17.57 -0.37,5.15 1,9.32 7.53,10.25 1.63,-11.12 1.55,-22.13 6.48,-32.1 0.09,10 -0.74,19.87 -1.28,29.76 -0.5,9.08 -0.36,9.09 9.96,12.2 1.22,-8.12 2.43,-16.25 3.65,-24.39 1.73,6.25 1.83,12.31 1.71,18.37 -0.21,10.58 4.48,16.35 15.15,17.16 4.56,0.35 9.24,-0.76 13.86,-1.24 -0.01,0.08 -0.01,0.15 -0.02,0.23 l -0.01,0.01 c 5.51,-0.31 11.05,-0.3 16.5,-1 7.59,-0.99 14.35,-3.36 16.61,-12.1 1.25,-4.88 5.28,-5.76 9.66,-5.12 4.29,0.62 8.54,1.51 12.87,2.29 0.99,-10.9 1.3,-11.03 10.93,-9.58 3.99,0.6 8.08,0.55 12.12,0.79 -1.58,-3.62 -3.43,-5.25 -5.5,-6.55 -2.62,-1.65 -5.65,-3.7 -3.61,-6.76 1.07,-1.6 5.07,-2.27 7.44,-1.81 13.36,2.59 26.61,5.7 39.94,8.48 3.01,0.63 6.15,0.63 9.23,0.92 z m -52.69,75.311 c 11.35,-9.23 16,-20.85 12.15,-35.33 -1.99,-7.51 -7.38,-10.78 -15.01,-8.81 -2.8,0.72 -5.49,2.12 -8.05,3.54 -15.79,8.8 -31.81,17.02 -49.31,22.06 -4.49,1.29 -8.74,3.42 -13.36,5.26 0.44,11.56 -2.86,23.19 8.95,33.64 -5.6,0.94 -8.9,1.58 -12.23,2.02 -1.6,0.22 -4.23,-0.58 -4.72,0.17 -2.66,4.1 -6.56,4.12 -9.61,2.07 -3.15,-2.12 -5.87,-5.53 -7.6,-8.96 -1.47,-2.9 -1.27,-6.65 -1.8,-10.02 -2.18,3.8 -3.13,7.65 -3.16,11.5 -0.02,3.75 3.63,7.48 0.18,11.31 -13.03,-2.8 -14.84,-7.17 -11.3,-26.97 -14.13,3.57 -48.54,25.12 -59.05,36.62 2.84,6.29 5.84,12.04 7.89,18.12 0.54,1.6 -1.41,5.38 -3.05,6.02 -1.7,0.66 -5.09,-0.64 -6.53,-2.2 -2.44,-2.64 -3.71,-6.32 -5.86,-9.28 -3.12,-4.28 -6.51,-4.27 -8.36,-1.7 3.56,4.64 7.13,8.83 10.13,13.39 1.81,2.76 3.3,6.72 -0.7,8.55 -1.85,0.84 -5.48,-0.6 -7.44,-2.12 -2.07,-1.61 -3.11,-4.54 -4.6,-6.89 -0.91,0.76 -1.82,1.53 -2.73,2.29 2.21,4 4.78,7.85 6.53,12.05 1.23,2.95 2.23,6.85 -1.66,8.77 -3.79,1.88 -6.08,-0.77 -7.92,-3.86 -2.94,-4.94 -6.01,-9.81 -9.67,-15.76 -5.93,5.3 -10.49,10.06 -15.72,13.92 -14.79,10.94 -29.78,21.61 -44.83,32.2 -9.31,6.55 -19.26,12.37 -23.49,23.67 7.77,13.82 22.7,19.43 39.72,15.28 0,-12.22 0,-24.4 0,-36.59 0.65,-0.05 1.3,-0.09 1.95,-0.13 0.85,10.49 1.7,20.99 2.62,32.26 7.61,-5.31 10.12,-11.19 9.79,-18.82 -0.25,-6.08 0.55,-12.2 0.88,-18.31 0.58,0.05 1.17,0.1 1.76,0.15 0.35,6.45 0.71,12.91 1.11,20.27 5.51,-2.52 8.49,-5.28 8.17,-11.04 -0.34,-6.42 -0.08,-12.87 -0.08,-19.31 0.65,-0.05 1.3,-0.09 1.94,-0.14 0.72,5.97 1.43,11.94 2.17,18.1 6,-0.93 7.51,-4.35 7.48,-9.39 -0.02,-5.05 -1.07,-10.35 2.8,-15.02 0.44,5.27 0.88,10.54 1.41,16.81 5.27,-3.09 9.54,-5.88 14.06,-8.19 9.5,-4.86 19.09,-9.58 28.73,-14.17 5.54,-2.64 8.53,-6.21 7.79,-12.91 -0.4,-3.65 1.14,-7.51 1.81,-11.27 0.53,0.11 1.07,0.22 1.6,0.33 -0.35,4.9 -0.7,9.79 -1.24,17.32 5.52,-4.38 9.11,-7.24 12.68,-10.06 -0.01,0.03 -0.01,0.07 -0.02,0.1 l -0.02,0.03 c 11.01,-6.63 22.25,-12.9 32.97,-19.97 18.7,-12.33 38.91,-20.54 60.77,-25.42 18.93,-4.221 35.97,-12.911 51.08,-25.18 z m -84.93,17.06 c 0,-7.2 0,-12.46 0,-17.73 -4.18,5.32 -4.89,10.589 0,17.73 z m -118.01,32.039 c -7.78,-4.29 -14.68,-8.1 -21.79,-12.01 -4.1,5.2 -7.63,9.67 -11.35,14.39 11.44,7 21.74,5.87 33.14,-2.38 z m -19.19,-50.64 c 1.56,-12.82 2.27,-25.62 -1.55,-38.29 -6.37,-21.16 -12.84,-42.34 -24.06,-61.51 -9.28,-15.84 -10.97,-32.5 -8.15,-50.11 0.51,-3.19 0.77,-6.43 1.11,-9.35 -8.92,4.93 -17.58,9.73 -27.82,15.39 -1.11,-5.26 -1.91,-9.03 -2.99,-14.1 12.34,6.32 21.52,1 26.41,-14.07 -21.36,3.73 -40.77,10.94 -58.24,22.86 -21.56,14.7 -33.99,35 -32.39,61.51 1.13,18.67 4.37,37.25 7.4,55.74 2.94,17.89 4.85,35.77 3.17,53.87 -0.73,7.91 -2.08,15.77 -3.2,23.97 13.06,3.21 21.28,-3.14 27.86,-12.16 10.45,-14.32 15.55,-30.85 17.62,-48.24 1.57,-13.16 2.29,-26.43 3.56,-41.77 11.36,34.65 6.08,65.03 -12.16,93.47 -5.7,8.88 -13.46,15.62 -24.7,16.78 -3.87,0.39 -5.88,2.44 -6.22,6.4 -0.28,3.3 -0.93,6.56 -1.43,9.84 -2.35,15.17 -4.71,30.34 -7.07,45.5 3.79,-2 6.06,-4.72 7.68,-7.78 6.33,-12.04 12.35,-24.25 18.77,-36.24 1.03,-1.93 3.51,-4.37 5.31,-4.36 3.91,0.04 3.79,3.51 3.61,6.61 -0.18,2.93 -0.04,5.88 -0.04,8.82 4.25,-2.6 6.16,-5.64 8.27,-8.54 1.9,-2.59 3.6,-6.33 6.15,-7.12 2.23,-0.7 5.51,2 7.96,3.05 4.96,-6.19 9.84,-12.28 15.64,-19.51 0,-7.51 0,-17.02 0,-26.52 2.02,8.9 2.67,17.94 3.71,26.94 0.73,6.23 1.34,6.38 9,3.82 0,-9.25 0,-18.68 0,-28.11 0.42,-0.04 0.85,-0.07 1.28,-0.1 0.92,8.54 1.84,17.09 2.78,25.84 7.11,-2.12 7.79,-6.43 7.24,-11.71 -0.49,-4.75 -0.48,-9.56 -0.58,-14.35 -0.09,-4.31 -0.02,-8.62 -0.02,-12.92 0.69,0.03 1.37,0.06 2.05,0.1 1.05,9.2 2.09,18.4 3.28,28.86 9.6,-8.19 16.61,-15.78 17.81,-27.35 0.53,-5.1 2.34,-10.059 2.95,-15.16 z"
   id="path2"
   inkscape:connector-curvature="0"
   style="stroke-width:3.75951481" />
	<path
   style="fill:#ff96bd;stroke-width:3.75951481"
   d="m 428.816,213.899 c -0.25,0.72 -0.5,1.44 -0.76,2.16 -3.08,-0.29 -6.22,-0.29 -9.23,-0.92 -13.33,-2.78 -26.58,-5.89 -39.94,-8.48 -2.37,-0.46 -6.37,0.21 -7.44,1.81 -2.04,3.06 0.99,5.11 3.61,6.76 2.07,1.3 3.92,2.93 5.5,6.55 -4.04,-0.24 -8.13,-0.19 -12.12,-0.79 -9.63,-1.45 -9.94,-1.32 -10.93,9.58 -4.33,-0.78 -8.58,-1.67 -12.87,-2.29 -4.38,-0.64 -8.41,0.24 -9.66,5.12 -2.26,8.74 -9.02,11.11 -16.61,12.1 -5.45,0.7 -10.99,0.69 -16.5,1 l 0.01,-0.01 0.28,-0.26 c -0.08,-0.07 -0.16,-0.15 -0.24,-0.22 0.6,-7.01 1.19,-14.02 1.79,-21.02 -2.73,6.9 -9.82,13.61 -1.79,21.02 -0.01,0.08 -0.01,0.17 -0.02,0.25 -4.62,0.48 -9.3,1.59 -13.86,1.24 -10.67,-0.81 -15.36,-6.58 -15.15,-17.16 0.12,-6.06 0.02,-12.12 -1.71,-18.37 -1.22,8.14 -2.43,16.27 -3.65,24.39 -10.32,-3.11 -10.46,-3.12 -9.96,-12.2 0.54,-9.89 1.37,-19.76 1.28,-29.76 -4.93,9.97 -4.85,20.98 -6.48,32.1 -6.53,-0.93 -7.9,-5.1 -7.53,-10.25 0.43,-5.87 1.4,-11.7 1.77,-17.57 0.3,-4.74 0.06,-9.52 -1.42,-14.56 -1.95,10.28 -3.89,20.57 -5.88,31.11 -5.71,-2.97 -6.7,-7.74 -6.25,-13.17 0.78,-9.52 1.57,-19.04 0.62,-28.87 -1.74,8.82 -3.49,17.64 -5.3,26.78 -10.74,-7.72 -6.89,-19.4 -8.84,-32.02 -1.18,5.36 -1.83,8.3 -2.55,11.57 -0.95,-0.42 -2.29,-0.56 -2.64,-1.22 -3.64,-6.81 -8.13,-13.38 -10.43,-20.63 -6.76,-21.29 -20.51,-36.21 -39.66,-46.79 -1.53,-0.85 -2.94,-1.91 -4.38,-2.85 9.43,-3.64 18.31,-7.06 27.4,-10.56 0.97,-5.76 -1.84,-8.84 -6.93,-10.78 -2.27,11.69 -12.58,15.61 -27.08,9.93 14.38,-13.03 30.54,-22.11 48.23,-28.44 32.24,-11.54 60.13,-4.41 83.42,20.52 7.79,8.34 15.38,16.89 22.63,25.71 18.63,22.63 39,43.17 66.37,56.4 -3.16,8.1 -8.71,12 -16.29,13.69 -9.32,2.09 -18.33,0.44 -27.24,-2.1 -23.53,-6.71 -43.32,-19.91 -61.54,-35.79 -1.08,-0.94 -2.13,-1.93 -4.68,-1.89 2.33,3.27 4.61,6.57 6.99,9.8 17.69,24.09 42.61,35.59 71.24,39.91 12.54,1.89 24.19,-1.25 33.82,-11.64 17.67,10.45 35.14,20.78 52.6,31.11 z m -139.8,15.5 c 0.58,-5.03 1.58,-10.02 2.39,-15.02 -8.28,13.19 -9.07,24.29 -3.29,29.38 0.29,-4.89 0.37,-9.65 0.9,-14.36 z m -60.73,-130.26 c 3.85,-3.49 3.18,-6.12 1.11,-8.65 -3.79,-4.64 -12.98,-6.17 -19.44,-3.33 -5.09,2.24 -9.92,9.9 -9.26,15.13 0.15,1.27 1.15,3.19 2.1,3.42 1.52,0.37 3.69,0.06 4.89,-0.86 1.33,-1.02 1.83,-3.09 2.8,-4.63 3.47,-5.52 5.71,-6.33 11.78,-4.07 1.99,0.75 3.83,1.89 6.02,2.99 z"
   id="path4"
   inkscape:connector-curvature="0" />
	<path
   style="fill:#754c24;stroke-width:3.75951481"
   d="m 387.516,256.039 c 3.85,14.48 -0.8,26.1 -12.15,35.33 -15.11,12.27 -32.15,20.96 -51.08,25.18 -21.86,4.88 -42.07,13.09 -60.77,25.42 -10.72,7.07 -21.96,13.34 -32.97,19.97 l 0.02,-0.03 0.21,-0.25 c -0.05,-0.08 -0.09,-0.17 -0.13,-0.25 1.04,-6.55 2.07,-13.09 3.09,-19.62 -4.04,6.22 -6.8,12.61 -3.09,19.62 -0.02,0.13 -0.04,0.27 -0.06,0.4 -3.57,2.82 -7.16,5.68 -12.68,10.06 0.54,-7.53 0.89,-12.42 1.24,-17.32 -0.53,-0.11 -1.07,-0.22 -1.6,-0.33 -0.67,3.76 -2.21,7.62 -1.81,11.27 0.74,6.7 -2.25,10.27 -7.79,12.91 -9.64,4.59 -19.23,9.31 -28.73,14.17 -4.52,2.31 -8.79,5.1 -14.06,8.19 -0.53,-6.27 -0.97,-11.54 -1.41,-16.81 -3.87,4.67 -2.82,9.97 -2.8,15.02 0.03,5.04 -1.48,8.46 -7.48,9.39 -0.74,-6.16 -1.45,-12.13 -2.17,-18.1 -0.64,0.05 -1.29,0.09 -1.94,0.14 0,6.44 -0.26,12.89 0.08,19.31 0.32,5.76 -2.66,8.52 -8.17,11.04 -0.4,-7.36 -0.76,-13.82 -1.11,-20.27 -0.59,-0.05 -1.18,-0.1 -1.76,-0.15 -0.33,6.11 -1.13,12.23 -0.88,18.31 0.33,7.63 -2.18,13.51 -9.79,18.82 -0.92,-11.27 -1.77,-21.77 -2.62,-32.26 -0.65,0.04 -1.3,0.08 -1.95,0.13 0,12.19 0,24.37 0,36.59 -17.02,4.15 -31.95,-1.46 -39.72,-15.28 4.23,-11.3 14.18,-17.12 23.49,-23.67 15.05,-10.59 30.04,-21.26 44.83,-32.2 5.23,-3.86 9.79,-8.62 15.72,-13.92 3.66,5.95 6.73,10.82 9.67,15.76 1.84,3.09 4.13,5.74 7.92,3.86 3.89,-1.92 2.89,-5.82 1.66,-8.77 -1.75,-4.2 -4.32,-8.05 -6.53,-12.05 0.91,-0.76 1.82,-1.53 2.73,-2.29 1.49,2.35 2.53,5.28 4.6,6.89 1.96,1.52 5.59,2.96 7.44,2.12 4,-1.83 2.51,-5.79 0.7,-8.55 -3,-4.56 -6.57,-8.75 -10.13,-13.39 1.85,-2.57 5.24,-2.58 8.36,1.7 2.15,2.96 3.42,6.64 5.86,9.28 1.44,1.56 4.83,2.86 6.53,2.2 1.64,-0.64 3.59,-4.42 3.05,-6.02 -2.05,-6.08 -5.05,-11.83 -7.89,-18.12 10.51,-11.5 44.92,-33.05 59.05,-36.62 -3.54,19.8 -1.73,24.17 11.3,26.97 3.45,-3.83 -0.2,-7.56 -0.18,-11.31 0.03,-3.85 0.98,-7.7 3.16,-11.5 0.53,3.37 0.33,7.12 1.8,10.02 1.73,3.43 4.45,6.84 7.6,8.96 3.05,2.05 6.95,2.03 9.61,-2.07 0.49,-0.75 3.12,0.05 4.72,-0.17 3.33,-0.44 6.63,-1.08 12.23,-2.02 -11.81,-10.45 -8.51,-22.08 -8.95,-33.64 4.62,-1.84 8.87,-3.97 13.36,-5.26 17.5,-5.04 33.52,-13.26 49.31,-22.06 2.56,-1.42 5.25,-2.82 8.05,-3.54 7.63,-1.97 13.02,1.3 15.01,8.81 z m -276.55,179.09 c 0,-3.89 0,-7.79 0,-11.68 -0.19,0 -0.38,0 -0.57,0 0,3.9 0,7.8 0,11.69 0.19,0 0.38,0 0.57,-0.01 z"
   id="path6"
   inkscape:connector-curvature="0" />
	<path
   d="m 303.706,224.989 c -0.6,7 -1.19,14.01 -1.79,21.02 -8.03,-7.41 -0.94,-14.12 1.79,-21.02 z"
   id="path8"
   inkscape:connector-curvature="0"
   style="stroke-width:3.75951481" />
	<path
   d="m 302.156,246.229 -0.28,0.26 c 0.01,-0.08 0.01,-0.15 0.02,-0.23 0.09,-0.01 0.17,-0.02 0.26,-0.03 z"
   id="path10"
   inkscape:connector-curvature="0"
   style="stroke-width:3.75951481" />
	<path
   d="m 302.156,246.229 c -0.09,0.01 -0.17,0.02 -0.26,0.03 0.01,-0.08 0.01,-0.17 0.02,-0.25 0.08,0.07 0.16,0.15 0.24,0.22 z"
   id="path12"
   inkscape:connector-curvature="0"
   style="stroke-width:3.75951481" />
	<path
   d="m 291.406,214.379 c -0.81,5 -1.81,9.99 -2.39,15.02 -0.53,4.71 -0.61,9.47 -0.9,14.36 -5.78,-5.09 -4.99,-16.19 3.29,-29.38 z"
   id="path14"
   inkscape:connector-curvature="0"
   style="stroke-width:3.75951481" />
	<path
   d="m 233.736,341.789 c -1.02,6.53 -2.05,13.07 -3.09,19.62 -3.71,-7.009 -0.95,-13.4 3.09,-19.62 z"
   id="path16"
   inkscape:connector-curvature="0"
   style="stroke-width:3.75951481" />
	<path
   d="m 230.646,361.409 c 0.04,0.08 0.08,0.17 0.13,0.25 -0.06,0.05 -0.13,0.1 -0.19,0.15 0.02,-0.129 0.04,-0.27 0.06,-0.4 z"
   id="path18"
   inkscape:connector-curvature="0"
   style="stroke-width:3.75951481" />
	<path
   d="m 230.776,361.659 -0.21,0.25 c 0.01,-0.03 0.01,-0.07 0.02,-0.1 0.06,-0.05 0.13,-0.099 0.19,-0.15 z"
   id="path20"
   inkscape:connector-curvature="0"
   style="stroke-width:3.75951481" />
	<path
   d="m 229.396,90.489 c 2.07,2.53 2.74,5.16 -1.11,8.65 -2.19,-1.1 -4.03,-2.24 -6.02,-2.99 -6.07,-2.26 -8.31,-1.45 -11.78,4.07 -0.97,1.54 -1.47,3.61 -2.8,4.63 -1.2,0.92 -3.37,1.23 -4.89,0.86 -0.95,-0.23 -1.95,-2.15 -2.1,-3.42 -0.66,-5.23 4.17,-12.89 9.26,-15.13 6.46,-2.84 15.65,-1.31 19.44,3.33 z"
   id="path22"
   inkscape:connector-curvature="0"
   style="stroke-width:3.75951481" />
	<path
   style="fill:#0071bc;stroke-width:3.75951481"
   d="m 151.686,251.539 c 3.82,12.67 3.11,25.47 1.55,38.29 -0.61,5.1 -2.42,10.06 -2.95,15.16 -1.2,11.57 -8.21,19.16 -17.81,27.35 -1.19,-10.46 -2.23,-19.66 -3.28,-28.86 -0.68,-0.04 -1.36,-0.07 -2.05,-0.1 0,4.3 -0.07,8.61 0.02,12.92 0.1,4.79 0.09,9.6 0.58,14.35 0.55,5.28 -0.13,9.59 -7.24,11.71 -0.94,-8.75 -1.86,-17.3 -2.78,-25.84 -0.43,0.03 -0.86,0.06 -1.28,0.1 0,9.43 0,18.86 0,28.11 -7.66,2.56 -8.27,2.41 -9,-3.82 -1.04,-9 -1.69,-18.04 -3.71,-26.94 0,9.5 0,19.01 0,26.52 -5.8,7.23 -10.68,13.32 -15.64,19.51 -2.45,-1.05 -5.73,-3.75 -7.96,-3.05 -2.55,0.79 -4.25,4.53 -6.15,7.12 -2.11,2.9 -4.02,5.94 -8.27,8.54 0,-2.94 -0.14,-5.89 0.04,-8.82 0.18,-3.1 0.3,-6.57 -3.61,-6.61 -1.8,-0.01 -4.28,2.43 -5.31,4.36 -6.42,11.99 -12.44,24.2 -18.77,36.24 -1.62,3.06 -3.89,5.78 -7.68,7.78 2.36,-15.16 4.72,-30.33 7.07,-45.5 0.5,-3.28 1.15,-6.54 1.43,-9.84 0.34,-3.96 2.35,-6.01 6.22,-6.4 11.24,-1.16 19,-7.9 24.7,-16.78 18.24,-28.44 23.52,-58.82 12.16,-93.47 -1.27,15.34 -1.99,28.61 -3.56,41.77 -2.07,17.39 -7.17,33.92 -17.62,48.24 -6.58,9.02 -14.8,15.37 -27.86,12.16 1.12,-8.2 2.47,-16.06 3.2,-23.97 1.68,-18.1 -0.23,-35.98 -3.17,-53.87 -3.03,-18.49 -6.27,-37.07 -7.4,-55.74 -1.6,-26.51 10.83,-46.81 32.39,-61.51 17.47,-11.92 36.88,-19.13 58.24,-22.86 -4.89,15.07 -14.07,20.39 -26.41,14.07 1.08,5.07 1.88,8.84 2.99,14.1 10.24,-5.66 18.9,-10.46 27.82,-15.39 -0.34,2.92 -0.6,6.16 -1.11,9.35 -2.82,17.61 -1.13,34.27 8.15,50.11 11.22,19.17 17.69,40.35 24.06,61.51 z m -12.02,65.74 c -1.09,-7.24 2.52,-15.29 -2.98,-23.98 0.29,9.2 -1.58,16.79 2.98,23.98 z m -48.74,-154.1 c 0.71,-0.85 0.24,-3.62 -0.68,-4.69 -3.6,-4.17 -13.17,-5.25 -18.41,-2.45 -6.07,3.23 -10.69,11.95 -8.73,17.43 0.61,1.68 2.73,3.25 4.5,3.87 0.78,0.28 3,-1.73 3.6,-3.12 4.28,-9.81 4.2,-9.85 15.56,-8.79 0.72,-0.35 3,-0.84 4.16,-2.25 z"
   id="path24"
   inkscape:connector-curvature="0" />
	<path
   d="m 136.686,293.299 c 5.5,8.69 1.89,16.74 2.98,23.98 -4.56,-7.19 -2.69,-14.78 -2.98,-23.98 z"
   id="path26"
   inkscape:connector-curvature="0"
   style="stroke-width:3.75951481" />
	<path
   style="fill:#c1272d;stroke-width:3.75951481"
   d="m 133.976,56.029 c 0.39,3.26 0.43,6.62 0.18,9.9 -0.68,8.95 2.08,20.05 -7.08,25.28 -13.03,7.44 -27.31,13.09 -43.01,8.07 -6.56,-2.1 -10.13,-7.11 -9.94,-12.93 0.26,-8.14 6.29,-16.04 14.22,-17.51 4.95,-0.91 10.12,-0.62 16.44,-0.93 0,-3.8 -0.26,-7.41 0.05,-10.96 0.72,-8.28 7.86,-14.13 16.8,-14.06 6.5,0.06 11.38,5.1 12.34,13.14 z"
   id="path28"
   inkscape:connector-curvature="0" />
	<path
   d="m 110.966,423.449 c 0,3.89 0,7.79 0,11.68 -0.19,0.01 -0.38,0.01 -0.57,0.01 0,-3.89 0,-7.79 0,-11.69 0.19,0 0.38,0 0.57,0 z"
   id="path30"
   inkscape:connector-curvature="0"
   style="stroke-width:3.75951481" />
	<path
   d="m 90.246,158.489 c 0.92,1.07 1.39,3.84 0.68,4.69 -1.16,1.41 -3.44,1.9 -4.16,2.25 -11.36,-1.06 -11.28,-1.02 -15.56,8.79 -0.6,1.39 -2.82,3.4 -3.6,3.12 -1.77,-0.62 -3.89,-2.19 -4.5,-3.87 -1.96,-5.48 2.66,-14.2 8.73,-17.43 5.24,-2.8 14.81,-1.72 18.41,2.45 z"
   id="path32"
   inkscape:connector-curvature="0"
   style="stroke-width:3.75951481" />
	<path
   style="fill:#c1272d;stroke-width:3.75951481"
   d="m 90.076,29.039 c 1.16,7.23 4.43,15.67 -1.45,21.1 -7.85,7.25 -18.22,11.11 -29.18,11.65 -6.66,0.33 -11.44,-3.37 -12.7,-8.52 -1.25,-5.1 2.27,-12.69 7.84,-15.82 2.8,-1.57 6.08,-2.26 9.54,-3.5 0.47,-2.72 0.72,-5.64 1.51,-8.4 1.92,-6.66 9.07,-12.04 15.71,-11.91 4.3,0.09 6.79,2.78 7.74,6.64 0.71,2.83 0.53,5.86 0.99,8.76 z"
   id="path34"
   inkscape:connector-curvature="0" />
	<path
   style="fill:#c1272d;stroke-width:3.75951481"
   d="m 48.346,8.319 c 5.52,15.96 -1.7,24.27 -22.47,23.42 -0.99,-0.1 -3.96,-0.13 -6.83,-0.72 -3.77,-0.77 -7.77,-2.66 -7.46,-6.82 0.23,-3.2 2.71,-6.42 4.74,-9.22 0.94,-1.29 3.15,-1.81 4.89,-2.33 3.2,-0.97 5.9,-1.69 6.97,-5.85 1.37,-5.34 5.97,-6.94 11.29,-6.79 5.54,0.16 7.33,3.88 8.87,8.31 z"
   id="path36"
   inkscape:connector-curvature="0" />
</g>
<g
   id="g40"
   transform="translate(0,46.497986)">
</g>
<g
   id="g42"
   transform="translate(0,46.497986)">
</g>
<g
   id="g44"
   transform="translate(0,46.497986)">
</g>
<g
   id="g46"
   transform="translate(0,46.497986)">
</g>
<g
   id="g48"
   transform="translate(0,46.497986)">
</g>
<g
   id="g50"
   transform="translate(0,46.497986)">
</g>
<g
   id="g52"
   transform="translate(0,46.497986)">
</g>
<g
   id="g54"
   transform="translate(0,46.497986)">
</g>
<g
   id="g56"
   transform="translate(0,46.497986)">
</g>
<g
   id="g58"
   transform="translate(0,46.497986)">
</g>
<g
   id="g60"
   transform="translate(0,46.497986)">
</g>
<g
   id="g62"
   transform="translate(0,46.497986)">
</g>
<g
   id="g64"
   transform="translate(0,46.497986)">
</g>
<g
   id="g66"
   transform="translate(0,46.497986)">
</g>
<g
   id="g68"
   transform="translate(0,46.497986)">
</g>
<g
   id="g1003"
   transform="matrix(0.26844387,0,0,0.26844387,2.8841685,269.08831)"
   style="stroke-width:3.72517371"><g
     id="g888"
     style="stroke-width:3.72517371">
	<path
   id="path882"
   d="m 37.999,193.335 c 0.235,-11.729 -0.45,-24.417 0.958,-36.056 0.247,-2.038 0.351,-10.226 2.057,-11.809 2.098,-1.946 4.845,0.496 7.171,0.972 13.548,2.773 27.685,2.856 41.439,2.17 19.853,-0.991 39.811,-1.946 59.697,-1.748 16.798,0.167 33.773,0.538 50.549,-0.361 7.225,-0.387 18.288,-1.235 19.084,8.009 0.612,7.102 -0.636,14.462 -1.603,21.488 -0.482,3.497 -1.252,6.953 -1.708,10.454 -0.282,2.162 0.299,6.017 -0.636,7.858 -1.631,3.209 -6.328,1.038 -9.671,0.681 -13.526,-1.445 -27.271,-1.354 -40.852,-1.722 -15.679,-0.426 -30.879,-0.444 -46.547,0.74 -12.076,0.912 -24.211,1.704 -36.308,2.266 -8.095,0.377 -16.465,0.407 -24.545,-0.272 -2.622,-0.22 -5.462,-0.234 -8.041,-0.719 -2.405,-0.452 -4.527,-1.773 -11.044,-1.951 z"
   style="fill:#a82232;stroke-width:3.72517371"
   inkscape:connector-curvature="0" />
	<path
   id="path884"
   d="m 92.666,96.669 c -7.39,-0.598 -21.066,-4.917 -27.05,1.276 -2.273,2.353 -2.103,6.534 -2.682,9.506 -1.279,6.563 -1.428,12.841 -0.748,19.504 0.517,5.071 1.397,10.071 1.488,15.175 0.038,2.113 -0.401,4.372 1.373,5.899 2.665,2.294 9.144,0.611 12.144,0.461 9.449,-0.473 19.044,-1.409 28.492,-1.503 16.323,-0.162 32.612,0.043 48.942,0.013 6.529,-0.012 13.114,0.132 19.635,0.411 3.881,0.166 8.924,0.952 12.758,-0.142 6.25,-1.782 6.412,-13.693 5.929,-19.026 -0.452,-4.994 -1.301,-10.117 -2.367,-15.008 -1.001,-4.596 -1.428,-10.371 -4.039,-14.444 -2.386,-3.723 -6.96,-3.603 -11.209,-3.886 -10.484,-0.698 -21.179,-0.77 -31.672,-0.326 -9.794,0.415 -19.579,0.83 -29.372,1.163 -3.791,0.129 -7.574,0.135 -11.363,0.235 -4.219,0.112 -9.178,1.676 -10.259,0.692 z"
   style="fill:#a82232;stroke-width:3.72517371"
   inkscape:connector-curvature="0" />
	<path
   id="path886"
   d="m 112.666,58.335 c -3.244,-0.921 -7.151,-0.367 -10.397,0.165 -5.564,0.911 -8.34,1.483 -9.024,7.146 -0.721,5.971 -1.259,12.293 -1.288,18.286 -0.014,2.811 -0.887,13.018 1.253,15.206 2.796,2.858 14.911,0.622 18.01,0.464 10.306,-0.524 20.581,-0.722 30.884,-1.177 8.865,-0.391 18.118,-0.917 26.818,-2.824 0.701,-5.736 -0.363,-11.744 -0.924,-17.544 -0.48,-4.96 0.689,-15.207 -4.117,-18.418 -4.615,-3.084 -14.046,-2.687 -19.25,-2.643 -9.097,0.075 -19.674,2.409 -31.965,1.339 z"
   style="fill:#a82232;stroke-width:3.72517371"
   inkscape:connector-curvature="0" />
</g><g
     id="g896"
     style="stroke-width:3.72517371">
	<path
   id="path890"
   d="m 42.666,148.002 c 0.379,6.931 -6.659,16.734 -0.199,22.422 2.67,2.351 9.065,5.444 12.512,4.089 4.68,-1.839 6.047,-9.053 11.021,-10.784 5.638,-1.962 7.314,4.042 9.342,7.628 2.748,4.861 6.888,3.152 10.884,-0.065 4.826,-3.886 7.331,-8.574 13.572,-6.456 4.753,1.613 8.978,6.899 14.002,7.362 6.924,0.639 12.077,-6.848 18.293,-8.47 6.269,-1.636 7.195,3.818 12.188,5.087 5.356,1.362 8.983,-4.348 14.061,-4.486 6.997,-0.19 5.895,3.813 8.717,8.364 2.215,3.571 6.7,6.183 10.8,3.663 4.094,-2.517 5.198,-9.11 8.962,-11.702 3.786,-2.607 9.476,0.368 13.178,1.996 4.492,1.974 9.946,3.694 13.998,-0.275 3.804,-3.726 3.505,-11.943 -1.2,-14.721 -4.086,-2.412 -9.758,-2.061 -14.346,-2.409 -7.488,-0.568 -15.077,-0.648 -22.584,-0.878 -19.639,-0.601 -39.264,-0.417 -58.911,-0.681 -16.672,-0.224 -32.692,-0.678 -49.291,1.073 -4.549,0.48 -9.21,0.852 -13.79,0.594 -2.929,-0.166 -5.945,-1.29 -11.209,-1.351 z"
   style="fill:#fec368;stroke-width:3.72517371"
   inkscape:connector-curvature="0" />
	<path
   id="path892"
   d="m 78.999,95.335 c -3.702,1.205 -10.604,-0.155 -12.682,3.373 -2.625,4.455 -1.742,17.436 -0.162,22.242 3.062,9.318 9.882,10.991 17.483,5.029 3.138,-2.462 7.067,-9.646 11.286,-9.915 3.753,-0.239 4.855,3.181 6.384,5.769 2.033,3.441 4.822,5.425 8.982,4.835 4.191,-0.595 6.949,-4.104 10.31,-6.616 8.654,-6.469 7.981,3.426 15.73,4.936 8.944,1.743 11.732,-14.21 20.989,-11.639 7.074,1.965 10.473,11.006 17.929,13.325 8.155,2.536 13.954,-5.299 14.11,-12.982 0.072,-3.541 -0.572,-13.042 -3.336,-15.731 -2.047,-1.991 -7.436,-1.296 -9.781,-1.226 -8.852,0.265 -17.717,0.5 -26.575,0.591 -23.407,0.239 -47.139,2.579 -70.667,-1.991 z"
   style="fill:#fec368;stroke-width:3.72517371"
   inkscape:connector-curvature="0" />
	<path
   id="path894"
   d="m 102.999,59.002 c -4.048,-0.183 -7.867,0.403 -9.073,4.118 -0.986,3.035 -1.431,8.972 0.132,11.823 3.033,0.09 5.751,-2.37 8.932,-1.699 3.069,0.648 5.57,3.885 8.101,5.767 2.933,2.182 4.761,3.822 8.334,2.256 4.574,-2.005 7.435,-7.62 12.59,-8.114 4.019,-0.385 5.299,2.614 8.341,4.694 2.78,1.9 7.987,4.395 11.367,3.761 3.949,-0.741 8.826,-5.223 11.864,-7.613 3.383,-2.663 3.213,-7.137 2.16,-11.344 -0.947,-3.782 -2.8,-4.376 -6.684,-4.597 -7.029,-0.399 -14.332,1.91 -21.404,2.213 -6.288,0.27 -12.614,0.065 -18.908,0.068 -4.378,0.002 -10.244,0.721 -15.752,-1.333 z"
   style="fill:#fec368;stroke-width:3.72517371"
   inkscape:connector-curvature="0" />
</g><path
     id="path898"
     d="m 300.999,171.669 c -18.152,0.006 -36.218,-1.875 -54.39,-1.667 -6.165,0.071 -9.046,1.329 -5.698,7.585 2.23,4.166 6.866,10.836 10.744,13.73 2.811,2.098 6.919,2.004 10.325,2.427 6.898,0.858 13.754,1.957 20.69,2.515 15.388,1.238 30.035,-1.056 45.124,-3.606 4.549,-0.769 13.194,0.051 17.062,-2.825 1.465,-1.089 2.652,-4.12 3.71,-5.635 2.115,-3.029 3.604,-6.335 4.538,-9.964 2.489,-9.669 -8.176,-5.257 -14.389,-5.229 -6.782,0.031 -13.508,0.055 -20.28,0.418 -5.721,0.307 -13.629,2.433 -17.436,2.251 z"
     style="fill:#e7e6de;stroke-width:3.72517371"
     inkscape:connector-curvature="0" /><path
     id="path900"
     d="m 246.666,122.335 c -5.603,9.94 -2.68,23.222 -0.667,33.757 0.859,4.495 1.552,11.914 6.13,14.338 2.891,1.531 6.686,0.916 9.839,0.906 4.983,-0.017 9.966,-0.061 14.948,-0.118 9.671,-0.112 19.343,-0.261 29.015,-0.224 14.525,0.057 39.678,6.216 46.574,-10.735 3.55,-8.725 4.813,-18.962 3.177,-28.281 -0.82,-4.672 -5.613,-15.469 -11.412,-12.861 -5.121,2.303 -8.92,9.358 -12.335,13.607 -2.999,3.732 -6.273,7.672 -8.635,11.857 0.404,-5.047 -2.66,-9.458 -5.104,-13.555 -3.852,-6.459 -8.095,-13.171 -13.845,-18.174 -1.187,-1.033 -3.637,-3.613 -5.492,-3.213 -2.387,0.514 -3.992,6.162 -5.063,8.056 -3.242,5.727 -6.459,10.747 -8.22,17.161 -0.917,3.341 -1.411,7.321 -3.003,10.402 -2.755,-5.19 -9.406,-10.211 -13.903,-13.998 -3.35,-2.822 -14.443,-11.809 -22.004,-8.925 z"
     style="fill:#fbb040;stroke-width:3.72517371"
     inkscape:connector-curvature="0" /><path
     id="path902"
     d="m 395.332,97.335 c 0.87,2.901 3.962,5.31 5.497,7.935 3.001,5.131 1.027,8.431 -2.297,13.224 -4.481,6.462 -9.79,12.088 -13.702,18.976 -3.805,6.701 -5,14.504 -5.429,22.125 -0.439,7.798 1.292,15.082 4.941,21.927 1.912,3.586 4.77,10.688 8.911,12.095 2.527,0.859 6.721,0.151 9.409,0.304 4.925,0.28 9.753,1.214 14.691,1.013 8.484,-0.344 16.985,-0.645 25.465,-0.945 4.475,-0.158 10.444,0.858 14.522,-1.215 3.825,-1.944 6.136,-6.268 8.168,-9.795 2.979,-5.17 6.592,-11.122 7.462,-16.854 1.34,-8.824 -0.682,-20.855 -3.158,-29.314 -1.39,-4.749 -2.788,-10.254 -5.279,-14.576 -2.105,-3.651 -5.047,-6.393 -5.458,-10.811 -0.252,-2.705 0.442,-5.366 1.184,-7.955 0.299,-1.043 1.755,-3.733 1.408,-4.774 -0.563,-1.691 -4.964,-1.713 -6.127,-1.736 -4.897,-0.099 -9.602,-0.063 -14.529,-0.456 -10.572,-0.843 -21.375,-0.796 -31.976,-0.837 -3.718,-0.015 -9.71,-1.099 -13.703,1.669 z"
     style="fill:#f2f1e8;stroke-width:3.72517371"
     inkscape:connector-curvature="0" /><path
     id="path904"
     d="m 384.999,78.669 c -4.766,-0.586 -8.264,5.002 -10.656,8.343 -3.464,4.839 -4.822,11.422 -3.96,17.347 1.085,7.459 6.479,15.009 14.226,15.902 5.506,0.634 12.94,-0.56 16.157,-5.55 3.19,-4.947 -1.95,-9.682 -4.436,-13.849 -1.446,-2.422 -2.593,-2.587 0.331,-3.858 3.288,-1.43 8.385,-0.805 11.953,-1.051 0.567,-4.896 -1.955,-11.418 -5.472,-14.795 -4.912,-4.715 -11.121,-3.501 -18.143,-2.489 z"
     style="fill:#f36c3b;stroke-width:3.72517371"
     inkscape:connector-curvature="0" /><path
     id="path906"
     d="m 474.999,118.335 c -4.898,-0.047 -10.037,0.286 -9.495,6.472 0.354,4.041 2.078,6.831 5.832,7 3.709,0.167 6.484,-1.735 9.988,0.522 4.333,2.792 3.732,9.112 2.683,13.497 -0.68,2.843 -1.517,5.444 -3.983,7.273 -1.569,1.163 -4.403,1.238 -5.706,2.645 -1.655,1.787 -1.919,10.808 -0.183,12.399 2.824,2.587 12.034,-1.526 14.407,-3.414 6.207,-4.938 10.901,-15.293 10.546,-23.132 -0.503,-11.125 -13.323,-29.162 -24.089,-23.262 z"
     style="fill:#d2d2ca;stroke-width:3.72517371"
     inkscape:connector-curvature="0" /><path
     id="path908"
     d="m 405.332,126.335 c -4.38,8.678 -7.894,19.111 -9.007,28.826 -0.774,6.756 -2.117,18.033 4.009,22.939 4.532,3.629 12.725,4.642 18.368,5.235 7.085,0.744 14.563,0.448 21.623,-0.324 5.187,-0.567 11.701,-0.346 14.663,-5.369 3.686,-6.252 5.356,-15.954 5.001,-23.147 -0.518,-10.482 -1.876,-22.693 -13.216,-26.175 -7.903,-2.426 -16.916,-3.114 -25.113,-3.724 -5.008,-0.373 -14.378,-1.797 -16.328,1.739 z"
     style="fill:#772020;stroke-width:3.72517371"
     inkscape:connector-curvature="0" /><path
     id="path910"
     d="m 427.666,110.335 c -2.518,6.972 -15.885,50.607 -2.343,51.6 9.46,0.694 9.266,-13.591 11,-19.875 2.029,-7.35 4.578,-15.115 5.318,-22.725 0.747,-7.682 -7.192,-8.845 -13.975,-9 z"
     style="fill:#c96552;stroke-width:3.72517371"
     inkscape:connector-curvature="0" /><path
     id="path912"
     d="m 39.332,200.669 c 4.057,2.566 7.564,7.106 10.736,10.67 6.219,6.987 13.461,12.705 20.254,19.051 12.188,11.385 26.419,20.815 39.576,31.102 13.158,10.288 27.316,19.413 39.611,30.762 15.134,13.971 28.242,29.586 44.416,42.141 8.817,6.845 16.58,14.955 25.503,21.673 6.121,4.609 12.127,9.336 18.159,14.041 3.402,2.654 6.883,6.912 10.74,8.881 4.85,2.476 10.569,-0.304 14.987,-2.696 8.354,-4.524 15.74,-10.899 22.994,-16.952 20.402,-17.022 41.997,-32.697 61.729,-50.517 18.759,-16.942 38.575,-32.76 56.961,-50.13 13.304,-12.569 26.803,-24.467 41.298,-35.648 6.044,-4.662 11.978,-9.44 17.912,-14.247 2.134,-1.729 10.147,-6.731 9.522,-10.434 -0.529,-3.134 -6.331,-2.869 -8.526,-3.032 -10.967,-0.812 -21.993,-1.911 -32.993,-2.033 -19.122,-0.212 -38.285,-0.176 -57.417,-0.318 -16.465,-0.122 -32.97,-0.747 -49.429,-0.081 -14.935,0.604 -29.814,1.45 -44.774,1.43 -7.845,-0.01 -15.619,0.337 -23.449,0.607 -5.604,0.194 -10.307,-2.67 -16.108,-2.556 -21.255,0.418 -42.483,0.314 -63.754,0.284 -16.952,-0.023 -33.881,1.798 -50.797,1.315 -9.465,-0.27 -18.786,1.052 -28.257,0.692 -9.043,-0.344 -17.997,-1.572 -27.087,-1.276 -8.303,0.27 -16.52,-0.15 -24.823,0.759 -3.868,0.426 -10.658,0.501 -6.984,6.512 z"
     style="fill:#00bce9;stroke-width:3.72517371"
     inkscape:connector-curvature="0" /><path
     id="path914"
     d="m 5.999,204.335 c -2.306,8.274 -1.91,17.444 -1.584,25.956 0.232,6.051 -0.251,12.049 -0.108,18.095 0.055,2.343 -0.651,9.948 0.991,11.902 2.588,3.079 10.156,2.478 13.788,2.396 6.663,-0.15 13.242,-1.5 19.884,-1.948 8.029,-0.543 15.711,0.078 23.683,0.524 5.592,0.312 11.749,1.089 17.085,-1.089 4.413,-1.801 3.85,-7.566 2.528,-11.802 -1.143,-3.66 -1.12,-0.874 -4.342,0.19 -7.21,2.381 -13.872,-5.089 -15.075,-11.322 -0.486,-2.52 0.566,-6.446 -2.885,-6.307 -1.956,0.079 -3.453,2.788 -5.4,3.383 -1.945,0.595 -4.12,0.399 -5.915,-0.692 -3.744,-2.275 -5.184,-6.172 -5.324,-10.294 -0.101,-2.974 1.17,-5.497 -2.07,-5.798 -1.429,-0.133 -3.208,1.664 -5.013,1.501 -1.758,-0.159 -3.377,-1.165 -4.527,-2.505 -2.374,-2.766 -2.32,-7.174 -3.368,-10.503 -0.789,-2.505 -1.07,-4.206 -4.227,-4.73 -3.409,-0.563 -13.048,-0.577 -18.121,3.043 z"
     style="fill:#b76057;stroke-width:3.72517371"
     inkscape:connector-curvature="0" /><path
     id="path916"
     d="m 42.999,355.669 c 0.373,11.308 -0.638,22.698 -0.259,34.06 0.407,12.197 1.602,24.336 1.916,36.533 0.157,6.102 -1.31,18.308 2.396,23.705 3.751,5.463 12.691,2.698 18.209,2.703 6.01,0.005 11.862,0.672 17.852,0.666 2.182,-0.002 4.402,0.58 5.821,-1.288 2.707,-3.56 0.985,-13.667 1.14,-17.79 0.407,-10.86 0.605,-21.796 0.591,-32.665 -0.026,-20.949 1.573,-42.007 0.983,-62.897 -0.583,-20.641 -1.717,-41.478 -0.964,-62.102 0.091,-2.501 0.913,-7.358 -0.653,-9.531 -1.513,-2.099 -6.008,-3.061 -8.045,-4.986 -2.96,-2.797 -3.626,-3.181 -8.157,-2.741 -5.752,0.559 -11.594,0.966 -17.386,1.399 -2.835,0.212 -8.989,0.293 -11.026,2.653 -1.465,1.697 -1.051,5.189 -1.167,7.177 -0.271,4.639 -0.592,9.224 -0.583,13.877 0.027,12.882 -0.916,25.698 -1.009,38.565 -0.073,10.116 1.306,20.245 0.341,32.662 z"
     style="fill:#634c3b;stroke-width:3.72517371"
     inkscape:connector-curvature="0" /><path
     id="path918"
     d="m 429.999,260.002 c 16.211,0.527 32.451,-0.531 48.716,0.667 8.4,0.619 26.071,4.139 27.799,-7.67 1.02,-6.969 -1.098,-14.415 -1.356,-21.412 -0.288,-7.831 0.48,-15.633 0.44,-23.458 -0.031,-5.863 -2.144,-6.979 -7.94,-6.8 -2.654,0.082 -10.558,-0.539 -12.464,1.31 -0.829,0.805 -1.011,4.543 -1.36,5.702 -0.778,2.587 -1.615,4.82 -3.58,6.769 -3.944,3.913 -6.544,2.715 -11.562,2.946 -0.16,4.201 -0.132,12.085 -4.189,14.781 -3.273,2.175 -8.525,-1.013 -12.106,-0.807 -1.397,3.872 -1.094,9.88 -4.142,12.919 -2.483,2.476 -7.58,2.967 -10.931,2.394 -2.893,-0.495 -5.603,-2.277 -7.593,0.378 -2.985,3.985 1.112,8.674 0.268,12.281 z"
     style="fill:#b76057;stroke-width:3.72517371"
     inkscape:connector-curvature="0" /><path
     id="path920"
     d="m 419.999,306.335 c 1.144,3.489 0.54,8.011 0.641,11.676 0.206,7.431 -0.316,14.874 -0.307,22.31 0.016,13.83 0.67,27.616 0.666,41.441 -0.007,22.001 0.621,43.938 -0.012,65.895 -0.192,6.668 1.372,7.837 8.118,7.513 8.008,-0.385 15.983,-0.219 23.985,-0.999 2.654,-0.259 13.142,-0.224 15.182,-2.462 0.742,-0.815 0.347,-2.697 0.394,-3.631 0.237,-4.714 0.06,-9.526 -0.242,-14.23 -2.482,-38.731 2.242,-77.368 2.242,-116.132 0,-14.26 0.005,-28.508 -1.491,-42.698 -0.405,-3.841 -0.395,-8.767 -1.675,-12.434 -1.156,-3.311 -1.345,-2.561 -4.765,-1.996 -7.415,1.224 -14.703,0.921 -22.18,1.247 -3.057,0.134 -7.08,-0.519 -10.058,0.218 -6.617,1.637 -8.797,6.436 -9.087,12.59 -0.464,9.818 1.336,20.347 -1.411,31.692 z"
     style="fill:#634c3b;stroke-width:3.72517371"
     inkscape:connector-curvature="0" /><path
     id="path922"
     d="m 350.999,309.335 c -1.362,1.582 -3.192,2.552 -4.891,3.732 -4.693,3.26 -8.794,7.233 -13.267,10.771 -9.123,7.216 -18.446,14.199 -27.503,21.485 -9.241,7.434 -18.978,14.491 -28.155,21.683 -8.791,6.89 -18.783,14.846 -30.696,9.86 -13.15,-5.505 -22.809,-17.818 -33.901,-26.379 -13.669,-10.55 -27.623,-21.19 -40.416,-32.824 -10.288,-9.356 -19.41,-18.953 -28.904,-29.069 -5.682,-6.054 -11.671,-12.12 -17.924,-17.592 -6.555,-5.737 -13.045,-11.453 -20.035,-16.654 -8.729,-6.494 -18.164,-11.877 -26.798,-18.521 -13.199,-10.158 -25.12,-21.098 -36.868,-32.832 -3.54,-3.536 -6.664,-8.216 -10.727,-3.323 -5.067,6.103 -3.172,14.688 3.914,18.193 5.336,2.64 10.912,-4.077 9.513,4.202 -0.483,2.861 -0.604,7.596 2.302,9.557 2.647,1.787 6.498,0.015 9.278,-0.631 1.971,-0.458 5.618,-1.623 7.023,0.613 1.322,2.105 -0.705,6.55 0.704,9.32 4.082,8.026 10.931,1.796 17.196,3.859 7.223,2.378 1.111,9.117 2.538,14.239 1.793,6.441 9.842,8.361 15.6,7.26 1.931,-0.369 6.245,-2.699 8.047,-0.971 1.518,1.456 -0.426,7.698 -0.613,9.337 -1.06,9.281 4.389,11.853 12.748,11.349 3.482,-0.21 6.026,-1.521 7.282,2.297 1.106,3.364 -0.416,7.767 0.537,11.329 1.911,7.145 9.097,4.848 14.446,5.451 10.346,1.166 -1.875,21.546 11.921,21.664 2.785,0.024 5.874,-0.187 8.663,-0.797 1.836,-0.401 3.375,-1.509 5.275,-1.181 0.405,7.313 -2.984,16.107 4.858,20.66 3.464,2.011 6.488,1.024 9.94,-0.729 2.479,-1.259 3.568,-3.141 5.234,-1.308 2.123,2.336 -0.236,8.629 0.045,11.23 0.446,4.134 3.125,6.582 7.098,7.509 3.416,0.797 8.222,0.475 11.552,-0.446 3.6,-0.995 2.931,-1.885 4.308,0.876 3.343,6.7 0.501,16.648 11.416,14.876 4.467,-0.725 10.698,-4.587 14.584,-2.756 3.721,1.753 1.729,4.491 1.667,8.674 -0.09,6.02 5.152,9.046 10.359,10.724 6.929,2.233 15.451,0.38 21.037,-4.591 3.425,-3.048 3.296,-7.204 5.527,-10.587 3.211,-4.868 12.188,1.09 16.649,0.413 8.646,-1.312 8.665,-12.243 10.158,-18.615 4.646,-1.683 11.478,2.128 16.791,1.33 3.676,-0.552 5.933,-2.687 6.833,-6.175 0.567,-2.195 -0.69,-9.492 0.291,-10.875 1.03,-1.451 2.846,0.089 4.651,0.692 4.177,1.397 7.587,1.473 11.371,-1.132 6.576,-4.527 4.261,-12.614 3.041,-19.164 3.917,-0.268 7.87,1.825 11.94,1.412 5.024,-0.51 7.966,-3.26 9.765,-7.765 1.462,-3.66 -0.671,-8.799 0.821,-11.965 1.716,-3.639 8.703,-1.649 11.964,-2.296 3.209,-0.636 5.761,-2.73 6.769,-5.87 1.028,-3.203 -2.273,-7.598 -0.311,-10.21 2.44,-3.247 10.504,0.94 14.267,-0.466 5.424,-2.028 7.067,-9.834 7.753,-14.798 0.249,-1.799 -0.127,-4.563 0.981,-6.11 2.932,-4.095 6.327,0.558 9.546,0.726 13.186,0.689 5.05,-15.207 11.674,-19.71 2.436,-1.656 4.804,1.386 7.398,1.393 4.404,0.012 8.581,-3.99 10.071,-7.854 1.236,-3.207 -0.175,-8.323 3.951,-8.882 3.946,-0.535 6.448,2.887 10.814,0.891 3.567,-1.63 5.019,-6.647 5.827,-10.203 1.045,-4.6 -0.325,-5.626 4.394,-5.331 7.614,0.476 13.306,-7.392 11.327,-14.97 -2.766,-10.588 -10.243,-1.556 -14.615,3.096 -6.714,7.144 -14.389,12.593 -21.956,18.786 -9.772,7.997 -18.978,16.596 -28.833,24.481 -10.119,8.095 -19.466,17.074 -30.154,24.422 -5.087,3.498 -10.362,7.219 -14.959,11.353 -3.792,3.41 -7.413,7.034 -10.727,10.958 -3.977,4.717 -9.067,10.016 -11.406,12.879 z"
     style="fill:#ffd274;stroke-width:3.72517371"
     inkscape:connector-curvature="0" /><path
     id="path924"
     d="m 511.366,249.102 c -0.215,-3.965 -0.022,-7.91 0.111,-11.869 0.3,-8.945 -0.161,-18.188 -0.979,-27.099 -0.417,-4.539 0.628,-11.129 -5.018,-12.674 -3.768,-1.031 -8.684,0.351 -12.523,0.422 -4.411,0.082 -8.019,1.468 -11.003,-1.922 -5.014,-5.696 -4.108,-6.628 -12.527,-7.032 -1.199,-0.058 -2.418,-0.096 -3.644,-0.125 0.664,-0.994 1.314,-2.007 2.003,-3.007 2.606,-3.786 4.997,-7.604 6.414,-12.009 0.167,-0.518 0.296,-1.053 0.443,-1.581 16.877,1.137 29.069,-22.431 26.262,-37.032 -1.682,-8.75 -6.612,-16.602 -15.095,-19.872 -5.65,-2.178 -15.386,-3.031 -20.632,1.354 -1.612,-2.836 -2.907,-5.731 -1.913,-8.878 1.049,-3.324 4.249,-5.442 4.154,-9.03 -0.042,-1.573 -1.018,-2.653 -2.425,-3.185 -4.718,-1.785 -10.987,-1.165 -15.916,-1.092 -7.208,0.108 -14.582,-0.441 -21.803,-0.727 -5.052,-0.201 -10.102,-0.346 -15.151,-0.498 0.389,-2.742 -0.609,-5.983 -1.622,-8.232 -2.118,-4.698 -5.95,-7.734 -10.773,-9.443 -11.289,-4 -23.354,0.896 -29.249,11.208 -5.844,10.221 -4.195,21.719 2.933,30.725 3.233,4.085 6.936,5.897 11.91,6.992 1.057,0.233 2.3,0.383 3.578,0.399 -5.111,7.945 -9.593,16.25 -12.228,25.406 -2.881,10.01 -2.021,20.236 1.851,29.871 1.159,2.884 3.358,7.024 6.202,10.263 -3.843,-0.044 -7.68,-0.132 -11.504,-0.277 -8.294,-0.315 -16.602,-0.479 -24.913,-0.48 4.139,-3.936 6.922,-9.307 7.511,-15.096 0.364,-3.581 0.109,-7.35 -3.251,-8.812 3.136,-4.066 4.761,-10.629 5.566,-15.427 1.072,-6.396 1.353,-11.875 -0.542,-18.137 -1.565,-5.171 -6.993,-22.322 -15.19,-16.027 -7.478,5.742 -13.836,14.193 -18.221,23.026 -0.817,-3.815 -1.74,-7.481 -3.508,-11.157 -2.102,-4.371 -4.584,-8.618 -7.687,-12.359 -2.871,-3.461 -6.684,-8.138 -11.012,-9.776 -3.121,-1.181 -5.517,-0.562 -7.499,1.997 -3.07,3.964 -6.089,8.12 -8.26,12.657 -2.376,4.965 -4.152,10.321 -5.106,15.745 -0.169,0.96 -0.367,1.993 -0.539,3.055 -6.213,-9.528 -16.103,-17.889 -27.277,-20.617 -3.354,-0.819 -7.677,-1.939 -9.372,1.98 -2.042,4.719 -2.507,11.536 -3.047,16.632 -0.682,6.432 0.46,12.721 1.613,19.026 0.694,3.797 1.483,8.086 3.537,11.494 -2.635,-0.29 -5.256,-1.324 -7.885,-0.342 -9.571,3.574 -1.76,16.507 6.433,22.387 -7.411,0.053 -14.831,0.245 -22.123,0.929 -0.298,0.028 -0.596,0.04 -0.894,0.064 0.256,-2.429 0.736,-4.912 0.83,-7.297 0.185,-4.682 -0.012,-9.411 -0.023,-14.095 -0.015,-6.436 1.742,-18.134 -3.267,-23.317 -5.533,-5.725 -16.442,-3.872 -23.736,-3.434 0.158,-5.865 0.664,-11.727 0.566,-17.638 -0.134,-8.079 -0.733,-15.968 -2.077,-23.955 -0.42,-2.498 -1.155,-5.433 -3.173,-7.189 -2.564,-2.232 -5.858,-1.754 -9.01,-1.747 -2.816,0.005 -5.627,0.08 -8.437,0.164 -0.162,-5.731 -0.107,-11.545 -0.314,-17.308 -0.135,-3.734 -0.214,-7.463 -0.648,-11.185 -0.241,-2.071 0,-4.708 -0.686,-6.677 -2.156,-6.196 -12.181,-5.129 -17.247,-4.93 -7.327,0.289 -14.716,-0.1 -22.027,0.333 -8.351,0.495 -16.75,-0.213 -25.08,0.545 -3.561,0.324 -6.791,0.16 -10.334,0.044 -2.878,-0.094 -5.88,0.574 -7.629,3.072 -1.756,2.509 -1.283,5.47 -1.16,8.357 0.159,3.756 0.289,7.519 0.39,11.278 0.141,5.22 -1.022,10.998 -0.058,16.212 -1.378,-0.096 -2.752,-0.188 -4.139,-0.294 -3.891,-0.298 -7.823,-0.407 -11.699,-0.799 -3.493,-0.353 -6.011,-0.481 -8.913,1.821 -6.698,5.315 -4.731,15.958 -4.294,23.437 0.295,5.047 0.251,10.132 0.404,15.189 0.143,4.718 1.215,9.114 1.672,13.713 -2.142,-0.094 -4.28,-0.375 -6.429,-0.991 -3.816,-1.093 -7.624,-2.914 -11.684,-2.883 -11.371,0.089 -7.532,12.698 -7.925,19.691 -0.44,7.834 0.741,15.808 -0.667,23.578 -0.704,3.883 -2.051,8.313 -4.717,11.342 -2.984,3.391 -6.591,2.004 -11.003,1.922 -3.839,-0.071 -8.755,-1.454 -12.523,-0.422 -5.646,1.546 -4.601,8.135 -5.018,12.674 -0.818,8.911 -1.28,18.154 -0.979,27.099 0.133,3.959 0.326,7.904 0.111,11.869 -0.182,3.363 -1.196,6.972 -0.204,10.288 2.039,6.821 10.052,6.927 15.979,6.506 7.947,-0.565 16.002,-0.6 23.966,-0.779 0.518,-0.012 1.034,-0.002 1.551,-0.008 -0.896,4.929 -1.267,10.02 -1.569,14.961 -0.504,8.247 -1.222,16.46 -1.859,24.696 -1.199,15.497 -1.642,30.959 -1.739,46.497 -0.184,29.506 1.656,59.052 2.556,88.538 0.138,4.524 -0.595,11.977 2.714,15.644 3.773,4.181 12.153,2.289 17.129,2.766 6.23,0.597 12.464,0.264 18.687,0.75 5.207,0.407 12.822,2.977 16.122,-2.769 2.793,-4.862 0.995,-12.122 0.979,-17.416 -0.025,-8.336 0.13,-16.683 0.496,-25.011 0.685,-15.597 -0.02,-31.177 0.187,-46.771 0.423,-31.939 -1.021,-63.821 -1.749,-95.737 1.981,0.17 3.949,0.098 5.688,-0.211 1.322,-0.235 2.483,-0.604 3.558,-1.067 -0.841,6.672 -1.943,13.466 3.577,18.629 3.395,3.175 8.516,4.406 13.03,3.606 1.301,-0.23 2.488,-0.638 3.624,-1.172 -0.345,1.785 -0.633,3.567 -0.538,5.296 0.222,4.053 1.565,7.911 4.789,10.531 3.138,2.55 7.927,3.47 11.892,2.933 1.214,-0.164 2.327,-0.573 3.4,-1.089 -0.357,2.215 -0.628,4.503 -0.716,6.717 -0.182,4.561 0.792,9.486 4.097,12.853 4.617,4.702 11.307,3.852 17.035,1.105 -0.655,2.415 -1.265,4.862 -1.002,7.426 0.441,4.304 2.664,8.374 6.172,10.949 3.503,2.571 7.818,2.797 11.917,1.609 1.159,-0.336 2.21,-0.822 3.204,-1.386 -1.367,5.715 -1.378,11.518 3.668,15.476 6.529,5.121 14.087,3.892 20.805,0.607 -0.476,2.008 -0.756,4.053 -0.522,6.198 0.472,4.333 2.9,9.155 6.771,11.328 4.855,2.726 10.261,0.829 15.206,-0.588 2.448,-0.701 5.362,-1.731 7.636,-3.39 -2.762,4.896 -2.326,11.447 0.692,16.222 4.259,6.738 13.268,8.025 20.595,6.969 7.36,-1.06 13.945,-7.094 16.892,-13.775 0.72,-1.633 1.851,-4.759 2.263,-7.778 1.623,0.757 3.332,1.316 4.854,1.752 4.945,1.417 10.352,3.314 15.207,0.588 3.871,-2.174 6.299,-6.995 6.771,-11.328 0.234,-2.145 -0.046,-4.19 -0.522,-6.198 6.719,3.285 14.276,4.513 20.805,-0.607 5.046,-3.957 5.036,-9.76 3.669,-15.476 0.994,0.564 2.045,1.05 3.204,1.386 4.099,1.188 8.413,0.962 11.917,-1.609 3.508,-2.575 5.731,-6.645 6.172,-10.949 0.263,-2.564 -0.347,-5.011 -1.002,-7.426 5.728,2.747 12.418,3.597 17.035,-1.105 3.305,-3.366 4.279,-8.292 4.097,-12.853 -0.088,-2.214 -0.359,-4.503 -0.716,-6.717 1.073,0.516 2.186,0.925 3.4,1.089 3.965,0.537 8.754,-0.383 11.892,-2.933 3.224,-2.62 4.567,-6.478 4.789,-10.531 0.095,-1.729 -0.193,-3.511 -0.538,-5.296 1.135,0.534 2.323,0.942 3.624,1.172 4.514,0.8 9.634,-0.431 13.03,-3.606 5.521,-5.163 4.418,-11.957 3.577,-18.629 1.075,0.463 2.236,0.832 3.558,1.067 1.739,0.309 3.707,0.381 5.688,0.211 -0.729,31.916 -2.173,63.798 -1.749,95.737 0.207,15.594 -0.498,31.175 0.186,46.771 0.366,8.328 0.521,16.675 0.496,25.011 -0.016,5.293 -1.814,12.554 0.979,17.416 3.3,5.746 10.916,3.176 16.122,2.769 6.223,-0.486 12.457,-0.153 18.687,-0.75 4.975,-0.477 13.355,1.415 17.129,-2.766 3.309,-3.667 2.576,-11.12 2.714,-15.644 0.899,-29.486 2.74,-59.032 2.556,-88.538 -0.097,-15.538 -0.54,-31.001 -1.739,-46.497 -0.637,-8.236 -1.355,-16.449 -1.859,-24.696 -0.302,-4.941 -0.673,-10.032 -1.569,-14.961 0.517,0.006 1.034,-0.004 1.551,0.008 7.965,0.178 16.02,0.214 23.966,0.779 5.927,0.421 13.94,0.315 15.979,-6.506 0.99,-3.313 -0.024,-6.923 -0.206,-10.285 z m -32.999,-47.731 c 0.49,0.68 0.895,1.307 1.124,1.698 1.748,2.999 2.063,6.83 0.052,9.811 -3.428,5.081 -7.382,1.266 -11.088,-0.715 3.415,-3.489 6.638,-7.127 9.912,-10.794 z m -9.43,-1.78 c -4.239,7.284 -12.896,12.861 -19.059,17.597 -7.37,5.663 -14.933,11.298 -22.505,16.69 -2.017,1.437 -4.048,2.856 -6.082,4.272 -5.658,-3.207 -10.866,-7.386 -16.332,-10.926 -3.605,-2.335 -7.154,-4.759 -10.696,-7.194 3.674,-2.841 7.364,-5.663 11.086,-8.447 3.715,-2.78 7.267,-5.768 10.977,-8.55 1.061,-0.795 2.107,-1.548 3.12,-2.317 1.239,-0.023 2.478,-0.044 3.716,-0.068 8.988,-0.173 17.986,0.442 26.973,0.209 5.673,-0.147 12.658,-1.81 18.802,-1.266 z m -4.903,28.629 c -2.633,4.202 -8.21,0.661 -11.95,-1.768 3.621,-2.882 7.239,-5.768 10.684,-8.833 0.089,-0.079 0.173,-0.16 0.262,-0.24 1.058,3.544 3.224,7.298 1.004,10.841 z m -22.602,14.978 c -3.124,1.174 -5.629,0.137 -8.063,-1.23 3.556,-2.944 7.054,-5.941 10.603,-8.937 0.249,-0.211 0.507,-0.413 0.758,-0.622 0.592,4.324 1.436,9.01 -3.298,10.789 z M 476.161,147.6 c -0.404,-4.051 -1.371,-8.04 -2.633,-11.953 0.479,-0.014 0.984,-0.028 1.553,-0.001 3.182,0.152 4.256,1.957 5.154,4.728 1.256,3.874 -0.711,7.671 -3.849,9.906 -0.065,-0.9 -0.137,-1.796 -0.225,-2.68 z m 5.38,-25.141 c 7.194,2.246 10.968,9.133 11.649,16.426 0.635,6.804 -2.947,13.707 -7.234,18.828 -2.389,2.854 -5.086,4.772 -8.546,6.008 -0.4,0.143 -0.799,0.267 -1.197,0.388 0.216,-1.932 0.335,-3.883 0.381,-5.832 7.887,-2.651 13.385,-11.71 10.538,-19.803 -1.244,-3.535 -2.973,-7.056 -6.612,-8.594 -2.832,-1.197 -6.293,-0.993 -8.799,0.685 -1.042,-2.694 -2.173,-5.348 -3.33,-7.944 4.351,-0.173 8.646,-1.568 13.15,-0.162 z m -79.03,-37.173 c 1.876,2.102 2.948,4.804 4.034,7.83 -2.888,0.004 -5.781,0.219 -8.668,0.103 -0.242,-0.01 -0.471,-0.023 -0.702,-0.035 0.516,-0.562 1.017,-1.13 1.487,-1.7 1.543,-1.871 2.467,-4.219 3.849,-6.198 z m -7.186,-3.903 c 1.484,0.321 2.736,0.771 3.822,1.324 -1.194,1.84 -2.119,3.874 -3.275,5.734 -0.651,1.048 -1.607,2.122 -2.448,3.246 -0.504,-0.974 -1.048,-1.885 -1.434,-2.603 -1.221,-2.274 -2.433,-5.228 -4.025,-7.735 2.366,-0.489 4.861,-0.505 7.36,0.034 z m -19.278,8.651 c 1.766,-3.054 4.291,-5.438 7.23,-6.995 0.744,1.406 1.671,2.762 2.37,4.05 1.214,2.236 2.876,4.548 3.902,7 -2.577,-1.129 -5.472,-1.702 -8.127,-2.398 -1.61,-0.422 -3.577,-1.042 -5.508,-1.401 0.048,-0.085 0.084,-0.172 0.133,-0.256 z m -2.227,14.932 c -0.85,-3.408 -0.753,-6.952 0.276,-10.385 2.38,0.76 5.048,0.881 7.44,1.47 1.688,0.416 3.527,0.99 5.35,1.222 -4.365,2.379 -10.079,4.166 -13.066,7.693 z m 10.966,4.085 c -0.798,2.509 -1.778,5.116 -2.423,7.746 -2,-1.003 -3.809,-2.626 -5.466,-5.045 -0.695,-1.015 -1.28,-2.065 -1.778,-3.139 2.345,-0.767 4.876,-2.868 6.544,-3.758 2.152,-1.149 4.269,-2.349 6.392,-3.545 -1.321,2.443 -2.398,5.002 -3.269,7.741 z m 2.08,8.99 c 0.94,-2.604 1.349,-5.695 1.999,-7.866 0.921,-3.081 2.946,-6.459 3.847,-9.787 0.49,0.686 1.005,1.365 1.562,2.075 1.143,1.458 3.971,3.48 4.406,5.19 0.676,2.657 -2.156,6.642 -4.563,9.785 -0.053,0.008 -0.105,0.002 -0.158,0.013 -2.583,0.553 -4.934,0.792 -7.093,0.59 z m -4.198,50.247 c -1.676,-10.626 2.016,-20.627 6.809,-30.01 4.306,-8.428 11.152,-15.487 15.149,-24.027 1.386,-2.961 2.568,-6.212 1.177,-9.368 -1.217,-2.762 -3.695,-4.483 -5.947,-6.368 1.915,0.129 4.033,0.252 4.338,0.257 2.714,0.042 5.354,0.304 8.051,0.498 5.877,0.422 11.821,0.591 17.713,0.832 6.085,0.249 12.252,0.9 18.323,0.931 3.46,0.018 7.563,-0.424 11.279,0.039 -0.628,0.899 -1.301,1.796 -1.524,2.249 -0.719,1.46 -1.486,3.021 -2.006,4.566 -0.968,2.876 -0.726,5.158 0.926,7.731 4.949,7.709 8.674,15.974 11.09,24.844 2.29,8.408 2.764,18.048 1.007,26.662 -0.912,4.472 -2.842,8.183 -5.425,11.89 -2.232,3.203 -4.327,6.724 -6.783,9.774 -2.64,0.049 -5.234,0.136 -7.697,0.245 -8.979,0.396 -17.984,0.039 -26.96,0.522 -9.309,0.5 -18.698,0.82 -28.079,0.892 -6.217,-5.979 -10.072,-13.478 -11.441,-22.159 z m -7.823,32.171 c 11.192,0.507 22.409,0.546 33.62,0.421 -2.127,1.714 -4.253,3.423 -6.421,5.051 -4.5,3.378 -8.954,6.803 -13.39,10.254 -1.394,-0.953 -2.789,-1.905 -4.192,-2.844 -6.225,-4.165 -12.417,-8.289 -19.074,-11.744 -1.049,-0.544 -2.108,-1.076 -3.165,-1.609 4.208,0.131 8.416,0.281 12.622,0.471 z m -22.296,-0.737 c 0.012,0 0.024,0.001 0.036,0.001 1.207,0.934 2.313,2.083 3.609,2.864 2.802,1.688 5.664,3.316 8.498,4.96 6.546,3.799 12.635,8.305 18.818,12.649 -0.13,0.103 -0.261,0.203 -0.391,0.305 -10.219,8.073 -20.448,16.224 -30.408,24.65 -6.396,-4.686 -12.734,-9.451 -19.268,-13.956 -3.733,-2.574 -7.381,-5.269 -10.999,-8.005 3.437,-2.901 6.898,-5.774 10.447,-8.561 6.393,-5.021 13.36,-9.663 19.658,-14.907 z m -196.96,12.758 c 3.103,-2.317 6.167,-4.685 9.262,-7.012 1.266,-0.952 2.395,-1.711 3.347,-2.623 0.323,-0.203 0.647,-0.406 0.966,-0.622 1.386,-0.934 3.048,-1.764 4.574,-2.734 0.167,-0.002 0.335,-0.003 0.503,-0.005 2.357,1.494 4.635,2.986 7.174,4.353 3.681,1.982 7.44,3.746 10.859,6.169 3.06,2.168 6.147,4.299 9.235,6.428 -7.338,5.513 -14.682,11.007 -22.098,16.43 -4.188,3.063 -8.327,6.19 -12.426,9.368 -7.092,-5.927 -14.243,-11.782 -21.515,-17.488 -0.977,-0.767 -1.969,-1.52 -2.951,-2.282 4.352,-3.335 8.675,-6.701 13.07,-9.982 z m -17.745,6.365 c -4.468,-3.435 -8.946,-6.858 -13.398,-10.292 -3.588,-2.768 -8.053,-5.534 -12.647,-7.623 8.457,0.019 16.912,-0.088 25.354,-0.471 8.39,-0.38 16.782,-0.637 25.178,-0.809 -4.123,2.924 -8.041,6.503 -11.873,9.477 -4.192,3.254 -8.407,6.482 -12.614,9.718 z m 47.881,17.403 c 7.271,-5.152 14.32,-10.573 21.428,-15.931 2.679,1.831 5.358,3.661 8.038,5.491 5.003,3.415 9.821,7.084 14.699,10.671 -3.31,2.642 -6.6,5.304 -9.847,8.004 -8.499,7.066 -16.984,14.126 -25.35,21.34 -7.552,-6.488 -15.11,-12.972 -22.72,-19.393 4.528,-3.47 9.098,-6.884 13.752,-10.182 z m 38.69,12.606 c 3.54,-2.923 7.147,-5.762 10.774,-8.573 0.534,0.375 1.058,0.764 1.597,1.133 7.584,5.206 15.627,9.653 22.958,15.227 2.034,1.547 4.047,3.13 6.068,4.699 -12.945,10.51 -25.685,21.261 -38.176,32.305 -0.873,-0.716 -1.75,-1.427 -2.622,-2.146 -8.616,-7.105 -17.119,-14.357 -25.604,-21.635 8.291,-7.053 16.603,-14.073 25.005,-21.01 z m 87.646,-25.258 c -0.702,0.604 -1.408,1.2 -2.107,1.808 -12.668,11.015 -26.007,21.334 -39.093,31.846 -2.88,-2.243 -5.774,-4.468 -8.7,-6.651 -6.984,-5.213 -14.615,-9.41 -21.829,-14.283 5.664,-4.309 11.377,-8.555 17.058,-12.835 5.202,-3.92 10.191,-8.139 15.223,-12.272 3.676,-3.019 8.805,-6.042 12.567,-9.701 8.605,7.642 17.642,15.026 26.881,22.088 z m -21.129,-23.96 c 1.212,0.048 2.424,0.091 3.635,0.12 0.589,0.14 1.198,0.161 1.801,0.038 1.033,0.013 2.066,0.017 3.099,0.002 8.631,-0.12 17.25,-0.468 25.883,-0.431 5.477,0.023 10.952,0.081 16.425,0.16 -3.45,2.68 -6.828,5.461 -10.207,8.088 -4.862,3.781 -9.63,7.648 -14.339,11.594 -2.85,-2.201 -5.693,-4.41 -8.538,-6.61 -4.537,-3.507 -9.032,-7.329 -13.873,-10.413 -1.265,-0.804 -2.554,-1.713 -3.886,-2.548 z m -20.002,65.722 c 0.009,-0.008 0.019,-0.015 0.028,-0.023 10.066,7.936 19.974,16.108 29.755,24.355 -11.931,10.063 -23.864,20.126 -35.652,30.354 -0.799,0.694 -1.613,1.383 -2.419,2.075 -0.207,-0.17 -0.413,-0.342 -0.62,-0.513 -9.812,-8.046 -19.706,-15.977 -29.537,-23.99 12.645,-10.969 25.527,-21.6 38.445,-32.258 z m 5.037,-4.096 c 11.826,-9.61 23.856,-18.981 35.527,-28.788 1.945,-1.635 3.878,-3.278 5.809,-4.921 4.254,3.174 8.535,6.285 12.822,9.32 5.867,4.152 11.589,8.489 17.326,12.807 -1.076,0.932 -2.171,1.847 -3.239,2.787 -12.65,11.14 -25.511,22.043 -38.397,32.918 -0.381,-0.312 -0.759,-0.626 -1.143,-0.934 -9.591,-7.694 -19.067,-15.546 -28.705,-23.189 z m 76.168,-122.855 c 0.548,3.298 0.213,6.409 -0.475,9.446 -2.317,-0.091 -4.481,0.474 -7.019,0.402 -1.495,-0.042 -3.007,-0.294 -4.509,-0.646 0.948,-3.721 2.058,-7.385 3.173,-11.044 2.804,0.721 6.049,1.666 8.554,0.428 0.104,0.472 0.198,0.943 0.276,1.414 z m -1.789,14.232 c -1.241,4.009 -2.636,7.99 -2.948,12.209 -3.061,-0.171 -5.775,-0.084 -8.616,-1.529 -0.482,-0.245 -0.97,-0.536 -1.258,-0.994 -1.321,-2.1 0.962,-7.329 1.424,-9.562 1.617,0.428 3.26,0.746 4.926,0.849 2.223,0.137 4.356,-0.364 6.472,-0.973 z m -3.501,-28.818 c 0.546,0.89 1.016,1.82 1.382,2.802 0.787,1.835 1.586,3.754 2.274,5.708 -1.01,-0.056 -2.031,-0.036 -3.075,-0.188 -0.869,-0.126 -1.774,-0.248 -2.677,-0.386 0.768,-2.626 1.482,-5.266 2.096,-7.936 z m -4.293,2.084 c 0.415,-0.425 0.981,-1.155 1.601,-1.909 -1.2,2.244 -2.237,4.567 -3.173,6.938 -0.659,-0.247 -1.351,-0.637 -2.061,-1.02 1.166,-1.366 2.365,-2.71 3.633,-4.009 z m -6.418,7.473 c 0.932,0.85 2.036,1.486 3.215,1.986 -1.196,3.496 -2.249,7.048 -3.304,10.565 -0.047,0.157 -0.087,0.319 -0.134,0.476 -0.724,-0.232 -1.441,-0.467 -2.144,-0.694 -0.345,-0.112 -2.139,-1.179 -4.044,-2.065 1.819,-3.62 3.969,-7.037 6.411,-10.268 z m -9.717,18.168 c 0.364,-1.087 0.768,-2.15 1.189,-3.203 2.057,1.364 4.709,2.251 6.382,2.839 0.175,0.061 0.352,0.122 0.527,0.183 -0.598,2.22 -1.179,4.445 -1.759,6.65 -0.195,0.74 -0.422,1.502 -0.654,2.272 -0.288,-0.09 -0.578,-0.172 -0.86,-0.276 -2.178,-0.798 -4.335,-1.688 -6.486,-2.571 0.484,-1.978 1.008,-3.944 1.661,-5.894 z m -2.865,11 c 0.08,-0.34 0.158,-0.677 0.237,-1.017 1.965,1.579 4.389,2.89 6.948,3.851 -0.082,0.415 -0.155,0.83 -0.211,1.243 -1.049,0.161 -2.085,0.309 -3.099,0.426 -1.84,0.213 -3.686,0.364 -5.537,0.481 0.671,-1.687 1.576,-4.618 1.662,-4.984 z m -6.042,5.194 c -2.614,0.089 -5.231,0.124 -7.845,0.148 0.57,-3.28 0.376,-6.655 0.338,-10.081 -0.011,-1.042 -0.062,-2.079 -0.111,-3.116 1.592,-0.245 3.168,-0.594 4.723,-1.124 1.563,-0.533 3.174,-0.927 4.629,-1.547 -1.347,4.641 -2.927,11.559 -1.734,15.72 z m -0.426,-27.725 c 0.333,1.706 1.301,4.457 1.723,6.806 -3.167,0.8 -6.168,1.785 -9.293,2.485 -0.27,-2.773 -0.631,-5.539 -1.032,-8.31 -0.087,-0.6 -0.166,-1.203 -0.249,-1.805 2.64,-0.569 5.602,-1.499 7.873,-2.892 0.384,1.206 0.727,2.432 0.978,3.716 z m -3.885,-10.585 c 0.302,0.571 0.571,1.142 0.847,1.714 -2.2,0.978 -4.31,1.983 -6.537,2.743 -0.299,-2.183 -0.622,-4.361 -0.996,-6.528 1.669,-0.356 3.275,-0.885 4.568,-1.669 0.741,1.231 1.451,2.48 2.118,3.74 z m -5.974,-9.184 c 0.32,0.372 0.611,0.771 0.914,1.158 -0.882,0.194 -1.762,0.396 -2.645,0.586 -0.271,-1.459 -0.551,-3.007 -0.921,-4.53 0.915,0.9 1.816,1.814 2.652,2.786 z m -2.042,43.767 c -0.06,1.334 -0.302,2.626 -0.499,3.922 -0.463,0.005 -0.926,0.008 -1.388,0.014 -2.612,0.034 -5.216,-0.077 -7.818,-0.222 0.045,-1.554 -0.155,-3.113 -0.152,-4.807 0.004,-2.504 0.193,-4.995 0.212,-7.495 2.674,0.075 5.275,-0.073 7.374,-0.155 0.775,-0.03 1.546,-0.068 2.316,-0.112 0.064,2.939 0.088,5.921 -0.045,8.855 z m -0.231,-13.971 c -0.405,0.039 -0.806,0.086 -1.219,0.109 -2.741,0.154 -5.446,0.242 -8.117,0.116 0.172,-3.499 0.6,-6.992 1.039,-10.467 2.525,0.253 5.005,0.245 7.145,0.064 0.446,3.384 0.878,6.774 1.152,10.178 z m -5.428,-27.486 c 0.247,-1.054 0.608,-2.259 0.966,-3.523 0.214,1.041 0.438,2.077 0.656,3.103 0.04,0.187 0.067,0.375 0.106,0.562 -0.591,0.058 -1.183,0.1 -1.781,0.107 0.019,-0.083 0.033,-0.167 0.053,-0.249 z m -1.095,5.341 c 0.333,0.028 0.667,0.065 0.999,0.074 0.822,0.023 1.761,0.014 2.757,-0.043 0.365,2.33 0.685,4.666 0.984,7.006 -0.773,0.107 -1.562,0.187 -2.392,0.201 -1.15,0.019 -2.318,-0.043 -3.489,-0.139 0.33,-2.372 0.709,-4.742 1.141,-7.099 z m -3.246,-8.42 c 0.542,-0.848 1.123,-1.664 1.721,-2.468 -0.471,1.764 -0.862,3.544 -1.273,5.241 -0.6,-0.161 -1.203,-0.33 -1.805,-0.484 0.432,-0.774 0.878,-1.54 1.357,-2.289 z m -5.172,10.698 c 0.53,-1.437 1.119,-2.852 1.745,-4.249 0.501,0.274 0.931,0.485 1.093,0.56 0.539,0.249 1.096,0.462 1.664,0.647 -0.491,2.43 -0.888,4.891 -1.251,7.348 -1.034,-0.182 -2.06,-0.386 -3.058,-0.627 -0.426,-0.103 -0.827,-0.217 -1.22,-0.329 0.306,-1.161 0.636,-2.29 1.027,-3.35 z m -3.082,11.607 c 0.394,-1.372 0.732,-2.781 1.061,-4.182 1.423,0.674 2.993,1.166 4.612,1.538 -0.007,0.053 -0.015,0.107 -0.022,0.161 -0.479,3.525 -1.031,7.003 -1.39,10.511 -1.799,-0.296 -3.583,-0.724 -5.348,-1.376 0.5,-2.164 0.808,-4.422 1.087,-6.652 z m 3.523,25.65 c -1.378,-0.079 -2.756,-0.148 -4.134,-0.193 1.03,-4.262 0.906,-8.994 0.001,-13.577 1.369,0.642 2.908,1.059 4.513,1.332 0,0.002 0,0.004 0,0.006 -0.113,4.047 -0.986,8.389 -0.38,12.432 z m -10.7,-0.143 c -0.255,0.014 -0.509,0.015 -0.764,0.033 -3.68,0.256 -7.398,0.4 -11.118,0.487 -0.021,-0.092 -0.032,-0.184 -0.066,-0.278 -0.13,-0.369 -0.228,-0.758 -0.331,-1.142 0.23,-0.089 0.465,-0.18 0.685,-0.265 3.031,-1.182 8.955,-3.699 12.196,-7.053 0.092,2.743 -0.482,5.49 -0.602,8.218 z m -4.347,-23.896 c 1.717,2.796 2.953,5.853 3.799,9.023 -0.07,0.064 -0.14,0.132 -0.206,0.212 -3.256,3.974 -7.662,6.623 -12.356,8.627 -0.258,-2.858 -0.363,-5.795 -0.947,-8.431 -0.18,-0.814 -0.382,-1.637 -0.593,-2.463 0.041,-0.019 0.082,-0.036 0.124,-0.055 3.069,-1.449 7.888,-3.697 10.179,-6.913 z m -2.928,-4.137 c -2.081,2.752 -5.237,5.001 -8.643,6.699 -0.837,-2.617 -1.823,-5.193 -2.951,-7.605 2.243,-1.117 4.681,-2.663 6.489,-4.447 1.858,1.647 3.574,3.446 5.105,5.353 z m -10.683,23.843 c -0.577,0.198 -1.153,0.392 -1.729,0.58 -1.689,0.55 -5.685,0.691 -8.71,1.537 -0.192,-0.955 -0.447,-1.895 -0.656,-2.771 -0.659,-2.761 -1.212,-5.532 -1.715,-8.318 3.891,0.131 7.579,-0.547 11.229,-1.787 0.412,1.592 0.77,3.197 1.03,4.826 0.309,1.934 0.386,3.945 0.551,5.933 z m 0.997,-32.726 c -1.46,1.148 -2.85,2.512 -4.326,3.462 -1.571,-2.585 -3.384,-5.062 -5.304,-7.322 -0.191,-0.225 -0.411,-0.516 -0.65,-0.835 3.633,0.961 7.1,2.587 10.28,4.695 z m -14.814,6.027 c 0.337,-2.525 0.831,-5.033 1.316,-7.532 0.039,-0.202 0.072,-0.438 0.104,-0.678 0.358,0.529 0.723,1.052 1.063,1.58 1.213,1.883 2.425,3.857 3.526,5.886 -2.02,0.535 -4.127,0.887 -6.092,1.499 0.027,-0.252 0.049,-0.502 0.083,-0.755 z m 8.208,3.816 c 0.249,0.595 0.485,1.191 0.7,1.79 0.709,1.981 1.412,3.969 2.057,5.973 -1.498,0.503 -2.972,0.902 -4.352,1.181 -1.037,0.21 -3.892,0.082 -6.383,0.368 -0.381,-2.719 -0.604,-5.401 -0.58,-8.104 2.765,0.264 5.935,-0.393 8.558,-1.208 z m -12.968,36.128 c -1.699,-3.75 1.535,-2.761 4.452,-2.832 3.233,-0.078 6.46,-0.098 9.697,-0.092 6.385,0.014 12.753,-0.184 19.135,-0.227 7.322,-0.05 14.378,0.426 21.697,0.919 15.034,1.014 29.517,-1.113 44.392,-2.555 1.768,-0.171 3.647,-0.447 5.429,-0.41 2.527,0.052 1.719,-0.588 2.109,1.295 0.451,2.172 -1.584,6.461 -2.939,8.108 -3.687,4.481 -9.448,6.184 -14.102,9.318 -2.265,0.058 -4.531,0.125 -6.795,0.211 -9.159,-2.284 -18.947,-1.225 -28.389,-1.284 -12.23,-0.076 -24.466,1.056 -36.713,1.107 -2.548,0.011 -5.112,0.007 -7.682,0.005 -0.101,-0.102 -0.198,-0.205 -0.334,-0.292 -0.626,-0.399 -0.412,-1.326 -0.79,-1.964 -0.686,-1.159 -1.909,-2.272 -2.803,-3.243 -2.334,-2.534 -4.916,-4.867 -6.364,-8.064 z m -9.141,23.62 c 9.041,-0.096 18.133,0.09 27.115,0.113 5.061,0.013 10.117,-0.175 15.17,-0.392 -2.564,2.178 -5.048,4.461 -7.444,6.424 -5.526,4.529 -10.967,9.225 -16.76,13.413 -5.821,4.207 -11.575,8.552 -17.256,12.991 -6.083,-4.361 -12.031,-8.906 -18.249,-13.082 -1.439,-0.966 -2.881,-1.967 -4.329,-2.981 0.279,-0.207 0.555,-0.418 0.834,-0.624 3.925,-2.9 8.092,-5.488 11.855,-8.596 3.012,-2.487 6.343,-4.533 9.064,-7.266 z m -11.819,0.322 c 0.324,-0.016 0.649,-0.024 0.974,-0.038 -0.464,0.38 -0.917,0.753 -1.357,1.111 -4.326,3.519 -9.017,6.544 -13.474,9.901 -0.553,0.417 -1.107,0.83 -1.66,1.246 -6.823,-4.824 -13.852,-9.648 -21.363,-13.129 0.424,-0.003 0.847,-0.011 1.271,-0.012 6.243,-0.026 12.48,0.148 18.718,0.292 5.624,0.357 11.209,0.905 16.891,0.629 z M 97.745,72.063 c 0.071,-2.447 0.792,-5.83 0.44,-8.398 0.041,-0.005 0.073,-0.007 0.115,-0.013 0.968,0.395 2.529,0.202 3.549,0.165 3.138,-0.114 6.239,-0.797 9.382,-0.945 7.029,-0.331 14.038,0.088 21.072,-0.349 5.882,-0.366 11.787,0.305 17.666,-0.084 3.055,-0.202 6.083,-0.403 9.15,-0.383 0.324,0.002 1.758,0.122 3.05,0.255 -0.359,2.3 0.719,5.865 0.887,8.145 -5.763,2.118 -9.412,10.309 -16.97,6.817 -3.828,-1.769 -6.044,-6.002 -10.232,-7.185 -3.49,-0.986 -6.865,0.463 -9.619,2.535 -3.426,2.576 -6.373,6.835 -11.268,5.266 -3.257,-1.043 -4.968,-4.73 -8.095,-6.269 -2.989,-1.471 -6.321,-0.965 -9.134,0.608 0.004,-0.055 0.005,-0.11 0.007,-0.165 z m -0.474,9.681 c 0.137,-1.36 0.221,-2.723 0.285,-4.088 1.242,-0.826 2.722,-1.358 4.081,-1.446 2.725,-0.175 3.58,1.311 5.11,3.127 1.686,2.001 3.178,3.814 5.678,4.799 7.035,2.771 12.232,-0.975 17.262,-5.346 2.996,-2.603 4.586,-2.756 7.738,0.048 0.977,0.869 1.775,1.842 2.817,2.649 3.081,2.387 6.868,3.966 10.81,3.774 5.205,-0.253 8.771,-3.35 12.4,-6.471 0.01,0.147 0.015,0.294 0.027,0.442 0.347,4.472 0.021,8.961 0.099,13.418 -1.666,0.018 -3.332,0.021 -5.001,-0.013 -16.264,-0.327 -32.529,0.382 -48.809,0.368 -4.757,-0.004 -9.44,-0.163 -14.123,-0.408 1.001,-3.51 1.27,-7.336 1.626,-10.853 z m -27.052,18.918 c 0.718,-0.478 4.584,0.105 5.38,0.125 9.451,0.239 18.758,1.699 28.229,1.7 8.831,0.001 17.626,-0.3 26.446,-0.457 8.543,-0.152 17.163,0.09 25.724,0.106 8.559,0.017 17.108,-0.297 25.664,-0.276 0.851,0.006 1.701,0.004 2.552,-0.002 0.714,1.849 0.617,4.859 0.871,6.807 0.408,3.129 0.748,6.138 0.912,9.204 -0.624,0.119 -1.244,0.408 -1.803,0.911 -2.952,2.653 -5.942,5.812 -10.299,4.633 -4.582,-1.24 -6.608,-4.81 -8.871,-8.516 -3.375,-5.527 -8.081,-6.845 -14.239,-4.654 -2.704,0.962 -4.977,2.773 -6.791,4.964 -1.817,2.195 -3.225,6.18 -6.188,7.038 -4.522,1.31 -5.271,-4.635 -7.953,-6.84 -2.137,-1.757 -4.926,-2.26 -7.603,-1.574 -2.795,0.717 -4.947,2.571 -6.823,4.668 -2.118,2.368 -4.781,6.819 -8.363,4.161 -2.137,-1.587 -2.491,-5.491 -4.197,-7.549 -1.752,-2.113 -4.181,-3.274 -6.932,-3.062 -6.426,0.496 -9.411,6.301 -12.884,10.765 -4.027,5.177 -10.807,4.372 -13.303,-1.812 -0.104,-0.258 -0.182,-0.541 -0.279,-0.808 -0.027,-4.204 -0.293,-8.394 -0.285,-12.604 0.005,-1.872 -0.809,-5.699 1.035,-6.928 z m -0.797,29.714 c 2.379,1.862 5.445,2.872 9.184,2.492 6.914,-0.703 9.073,-6.098 13.041,-10.787 1.695,-2.004 2.765,-3.216 5.105,-1.975 1.907,1.011 1.94,1.997 2.796,3.753 1.056,2.168 2.423,4.434 4.459,5.815 4.875,3.308 9.76,1.262 13.352,-2.662 1.692,-1.849 3.716,-7.251 6.42,-7.644 3.248,-0.472 4.805,5.498 6.764,7.373 3.87,3.704 9.06,3.308 13.113,-0.006 4.053,-3.314 9.514,-18.187 15.679,-8.512 1.846,2.897 2.622,5.981 5.271,8.414 2.377,2.184 5.664,3.847 8.82,4.508 4.455,0.934 9.004,-0.509 12.468,-3.301 -0.293,5.159 -0.805,10.277 -1.085,15.421 -7.24,0.309 -14.513,0.47 -21.674,-0.229 -10.624,-1.037 -21.456,-1.652 -32.131,-1.897 -9.625,-0.221 -19.77,-0.363 -29.36,0.333 -10.379,0.753 -20.732,2.302 -31.09,3.331 -1.32,0.131 -2.629,0.253 -3.933,0.34 2.029,-4.42 2.63,-9.639 2.801,-14.767 z m -24.637,20.901 c 0.459,-2.276 3.294,-1.395 5.388,-0.861 16.528,4.21 33.643,0.116 50.482,-0.413 8.775,-0.276 17.618,0.783 26.427,0.722 9.233,-0.064 18.729,0.76 27.938,1.442 4.413,0.327 8.808,0.966 13.227,1.203 5.007,0.269 10.034,-0.237 15.043,-0.306 4.378,-0.061 8.749,-0.254 13.124,-0.433 3.854,-0.159 10.181,-1.403 13.879,-0.083 2.951,1.053 2.155,6.614 2.168,9.424 0,0.086 0,0.172 0,0.258 -0.372,0.055 -0.751,0.148 -1.138,0.325 -3.721,1.705 -8.89,3.448 -12.559,1.257 -2.31,-1.38 -3.863,-3.769 -6.396,-4.817 -6.897,-2.853 -10.311,4.702 -12.748,9.645 -2.745,5.567 -7.706,6.685 -10.007,0.064 -0.947,-2.724 -1.296,-5.855 -3.563,-7.866 -2.273,-2.016 -5.205,-2.001 -7.888,-0.848 -4.37,1.878 -8.311,7.515 -13.085,3.95 -2.539,-1.896 -3.889,-4.433 -7.16,-5.206 -3.195,-0.756 -7.028,0.031 -10.003,1.259 -3.203,1.323 -5.76,3.666 -8.598,5.588 -4.623,3.13 -7.297,1.891 -11.042,-1.664 -5.256,-4.99 -10.552,-7.258 -16.997,-2.634 -2.727,1.957 -4.507,4.612 -6.623,7.158 -3.666,4.41 -6.02,0.016 -8.087,-3.267 -3.581,-5.687 -9.246,-7.923 -14.804,-2.814 -3.216,2.956 -4.164,7.329 -8.449,8.984 -3.985,1.539 -6.869,-1.948 -8.452,-5.995 0.385,-3.05 0.777,-6.138 0.626,-9.157 -0.067,-1.361 -0.97,-3.59 -0.703,-4.915 z m -2.504,30.658 c 0.554,-2.936 1.139,-5.791 1.597,-8.695 1.022,1.505 2.323,2.846 3.807,3.707 7.143,4.146 12.919,-2.016 16.721,-7.368 1.21,-1.703 3.084,-4.552 5.555,-2.673 0.99,0.753 1.736,3.171 2.364,4.25 1.647,2.83 3.587,5.709 6.824,6.829 9.44,3.267 10.709,-9.313 17.65,-11.561 4.555,-1.475 7.674,5.098 11.038,7.089 3.274,1.938 7.108,2.691 10.784,1.522 3.218,-1.023 5.843,-3.483 8.399,-5.586 1.902,-1.565 3.84,-3.354 6.348,-3.85 4.432,-0.877 5.36,1.609 7.996,4.001 2.436,2.211 5.097,3.639 8.491,3.1 2.349,-0.373 10.215,-6.766 11.527,-5.902 1.127,0.741 1.482,5.304 1.984,6.589 0.582,1.49 1.345,2.955 2.457,4.127 2.469,2.602 6.145,4.192 9.731,3.791 3.826,-0.428 7.027,-2.875 9.122,-6.006 1.379,-2.061 2.032,-4.405 3.091,-6.622 1.387,-2.903 2.132,-3.068 4.564,-1.179 2.879,2.236 5.772,4.917 9.62,5.143 3.103,0.182 7.219,-0.977 10.514,-2.423 -0.004,2.289 -0.01,4.579 -0.012,6.869 -0.004,4.069 0.044,8.125 -0.521,12.164 -0.091,0.653 -0.192,1.263 -0.285,1.858 -2.942,-0.057 -5.883,-0.137 -8.834,-0.091 -21.336,-1.509 -42.819,-1.666 -64.038,-0.86 -16.25,0.617 -32.733,0.269 -48.968,-0.603 -8.976,-0.482 -17.981,-0.126 -26.96,-0.522 -7.139,-0.315 -14.621,-2.031 -21.735,-0.824 0.498,-2.002 0.751,-4.056 1.169,-6.274 z m 30.586,43.378 c -3.613,-2.686 -7.203,-5.402 -10.747,-8.125 -6.163,-4.736 -14.819,-10.313 -19.059,-17.597 6.144,-0.544 13.129,1.119 18.8,1.266 8.987,0.233 17.985,-0.382 26.973,-0.209 3.096,0.06 6.193,0.113 9.291,0.161 -3.557,2.926 -6.99,6.012 -10.248,9.19 -3.245,3.165 -6.408,6.432 -9.608,9.644 -1.695,1.701 -3.945,3.527 -5.402,5.67 z m 5.762,16.656 c -2.435,1.367 -4.939,2.404 -8.063,1.23 -4.734,-1.78 -3.89,-6.466 -3.298,-10.789 0.251,0.209 0.508,0.412 0.758,0.622 3.549,2.996 7.047,5.993 10.603,8.937 z M 59.914,226.451 c -3.74,2.429 -9.317,5.971 -11.95,1.768 -2.22,-3.543 -0.054,-7.297 1.005,-10.841 0.088,0.079 0.173,0.161 0.262,0.24 3.444,3.065 7.062,5.951 10.683,8.833 z M 32.507,203.068 c 0.228,-0.391 0.634,-1.018 1.124,-1.698 3.274,3.668 6.497,7.305 9.913,10.793 -3.706,1.981 -7.66,5.796 -11.088,0.715 -2.012,-2.98 -1.697,-6.811 0.051,-9.81 z m -3.406,52.466 c -3.169,-0.008 -6.364,-0.132 -9.529,0.039 -2.625,0.142 -6.726,1.239 -9.197,-0.016 l 0.029,-1.498 c 0.362,-1.399 0.279,-3.516 0.31,-4.958 0.06,-2.786 -0.021,-5.639 -0.195,-8.421 -0.448,-7.178 -0.474,-14.216 -0.149,-21.407 0.138,-3.052 0.314,-6.1 0.615,-9.141 0.089,-0.898 0.61,-2.586 0.542,-3.742 3.625,0.648 8.721,0.34 13.128,-0.592 -0.521,3.229 -0.199,6.574 1.071,9.266 1.8,3.813 5.29,6.806 9.506,7.443 1.769,0.267 3.315,0.051 4.763,-0.42 -0.169,0.821 -0.292,1.662 -0.325,2.544 -0.147,3.886 1.131,7.766 4.086,10.384 4.92,4.36 10.812,2.96 16.076,0.305 -0.247,5.344 -0.195,10.453 5.412,13.923 3.414,2.113 7.613,2.402 11.464,1.586 1.096,-0.232 2.243,-0.544 3.36,-0.93 -0.393,2 -0.644,3.908 -0.501,5.967 -10.381,0.05 -20.89,-0.16 -31.286,-0.299 -6.39,-0.086 -12.769,-0.017 -19.18,-0.033 z m 57.14,177.236 c -0.027,3.339 -0.054,6.678 -0.08,10.015 -0.016,2.027 0.574,5.33 -0.023,7.566 -0.815,-0.083 -1.63,-0.169 -2.442,-0.288 -1.636,-0.192 -3.27,-0.403 -4.908,-0.572 -3.286,-0.339 -6.519,-0.228 -9.811,-0.304 -5.88,-0.136 -11.718,-0.878 -17.57,-1.053 -0.298,-0.026 -0.596,-0.053 -0.894,-0.08 -0.208,-0.053 -0.377,-0.087 -0.55,-0.122 -0.061,-1.387 -0.065,-3.218 -0.08,-3.409 -0.278,-3.443 -0.401,-6.854 -0.573,-10.313 -1.335,-26.919 -2.75,-53.995 -2.848,-80.944 -0.059,-16.174 0.183,-32.344 0.957,-48.501 0.395,-8.251 0.441,-16.437 0.275,-24.696 -0.102,-5.061 0.259,-10.033 -0.285,-14.963 5.457,0.072 10.907,0.281 16.379,0.252 5.669,-0.03 12.144,0.116 17.745,-1.28 0.72,1.456 1.705,2.76 3.005,3.836 -0.249,13.478 0.659,26.899 1.123,40.362 0.475,13.791 -0.014,27.582 0.169,41.355 0.18,13.535 0.881,27.05 1.137,40.582 0.269,14.203 -0.613,28.361 -0.726,42.557 z m 12.19,-169.361 c -3.913,0.94 -9.221,-0.081 -10.728,-4.06 -1.355,-3.577 -0.45,-6.713 0.432,-9.863 4.987,3.747 10.058,7.388 14.909,11.306 -1.323,1.173 -2.685,2.154 -4.613,2.617 z m 4.667,-16.494 c -6.083,-4.448 -12.337,-8.666 -18.473,-13.036 -2.785,-1.983 -5.566,-4.007 -8.339,-6.046 1.46,-0.923 2.779,-2.158 4.143,-3.267 3.547,-2.881 6.857,-5.973 10.215,-9.07 4.811,-4.438 9.944,-8.438 15.01,-12.534 1.398,0.899 2.782,1.867 4.12,2.672 3.402,2.046 6.936,3.996 10.135,6.354 4.519,3.331 8.848,6.956 13.246,10.484 -0.833,0.647 -1.673,1.285 -2.502,1.935 -8.943,7.007 -20.244,13.412 -27.555,22.508 z m 17.211,36.903 c -3.836,1.907 -8.678,0.372 -9.927,-3.787 -1.224,-4.076 -0.185,-8.293 0.486,-12.445 4.475,4.139 8.789,8.442 13.272,12.58 -1.138,1.417 -1.949,2.717 -3.831,3.652 z m -12.335,-33.261 c -0.184,-0.142 -0.375,-0.276 -0.559,-0.418 3.361,-2.657 6.451,-5.951 9.669,-8.462 6.275,-4.898 12.672,-9.641 19.071,-14.396 0.538,-0.4 1.068,-0.807 1.604,-1.209 0.234,0.178 0.462,0.365 0.697,0.542 7.016,5.283 13.366,11.341 20.217,16.828 1.12,0.897 2.239,1.793 3.357,2.69 -3.322,2.64 -6.622,5.308 -9.876,8.033 -4.534,3.797 -8.872,7.755 -13.284,11.685 -2.102,1.872 -4.954,3.793 -7.033,6.085 -1.133,-1.035 -2.262,-2.074 -3.376,-3.128 -6.671,-6.308 -13.205,-12.626 -20.487,-18.25 z m 33.969,49.811 c -3.499,1.988 -9.236,3.205 -11.178,-1.619 -1.507,-3.742 -0.207,-7.772 0.56,-11.727 4.112,4.056 8.116,8.208 12.119,12.359 -0.475,0.347 -0.968,0.684 -1.501,0.987 z m -7.104,-25.704 c 0.736,-0.325 1.446,-0.642 1.99,-0.978 2.022,-1.25 3.939,-2.601 5.812,-4.063 4.667,-3.643 9.259,-7.39 13.889,-11.081 3.505,-2.794 7.026,-5.572 10.562,-8.331 3.908,3.165 7.787,6.363 11.585,9.676 3.783,3.3 7.524,6.687 11.262,10.087 -1.126,0.985 -2.26,1.96 -3.381,2.952 -5.453,4.831 -10.847,9.76 -15.925,14.986 -3.714,3.821 -7.622,7.67 -10.816,11.992 -3.823,-3.884 -7.521,-7.858 -11.221,-11.953 -4.277,-4.734 -9.022,-9.009 -13.757,-13.287 z m 14.947,41.623 c -0.033,-2.948 0.277,-6.315 1.077,-9.145 0.012,-0.041 0.026,-0.079 0.038,-0.119 2.866,2.88 5.779,5.718 8.787,8.471 1.522,1.393 3.085,2.721 4.667,4.021 -5.567,4.214 -14.456,7.034 -14.569,-3.228 z m 22.709,24.772 c -4.941,-4.174 -1.935,-10.116 -0.659,-15.567 2.745,2.188 5.461,4.417 8.045,6.84 1.856,1.74 3.752,3.481 5.674,5.207 -4.179,3.029 -9.029,6.925 -13.06,3.52 z m 14.012,-17.88 c -6.097,-5.97 -13.262,-10.461 -19.516,-16.264 -1.551,-1.439 -3.063,-2.896 -4.554,-4.365 4.002,-3.076 7.565,-6.748 11.283,-10.148 5.389,-4.927 10.787,-9.819 16.332,-14.571 1.465,-1.256 2.939,-2.497 4.406,-3.75 6.985,6.349 14.014,12.657 21.347,18.477 2.286,1.814 4.558,3.641 6.83,5.469 -5.761,5.001 -11.626,9.927 -17.02,15.305 -3.118,3.11 -6.082,6.362 -9.245,9.427 -1.5,1.453 -3.066,2.872 -4.463,4.426 -0.164,0.183 -0.335,0.416 -0.509,0.665 -1.666,-1.551 -3.3,-3.113 -4.891,-4.671 z m 5.516,33.82 c -3.21,-2.964 -1.219,-8.702 0.671,-13.256 2.642,2.211 5.323,4.354 8.028,6.39 2.397,1.803 4.875,3.492 7.381,5.141 -5.071,3.171 -11.5,5.954 -16.08,1.725 z m 15.696,-15.41 c -4.398,-3.263 -8.753,-6.896 -12.947,-10.657 0.824,-0.767 1.631,-1.549 2.468,-2.23 3.383,-2.753 6.602,-5.615 9.72,-8.667 6.527,-6.389 13.65,-12.091 20.527,-18.091 7.707,6.245 15.368,12.54 23.052,18.819 2.33,1.905 4.66,3.807 6.987,5.711 -10.666,9.007 -21.621,18.019 -31.314,27.945 -6.035,-4.476 -12.449,-8.345 -18.493,-12.83 z m 19.682,31.686 c -3.388,1.048 -7.933,3.323 -10.659,0.055 -2.947,-3.533 -1.428,-8.244 -0.031,-12.494 2.21,1.433 4.405,2.887 6.551,4.41 2.929,2.08 5.803,4.271 8.721,6.395 -1.304,0.803 -3.617,1.336 -4.582,1.634 z m 39.884,11.893 c -2.44,4.135 -6.659,7.215 -11.462,7.588 -4.649,0.36 -9.967,-0.243 -12.751,-4.384 -0.978,-1.456 -1.487,-3.002 -1.84,-4.579 0.247,-1.516 0.287,-3.046 0.294,-4.585 0.034,0.025 0.067,0.053 0.101,0.078 5.834,4.251 13.595,8.744 20.816,4.75 2.365,-1.308 4.675,-2.922 6.892,-4.714 -0.397,2.146 -1.353,4.664 -2.05,5.846 z m 4.311,-19.171 c -3.338,1.841 -6.466,4.178 -9.959,5.809 -3.355,1.566 -5.108,3.32 -8.767,1.838 -1.355,-0.549 -2.727,-1.234 -4.075,-1.972 -0.079,-0.049 -0.139,-0.106 -0.224,-0.153 -7.019,-3.858 -12.769,-9.463 -18.969,-14.489 -0.083,-0.067 -0.168,-0.129 -0.251,-0.196 11.243,-8.48 22.194,-17.354 33.036,-26.368 3.113,2.567 6.217,5.146 9.295,7.761 2.686,2.281 5.422,4.518 8.215,6.668 2.582,1.988 6.791,4.468 8.998,7.285 -2.21,1.548 -4.391,3.141 -6.499,4.85 -3.637,2.949 -7.125,6.09 -10.8,8.967 z m 23.66,7.334 c -2.726,3.268 -7.271,0.992 -10.659,-0.055 -0.966,-0.298 -3.278,-0.831 -4.582,-1.633 2.918,-2.124 5.792,-4.315 8.721,-6.395 2.146,-1.524 4.341,-2.977 6.551,-4.41 1.397,4.248 2.916,8.959 -0.031,12.493 z m 24.719,-16.332 c -4.58,4.229 -11.009,1.446 -16.08,-1.725 2.506,-1.649 4.984,-3.338 7.381,-5.141 2.705,-2.035 5.386,-4.179 8.028,-6.39 1.89,4.554 3.881,10.292 0.671,13.256 z m 5.516,-33.82 c -6.566,6.43 -13.835,12.936 -21.212,18.41 -3.127,2.32 -6.354,4.474 -9.577,6.632 -3.251,-4.327 -9.233,-7.567 -13.265,-10.721 -4.699,-3.676 -9.295,-7.507 -13.892,-11.327 12.142,-10.172 24.172,-20.484 36.328,-30.604 0.635,-0.529 1.263,-1.065 1.897,-1.594 4.186,3.584 8.334,7.151 12.828,10.422 5.079,3.695 9.038,8.709 13.775,12.804 -2.37,1.889 -4.696,3.837 -6.882,5.978 z m 14.011,17.88 c -4.031,3.405 -8.88,-0.49 -13.061,-3.52 1.922,-1.726 3.818,-3.467 5.674,-5.207 2.585,-2.423 5.3,-4.652 8.045,-6.84 1.277,5.45 4.284,11.393 -0.658,15.567 z m 8.141,-21.544 c 1.582,-1.3 3.145,-2.628 4.667,-4.021 3.008,-2.753 5.921,-5.592 8.787,-8.471 0.012,0.041 0.026,0.078 0.038,0.119 0.8,2.83 1.109,6.197 1.077,9.145 -0.113,10.262 -9.002,7.442 -14.569,3.228 z m 15.758,-31.563 c -5.957,6.594 -11.868,12.907 -18.395,18.962 -2.256,2.093 -4.631,4.013 -7.031,5.896 -5.504,-4.546 -10.113,-10.07 -15.971,-14.241 -3.888,-2.769 -7.488,-5.839 -11.097,-8.913 14.074,-11.88 27.935,-24 41.961,-35.933 1.143,0.85 2.281,1.705 3.431,2.547 4.647,3.401 9.472,6.489 14.084,9.943 2.916,2.184 5.684,4.628 8.625,6.774 -5.339,4.846 -10.771,9.613 -15.607,14.965 z m 17.832,10.797 c -1.943,4.824 -7.679,3.607 -11.178,1.619 -0.533,-0.303 -1.026,-0.639 -1.501,-0.987 4.004,-4.151 8.007,-8.302 12.119,-12.359 0.767,3.955 2.067,7.985 0.56,11.727 z m 20.382,-18.718 c -1.249,4.159 -6.091,5.694 -9.927,3.787 -1.881,-0.935 -2.692,-2.235 -3.832,-3.653 4.483,-4.138 8.797,-8.441 13.272,-12.58 0.672,4.153 1.711,8.37 0.487,12.446 z m 2.409,-29.474 c -7.015,5.418 -13.337,11.48 -19.754,17.558 -7.447,-6.028 -15.222,-11.373 -23.083,-16.868 -0.982,-0.686 -1.947,-1.395 -2.922,-2.091 7.755,-6.544 15.569,-13.021 23.52,-19.342 2.417,-1.922 4.852,-3.816 7.281,-5.719 4.885,3.431 9.77,6.863 14.734,10.183 2.836,1.897 5.762,3.839 8.517,5.853 1.083,0.792 2.019,1.555 2.972,2.208 -3.806,2.67 -7.586,5.377 -11.265,8.218 z m 9.543,12.852 c -1.927,-0.463 -3.289,-1.444 -4.614,-2.617 4.851,-3.918 9.922,-7.558 14.909,-11.306 0.882,3.151 1.787,6.286 0.432,9.863 -1.507,3.979 -6.814,4.999 -10.727,4.06 z m 49.121,170.801 c -0.172,3.459 -0.295,6.87 -0.573,10.313 -0.015,0.191 -0.019,2.022 -0.08,3.409 -0.173,0.036 -0.342,0.07 -0.55,0.122 -0.298,0.027 -0.596,0.054 -0.895,0.08 -5.852,0.175 -11.69,0.917 -17.57,1.053 -3.291,0.076 -6.525,-0.035 -9.81,0.304 -1.639,0.169 -3.272,0.38 -4.908,0.572 -0.811,0.118 -1.626,0.204 -2.442,0.288 -0.597,-2.236 -0.007,-5.539 -0.023,-7.566 -0.026,-3.338 -0.053,-6.677 -0.08,-10.015 -0.113,-14.196 -0.995,-28.353 -0.726,-42.554 0.257,-13.533 0.958,-27.047 1.137,-40.582 0.183,-13.773 -0.306,-27.564 0.169,-41.355 0.464,-13.463 1.372,-26.884 1.123,-40.362 1.301,-1.076 2.285,-2.38 3.005,-3.836 5.6,1.396 12.076,1.25 17.745,1.28 5.471,0.028 10.922,-0.18 16.378,-0.252 -0.545,4.93 -0.183,9.902 -0.285,14.963 -0.166,8.259 -0.12,16.445 0.275,24.696 0.774,16.157 1.016,32.327 0.957,48.501 -0.098,26.947 -1.512,54.022 -2.847,80.941 z m 38.906,-180.15 0.029,1.498 c -2.471,1.255 -6.572,0.158 -9.197,0.016 -3.165,-0.171 -6.36,-0.047 -9.53,-0.039 -6.41,0.016 -12.79,-0.053 -19.181,0.033 -10.396,0.139 -20.905,0.35 -31.286,0.299 0.143,-2.06 -0.108,-3.968 -0.501,-5.967 1.117,0.386 2.264,0.698 3.36,0.93 3.851,0.816 8.05,0.527 11.464,-1.586 5.606,-3.47 5.659,-8.579 5.412,-13.923 5.264,2.656 11.156,4.055 16.076,-0.305 2.955,-2.618 4.233,-6.498 4.086,-10.384 -0.033,-0.882 -0.156,-1.724 -0.325,-2.544 1.448,0.471 2.994,0.687 4.763,0.42 4.216,-0.637 7.707,-3.63 9.506,-7.443 1.27,-2.692 1.593,-6.037 1.071,-9.266 4.408,0.932 9.504,1.24 13.129,0.592 -0.068,1.157 0.454,2.844 0.542,3.742 0.3,3.041 0.477,6.089 0.615,9.141 0.325,7.191 0.299,14.229 -0.149,21.407 -0.173,2.781 -0.255,5.634 -0.195,8.421 0.032,1.442 -0.051,3.558 0.311,4.958 z"
     inkscape:connector-curvature="0"
     style="stroke-width:3.72517371" /><path
     id="path926"
     d="m 411.254,185.024 c 9.386,0.978 18.957,1.136 28.383,1.153 8.721,0.015 13.351,-2.254 18.103,-9.67 4.621,-7.211 6.456,-17.631 6.017,-26.098 -0.354,-6.838 -2.457,-16.281 -8.297,-20.565 -3.812,-2.797 -8.773,-4.266 -13.843,-5.145 0.282,-0.85 0.443,-1.78 0.669,-2.774 0.55,-2.409 1.02,-4.752 1.248,-7.215 0.456,-4.939 -3.505,-5.415 -7.619,-5.961 -3.762,-0.5 -9.043,-2.699 -10.62,2.295 -0.647,2.048 -0.991,4.315 -1.238,6.437 -0.198,1.707 -0.675,3.702 -0.822,5.556 -3.039,-0.075 -6.081,-0.108 -9.107,-0.319 -3.815,-0.266 -7.567,-1.325 -10.724,1.474 -4.277,3.793 -5.991,10.097 -6.737,16.099 -1,2.837 -1.815,5.759 -2.646,8.605 -2.425,8.305 -4.147,17.674 0.271,25.603 3.813,6.839 9.283,9.725 16.962,10.525 z m 16.714,-64.626 c 0.391,-1.939 0.81,-3.871 1.216,-5.806 0.399,-1.901 0.006,-2.453 2.066,-1.989 1.943,0.438 3.929,0.599 5.879,0.999 0.411,0.084 1.076,0.171 1.614,0.328 -0.071,0.145 0.066,0.636 -0.015,1.354 -0.337,2.964 -1.336,5.823 -1.856,8.743 -2.46,-0.283 -4.871,-0.483 -7.109,-0.678 -0.826,-0.072 -1.654,-0.107 -2.482,-0.152 0.316,-0.893 0.501,-1.876 0.687,-2.799 z m -1.534,8.263 c 3.733,0.251 7.448,0.637 11.092,1.239 -0.018,0.112 -0.032,0.217 -0.053,0.333 -0.485,2.789 -1.134,5.488 -1.84,8.235 -0.9,3.502 -1.857,6.975 -3.02,10.401 -0.968,2.85 -1.853,7.833 -4.74,9.381 -3.844,2.061 -6.936,-0.472 -6.766,-4.054 0.167,-3.529 1.328,-7.043 2.105,-10.459 1.061,-4.664 2.913,-10.099 3.222,-15.076 z m -28.158,23.496 c 0.248,-1.18 0.502,-2.374 0.762,-3.572 0.184,-0.184 0.331,-0.417 0.411,-0.713 1.074,-3.964 2.316,-8.137 3.65,-12.023 1.375,-4.004 3.663,-7.654 8.286,-7.639 3.955,0.013 7.975,0.078 11.991,0.272 -3.622,7.328 -5.303,15.643 -6.829,23.592 -0.529,2.755 -1.642,5.965 0.101,8.519 1.678,2.459 4.967,2.933 7.695,3.215 7.474,0.774 9.819,-5.477 11.801,-11.511 1.689,-5.143 3.046,-10.314 4.401,-15.554 0.514,-1.989 1.068,-4.079 1.348,-6.177 3.245,0.494 6.567,1.122 9.28,2.7 3.938,2.29 5.432,6.936 6.524,11.179 2.305,8.948 0.716,20.766 -3.945,28.815 -2.808,4.85 -5.697,7.098 -11.361,7.328 -4.229,0.172 -8.555,0.003 -12.777,-0.212 -7.425,-0.378 -16.173,0.453 -23.301,-1.929 -10.927,-3.649 -9.909,-17.385 -8.037,-26.29 z"
     inkscape:connector-curvature="0"
     style="stroke-width:3.72517371" /><g
     id="g928"
     style="stroke-width:3.72517371">
</g><g
     id="g930"
     style="stroke-width:3.72517371">
</g><g
     id="g932"
     style="stroke-width:3.72517371">
</g><g
     id="g934"
     style="stroke-width:3.72517371">
</g><g
     id="g936"
     style="stroke-width:3.72517371">
</g><g
     id="g938"
     style="stroke-width:3.72517371">
</g><g
     id="g940"
     style="stroke-width:3.72517371">
</g><g
     id="g942"
     style="stroke-width:3.72517371">
</g><g
     id="g944"
     style="stroke-width:3.72517371">
</g><g
     id="g946"
     style="stroke-width:3.72517371">
</g><g
     id="g948"
     style="stroke-width:3.72517371">
</g><g
     id="g950"
     style="stroke-width:3.72517371">
</g><g
     id="g952"
     style="stroke-width:3.72517371">
</g><g
     id="g954"
     style="stroke-width:3.72517371">
</g><g
     id="g956"
     style="stroke-width:3.72517371">
</g></g><text
   xml:space="preserve"
   style="font-style:normal;font-variant:normal;font-weight:normal;font-stretch:normal;font-size:26.66666603px;line-height:1.25;font-family:Odelette;-inkscape-font-specification:'Odelette, Normal';font-variant-ligatures:normal;font-variant-caps:normal;font-variant-numeric:normal;font-feature-settings:normal;text-align:end;letter-spacing:0px;word-spacing:0px;writing-mode:lr-tb;text-anchor:end;fill:#838383;fill-opacity:1;stroke:none;stroke-width:0.99999994"
   x="285.52908"
   y="393.78369"
   id="text1115"><tspan
     sodipodi:role="line"
     id="tspan1072"
     x="285.52908"
     y="393.78369">Ristorante Rifugio</tspan><tspan
     sodipodi:role="line"
     id="tspan1074"
     x="285.52908"
     y="427.11703">Via P. Lomazzo, 67</tspan><tspan
     sodipodi:role="line"
     id="tspan1076"
     x="285.52908"
     y="460.45035">Milano</tspan></text>
<text
   xml:space="preserve"
   style="font-style:normal;font-variant:normal;font-weight:normal;font-stretch:normal;font-size:32px;line-height:1.25;font-family:Odelette;-inkscape-font-specification:'Odelette, Normal';font-variant-ligatures:normal;font-variant-caps:normal;font-variant-numeric:normal;font-feature-settings:normal;text-align:start;letter-spacing:0px;word-spacing:0px;writing-mode:lr-tb;text-anchor:start;fill:#f3795e;fill-opacity:1;stroke:none;stroke-width:0.99999994"
   x="18.432514"
   y="160.34215"
   id="text1115-3"><tspan
     sodipodi:role="line"
     id="tspan1023"
     x="18.432514"
     y="160.34215">La Cerimonia</tspan></text>
<text
   xml:space="preserve"
   style="font-style:normal;font-variant:normal;font-weight:normal;font-stretch:normal;font-size:32px;line-height:1.25;font-family:Odelette;-inkscape-font-specification:'Odelette, Normal';font-variant-ligatures:normal;font-variant-caps:normal;font-variant-numeric:normal;font-feature-settings:normal;text-align:start;letter-spacing:0px;word-spacing:0px;writing-mode:lr-tb;text-anchor:start;fill:#f3795e;fill-opacity:1;stroke:none;stroke-width:0.99999994"
   x="159.10387"
   y="360.93741"
   id="text1115-3-9"><tspan
     sodipodi:role="line"
     id="tspan1043"
     x="159.10387"
     y="360.93741">Il Ricevimento</tspan></text>
<text
   xml:space="preserve"
   style="font-style:normal;font-variant:normal;font-weight:normal;font-stretch:normal;font-size:26.66666603px;line-height:1.25;font-family:Odelette;-inkscape-font-specification:'Odelette, Normal';font-variant-ligatures:normal;font-variant-caps:normal;font-variant-numeric:normal;font-feature-settings:normal;text-align:start;letter-spacing:0px;word-spacing:0px;writing-mode:lr-tb;text-anchor:start;fill:#838383;fill-opacity:1;stroke:none;stroke-width:0.99999994"
   x="18.475182"
   y="191.4584"
   id="text1115-9"><tspan
     sodipodi:role="line"
     id="tspan1078"
     x="18.475182"
     y="191.4584">Sala Consiliare di Cusano Milanino</tspan><tspan
     sodipodi:role="line"
     id="tspan1080"
     x="18.475182"
     y="224.79173">Piazza Martiri di Tienanmen</tspan></text>
<text
   xml:space="preserve"
   style="font-style:normal;font-variant:normal;font-weight:normal;font-stretch:normal;font-size:26.66666603px;line-height:1.25;font-family:Odelette;-inkscape-font-specification:'Odelette, Normal';font-variant-ligatures:normal;font-variant-caps:normal;font-variant-numeric:normal;font-feature-settings:normal;text-align:start;letter-spacing:0px;word-spacing:0px;writing-mode:lr-tb;text-anchor:start;fill:#838383;fill-opacity:1;stroke:none;stroke-width:0.99999994"
   x="18.938587"
   y="124.41889"
   id="text1115-9-2"><tspan
     sodipodi:role="line"
     id="tspan1103"
     x="18.938587"
     y="124.41889">ore 16.00</tspan></text>
</svg>