<?xml version="1.0" encoding="iso-8859-1"?>
<!-- Generator: Adobe Illustrator 19.0.0, SVG Export Plug-In . SVG Version: 6.00 Build 0)  -->
<svg version="1.1" id="Capa_1" xmlns="http://www.w3.org/2000/svg" xmlns:xlink="http://www.w3.org/1999/xlink" x="0px" y="0px"
	 viewBox="0 0 512.002 512.002" style="enable-background:new 0 0 512.002 512.002;" xml:space="preserve">
<rect x="239.27" y="392.69" style="fill:#D5D6E3;" width="33.463" height="93.35"/>
<path style="fill:#FD6064;" d="M256,19.341c-39.333-38.44-104.647,24.348,0,79.198C360.647,43.689,295.333-19.099,256,19.341z"/>
<path style="fill:#F0484A;" d="M239.536,9.167c-36.257-11.564-72.612,39.248,10.221,85.974
	C205.48,55.691,216.675,17.481,239.536,9.167z"/>
<path style="fill:#ABACBC;" d="M239.268,442.613c5.511,0.372,11.096,0.572,16.732,0.572c5.636,0,11.22-0.2,16.732-0.572v-49.924
	h-33.463L239.268,442.613L239.268,442.613z"/>
<path style="fill:#F0484A;" d="M362.897,367.193c0,28.162-47.859,50.992-106.897,50.992s-106.897-22.83-106.897-50.992H362.897z"/>
<path style="fill:#E33D41;" d="M189.103,367.193h-40c0,28.162,47.859,50.992,106.897,50.992c6.836,0,13.52-0.31,20-0.895
	C226.523,412.823,189.103,392.094,189.103,367.193z"/>
<polygon style="fill:#EAEAF1;" points="108.482,210.385 108.482,140.758 123.076,120.922 380.559,120.922 403.518,140.758 
	403.518,210.385 256,239.405 "/>
<polygon style="fill:#CCCDD9;" points="138.482,210.385 138.482,140.758 153.076,120.922 123.076,120.922 108.482,140.758 
	108.482,210.385 256,239.405 271,236.454 "/>
<polygon style="fill:#EAEAF1;" points="434.26,360.554 434.26,263.374 413.092,239.405 103.556,239.405 77.741,263.374 
	77.741,360.554 "/>
<polygon style="fill:#CCCDD9;" points="143.556,239.405 103.556,239.405 77.741,263.374 77.741,360.554 117.741,360.554 
	117.741,263.374 "/>
<path style="fill:#FBBED5;" d="M385.788,96.907H126.212c-18.844,0-34.121,15.276-34.121,34.121l0,0
	c0,8.413,9.005,13.759,16.391,9.73c10.217-5.573,22.565-5.573,32.782,0c10.217,5.573,22.565,5.573,32.782,0s22.565-5.573,32.782,0
	s22.565,5.573,32.782,0s22.565-5.573,32.782,0s22.565,5.573,32.782,0s22.565-5.573,32.782,0s22.565,5.573,32.782,0
	s22.565-5.573,32.782,0c7.386,4.029,16.391-1.317,16.391-9.73l0,0C419.909,112.183,404.633,96.907,385.788,96.907z"/>
<path style="fill:#FAA0C2;" d="M132.091,131.028L132.091,131.028c0-18.845,15.276-34.121,34.121-34.121h-40
	c-18.844,0-34.121,15.276-34.121,34.121l0,0c0,8.413,9.005,13.759,16.391,9.73c8.063-4.397,17.449-5.31,26.072-2.766
	C133.037,136.128,132.091,133.742,132.091,131.028z"/>
<path style="fill:#FBBED5;" d="M412.835,210.385H99.165c-22.771,0-41.231,18.46-41.231,41.231l0,0
	c0,10.166,10.882,16.626,19.807,11.758c12.346-6.734,27.267-6.734,39.613,0s27.267,6.734,39.613,0s27.267-6.734,39.613,0
	s27.267,6.734,39.613,0s27.267-6.734,39.613,0s27.267,6.734,39.613,0s27.267-6.734,39.613,0s27.267,6.734,39.613,0
	s27.267-6.734,39.613,0c8.925,4.868,19.807-1.592,19.807-11.758l0,0C454.066,228.845,435.607,210.385,412.835,210.385z"/>
<path style="fill:#FAA0C2;" d="M97.934,251.616L97.934,251.616c0-22.771,18.46-41.231,41.231-41.231h-40
	c-22.771,0-41.231,18.459-41.231,41.231l0,0c0,10.167,10.882,16.626,19.807,11.758c6.839-3.731,14.469-5.385,22.014-4.982
	C98.607,256.44,97.934,254.143,97.934,251.616z"/>
<path style="fill:#FD6064;" d="M434.737,345.017H77.263c-20.388,0-36.916,16.528-36.916,36.916l0,0h431.307l0,0
	C471.653,361.545,455.125,345.017,434.737,345.017z"/>
<path style="fill:#F0484A;" d="M117.263,345.017h-40c-20.388,0-36.917,16.528-36.917,36.917h40
	C80.347,361.544,96.875,345.017,117.263,345.017z"/>
<path style="fill:#ABACBC;" d="M295.306,467.583h-78.612c-20.388,0-36.916,16.528-36.916,36.916l0,0h152.445l0,0
	C332.222,484.111,315.694,467.583,295.306,467.583z"/>
<path style="fill:#9497A1;" d="M256.694,467.584h-40c-20.388,0-36.916,16.528-36.916,36.917l0,0h40l0,0
	C219.778,484.111,236.306,467.584,256.694,467.584z"/>
<path d="M189.383,287.882c-4.142,0-7.5,3.358-7.5,7.5v12.057c0,4.142,3.358,7.5,7.5,7.5s7.5-3.358,7.5-7.5v-12.057
	C196.883,291.24,193.525,287.882,189.383,287.882z"/>
<path d="M322.617,287.882c-4.142,0-7.5,3.358-7.5,7.5v12.057c0,4.142,3.358,7.5,7.5,7.5s7.5-3.358,7.5-7.5v-12.057
	C330.117,291.24,326.759,287.882,322.617,287.882z"/>
<path d="M281.137,301.764c-3.119-2.726-7.856-2.408-10.583,0.711c-3.541,4.051-8.845,6.374-14.555,6.374
	c-5.709,0-11.014-2.323-14.555-6.374c-2.727-3.119-7.463-3.437-10.583-0.711c-3.119,2.727-3.437,7.464-0.71,10.583
	c6.39,7.31,15.811,11.502,25.848,11.502c10.038,0,19.459-4.192,25.849-11.502C284.574,309.228,284.256,304.49,281.137,301.764z"/>
<path d="M362.216,389.433h109.438c4.142,0,7.5-3.358,7.5-7.5c0-22.101-16.228-40.479-37.394-43.856v-65.58
	c3.311-0.175,6.589-1.141,9.578-2.916c6.405-3.802,10.229-10.518,10.229-17.966c0-26.871-21.861-48.731-48.731-48.731h-1.817
	v-53.403c4.005-0.476,7.749-2.227,10.715-5.076c3.66-3.517,5.676-8.268,5.676-13.377c0-22.95-18.671-41.621-41.621-41.621H285.052
	c10.829-7.973,19.265-16.355,25.196-25.059c10.958-16.084,10.761-29.294,8.666-37.545C314.905,11.022,300.134,0,282.991,0
	C273.532,0,264.15,3.322,256,9.465C247.85,3.322,238.468,0,229.009,0c-17.145,0-31.918,11.022-35.926,26.804
	c-2.095,8.25-2.292,21.46,8.667,37.544c5.931,8.704,14.368,17.086,25.198,25.06H126.212c-22.95,0-41.621,18.671-41.621,41.621
	c0,9.509,7.175,17.361,16.392,18.456v53.401h-1.817c-26.871,0-48.731,21.861-48.731,48.731c0,7.448,3.823,14.164,10.228,17.966
	c2.99,1.775,6.268,2.741,9.579,2.916v65.58c-21.166,3.377-37.394,21.754-37.394,43.856c0,4.142,3.358,7.5,7.5,7.5h109.438
	c13.984,18.02,44.898,30.986,81.984,34.963v35.687h-15.074c-24.491,0-44.417,19.925-44.417,44.417c0,4.142,3.358,7.5,7.5,7.5
	h152.444c4.142,0,7.5-3.358,7.5-7.5c0-24.491-19.925-44.417-44.417-44.417h-15.074v-35.687
	C317.318,420.419,348.232,407.453,362.216,389.433z M207.622,30.496C209.975,21.227,218.57,15,229.009,15
	c5.392,0,13.542,1.684,21.749,9.705c2.915,2.848,7.569,2.848,10.484,0C269.45,16.684,277.6,15,282.991,15
	c10.437,0,19.03,6.227,21.383,15.495c5.364,21.123-20.585,44.087-47.247,58.912h-2.256
	C228.209,74.582,202.258,51.617,207.622,30.496z M99.591,131.028c0-14.679,11.942-26.621,26.621-26.621h259.576
	c14.679,0,26.621,11.942,26.621,26.62c0,3.118-3.285,4.23-5.736,2.925c-12.423-6.591-27.16-6.526-39.528,0.221
	c-8.13,4.435-17.953,4.081-26.035-0.221c-12.147-6.445-26.501-6.508-38.696-0.2c-8.178,4.23-18.205,4.906-26.432,0.421
	c-12.509-6.823-27.444-6.825-39.964,0c-7.843,4.275-17.753,4.277-25.599,0c-12.509-6.823-27.444-6.825-39.964,0
	c-7.844,4.276-17.669,4.323-25.599,0c-12.513-6.825-27.453-6.826-39.965,0C102.539,135.457,99.591,133.712,99.591,131.028z
	 M65.434,251.616c0-18.599,15.132-33.731,33.731-33.731c0,0,50.793,0,50.98,0c9.545,0,9.68-15,0.001-15h-34.163v-57.269
	c7.339-2.582,15.357-1.631,22.185,1.977c12.411,6.56,27.12,6.486,39.469-0.251c8.144-4.416,17.985-4.036,26.094,0.251
	c12.411,6.56,27.12,6.486,39.469-0.251c8.145-4.416,17.984-4.036,26.094,0.251c12.411,6.56,27.12,6.486,39.469-0.25
	c7.904-4.311,17.696-4.311,25.599,0c12.35,6.736,27.058,6.811,39.469,0.25c6.886-3.64,14.775-4.587,22.185-1.977v57.269
	c0,0-215.323,0-215.871,0c-9.516,0-9.738,15-0.001,15h232.689c18.6,0,33.731,15.132,33.731,33.734
	c-0.002,4.424-4.847,7.281-8.715,5.171c-14.473-7.893-32.331-7.891-46.796,0c-9.979,5.442-22.449,5.442-32.431,0
	c-14.65-7.992-32.145-7.992-46.796,0c-9.972,5.436-22.456,5.441-32.43,0c-14.454-7.885-32.332-7.89-46.796,0
	c-9.993,5.451-22.441,5.451-32.431,0c-14.65-7.992-32.144-7.992-46.796,0c-11.984,6.537-23.561,4.031-35.21-1.405
	c-13.882-6.478-30.578-5.926-44.017,1.405C70.249,258.916,65.434,256.009,65.434,251.616z M77.263,352.517h287.002
	c4.142,0,7.5-3.358,7.5-7.5c0-4.039-3.455-7.5-7.5-7.5H85.241v-69.382c1.875-0.735,3.758-1.279,5.733-1.673
	c7.694-1.534,15.902-0.259,22.788,3.496c14.651,7.992,32.145,7.992,46.796,0c10.047-5.48,22.386-5.479,32.431,0
	c14.651,7.992,32.146,7.992,46.796,0c10.153-5.538,22.277-5.538,32.431,0c14.651,7.992,32.145,7.992,46.796,0
	c10.046-5.48,22.386-5.479,32.431,0c8.445,4.606,18.152,6.634,27.728,5.777c6.572-0.589,13.06-2.5,19.068-5.777
	c8.575-4.678,19.239-5.453,28.522-1.823v69.382h-32.749c-4.049,0-7.5,3.447-7.5,7.5c0,4.142,3.358,7.5,7.5,7.5h40.726
	c13.63,0,25.124,9.317,28.448,21.917H48.815C52.14,361.833,63.634,352.517,77.263,352.517z M171.485,389.433h169.029
	c-6.054,4.308-13.754,8.201-22.738,11.435c-38.387,13.818-85.181,13.812-123.553,0C185.24,397.634,177.539,393.741,171.485,389.433z
	 M323.754,497H188.247c3.324-12.6,14.818-21.917,28.448-21.917h78.611C308.935,475.083,320.429,484.4,323.754,497z M265.232,460.083
	h-18.463v-34.582c3.049,0.121,6.128,0.183,9.231,0.183c3.103,0,6.182-0.062,9.231-0.183v34.582H265.232z"/>
<g>
</g>
<g>
</g>
<g>
</g>
<g>
</g>
<g>
</g>
<g>
</g>
<g>
</g>
<g>
</g>
<g>
</g>
<g>
</g>
<g>
</g>
<g>
</g>
<g>
</g>
<g>
</g>
<g>
</g>
</svg>
