<?xml version="1.0" encoding="UTF-8" standalone="no"?>
<!-- Generator: Adobe Illustrator 19.0.0, SVG Export Plug-In . SVG Version: 6.00 Build 0)  -->

<svg
   xmlns:dc="http://purl.org/dc/elements/1.1/"
   xmlns:cc="http://creativecommons.org/ns#"
   xmlns:rdf="http://www.w3.org/1999/02/22-rdf-syntax-ns#"
   xmlns:svg="http://www.w3.org/2000/svg"
   xmlns="http://www.w3.org/2000/svg"
   xmlns:sodipodi="http://sodipodi.sourceforge.net/DTD/sodipodi-0.dtd"
   xmlns:inkscape="http://www.inkscape.org/namespaces/inkscape"
   version="1.1"
   id="Capa_1"
   x="0px"
   y="0px"
   viewBox="0 0 300 200"
   xml:space="preserve"
   sodipodi:docname="le_promesse_di_samuele.svg"
   width="300"
   height="200"
   inkscape:export-filename="C:\Deto\GitHub\100giorni\il-matrimonio-di-claudia-e-samuele.com\html5\assets\images\le_promesse_di_samuele.png"
   inkscape:export-xdpi="96"
   inkscape:export-ydpi="96"
   inkscape:version="0.92.3 (2405546, 2018-03-11)"><metadata
   id="metadata79"><rdf:RDF><cc:Work
       rdf:about=""><dc:format>image/svg+xml</dc:format><dc:type
         rdf:resource="http://purl.org/dc/dcmitype/StillImage" /><dc:title></dc:title></cc:Work></rdf:RDF></metadata><defs
   id="defs77" /><sodipodi:namedview
   pagecolor="#ffffff"
   bordercolor="#666666"
   borderopacity="1"
   objecttolerance="10"
   gridtolerance="10"
   guidetolerance="10"
   inkscape:pageopacity="0"
   inkscape:pageshadow="2"
   inkscape:window-width="1366"
   inkscape:window-height="745"
   id="namedview75"
   showgrid="false"
   inkscape:zoom="1.3037281"
   inkscape:cx="92.802681"
   inkscape:cy="117.47186"
   inkscape:window-x="-8"
   inkscape:window-y="-8"
   inkscape:window-maximized="1"
   inkscape:current-layer="Capa_1" />













<g
   id="g910"
   transform="matrix(0.25,0,0,0.25,88.334198,95.76271)"
   style="stroke-width:4"><path
     inkscape:connector-curvature="0"
     id="path2"
     d="m 426.908,135.03 c -3.72,-21.25 -10.61,-39.69 -18.74,-55.33 -8.12,-15.62 -17.48,-28.44 -26.1,-38.43 l -252.18,0.04 c -17.24,19.99 -37.37,51.26 -44.79,93.72 -3.02,17.3 -3.93,36.46 -1.68,57.47 h 345.17 c 2.25,-21.01 1.34,-40.17 -1.68,-57.47 z"
     style="fill:#eaeaf1;stroke-width:4" /><polygon
     transform="translate(0,-312)"
     id="polygon4"
     points="231.283,504.5 280.716,504.5 265.638,445.314 256.05,430.528 246.36,445.314 "
     style="fill:#f0484a;stroke-width:4" /><polygon
     transform="translate(0,-312)"
     id="polygon6"
     points="225.742,396.754 236.628,420.393 246.36,445.314 265.536,445.314 275.268,420.393 284.513,396.997 256.05,376.623 "
     style="fill:#fd6064;stroke-width:4" /><g
     transform="translate(0,-312)"
     id="g12"
     style="stroke-width:4">
	<path
   inkscape:connector-curvature="0"
   id="path8"
   d="m 222.443,369.806 -26.906,19.858 13.974,34.499 c 3.392,8.373 14.372,10.318 20.432,3.618 l 26.005,-28.744 z"
   style="fill:#d5d6e3;stroke-width:4" />
	<path
   inkscape:connector-curvature="0"
   id="path10"
   d="m 289.556,369.806 26.906,19.858 -13.974,34.499 c -3.392,8.373 -14.372,10.318 -20.432,3.618 l -26.005,-28.744 z"
   style="fill:#d5d6e3;stroke-width:4" />
</g><g
     transform="translate(0,-312)"
     id="g20"
     style="stroke-width:4">
	<rect
   id="rect14"
   height="163.45"
   width="33.987999"
   style="fill:#3a444a;stroke-width:4"
   y="341.04999"
   x="138.939" />
	<rect
   id="rect16"
   height="163.45"
   width="33.987999"
   style="fill:#3a444a;stroke-width:4"
   y="341.04999"
   x="338.95901" />
	<path
   inkscape:connector-curvature="0"
   id="path18"
   d="M 427.603,87.779 C 422.094,81.051 416.126,74.602 409.708,68.474 397.99,57.284 385.181,47.524 371.519,39.288 371.63,39.221 371.592,39.182 371.348,39.182 337.047,18.547 297.367,7.5 255.949,7.5 171.833,7.5 145.861,41.157 85.855,14.568 77.617,10.917 67.974,14.55 64.213,22.739 7.925,145.292 67.696,217.316 67.696,217.316 h 406.506 v -0.11 C 474.121,169.648 457.735,124.539 427.603,87.779 Z"
   style="fill:#3a444a;stroke-width:4" />
</g><path
     inkscape:connector-curvature="0"
     id="path22"
     d="m 104.212,-289.262 c 0.216,-0.47 0.456,-0.922 0.71,-1.361 -6.014,-1.6 -12.325,-3.821 -19.068,-6.809 -8.238,-3.65 -17.881,-0.018 -21.642,8.171 -56.288,122.553 3.483,194.577 3.483,194.577 h 40 c 0,-0.001 -59.77,-72.025 -3.483,-194.578 z"
     style="fill:#2f393b;stroke-width:4" /><path
     inkscape:connector-curvature="0"
     id="path24"
     d="m 439.546,-125.823 c -21.305,2.245 -37.908,20.264 -37.908,42.163 0,23.418 18.984,42.402 42.402,42.402 23.418,0 42.402,-18.984 42.402,-42.402 0,-21.9 -16.603,-39.918 -37.908,-42.163 z"
     style="fill:#f0b795;stroke-width:4" /><path
     inkscape:connector-curvature="0"
     id="path26"
     d="m 446.21,-94.824 c -1.704,-1.433 -25.781,-22.454 -33.978,-72.446 -3.284,-20.029 -20.537,-34.767 -40.833,-34.767 H 140.6 c -20.296,0 -37.549,14.738 -40.832,34.767 -8.499,51.836 -34.082,72.532 -34.082,72.532 0.191,100.422 85.299,181.775 190.263,181.775 104.964,0 190.072,-81.352 190.263,-181.775 l -10e-4,-0.001 h 10e-4 c -10e-4,-0.028 -0.002,-0.057 -0.002,-0.085 z"
     style="fill:#fbcdb0;stroke-width:4" /><path
     inkscape:connector-curvature="0"
     id="path28"
     d="m 148.837,31.182 c -42.308,-42.081 -53.345,-105.95 -29.808,-160.784 4.327,-10.08 8.259,-22.55 10.738,-37.668 3.284,-20.028 20.537,-34.767 40.832,-34.767 h -30 c -20.296,0 -37.549,14.738 -40.832,34.767 -3.176,19.369 -8.737,34.387 -14.457,45.605 -3.523,-2.176 -7.766,-3.622 -12.857,-4.158 h -8.99 c -21.305,2.245 -37.908,20.264 -37.908,42.163 0,23.418 18.984,42.402 42.402,42.402 2.131,0 4.139,-0.161 6.034,-0.465 23.829,74.543 96.272,128.759 181.956,128.759 5.049,0 10.05,-0.192 15,-0.562 -47.855,-3.571 -90.741,-24.09 -122.11,-55.292 z"
     style="fill:#f0b795;stroke-width:4" /><g
     transform="translate(0,-312)"
     id="g34"
     style="stroke-width:4">
	<path
   inkscape:connector-curvature="0"
   id="path30"
   d="m 166.318,288.32 h -27.374 c -4.143,0 -7.5,-3.358 -7.5,-7.5 0,-4.142 3.357,-7.5 7.5,-7.5 h 27.374 c 4.143,0 7.5,3.358 7.5,7.5 0,4.142 -3.356,7.5 -7.5,7.5 z"
   style="fill:#f97f82;stroke-width:4" />
	<path
   inkscape:connector-curvature="0"
   id="path32"
   d="m 373.054,288.32 h -27.375 c -4.143,0 -7.5,-3.358 -7.5,-7.5 0,-4.142 3.357,-7.5 7.5,-7.5 h 27.375 c 4.143,0 7.5,3.358 7.5,7.5 0,4.142 -3.357,7.5 -7.5,7.5 z"
   style="fill:#f97f82;stroke-width:4" />
</g><path
     inkscape:connector-curvature="0"
     id="path36"
     d="m 152.63,-53.222 c 4.142,0 7.5,-3.358 7.5,-7.5 V -80.82 c 0,-4.142 -3.358,-7.5 -7.5,-7.5 -4.142,0 -7.5,3.358 -7.5,7.5 v 20.099 c 0,4.141 3.358,7.499 7.5,7.499 z"
     style="stroke-width:4" /><path
     inkscape:connector-curvature="0"
     id="path38"
     d="m 359.367,-53.222 c 4.142,0 7.5,-3.358 7.5,-7.5 V -80.82 c 0,-4.142 -3.358,-7.5 -7.5,-7.5 -4.142,0 -7.5,3.358 -7.5,7.5 v 20.099 c 0,4.141 3.358,7.499 7.5,7.499 z"
     style="stroke-width:4" /><path
     inkscape:connector-curvature="0"
     id="path40"
     d="m 279.423,-46.142 c -3.119,-2.726 -7.856,-2.408 -10.583,0.711 -3.119,3.569 -7.8,5.616 -12.841,5.616 -5.041,0 -9.722,-2.047 -12.841,-5.616 -2.726,-3.119 -7.464,-3.437 -10.583,-0.711 -3.119,2.726 -3.437,7.464 -0.711,10.583 5.968,6.828 14.766,10.744 24.135,10.744 9.37,0 18.167,-3.916 24.135,-10.744 2.726,-3.119 2.407,-7.857 -0.711,-10.583 z"
     style="stroke-width:4" /><path
     inkscape:connector-curvature="0"
     id="path42"
     d="m 428.588,200 c 3.833,0 7.049,-2.89 7.458,-6.701 2.182,-20.374 1.593,-40.412 -1.75,-59.562 -3.509,-20.044 -10.06,-39.389 -19.472,-57.496 -6.242,-12.006 -13.747,-23.461 -22.336,-34.153 1.029,-0.942 2.053,-1.891 3.063,-2.857 21.852,-20.88 37.975,-45.799 47.635,-73.003 0.285,0.005 0.571,0.016 0.855,0.016 27.517,0 49.903,-22.386 49.903,-49.902 0,-13.211 -5.115,-25.276 -13.551,-34.237 -4.497,-40.66 -20.707,-79.014 -46.988,-111.076 -4.69,-5.729 -9.854,-11.4 -15.347,-16.857 -2.939,-2.92 -7.688,-2.903 -10.606,0.035 -2.919,2.938 -2.903,7.687 0.035,10.606 5.13,5.097 9.946,10.385 14.315,15.721 21.533,26.269 35.796,57.061 41.74,89.849 -2.787,-1.176 -5.709,-2.107 -8.764,-2.774 -5.337,-1.165 -10.599,-0.89 -16.017,-0.89 -0.589,0.062 -8.47,1.704 -8.493,1.65 -0.595,-1.355 -1.168,-2.73 -1.724,-4.123 -4.189,-10.531 -7.079,-21.552 -8.91,-32.729 -0.609,-3.717 -1.619,-7.274 -2.98,-10.632 -7.351,-18.13 -24.963,-30.422 -45.253,-30.422 H 140.6 c -24.048,0 -44.333,17.266 -48.234,41.054 -2.054,12.528 -5.449,24.891 -10.537,36.536 -0.045,0.102 -0.09,0.205 -0.135,0.307 -0.077,-0.022 -0.155,-0.04 -0.232,-0.061 -2.905,-0.809 -5.976,-1.621 -9.009,-1.621 -5.243,0 -10.423,-0.279 -15.554,1.004 -0.082,0.019 -0.165,0.03 -0.246,0.049 -11.622,-33.173 -17.16,-85.203 14.374,-153.862 2.034,-4.43 7.321,-6.424 11.788,-4.444 37.791,16.745 62.857,11.043 94.592,3.824 21.117,-4.804 45.051,-10.249 78.54,-10.249 39.68,0 78.248,10.584 111.534,30.608 5.672,3.412 17.532,11.803 18.045,12.189 3.31,2.489 8.012,1.823 10.502,-1.487 2.489,-3.31 1.823,-8.012 -1.487,-10.502 -6.365,-4.787 -13.338,-9.487 -20.161,-13.552 C 338.951,-300.848 298.02,-312 255.947,-312 c -35.173,0 -59.98,5.644 -81.867,10.623 -30.159,6.861 -51.948,11.818 -85.188,-2.912 -11.927,-5.286 -26.056,0.053 -31.496,11.897 -33.769,73.526 -27.419,129.761 -14.697,165.652 -14.857,8.691 -24.644,24.792 -24.644,43.08 0,27.516 22.386,49.902 49.902,49.902 0.25,0 0.502,-0.01 0.753,-0.014 9.66,27.203 25.783,52.122 47.634,73.001 1.026,0.981 2.065,1.944 3.11,2.9 -15.995,19.961 -34.603,50.738 -41.745,91.609 -3.343,19.145 -3.931,39.183 -1.749,59.559 0.409,3.813 3.625,6.703 7.458,6.703 z M 33.055,-83.66 c 0,-17.409 13.517,-32.656 30.821,-34.663 h 8.164 c 0.859,0.1 1.711,0.236 2.557,0.399 -6.067,10.037 -11.529,15.436 -13.139,16.917 -1.792,1.648 -3.277,3.757 -3.273,6.283 0.011,5.85 0.308,11.702 0.873,17.521 0.928,9.58 2.595,19.01 4.985,28.226 C 46.634,-50.929 33.055,-65.738 33.055,-83.66 Z M 286.545,185 273.46,133.639 l 4.455,-11.407 c 3.621,3.289 8.233,5.083 13.188,5.083 v 0 c 8.103,0 15.3,-4.842 18.335,-12.336 l 12.665,-31.267 c 3.151,-1.069 6.273,-2.211 9.361,-3.434 V 185 Z m -106.113,0 V 80.277 c 3.126,1.238 6.288,2.392 9.479,3.473 l 12.65,31.228 c 3.035,7.493 10.231,12.335 18.334,12.336 10e-4,0 10e-4,0 0.002,0 4.919,0 9.503,-1.765 13.113,-5.011 l 4.489,11.493 L 225.452,185 Z m 91.933,-91.109 c 0.351,-0.028 0.701,-0.064 1.051,-0.093 10.31,-0.86 20.458,-2.469 30.37,-4.82 0,0 -8.248,20.364 -8.25,20.369 -1.282,3.166 -5.597,3.97 -7.92,1.403 z m -47.983,16.859 c -2.323,2.567 -6.627,1.787 -7.919,-1.403 l -8.24,-20.343 c 8.958,2.119 18.108,3.639 27.396,4.543 0.011,0.001 0.022,0.002 0.034,0.003 1.324,0.115 2.648,0.246 3.973,0.35 z m 20.918,-0.765 0.312,-0.345 10.387,-11.48 10.626,11.746 -6.212,15.908 h -8.93 z M 146.443,185 v -50.213 c 0,-4.142 -3.358,-7.5 -7.5,-7.5 -4.142,0 -7.5,3.358 -7.5,7.5 V 185 h -41.18 c -1.258,-16.666 -0.514,-33.01 2.222,-48.679 6.568,-37.581 23.643,-65.971 38.408,-84.478 0.182,0.143 0.368,0.279 0.55,0.421 v 52.779 c 0,4.142 3.358,7.5 7.5,7.5 4.142,0 7.5,-3.358 7.5,-7.5 V 62.885 c 6.132,3.925 12.474,7.491 18.987,10.713 V 185 Z m 94.489,0 11.257,-44.186 h 7.62 L 271.065,185 Z m 105.532,0 V 73.599 c 6.514,-3.222 12.856,-6.789 18.988,-10.713 V 185 Z M 401.513,83.159 c 8.704,16.745 14.762,34.632 18.006,53.161 2.736,15.671 3.48,32.017 2.223,48.68 h -41.29 V 52.264 c 0.202,-0.158 0.408,-0.311 0.61,-0.469 7.864,9.831 14.727,20.353 20.451,31.364 z M 385.187,28.386 c -34.501,32.967 -81.623,51.151 -129.24,51.151 -46.446,0 -92.457,-17.303 -126.73,-48.8 C 107.285,10.581 90.463,-15 81.299,-43.384 c -0.046,-0.199 -0.092,-0.398 -0.155,-0.594 -4.899,-15.326 -7.582,-31.436 -7.921,-47.524 4.073,-4.052 11.87,-12.949 19.241,-27.683 0.015,-0.028 0.029,-0.056 0.051,-0.101 7.233,-14.704 11.986,-30.542 14.639,-46.693 0.004,-0.026 0.01,-0.052 0.014,-0.078 2.705,-16.502 16.765,-28.48 33.431,-28.48 h 230.8 c 15.103,0 28.066,9.837 32.378,23.964 4.097,13.422 5.652,27.423 10.887,40.521 5.623,14.067 13.374,27.583 24.011,38.472 -0.333,16.136 -3.014,32.216 -7.92,47.59 -0.062,0.194 -0.107,0.391 -0.153,0.588 -8.655,26.815 -24.065,51.387 -45.415,71.788 z m 62.662,-77.351 c 2.391,-9.217 4.058,-18.648 4.987,-28.23 0.399,-4.042 0.653,-8.098 0.78,-12.156 0.129,-4.119 0.739,-8.315 -2.707,-11.322 -0.984,-0.859 -6.933,-6.277 -13.561,-17.242 0.863,-0.167 10.774,-0.407 10.774,-0.407 17.373,0.331 30.821,18.36 30.821,34.663 0,17.957 -13.633,32.79 -31.094,34.694 z"
     style="stroke-width:4" /></g>
<g
   id="g44"
   transform="translate(0,-312)">
</g>
<g
   id="g46"
   transform="translate(0,-312)">
</g>
<g
   id="g48"
   transform="translate(0,-312)">
</g>
<g
   id="g50"
   transform="translate(0,-312)">
</g>
<g
   id="g52"
   transform="translate(0,-312)">
</g>
<g
   id="g54"
   transform="translate(0,-312)">
</g>
<g
   id="g56"
   transform="translate(0,-312)">
</g>
<g
   id="g58"
   transform="translate(0,-312)">
</g>
<g
   id="g60"
   transform="translate(0,-312)">
</g>
<g
   id="g62"
   transform="translate(0,-312)">
</g>
<g
   id="g64"
   transform="translate(0,-312)">
</g>
<g
   id="g66"
   transform="translate(0,-312)">
</g>
<g
   id="g68"
   transform="translate(0,-312)">
</g>
<g
   id="g70"
   transform="translate(0,-312)">
</g>
<g
   id="g72"
   transform="translate(0,-312)">
</g>
<text
   xml:space="preserve"
   style="font-style:normal;font-variant:normal;font-weight:normal;font-stretch:normal;font-size:42.66666794px;line-height:1.25;font-family:Odelette;-inkscape-font-specification:'Odelette, Normal';font-variant-ligatures:normal;font-variant-caps:normal;font-variant-numeric:normal;font-feature-settings:normal;text-align:center;letter-spacing:0px;word-spacing:0px;writing-mode:lr-tb;text-anchor:middle;fill:#2f393b;fill-opacity:1;stroke:none"
   x="151.53067"
   y="183.47693"
   id="text869"><tspan
     sodipodi:role="line"
     id="tspan920"
     x="151.53067"
     y="183.47693">Le promesse di Samuele</tspan></text>
</svg>