<?xml version="1.0" encoding="UTF-8" standalone="no"?>
<!-- Generator: Adobe Illustrator 19.0.0, SVG Export Plug-In . SVG Version: 6.00 Build 0)  -->

<svg
   xmlns:dc="http://purl.org/dc/elements/1.1/"
   xmlns:cc="http://creativecommons.org/ns#"
   xmlns:rdf="http://www.w3.org/1999/02/22-rdf-syntax-ns#"
   xmlns:svg="http://www.w3.org/2000/svg"
   xmlns="http://www.w3.org/2000/svg"
   xmlns:sodipodi="http://sodipodi.sourceforge.net/DTD/sodipodi-0.dtd"
   xmlns:inkscape="http://www.inkscape.org/namespaces/inkscape"
   version="1.1"
   id="Capa_1"
   x="0px"
   y="0px"
   viewBox="0 0 300 200"
   xml:space="preserve"
   sodipodi:docname="le_promesse_di_claudia.svg"
   width="300"
   height="200"
   inkscape:export-filename="C:\Deto\GitHub\100giorni\il-matrimonio-di-claudia-e-samuele.com\html5\assets\images\le_promesse_di_claudia.png"
   inkscape:export-xdpi="96"
   inkscape:export-ydpi="96"
   inkscape:version="0.92.3 (2405546, 2018-03-11)"><metadata
   id="metadata87"><rdf:RDF><cc:Work
       rdf:about=""><dc:format>image/svg+xml</dc:format><dc:type
         rdf:resource="http://purl.org/dc/dcmitype/StillImage" /><dc:title></dc:title></cc:Work></rdf:RDF></metadata><defs
   id="defs85" /><sodipodi:namedview
   pagecolor="#ffffff"
   bordercolor="#666666"
   borderopacity="1"
   objecttolerance="10"
   gridtolerance="10"
   guidetolerance="10"
   inkscape:pageopacity="0"
   inkscape:pageshadow="2"
   inkscape:window-width="1366"
   inkscape:window-height="745"
   id="namedview83"
   showgrid="false"
   inkscape:zoom="1.84375"
   inkscape:cx="69.747339"
   inkscape:cy="99.901289"
   inkscape:window-x="-8"
   inkscape:window-y="-8"
   inkscape:window-maximized="1"
   inkscape:current-layer="Capa_1" />




















<g
   id="g919"
   transform="matrix(0.25,0,0,0.25,88.347,95.763)"
   style="stroke-width:4"><path
     inkscape:connector-curvature="0"
     id="path2"
     d="M 37.747,-94.795 V 25.075 C 37.747,59.275 65.472,87 99.672,87 h 90.357 z"
     style="fill:#8a644f;stroke-width:4" /><path
     inkscape:connector-curvature="0"
     id="path4"
     d="m 77.747,25.075 v -72.118 l -40,-47.752 V 25.075 C 37.747,59.275 65.472,87 99.672,87 h 40 C 105.472,87 77.747,59.275 77.747,25.075 Z"
     style="fill:#7c503f;stroke-width:4" /><path
     inkscape:connector-curvature="0"
     id="path6"
     d="M 474.253,-94.795 V 25.075 C 474.253,59.275 446.528,87 412.328,87 H 321.971 Z"
     style="fill:#8a644f;stroke-width:4" /><path
     inkscape:connector-curvature="0"
     id="path8"
     d="M 138.94,138.42 V 192.5 H 83.47 C 81.22,171.49 82.13,152.33 85.15,135.03 92.57,92.57 112.7,61.3 129.94,41.31 l 252.18,-0.04 c 8.62,9.99 17.98,22.81 26.1,38.43 8.13,15.64 15.02,34.08 18.74,55.33 3.02,17.3 3.93,36.46 1.68,57.47 h -55.58 v -54.08 l -117.005,39.01 z"
     style="fill:#fbcdb0;stroke-width:4" /><path
     inkscape:connector-curvature="0"
     id="path10"
     d="m 427.655,-224.221 c -5.509,-6.728 -11.477,-13.177 -17.895,-19.305 -11.718,-11.19 -24.527,-20.95 -38.189,-29.186 0.111,-0.067 0.073,-0.106 -0.171,-0.106 -34.301,-20.635 -73.981,-31.682 -115.4,-31.682 -41.419,0 -81.099,11.047 -115.4,31.682 -13.726,8.258 -26.593,18.055 -38.36,29.292 -6.418,6.128 -12.387,12.577 -17.895,19.305 -30.132,36.76 -46.518,81.869 -46.598,129.426 v 0.11 h 436.506 v -0.11 c -0.08,-47.557 -16.466,-92.666 -46.598,-129.426 z"
     style="fill:#8a644f;stroke-width:4" /><path
     inkscape:connector-curvature="0"
     id="path12"
     d="m 124.345,-224.221 c 5.509,-6.728 11.477,-13.177 17.895,-19.305 11.767,-11.237 24.634,-21.034 38.36,-29.292 28.738,-17.288 61.252,-27.842 95.4,-30.812 -6.611,-0.575 -13.282,-0.87 -20,-0.87 -41.419,0 -81.099,11.047 -115.4,31.682 -13.726,8.258 -26.593,18.055 -38.36,29.292 -6.418,6.128 -12.387,12.577 -17.895,19.305 -30.132,36.76 -46.518,81.869 -46.598,129.426 v 0.11 h 40 v -0.11 c 0.08,-47.557 16.466,-92.666 46.598,-129.426 z"
     style="fill:#7c503f;stroke-width:4" /><g
     transform="translate(0,-312)"
     id="g18"
     style="stroke-width:4">
	<path
   inkscape:connector-curvature="0"
   id="path14"
   d="m 439.598,186.177 c -21.305,2.245 -37.908,20.264 -37.908,42.163 0,23.418 18.984,42.402 42.402,42.402 23.418,0 42.402,-18.984 42.402,-42.402 0,-21.9 -16.603,-39.918 -37.908,-42.163 z"
   style="fill:#dfb297;stroke-width:4" />
	<path
   inkscape:connector-curvature="0"
   id="path16"
   d="m 72.402,186.177 c 21.304,2.245 11.943,20.383 11.943,42.283 0,23.418 6.98,42.283 -16.438,42.283 -23.418,0 -42.402,-18.984 -42.402,-42.402 0,-21.9 16.603,-39.918 37.908,-42.163 h 8.989 z"
   style="fill:#dfb297;stroke-width:4" />
</g><path
     inkscape:connector-curvature="0"
     id="path20"
     d="M 400.016,65.425 C 394.12,56.086 387.951,48.028 382.12,41.27 l -252.18,0.04 c -5.834,6.765 -11.998,14.826 -17.89,24.171 39.995,33.345 90.546,51.556 143.95,51.556 53.434,0 104.011,-18.232 144.016,-51.612 z"
     style="fill:#f0b795;stroke-width:4" /><path
     inkscape:connector-curvature="0"
     id="path22"
     d="M 443.43,-125.823 C 267.501,-125.824 200.029,-205 200.029,-205 c -44.364,50.419 -131.372,79.147 -131.459,79.176 -1.836,10.102 -2.813,20.486 -2.833,31.086 C 65.928,5.685 151.036,87.037 256,87.037 c 104.964,0 190.072,-81.352 190.263,-181.775 h -10e-4 l 10e-4,-0.001 c -0.02,-10.599 -0.997,-20.983 -2.833,-31.084 z"
     style="fill:#fbcdb0;stroke-width:4" /><g
     transform="translate(0,-312)"
     id="g28"
     style="stroke-width:4">
	<path
   inkscape:connector-curvature="0"
   id="path24"
   d="m 166.37,288.32 h -27.375 c -4.142,0 -7.5,-3.358 -7.5,-7.5 0,-4.142 3.358,-7.5 7.5,-7.5 h 27.375 c 4.142,0 7.5,3.358 7.5,7.5 0,4.142 -3.358,7.5 -7.5,7.5 z"
   style="fill:#f9666a;stroke-width:4" />
	<path
   inkscape:connector-curvature="0"
   id="path26"
   d="m 373.107,288.32 h -27.375 c -4.142,0 -7.5,-3.358 -7.5,-7.5 0,-4.142 3.358,-7.5 7.5,-7.5 h 27.375 c 4.142,0 7.5,3.358 7.5,7.5 0,4.142 -3.358,7.5 -7.5,7.5 z"
   style="fill:#f9666a;stroke-width:4" />
</g><path
     inkscape:connector-curvature="0"
     id="path30"
     d="m 256,-277.075 c 175.21,0 217.275,162.668 217.275,162.668 0,0 -70.371,-132.593 -217.275,-132.593 -146.904,0 -217.275,132.593 -217.275,132.593 0,0 42.065,-162.668 217.275,-162.668 z"
     style="fill:#eaeaf1;stroke-width:4" /><path
     inkscape:connector-curvature="0"
     id="path32"
     d="m 38.725,-114.408 c 0,0 20.26,-38.15 61.708,-73.523 6.61,-12.777 14.603,-24.933 23.912,-36.29 5.509,-6.728 11.477,-13.177 17.895,-19.305 4.461,-4.26 9.081,-8.311 13.845,-12.152 -92.244,44.154 -117.36,141.27 -117.36,141.27 z"
     style="fill:#d9d9d9;stroke-width:4" /><path
     inkscape:connector-curvature="0"
     id="path34"
     d="M 373.06,138.42 V 192.5 H 138.94 v -54.08 c 0,-9.64 7.82,-17.45 17.46,-17.45 h 20.55 c 25.97,2.44 59.16,10.79 79.05,35.77 19.89,-24.98 53.08,-33.33 79.05,-35.77 h 20.55 c 9.64,0 17.46,7.81 17.46,17.45 z"
     style="fill:#eaeaf1;stroke-width:4" /><path
     inkscape:connector-curvature="0"
     id="path36"
     d="m 421.478,-179.064 c 4.958,-2.896 9.446,-6.595 13.263,-10.984 -25.772,-34.404 -66.909,-70.168 -130.341,-82.518 -0.077,0.442 -0.155,0.884 -0.221,1.329 -7.434,7.283 -12.443,16.502 -14.519,26.636 57.746,8.335 101.518,37.133 131.818,65.537 z"
     style="fill:#cccdd9;stroke-width:4" /><path
     inkscape:connector-curvature="0"
     id="path38"
     d="m 390.312,-197.283 c 26.958,4.27 43.63,-28.451 24.33,-47.751 v 0 0 c 12.391,-24.319 -13.576,-50.286 -37.895,-37.895 v 0 0 c -19.299,-19.3 -52.02,-2.627 -47.751,24.33 v 0 0 c -24.319,12.391 -18.574,48.662 8.384,52.932 v 0 0 c 4.27,26.958 40.541,32.703 52.932,8.384 z"
     style="fill:#eaeaf1;stroke-width:4" /><circle
     id="circle40"
     r="18.813"
     cy="-239.76001"
     cx="371.47"
     style="fill:#ffe17c;stroke-width:4" /><path
     inkscape:connector-curvature="0"
     id="path42"
     d="m 152.683,-53.222 c 4.142,0 7.5,-3.358 7.5,-7.5 V -80.82 c 0,-4.142 -3.358,-7.5 -7.5,-7.5 -4.142,0 -7.5,3.358 -7.5,7.5 v 20.099 c 0,4.141 3.358,7.499 7.5,7.499 z"
     style="stroke-width:4" /><path
     inkscape:connector-curvature="0"
     id="path44"
     d="m 359.419,-53.222 c 4.142,0 7.5,-3.358 7.5,-7.5 V -80.82 c 0,-4.142 -3.358,-7.5 -7.5,-7.5 -4.142,0 -7.5,3.358 -7.5,7.5 v 20.099 c 0,4.141 3.358,7.499 7.5,7.499 z"
     style="stroke-width:4" /><path
     inkscape:connector-curvature="0"
     id="path46"
     d="m 279.475,-46.142 c -3.118,-2.726 -7.857,-2.408 -10.583,0.71 -3.12,3.569 -7.801,5.616 -12.842,5.616 -5.042,0 -9.722,-2.047 -12.841,-5.616 -2.726,-3.119 -7.465,-3.437 -10.583,-0.711 -3.119,2.726 -3.438,7.464 -0.711,10.583 5.968,6.828 14.765,10.744 24.135,10.744 9.37,0 18.167,-3.916 24.135,-10.744 2.727,-3.117 2.409,-7.856 -0.71,-10.582 z"
     style="stroke-width:4" /><path
     inkscape:connector-curvature="0"
     id="path48"
     d="m 345.16,-239.76 c 0,14.345 11.982,26.313 26.312,26.313 14.343,0 26.313,-11.986 26.313,-26.313 0,-14.339 -11.989,-26.312 -26.313,-26.313 -14.327,10e-4 -26.312,12 -26.312,26.313 z m 18.345,-7.969 c 2.058,-2.057 4.886,-3.344 7.967,-3.344 6.17,0 11.313,5.151 11.313,11.312 0,6.174 -5.143,11.313 -11.313,11.313 -6.172,0 -11.313,-5.146 -11.313,-11.313 0.001,-3.083 1.288,-5.911 3.346,-7.968 z"
     style="stroke-width:4" /><path
     inkscape:connector-curvature="0"
     id="path50"
     d="m 30.247,-50.975 v 76.049 c 0,34.73 25.635,63.583 58.976,68.638 -4.86,12.026 -8.9,25.374 -11.461,40.027 -3.343,19.146 -3.932,39.185 -1.75,59.559 0.408,3.812 3.624,6.702 7.457,6.702 H 428.64 c 3.833,0 7.049,-2.89 7.458,-6.702 2.182,-20.374 1.593,-40.412 -1.75,-59.562 -2.404,-13.734 -6.238,-27.139 -11.44,-40.042 33.278,-5.109 58.845,-33.935 58.845,-68.62 v -76.049 c 7.616,-8.763 12.243,-20.191 12.243,-32.686 0,-13.211 -5.115,-25.275 -13.551,-34.237 -4.497,-40.659 -20.706,-79.013 -46.987,-111.075 -1.216,-1.486 -2.511,-3.016 -3.99,-4.713 -1.129,-4.525 -3.17,-8.844 -6.101,-12.723 3.492,-10.018 2.383,-20.66 -3.254,-29.859 -6.562,-10.707 -18.228,-17.358 -30.447,-17.358 -3.922,0 -7.79,0.661 -11.549,1.971 -6.13,-4.625 -13.44,-7.125 -21.039,-7.125 -5.09,0 -10.143,1.137 -14.781,3.216 C 314.975,-306.461 285.963,-312 256,-312 c -42.404,0 -83.646,11.327 -119.266,32.755 -21.938,13.197 -41.886,30.354 -58.19,50.27 -26.283,32.065 -42.492,70.419 -46.99,111.08 -8.435,8.961 -13.55,21.025 -13.55,34.236 0,12.493 4.627,23.921 12.243,32.684 z m 279.664,-198.817 c -0.069,0.135 -0.568,1.225 -0.601,1.217 -17.308,-3.934 -35.207,-5.925 -53.31,-5.925 -33.066,0 -65.023,6.595 -94.982,19.603 -3.8,1.649 -5.542,6.067 -3.893,9.866 1.649,3.799 6.065,5.543 9.866,3.893 28.063,-12.184 58.01,-18.362 89.009,-18.362 17.028,0 33.851,1.884 50.107,5.588 -0.003,0.741 0.245,4.735 0.445,5.998 2.187,13.809 11.61,24.534 24.582,28.488 4.436,14.619 17.351,24.553 33.1,25.019 0.385,0.012 0.771,0.022 1.163,0.022 11.68,0 22.055,-5.409 28.684,-14.702 0.078,-0.11 0.163,-0.213 0.24,-0.324 1.156,0.024 2.304,-0.102 3.456,-0.102 24.966,19.526 43.137,41.05 54.527,56.636 -0.285,-0.047 -2.76,-0.447 -3.717,-0.447 h -5.157 c -11.474,0 -22.456,-0.354 -32.974,-0.997 -70.908,-4.337 -120.253,-22.1 -150.405,-37.323 -37.433,-18.899 -54.161,-38.044 -54.314,-38.222 -1.511,-1.753 -3.761,-2.72 -6.067,-2.616 -3.263,0.16 -5.349,2.66 -7.404,4.892 -40.416,43.906 -115.019,70.822 -124.945,74.266 -1.549,0 -3.155,-0.123 -4.696,0.042 -0.694,0.073 -2.652,0.359 -2.941,0.407 15.167,-20.749 42.401,-52.054 81.897,-75.308 3.569,-2.102 4.759,-6.699 2.658,-10.268 -2.101,-3.57 -6.698,-4.759 -10.268,-2.658 -23.338,13.741 -42.53,29.963 -57.715,45.428 3.41,-5.073 7.156,-10.23 11.267,-15.387 18.181,-22.807 39.761,-40.967 64.141,-53.975 30.512,-16.278 65.615,-24.532 104.336,-24.532 22.369,0 43.658,2.767 63.404,8.234 -4.025,3.161 -7.228,7.075 -9.493,11.549 z m 156.676,192.798 c -5.166,4.365 -11.613,7.259 -18.688,8.03 2.378,-9.17 4.042,-18.552 4.974,-28.085 0.788,-8.054 1.057,-16.158 0.748,-24.246 -0.208,-5.441 -0.644,-10.87 -1.331,-16.271 5.907,1.415 11.316,4.323 15.821,8.599 0.176,0.167 0.382,0.304 0.554,0.475 6.41,6.346 10.33,15.152 10.33,24.833 0,10.657 -4.802,20.213 -12.354,26.62 -0.018,0.014 -0.036,0.03 -0.054,0.045 z M 243.368,79.12 C 203.231,76.472 165.082,61.257 134.805,35.607 L 134.566,35.4 C 109.535,14.118 91.123,-13.204 81.303,-43.664 c -6.156,-19.095 -8.875,-39.325 -7.836,-59.367 0.297,-5.751 0.885,-11.48 1.767,-17.17 10.719,-3.841 39.478,-14.845 69.534,-32.265 16.193,-9.376 32.005,-20.109 46.032,-32.685 0.761,-0.682 9.533,-8.85 9.395,-8.988 8.131,7.656 24.945,21.549 52.166,35.415 44.053,22.439 93.339,33.839 142.369,38.252 13.64,1.227 27.404,2.091 41.104,2.091 0.404,0.005 0.798,0.018 1.203,0.022 0.02,0.14 0.042,0.28 0.062,0.42 2.005,14.207 2.154,28.635 0.469,42.882 -1.261,10.531 -3.517,20.918 -6.756,31.049 l -0.287,0.873 c -9.826,30.17 -28.151,57.298 -53.044,78.495 l -0.233,0.202 C 346.963,61.24 308.796,76.471 268.633,79.121 264.428,79.396 247.572,79.398 243.368,79.12 Z M 33.004,-83.66 c 0,-15.893 11.239,-30.204 26.706,-33.907 -0.032,0.251 -0.053,0.503 -0.084,0.755 -1.62,13.139 -1.791,26.418 -0.516,39.599 0.928,9.587 2.596,19.023 4.988,28.245 C 63.972,-48.982 63.847,-49 63.721,-49.015 46.442,-51.09 33.004,-65.832 33.004,-83.66 Z m 385.411,-114.685 c 6.565,7.569 12.319,15.242 17.345,22.734 -6.376,-6.496 -13.458,-13.129 -21.259,-19.662 0.674,-0.455 3.938,-3.042 3.914,-3.072 z M 95.655,79.353 C 67.512,77.292 45.247,53.735 45.247,25.075 v -64.246 c 3.219,1.645 6.614,2.913 10.124,3.818 0.035,0.009 0.07,0.02 0.106,0.028 3.973,0.986 8.254,1.568 12.43,1.568 0.29,0 0.575,-0.003 0.858,-0.008 8.859,24.943 23.161,47.957 42.321,67.705 2.742,2.792 5.526,5.54 8.413,8.184 0.198,0.232 -8.086,10.803 -8.562,11.488 -5.725,8.229 -10.844,16.826 -15.282,25.741 z M 365.56,185 H 146.44 c 0,0 0,-46.529 0,-46.58 0,-5.408 4.567,-9.95 9.96,-9.95 0,0 20.194,0 20.195,0 26.621,0 56.665,11.751 73.537,32.942 1.329,1.669 3.548,2.828 5.867,2.828 3.559,0 5.433,-2.416 7.633,-4.952 8.711,-10.044 20,-16.949 31.872,-21.685 13.523,-5.395 27.803,-7.973 39.9,-9.133 H 355.6 c 5.492,0 9.96,4.464 9.96,9.95 z m 56.234,0 H 380.56 v -46.58 c 0,-13.757 -11.197,-24.95 -24.96,-24.95 0,0 -21.019,0.011 -21.252,0.033 -16.085,1.511 -35.753,5.344 -53.599,14.306 -8.932,4.485 -17.409,10.249 -24.749,17.661 -20.507,-20.706 -50.043,-29.306 -78.348,-31.966 -0.233,-0.021 -24.505,-2.131 -33.911,3.427 -7.355,4.346 -12.301,12.35 -12.301,21.491 V 185 H 90.315 c -1.257,-16.663 -0.513,-33.009 2.223,-48.679 3.222,-18.438 8.976,-34.658 15.743,-48.589 2.781,-5.725 5.985,-11.55 9.394,-17.054 4.051,-6.541 8.47,-12.821 13.275,-18.83 30.816,24.198 68.15,38.723 107.896,41.977 0.076,0.006 0.152,0.013 0.228,0.019 11.16,0.861 22.6,0.909 33.86,0 0.076,-0.006 0.151,-0.012 0.227,-0.019 39.766,-3.258 77.117,-17.798 107.941,-42.02 0.24,-0.174 7.948,10.636 8.778,11.852 14.442,21.157 24.536,45.186 29.275,70.372 3.156,16.771 3.923,33.963 2.639,50.971 z M 466.752,25.075 c 0,28.624 -22.21,52.157 -50.302,54.27 -4.176,-8.412 -8.962,-16.525 -14.27,-24.272 -0.487,-0.713 -9.673,-12.958 -9.632,-12.996 22.626,-20.915 40.35,-46.744 50.683,-75.844 0.073,0.001 0.144,-0.003 0.216,-0.002 4.485,0.06 8.976,-0.49 13.315,-1.623 3.461,-0.904 6.811,-2.156 9.989,-3.779 z m -33.271,-228.846 c -1.954,-2.361 -3.982,-4.72 -6.085,-7.07 0.104,-0.238 0.39,-0.888 0.427,-0.979 1.96,2.641 3.838,5.329 5.658,8.049 z m -62.038,-73.854 c 2.297,2.297 5.813,2.854 8.708,1.379 3.098,-1.579 6.3,-2.379 9.516,-2.379 7.037,0 13.803,3.907 17.657,10.196 2.207,3.601 5.223,10.985 0.635,19.991 -1.475,2.895 -0.918,6.411 1.379,8.708 6.682,6.682 7.961,16.989 3.137,25.189 -0.016,0.027 -0.033,0.055 -0.05,0.083 -4.277,7.195 -12.689,11.075 -20.94,9.768 -5.564,-0.881 -7.247,3.808 -10.029,7.455 -9.069,11.885 -28.772,9.598 -34.977,-3.92 -2.103,-4.583 -1.594,-10.917 -7.927,-11.919 -9.797,-1.552 -17.168,-10.01 -17.443,-19.97 -0.222,-8.028 4.158,-15.238 11.291,-18.873 2.895,-1.475 4.511,-4.646 4.003,-7.856 -0.005,-0.03 -0.007,-0.059 -0.011,-0.088 -0.864,-5.861 0.587,-11.866 4.463,-16.403 3.989,-4.673 10.076,-7.516 16.224,-7.516 3.746,0 9.278,1.068 14.364,6.155 z M 90.147,-219.47 c 15.228,-18.599 33.723,-34.534 54.319,-46.921 C 177.752,-286.416 216.32,-297 256,-297 c 25.019,0 49.322,4.108 72.413,12.227 -2.135,2.735 -3.831,5.754 -5.048,8.974 -21.039,-5.821 -43.656,-8.776 -67.365,-8.776 -41.209,0 -78.688,8.849 -111.396,26.3 -25.037,13.358 -47.284,31.744 -66.197,54.661 3.635,-5.443 7.545,-10.738 11.74,-15.856 z"
     style="stroke-width:4" /></g>
<g
   id="g52"
   transform="translate(0,-312)">
</g>
<g
   id="g54"
   transform="translate(0,-312)">
</g>
<g
   id="g56"
   transform="translate(0,-312)">
</g>
<g
   id="g58"
   transform="translate(0,-312)">
</g>
<g
   id="g60"
   transform="translate(0,-312)">
</g>
<g
   id="g62"
   transform="translate(0,-312)">
</g>
<g
   id="g64"
   transform="translate(0,-312)">
</g>
<g
   id="g66"
   transform="translate(0,-312)">
</g>
<g
   id="g68"
   transform="translate(0,-312)">
</g>
<g
   id="g70"
   transform="translate(0,-312)">
</g>
<g
   id="g72"
   transform="translate(0,-312)">
</g>
<g
   id="g74"
   transform="translate(0,-312)">
</g>
<g
   id="g76"
   transform="translate(0,-312)">
</g>
<g
   id="g78"
   transform="translate(0,-312)">
</g>
<g
   id="g80"
   transform="translate(0,-312)">
</g>
<text
   xml:space="preserve"
   style="font-style:normal;font-variant:normal;font-weight:normal;font-stretch:normal;font-size:42.66666667px;line-height:1.25;font-family:Odelette;-inkscape-font-specification:'Odelette, Normal';font-variant-ligatures:normal;font-variant-caps:normal;font-variant-numeric:normal;font-feature-settings:normal;text-align:center;letter-spacing:0px;word-spacing:0px;writing-mode:lr;text-anchor:middle;fill:#fd3036;fill-opacity:1;stroke:none;"
   x="151.53067"
   y="183.47693"
   id="text869"><tspan
     sodipodi:role="line"
     id="tspan929">Le promesse di Claudia</tspan></text>
</svg>