<?xml version="1.0" encoding="UTF-8" standalone="no"?>
<!-- Generator: Adobe Illustrator 19.0.0, SVG Export Plug-In . SVG Version: 6.00 Build 0)  -->

<svg
   xmlns:dc="http://purl.org/dc/elements/1.1/"
   xmlns:cc="http://creativecommons.org/ns#"
   xmlns:rdf="http://www.w3.org/1999/02/22-rdf-syntax-ns#"
   xmlns:svg="http://www.w3.org/2000/svg"
   xmlns="http://www.w3.org/2000/svg"
   xmlns:sodipodi="http://sodipodi.sourceforge.net/DTD/sodipodi-0.dtd"
   xmlns:inkscape="http://www.inkscape.org/namespaces/inkscape"
   version="1.1"
   id="Layer_1"
   x="0px"
   y="0px"
   viewBox="0 0 300 500"
   xml:space="preserve"
   sodipodi:docname="lista_nozze-300px.svg"
   width="300"
   height="500"
   inkscape:version="0.92.3 (2405546, 2018-03-11)"
   inkscape:export-filename="C:\Deto\GitHub\100giorni\il-matrimonio-di-claudia-e-samuele.com\html5\assets\images\lista_nozze-300px.png"
   inkscape:export-xdpi="96"
   inkscape:export-ydpi="96"><metadata
   id="metadata129"><rdf:RDF><cc:Work
       rdf:about=""><dc:format>image/svg+xml</dc:format><dc:type
         rdf:resource="http://purl.org/dc/dcmitype/StillImage" /><dc:title></dc:title></cc:Work></rdf:RDF></metadata><defs
   id="defs127" /><sodipodi:namedview
   pagecolor="#ffffff"
   bordercolor="#666666"
   borderopacity="1"
   objecttolerance="10"
   gridtolerance="10"
   guidetolerance="10"
   inkscape:pageopacity="0"
   inkscape:pageshadow="2"
   inkscape:window-width="1366"
   inkscape:window-height="745"
   id="namedview125"
   showgrid="false"
   inkscape:zoom="0.928056"
   inkscape:cx="90.17025"
   inkscape:cy="270.68688"
   inkscape:window-x="-8"
   inkscape:window-y="-8"
   inkscape:window-maximized="1"
   inkscape:current-layer="Layer_1" />
<g
   id="g92"
   transform="matrix(0.54172565,0,0,0.54172565,81.785424,202.55578)"
   style="stroke-width:1.84595287">
	<path
   style="fill:#1d1d1b;stroke-width:1.84595287"
   d="m 202.786,71.878 c 1.808,-0.04 3.617,-0.04 5.425,-0.04 1.045,0 1.607,0.603 1.768,1.366 1.447,0.281 2.813,0.924 4.059,1.808 0.04,-0.12 0,-0.201 0.08,-0.322 2.17,-2.25 4.3,-4.501 6.47,-6.751 -4.34,-0.482 -8.359,0 -12.578,1.527 -1.728,0.644 -3.456,1.608 -5.224,2.412 z m 50.956,122.285 c 0.563,0.482 0.804,1.286 0.201,2.09 -4.501,6.59 -11.051,10.85 -17.481,15.431 -7.354,5.224 -14.828,10.207 -22.665,14.668 -2.331,2.974 -5.706,4.581 -10.689,3.577 -0.281,0.12 -0.563,0.201 -0.924,0.161 -35.926,-0.964 -71.772,-3.014 -107.698,-2.371 -22.504,0.442 -47.419,4.541 -70.004,-0.161 -3.134,0.402 -6.51,-0.12 -9.644,-0.964 -0.08,0 -0.121,0.04 -0.161,0.04 C -4.25,224.704 1.175,195.971 0.853,182.71 0.009,150.36 -1.076,116.966 2.38,84.657 2.3,84.295 2.34,83.974 2.501,83.692 c 0.201,-1.889 0.362,-3.777 0.603,-5.666 0.08,-3.134 0.683,-5.988 2.652,-8.238 0.04,-0.161 0.04,-0.281 0.161,-0.402 6.028,-6.269 13.101,-11.654 19.932,-17.079 4.621,-3.737 9.484,-7.917 15.19,-9.765 0.121,-0.201 0.281,-0.362 0.563,-0.482 5.264,-2.17 10.247,-1.005 15.793,-0.522 7.274,0.643 14.427,0.241 21.74,0.322 0.322,0 0.603,0.121 0.804,0.281 5.425,-10.167 15.311,-16.356 29.778,-17.883 14.266,-1.527 24.875,6.269 31.425,17.159 34.479,-1.889 69.923,0.482 104.282,3.335 0.924,0.08 1.406,0.683 1.527,1.406 0.08,0.04 0.121,0.04 0.201,0.121 9.363,16.155 5.345,44.727 5.988,62.89 0.963,28.332 1.164,56.663 0.602,84.994 z m -3.778,-7.595 c 0.241,-21.901 0.161,-43.802 -0.442,-65.704 -0.563,-19.611 0.241,-40.989 -2.09,-61.002 -3.898,1.407 -8.921,0.362 -12.136,-1.969 -0.08,-0.04 -0.121,-0.121 -0.201,-0.161 -3.094,2.733 -6.108,5.586 -9.122,8.439 4.943,10.408 1.929,22.986 -6.992,29.898 1.005,35.042 0.442,70.325 -0.04,105.327 0,2.009 -0.121,4.3 -0.241,6.671 1.567,0.402 3.054,1.206 4.26,2.411 1.125,1.165 2.411,3.014 2.371,4.702 1.447,-1.045 2.934,-2.049 4.38,-3.094 3.175,-2.29 6.51,-4.501 9.685,-6.912 0,-0.08 -0.08,-0.121 -0.08,-0.241 0,-6.229 3.536,-16.315 10.167,-18.405 0.16,-0.04 0.321,0 0.481,0.04 z m -0.08,8.318 c 0.04,-1.849 0.04,-3.657 0.08,-5.506 -1.688,2.09 -3.818,3.778 -5.224,6.148 -1.447,2.451 -2.331,5.063 -2.893,7.756 2.974,-2.371 5.787,-4.943 8.118,-7.957 -0.001,-0.159 -0.081,-0.28 -0.081,-0.441 z M 247.031,56.447 c -0.362,-2.451 -0.723,-4.903 -1.165,-7.314 -2.853,2.009 -5.586,4.179 -8.238,6.47 3.134,1.848 6.107,1.527 9.403,0.844 z m -4.983,-8.479 c -3.255,-0.161 -6.55,-0.241 -9.846,-0.402 0.522,2.13 1.407,4.139 2.773,5.787 2.17,-2.09 4.461,-4.059 7.073,-5.385 z m -10.65,8.921 c 0.442,-0.482 0.924,-0.924 1.366,-1.407 -1.808,-2.25 -2.813,-5.063 -2.813,-7.997 -29.175,-1.125 -58.51,-1.728 -87.565,-3.938 2.853,5.345 4.782,11.292 5.787,17.2 0.121,0.844 -0.241,1.447 -0.804,1.808 -0.683,2.692 -4.34,3.898 -7.073,3.898 -0.281,0 -0.522,0 -0.764,-0.04 -2.733,-0.201 -6.148,-0.965 -6.952,-3.456 -0.723,0 -1.447,-0.362 -1.567,-1.165 -0.844,-5.907 -2.451,-12.297 -5.706,-16.838 -8.68,-0.241 -17.36,-0.402 -26.04,-0.723 -5.023,4.179 -7.997,10.328 -10.328,17.24 -0.04,0.161 -0.121,0.201 -0.201,0.281 -0.04,0.08 0,0.121 -0.04,0.161 -2.371,5.023 -10.689,3.376 -13.422,-0.281 -0.08,-0.08 -0.08,-0.161 -0.121,-0.241 -0.08,-0.201 -0.04,-0.402 0,-0.563 0,-0.04 -0.04,-0.04 -0.04,-0.08 0.362,-5.948 1.567,-11.172 3.496,-15.753 -5.586,0.804 -11.252,0.764 -16.878,0.402 -3.014,-0.161 -6.108,-0.683 -9.202,-1.085 -0.964,2.974 -3.978,5.465 -6.791,6.47 -3.496,1.246 -7.113,0.683 -10.167,-1.125 -3.416,2.371 -6.872,4.742 -10.127,7.394 -0.764,0.603 -1.527,1.246 -2.331,1.889 1.286,0.723 2.21,2.291 2.853,3.496 0.723,1.406 1.005,2.813 1.085,4.3 1.326,0.161 2.612,0.321 3.737,0.362 11.493,0.643 23.026,1.326 34.52,1.969 1.125,0.08 2.291,0.121 3.416,0.161 23.83,1.286 47.66,2.09 71.49,2.451 19.289,0.322 38.578,0.362 57.867,0.201 2.451,-3.054 7.073,-4.742 10.649,-5.988 4.662,-1.567 9.725,-2.17 14.467,-0.683 2.694,-2.775 5.427,-5.588 8.199,-8.32 z m -12.497,36.207 c 5.827,-6.992 7.394,-15.351 4.702,-24.674 -2.692,2.572 -5.385,5.144 -8.118,7.635 0,0 0,0 -0.04,0.04 1.406,1.447 3.335,4.3 3.134,6.51 0,0.08 0.04,0.161 0.04,0.241 0.161,3.417 0.201,6.832 0.282,10.248 z m -2.532,128.393 c 2.21,-1.527 4.42,-3.094 6.631,-4.662 -1.206,-0.964 -1.206,-3.094 -2.09,-4.42 -0.643,-0.924 -1.447,-1.648 -2.371,-2.21 -0.321,3.898 -0.924,7.917 -2.17,11.292 z m -1.286,-24.875 c 1.487,-18.566 -0.362,-40.065 -0.362,-46.575 0.04,-16.838 -0.241,-33.716 0.04,-50.554 -0.161,0.08 -0.322,0.12 -0.522,0.12 -6.189,-0.08 -10.488,-4.822 -14.145,-9.243 -3.496,-4.219 -6.148,-9.082 -4.501,-14.386 C 163.686,76.78 131.818,76.579 99.951,75.212 81.988,74.45 64.065,73.325 46.143,72.2 40.437,71.838 33.565,70.753 27.417,70.673 26.292,76.138 23.76,81.402 19.139,84.698 15.08,87.591 9.896,88.475 5.436,86.667 c 0,0.04 0,0.08 -0.04,0.161 0.161,20.254 -0.924,40.628 -0.924,60.922 0,11.654 0.161,23.308 0.482,34.962 0.161,5.988 -0.201,12.538 0.522,18.485 11.774,0.482 20.455,10.288 20.856,22.062 26.482,2.773 52.724,0 79.688,-0.201 27.728,-0.201 55.496,0.643 83.184,2.17 3.175,-10.649 13.543,-18.365 24.674,-18.566 0.482,-2.652 0.804,-5.505 1.085,-8.399 -0.161,0.04 -0.281,0.08 -0.442,0.04 -2.652,-0.965 -4.943,-1.889 -7.836,-1.607 -1.085,0.08 -1.326,-1.768 -0.241,-1.929 2.973,-0.443 6.268,-0.122 8.639,1.847 z M 214.842,96.15 c 0.08,-4.059 0.161,-8.118 0.321,-12.176 -0.402,-0.563 -0.482,-1.125 -0.763,-2.009 -0.322,-1.125 -0.884,-2.09 -1.688,-2.934 -1.648,-1.768 -4.019,-2.853 -6.43,-2.773 -0.482,0 -0.844,-0.201 -1.085,-0.482 -2.492,0.08 -4.983,0.08 -7.475,0.161 -0.241,5.264 2.371,9.283 5.827,13.181 2.893,3.175 6.068,6.872 10.689,6.912 0.242,0 0.443,0.04 0.604,0.12 z m -11.734,130.081 c 5.063,-1.607 8.158,-7.716 10.006,-15.793 -9.363,0.924 -16.999,6.309 -21.138,14.949 3.376,0.201 6.791,0.322 10.207,0.563 0.362,0 0.643,0.121 0.925,0.281 z M 144.557,60.385 c 0,-0.04 0.04,-0.04 0.04,-0.08 -4.3,-19.691 -16.516,-36.167 -39.382,-31.988 -18.887,3.456 -24.232,15.311 -27.849,31.907 1.487,1.005 3.094,1.728 4.943,1.728 1.728,-0.04 3.134,-0.844 4.742,-1.366 1.969,-13.743 10.93,-24.513 25.88,-25.116 14.828,-0.563 20.012,13.422 21.419,25.839 0.563,1.808 3.737,1.848 5.184,1.969 2.612,0.161 4.3,-0.321 5.023,-2.893 z M 102.443,42.06 c 6.43,-1.125 13.342,-1.206 19.812,-0.321 -3.054,-2.451 -7.193,-3.577 -12.659,-2.411 -2.733,0.562 -5.104,1.527 -7.153,2.732 z m -53.206,1.929 c -2.049,-0.201 -4.059,-0.281 -6.068,-0.08 -0.08,0.161 -0.08,0.281 -0.201,0.362 -1.688,1.326 -3.416,2.572 -5.144,3.818 2.21,0.844 4.621,1.005 6.992,0 2.211,-0.925 3.296,-2.452 4.421,-4.1 z M 24.965,66.493 c -0.362,-1.085 -0.844,-2.09 -1.447,-3.014 -0.683,-1.045 -1.808,-1.808 -2.451,-2.853 -2.17,1.768 -4.34,3.496 -6.55,5.224 3.335,-0.241 7.032,0.201 10.448,0.643 z m -1.527,4.3 c -0.08,0 -0.201,0 -0.321,0 -8.68,-2.612 -14.266,1.366 -16.757,11.935 -0.04,0.442 -0.161,0.924 -0.241,1.366 8.839,2.05 14.948,-5.183 17.319,-13.301 z m -0.844,152.063 c -0.482,-9.805 -7.475,-17.159 -16.798,-19.169 0.723,4.903 2.21,13.382 5.907,17.441 3.657,0.723 7.274,1.245 10.891,1.728 z"
   id="path2"
   inkscape:connector-curvature="0" />
	<path
   style="fill:#ca9e67;stroke-width:1.84595287"
   d="m 249.522,120.864 c 0.603,21.901 0.683,43.802 0.442,65.704 -0.161,-0.04 -0.322,-0.08 -0.482,-0.04 -6.631,2.09 -10.167,12.176 -10.167,18.405 0,0.12 0.08,0.161 0.08,0.241 -3.175,2.411 -6.51,4.621 -9.685,6.912 -1.447,1.045 -2.934,2.049 -4.38,3.094 0.04,-1.688 -1.246,-3.536 -2.371,-4.702 -1.206,-1.206 -2.693,-2.009 -4.26,-2.411 0.12,-2.371 0.241,-4.662 0.241,-6.671 0.482,-35.002 1.045,-70.285 0.04,-105.327 8.921,-6.912 11.935,-19.49 6.992,-29.898 3.014,-2.853 6.028,-5.706 9.122,-8.439 0.08,0.04 0.121,0.12 0.201,0.161 3.215,2.331 8.238,3.376 12.136,1.969 2.332,20.013 1.529,41.392 2.091,61.002 z m -22.383,28.773 c 1.648,-3.416 2.451,-6.952 1.929,-10.73 -0.121,-0.924 -1.567,-0.643 -1.607,0.241 -0.121,3.376 -0.563,6.671 -1.849,9.845 -0.322,0.885 1.125,1.488 1.527,0.644 z m -3.295,-4.983 c 0.402,-4.581 0.563,-9.243 -0.281,-13.784 -0.161,-0.884 -1.648,-0.683 -1.567,0.201 0.281,4.541 0.764,9.042 0.764,13.583 -0.001,0.724 1.043,0.683 1.084,0 z"
   id="path4"
   inkscape:connector-curvature="0" />
	<path
   style="fill:#a9805f;stroke-width:1.84595287"
   d="m 249.964,189.381 c -0.04,1.849 -0.04,3.657 -0.08,5.506 0,0.161 0.08,0.281 0.08,0.442 -2.331,3.014 -5.144,5.586 -8.118,7.957 0.563,-2.693 1.447,-5.305 2.893,-7.756 1.408,-2.372 3.537,-4.059 5.225,-6.149 z"
   id="path6"
   inkscape:connector-curvature="0" />
	<path
   style="fill:#a9805f;stroke-width:1.84595287"
   d="m 245.865,49.133 c 0.442,2.411 0.804,4.862 1.165,7.314 -3.295,0.683 -6.269,1.005 -9.404,-0.844 2.654,-2.291 5.386,-4.461 8.239,-6.47 z"
   id="path8"
   inkscape:connector-curvature="0" />
	<path
   style="fill:#a9805f;stroke-width:1.84595287"
   d="m 232.202,47.566 c 3.295,0.161 6.59,0.241 9.846,0.402 -2.612,1.326 -4.903,3.295 -7.073,5.385 -1.366,-1.648 -2.25,-3.657 -2.773,-5.787 z"
   id="path10"
   inkscape:connector-curvature="0" />
	<path
   style="fill:#ca9e67;stroke-width:1.84595287"
   d="m 232.765,55.482 c -0.442,0.482 -0.924,0.924 -1.366,1.407 -2.773,2.733 -5.505,5.546 -8.198,8.318 -4.742,-1.487 -9.805,-0.884 -14.467,0.683 -3.577,1.246 -8.198,2.934 -10.649,5.988 -19.289,0.161 -38.578,0.121 -57.867,-0.201 l 0.08,-5.224 c 2.733,0 6.389,-1.206 7.073,-3.898 0.563,-0.362 0.924,-0.965 0.804,-1.808 -1.005,-5.907 -2.934,-11.855 -5.787,-17.2 29.054,2.21 58.39,2.813 87.565,3.938 -0.001,2.934 1.003,5.747 2.812,7.997 z m -7.917,4.059 c 1.045,0.522 1.929,-1.005 0.924,-1.567 -2.853,-1.527 -5.787,-2.25 -9.002,-2.13 -1.165,0 -1.165,1.768 0,1.808 2.814,0 5.547,0.643 8.078,1.889 z m -70.043,-0.442 c 0.442,1.487 2.692,0.844 2.371,-0.683 -0.281,-1.326 -0.563,-2.692 -0.884,-4.059 -0.322,-1.688 -3.135,-0.965 -2.612,0.764 0.361,1.326 0.763,2.652 1.125,3.978 z m -4.059,-2.652 c 0.121,0.884 1.487,0.643 1.487,-0.201 0,-2.25 -1.045,-4.139 -2.733,-5.586 -0.723,-0.603 -1.808,0.402 -1.085,1.085 1.366,1.326 2.009,2.893 2.331,4.702 z"
   id="path12"
   inkscape:connector-curvature="0" />
	<path
   style="fill:#1d1d1b;stroke-width:1.84595287"
   d="m 229.068,138.908 c 0.522,3.777 -0.281,7.314 -1.929,10.73 -0.402,0.844 -1.849,0.241 -1.527,-0.643 1.286,-3.175 1.728,-6.47 1.849,-9.845 0.039,-0.885 1.486,-1.166 1.607,-0.242 z"
   id="path14"
   inkscape:connector-curvature="0" />
	<path
   style="fill:#1d1d1b;stroke-width:1.84595287"
   d="m 225.773,57.974 c 1.005,0.563 0.121,2.09 -0.924,1.567 -2.532,-1.246 -5.264,-1.889 -8.077,-1.889 -1.165,-0.04 -1.165,-1.808 0,-1.808 3.214,-0.121 6.147,0.603 9.001,2.13 z"
   id="path16"
   inkscape:connector-curvature="0" />
	<path
   style="fill:#a9805f;stroke-width:1.84595287"
   d="m 223.602,68.422 c 2.692,9.323 1.125,17.682 -4.702,24.674 -0.08,-3.416 -0.121,-6.832 -0.281,-10.247 0,-0.08 -0.04,-0.161 -0.04,-0.241 0.201,-2.21 -1.728,-5.063 -3.134,-6.51 0.04,-0.04 0.04,-0.04 0.04,-0.04 2.733,-2.492 5.425,-5.064 8.117,-7.636 z"
   id="path18"
   inkscape:connector-curvature="0" />
	<path
   style="fill:#1d1d1b;stroke-width:1.84595287"
   d="m 223.562,130.871 c 0.844,4.541 0.683,9.202 0.281,13.784 -0.04,0.683 -1.085,0.723 -1.085,0 0,-4.541 -0.482,-9.042 -0.764,-13.583 -0.079,-0.885 1.408,-1.085 1.568,-0.201 z"
   id="path20"
   inkscape:connector-curvature="0" />
	<path
   style="fill:#a9805f;stroke-width:1.84595287"
   d="m 223,216.828 c -2.21,1.567 -4.42,3.134 -6.631,4.662 1.246,-3.376 1.848,-7.394 2.17,-11.292 0.924,0.563 1.728,1.286 2.371,2.21 0.884,1.326 0.884,3.455 2.09,4.42 z"
   id="path22"
   inkscape:connector-curvature="0" />
	<path
   style="fill:#a9805f;stroke-width:1.84595287"
   d="m 220.589,67.94 c -2.17,2.25 -4.3,4.501 -6.47,6.751 -0.08,0.121 -0.04,0.201 -0.08,0.322 -1.246,-0.884 -2.612,-1.527 -4.059,-1.808 -0.161,-0.764 -0.723,-1.366 -1.768,-1.366 -1.808,0 -3.617,0 -5.425,0.04 1.768,-0.804 3.496,-1.768 5.224,-2.411 4.219,-1.528 8.237,-2.01 12.578,-1.528 z"
   id="path24"
   inkscape:connector-curvature="0" />
	<path
   style="fill:#ca9e67;stroke-width:1.84595287"
   d="m 214.721,150.039 c 0,6.51 1.848,28.009 0.362,46.575 -2.371,-1.969 -5.666,-2.291 -8.64,-1.849 -1.085,0.161 -0.844,2.009 0.241,1.929 2.893,-0.281 5.184,0.643 7.836,1.607 0.161,0.04 0.281,0 0.442,-0.04 -0.281,2.893 -0.603,5.747 -1.085,8.399 -11.131,0.201 -21.499,7.917 -24.674,18.566 -27.688,-1.527 -55.456,-2.371 -83.184,-2.17 -26.965,0.201 -53.206,2.974 -79.688,0.201 C 25.929,211.483 17.249,201.677 5.475,201.195 4.752,195.248 5.113,188.697 4.953,182.71 4.632,171.056 4.471,159.402 4.471,147.748 c 0,-20.294 1.085,-40.668 0.924,-60.922 0.04,-0.08 0.04,-0.121 0.04,-0.161 4.461,1.808 9.645,0.924 13.703,-1.969 4.621,-3.295 7.153,-8.56 8.278,-14.025 6.148,0.08 13.02,1.165 18.726,1.527 17.923,1.125 35.846,2.25 53.809,3.014 31.867,1.366 63.734,1.567 95.642,0.764 -1.648,5.304 1.005,10.167 4.501,14.386 3.657,4.421 7.957,9.162 14.145,9.243 0.201,0 0.362,-0.04 0.522,-0.12 -0.281,16.838 0.001,33.716 -0.04,50.554 z m -4.983,53.206 c 0.964,-0.04 1.165,-1.406 0.241,-1.648 -3.054,-0.884 -6.631,-0.04 -9.484,1.165 -0.804,0.321 -0.482,1.648 0.402,1.366 3.014,-1.004 5.747,-0.803 8.841,-0.883 z M 208.452,102.54 c 0.924,-0.121 0.804,-1.527 0,-1.728 -3.576,-0.884 -6.59,-2.21 -8.198,-5.747 -0.442,-0.924 -2.009,-0.281 -1.648,0.683 1.488,3.979 5.386,7.395 9.846,6.792 z m -1.486,4.822 c 1.246,0.281 1.688,-1.407 0.522,-1.849 -3.295,-1.286 -6.269,-3.094 -8.72,-5.626 -0.884,-0.924 -2.13,0.402 -1.366,1.326 2.451,3.095 5.706,5.305 9.564,6.149 z m -83.104,45.611 c 0.322,1.246 2.21,0.723 1.969,-0.563 -0.763,-3.858 -2.974,-7.073 -6.108,-9.444 -0.723,-0.522 -1.648,0.683 -0.965,1.246 2.692,2.331 4.34,5.305 5.104,8.761 z m -6.43,-3.054 c 0.362,1.045 1.929,0.643 1.648,-0.442 -0.924,-3.295 -3.858,-5.385 -7.314,-5.264 -1.125,0 -1.165,1.808 0,1.808 2.572,-0.041 4.782,1.487 5.666,3.898 z m -5.948,17.038 c 1.527,-1.889 1.165,-4.862 1.125,-7.113 -0.08,-3.898 -0.522,-7.756 -1.165,-11.614 -0.08,-0.563 -0.723,-1.206 -1.286,-1.286 -5.747,-1.005 -15.23,-1.889 -20.133,2.13 -2.009,1.648 -2.13,4.139 -2.09,6.55 0.08,4.059 0.563,8.158 1.286,12.136 0.241,1.366 1.567,1.487 2.492,0.924 -0.08,0.522 0.241,1.125 0.965,1.165 3.978,0.281 7.917,0.121 11.855,-0.402 2.29,-0.32 5.344,-0.521 6.951,-2.49 z m -29.375,42.436 c 6.108,-0.161 14.065,-11.373 11.935,-17.24 -1.567,-4.38 -9.042,-6.229 -12.578,-8.077 -8.278,-4.26 -16.557,-8.519 -24.835,-12.779 -12.257,-6.269 -12.337,-2.049 -18.686,9.846 -0.281,0.522 -0.241,0.964 -0.04,1.366 -0.281,0.322 -0.281,0.844 0.161,1.165 8.198,5.867 17.079,10.73 25.759,15.793 4.46,2.613 12.818,10.087 18.284,9.926 z m 4.581,-81.657 c 1.768,-14.467 -13.06,-22.263 -25.638,-22.303 -0.924,0 -1.366,0.603 -1.407,1.246 -10.127,0.482 -19.048,8.841 -19.852,19.209 -0.884,11.774 8.76,22.986 20.495,23.79 12.618,0.884 24.835,-9.404 26.402,-21.942 z m -0.402,88.127 c 0.482,-0.844 -0.683,-1.447 -1.246,-0.764 -1.527,2.049 -4.26,2.974 -6.631,1.889 -0.764,-0.322 -1.487,0.764 -0.683,1.206 3.055,1.527 6.832,0.683 8.56,-2.331 z m -0.964,-4.219 c 0.402,-0.965 -1.005,-1.366 -1.487,-0.643 -1.808,2.451 -5.184,3.456 -7.876,1.889 -0.924,-0.523 -1.648,0.763 -0.804,1.366 3.415,2.532 8.519,1.326 10.167,-2.612 z M 69.249,102.017 c 0.884,0.482 1.607,-0.763 0.804,-1.326 -4.34,-3.054 -9.243,-4.421 -14.547,-4.461 -0.965,-0.04 -0.965,1.447 0,1.527 4.902,0.282 9.524,1.889 13.743,4.26 z m -8.72,0.965 c 0.723,0.04 0.683,-0.964 0,-1.045 -3.657,-0.482 -7.073,0.281 -10.288,2.09 -0.563,0.362 -0.08,1.205 0.522,0.924 3.055,-1.447 6.431,-2.05 9.766,-1.969 z M 32.761,205.817 c 0.522,0.804 2.009,0.322 1.607,-0.683 -1.045,-2.652 -3.054,-4.541 -5.586,-5.907 -0.924,-0.482 -1.728,0.884 -0.804,1.447 2.09,1.285 3.497,3.093 4.783,5.143 z m -3.416,1.688 c 0.804,0.804 1.929,-0.362 1.206,-1.206 -1.808,-2.21 -4.34,-3.617 -6.992,-4.501 -0.924,-0.322 -1.246,1.045 -0.402,1.366 2.41,1.005 4.339,2.532 6.188,4.341 z M 16.244,160.487 c 0.281,-1.165 -1.326,-1.527 -1.728,-0.482 -1.206,2.934 -2.331,5.907 -3.014,9.042 -0.201,0.964 1.246,1.728 1.688,0.723 1.326,-3.014 2.211,-6.148 3.054,-9.283 z m -5.063,7.475 c 0.723,-2.853 1.005,-6.028 0.321,-8.921 -0.201,-0.884 -1.406,-0.603 -1.447,0.201 -0.281,2.773 -0.161,5.746 -0.08,8.559 0,0.683 1.045,0.844 1.206,0.161 z"
   id="path26"
   inkscape:connector-curvature="0" />
	<path
   style="fill:#a9805f;stroke-width:1.84595287"
   d="m 215.163,83.974 c -0.161,4.059 -0.241,8.118 -0.321,12.176 -0.161,-0.08 -0.362,-0.121 -0.603,-0.121 -4.621,-0.04 -7.796,-3.737 -10.689,-6.912 -3.456,-3.898 -6.068,-7.917 -5.827,-13.181 2.492,-0.08 4.983,-0.08 7.475,-0.161 0.241,0.281 0.603,0.482 1.085,0.482 2.411,-0.08 4.782,1.005 6.43,2.773 0.804,0.844 1.366,1.808 1.688,2.934 0.28,0.885 0.361,1.447 0.762,2.01 z"
   id="path28"
   inkscape:connector-curvature="0" />
	<path
   style="fill:#a9805f;stroke-width:1.84595287"
   d="m 213.114,210.438 c -1.849,8.077 -4.943,14.186 -10.006,15.793 -0.281,-0.161 -0.563,-0.281 -0.924,-0.281 -3.416,-0.241 -6.832,-0.362 -10.207,-0.563 4.138,-8.64 11.774,-14.024 21.137,-14.949 z"
   id="path30"
   inkscape:connector-curvature="0" />
	<path
   style="fill:#1d1d1b;stroke-width:1.84595287"
   d="m 209.98,201.597 c 0.924,0.241 0.723,1.607 -0.241,1.648 -3.094,0.08 -5.827,-0.121 -8.841,0.884 -0.884,0.281 -1.205,-1.045 -0.402,-1.366 2.853,-1.206 6.429,-2.05 9.484,-1.166 z"
   id="path32"
   inkscape:connector-curvature="0" />
	<path
   style="fill:#1d1d1b;stroke-width:1.84595287"
   d="m 208.452,100.812 c 0.804,0.201 0.924,1.607 0,1.728 -4.461,0.603 -8.359,-2.813 -9.845,-6.791 -0.362,-0.964 1.206,-1.607 1.648,-0.683 1.607,3.536 4.621,4.862 8.197,5.746 z"
   id="path34"
   inkscape:connector-curvature="0" />
	<path
   style="fill:#1d1d1b;stroke-width:1.84595287"
   d="m 207.488,105.513 c 1.165,0.442 0.723,2.13 -0.522,1.849 -3.858,-0.844 -7.113,-3.054 -9.564,-6.148 -0.764,-0.924 0.482,-2.25 1.366,-1.326 2.451,2.531 5.425,4.34 8.72,5.625 z"
   id="path36"
   inkscape:connector-curvature="0" />
	<path
   style="fill:#1d1d1b;stroke-width:1.84595287"
   d="m 157.176,58.416 c 0.322,1.527 -1.929,2.17 -2.371,0.683 -0.362,-1.326 -0.764,-2.652 -1.125,-3.978 -0.523,-1.728 2.29,-2.451 2.612,-0.764 0.321,1.366 0.602,2.733 0.884,4.059 z"
   id="path38"
   inkscape:connector-curvature="0" />
	<path
   style="fill:#1d1d1b;stroke-width:1.84595287"
   d="m 152.233,56.246 c 0,0.844 -1.366,1.085 -1.487,0.201 -0.322,-1.808 -0.965,-3.376 -2.331,-4.702 -0.723,-0.683 0.362,-1.688 1.085,-1.085 1.688,1.447 2.733,3.335 2.733,5.586 z"
   id="path40"
   inkscape:connector-curvature="0" />
	<path
   style="fill:#7d4e24;stroke-width:1.84595287"
   d="m 144.597,60.305 c 0,0.04 -0.04,0.04 -0.04,0.08 -0.723,2.572 -2.411,3.054 -5.023,2.893 -1.447,-0.121 -4.621,-0.161 -5.184,-1.969 -1.406,-12.417 -6.59,-26.402 -21.419,-25.839 -14.949,0.603 -23.91,11.373 -25.88,25.116 -1.607,0.522 -3.014,1.326 -4.742,1.366 -1.849,0 -3.456,-0.723 -4.943,-1.728 3.617,-16.597 8.961,-28.451 27.849,-31.907 22.866,-4.18 35.083,12.297 39.382,31.988 z"
   id="path42"
   inkscape:connector-curvature="0" />
	<path
   style="fill:#ca9e67;stroke-width:1.84595287"
   d="m 140.298,66.453 -0.08,5.224 c -23.83,-0.362 -47.66,-1.165 -71.49,-2.451 l 0.121,-2.049 c 1.085,0.201 1.607,-1.407 0.482,-1.688 -3.536,-0.884 -6.068,-4.34 -5.465,-7.957 l 3.094,0.241 c 0.08,2.773 2.451,5.144 5.305,4.621 0.442,-0.08 0.563,-0.442 0.442,-0.764 l 2.451,-0.241 c 0.04,0.08 0.04,0.161 0.121,0.241 2.733,3.657 11.051,5.305 13.422,0.281 0.04,-0.04 0,-0.08 0.04,-0.161 0.08,-0.08 0.161,-0.121 0.201,-0.281 2.331,-6.912 5.304,-13.06 10.328,-17.24 8.68,0.321 17.36,0.482 26.04,0.723 3.255,4.541 4.862,10.931 5.706,16.838 0.121,0.804 0.844,1.165 1.567,1.165 0.804,2.491 4.219,3.255 6.952,3.456 0.24,0.042 0.481,0.042 0.763,0.042 z"
   id="path44"
   inkscape:connector-curvature="0" />
	<path
   style="fill:#1d1d1b;stroke-width:1.84595287"
   d="m 125.831,152.41 c 0.241,1.286 -1.648,1.808 -1.969,0.563 -0.763,-3.456 -2.411,-6.43 -5.104,-8.76 -0.683,-0.563 0.241,-1.768 0.965,-1.246 3.134,2.37 5.344,5.585 6.108,9.443 z"
   id="path46"
   inkscape:connector-curvature="0" />
	<path
   style="fill:#1d1d1b;stroke-width:1.84595287"
   d="m 119.08,149.477 c 0.281,1.085 -1.286,1.487 -1.648,0.442 -0.884,-2.411 -3.094,-3.938 -5.666,-3.898 -1.165,0 -1.125,-1.808 0,-1.808 3.456,-0.121 6.389,1.968 7.314,5.264 z"
   id="path48"
   inkscape:connector-curvature="0" />
	<path
   style="fill:#1d1d1b;stroke-width:1.84595287"
   d="m 112.61,159.845 c 0.04,2.25 0.402,5.224 -1.125,7.113 -1.607,1.969 -4.661,2.17 -6.952,2.492 -3.938,0.523 -7.876,0.683 -11.855,0.402 -0.723,-0.04 -1.045,-0.643 -0.965,-1.165 -0.924,0.563 -2.25,0.442 -2.492,-0.924 -0.723,-3.978 -1.205,-8.077 -1.286,-12.136 -0.04,-2.411 0.08,-4.903 2.09,-6.55 4.903,-4.019 14.386,-3.134 20.133,-2.13 0.563,0.08 1.206,0.723 1.286,1.286 0.643,3.856 1.085,7.714 1.166,11.612 z m -4.702,4.54 c 2.371,-2.974 0.924,-9.926 0.201,-14.065 -4.38,-0.723 -10.328,-1.165 -14.186,0.723 -4.42,2.21 -1.969,11.975 -1.406,15.833 0.08,0.362 -0.04,0.683 -0.161,1.005 0.121,-0.08 0.201,-0.161 0.322,-0.161 4.259,-0.16 12.417,0.242 15.23,-3.335 z"
   id="path50"
   inkscape:connector-curvature="0" />
	<path
   style="fill:#e94e1b;stroke-width:1.84595287"
   d="m 108.109,150.321 c 0.723,4.139 2.17,11.091 -0.201,14.065 -2.813,3.577 -10.971,3.175 -15.23,3.336 -0.121,0 -0.201,0.08 -0.322,0.161 0.121,-0.321 0.241,-0.643 0.161,-1.005 -0.563,-3.858 -3.014,-13.623 1.406,-15.833 3.858,-1.89 9.806,-1.448 14.186,-0.724 z"
   id="path52"
   inkscape:connector-curvature="0" />
	<path
   style="fill:#1d1d1b;stroke-width:1.84595287"
   d="m 94.044,192.154 c 2.13,5.867 -5.827,17.079 -11.935,17.24 -5.465,0.161 -13.824,-7.314 -18.284,-9.926 -8.68,-5.063 -17.561,-9.926 -25.759,-15.793 -0.442,-0.321 -0.442,-0.844 -0.161,-1.165 -0.201,-0.402 -0.241,-0.844 0.04,-1.366 6.349,-11.895 6.43,-16.115 18.686,-9.846 8.278,4.26 16.557,8.519 24.835,12.779 3.536,1.848 11.011,3.697 12.578,8.077 z m -4.983,6.872 c 1.929,-5.184 0.603,-8.318 -3.938,-9.363 -6.229,-5.385 -17.521,-8.961 -24.875,-12.779 -1.768,-0.924 -8.64,-5.546 -10.609,-5.505 -4.903,0.161 -7.032,7.716 -9.042,11.332 -0.08,0.121 -0.161,0.161 -0.241,0.281 8.6,4.059 16.798,8.961 25.076,13.703 4.38,2.492 14.788,10.689 20.093,7.756 z"
   id="path54"
   inkscape:connector-curvature="0" />
	<path
   style="fill:#f8be66;stroke-width:1.84595287"
   d="m 85.123,189.662 c 4.541,1.045 5.867,4.179 3.938,9.363 l -3.536,5.425 c -5.305,2.934 -15.713,-5.264 -20.093,-7.756 -8.278,-4.742 -16.476,-9.645 -25.076,-13.703 0.08,-0.12 0.161,-0.161 0.241,-0.281 2.009,-3.617 4.139,-11.172 9.042,-11.332 1.969,-0.04 8.841,4.581 10.609,5.505 7.354,3.818 18.646,7.394 24.875,12.779 z"
   id="path56"
   inkscape:connector-curvature="0" />
	<path
   style="fill:#1d1d1b;stroke-width:1.84595287"
   d="m 61.051,105.433 c 12.578,0.04 27.407,7.836 25.638,22.303 -1.567,12.538 -13.784,22.826 -26.402,21.941 -11.734,-0.804 -21.379,-12.015 -20.495,-23.79 0.804,-10.368 9.725,-18.727 19.852,-19.209 0.041,-0.642 0.483,-1.245 1.407,-1.245 z m 21.098,24.875 c 3.938,-13.583 -9.524,-20.655 -20.897,-21.901 -8.158,1.768 -15.632,7.193 -17.441,15.833 -1.889,9.042 4.822,18.887 13.623,21.178 10.449,2.732 21.822,-5.144 24.715,-15.11 z"
   id="path58"
   inkscape:connector-curvature="0" />
	<path
   style="fill:#1d1d1b;stroke-width:1.84595287"
   d="m 85.042,215.1 c 0.563,-0.683 1.728,-0.08 1.246,0.764 -1.728,3.014 -5.505,3.858 -8.56,2.331 -0.804,-0.442 -0.08,-1.527 0.683,-1.206 2.372,1.085 5.104,0.16 6.631,-1.889 z"
   id="path60"
   inkscape:connector-curvature="0" />
	<path
   style="fill:#1d1d1b;stroke-width:1.84595287"
   d="m 83.837,211.001 c 0.482,-0.723 1.889,-0.322 1.487,0.643 -1.648,3.938 -6.751,5.144 -10.167,2.612 -0.844,-0.603 -0.12,-1.889 0.804,-1.366 2.692,1.567 6.067,0.562 7.876,-1.889 z"
   id="path62"
   inkscape:connector-curvature="0" />
	<path
   style="fill:#ccecf8;stroke-width:1.84595287"
   d="m 61.252,108.407 c 11.373,1.246 24.835,8.318 20.897,21.901 -2.893,9.966 -14.266,17.842 -24.714,15.11 -8.801,-2.291 -15.512,-12.136 -13.623,-21.178 1.808,-8.64 9.283,-14.065 17.44,-15.833 z"
   id="path64"
   inkscape:connector-curvature="0" />
	<path
   style="fill:#ca9e67;stroke-width:1.84595287"
   d="m 78.613,44.994 c -1.929,4.581 -3.134,9.805 -3.496,15.753 0,0.04 0.04,0.04 0.04,0.08 -0.04,0.161 -0.08,0.362 0,0.563 l -2.451,0.241 c -0.08,-0.241 -0.322,-0.442 -0.603,-0.482 -1.969,-0.161 -3.697,-1.286 -3.898,-3.376 -0.08,-0.804 -1.286,-0.844 -1.246,0 l -3.094,-0.241 v -0.04 c 0.201,-0.965 -1.206,-1.366 -1.447,-0.402 -1.005,4.461 1.808,9.243 6.43,10.087 l -0.121,2.049 c -1.125,-0.04 -2.291,-0.08 -3.416,-0.161 -11.493,-0.643 -23.026,-1.326 -34.52,-1.969 -1.125,-0.04 -2.411,-0.201 -3.737,-0.362 -0.08,-1.487 -0.362,-2.893 -1.085,-4.3 -0.643,-1.206 -1.567,-2.773 -2.853,-3.496 0.804,-0.643 1.567,-1.286 2.331,-1.889 3.255,-2.652 6.711,-5.023 10.127,-7.394 3.054,1.808 6.671,2.371 10.167,1.125 2.813,-1.005 5.827,-3.496 6.791,-6.47 3.094,0.402 6.189,0.924 9.202,1.085 5.627,0.362 11.293,0.403 16.879,-0.401 z"
   id="path66"
   inkscape:connector-curvature="0" />
	<path
   style="fill:#1d1d1b;stroke-width:1.84595287"
   d="m 72.705,61.631 c 0.121,0.322 0,0.683 -0.442,0.764 -2.853,0.522 -5.224,-1.848 -5.305,-4.621 -0.04,-0.844 1.165,-0.804 1.246,0 0.201,2.09 1.929,3.215 3.898,3.376 0.282,0.039 0.523,0.24 0.603,0.481 z"
   id="path68"
   inkscape:connector-curvature="0" />
	<path
   style="fill:#1d1d1b;stroke-width:1.84595287"
   d="m 70.053,100.691 c 0.804,0.563 0.08,1.808 -0.804,1.326 -4.219,-2.371 -8.841,-3.978 -13.743,-4.26 -0.965,-0.08 -0.965,-1.567 0,-1.527 5.304,0.041 10.207,1.407 14.547,4.461 z"
   id="path70"
   inkscape:connector-curvature="0" />
	<path
   style="fill:#1d1d1b;stroke-width:1.84595287"
   d="m 69.33,65.489 c 1.125,0.281 0.603,1.889 -0.482,1.688 -4.621,-0.844 -7.434,-5.626 -6.43,-10.087 0.241,-0.964 1.648,-0.563 1.447,0.402 v 0.04 c -0.603,3.617 1.928,7.072 5.465,7.957 z"
   id="path72"
   inkscape:connector-curvature="0" />
	<path
   style="fill:#1d1d1b;stroke-width:1.84595287"
   d="m 60.529,101.937 c 0.683,0.08 0.723,1.085 0,1.045 -3.335,-0.08 -6.711,0.522 -9.765,1.969 -0.603,0.281 -1.085,-0.563 -0.522,-0.924 3.214,-1.809 6.63,-2.572 10.287,-2.09 z"
   id="path74"
   inkscape:connector-curvature="0" />
	<path
   style="fill:#a9805f;stroke-width:1.84595287"
   d="m 43.169,43.909 c 2.009,-0.201 4.019,-0.121 6.068,0.08 -1.125,1.648 -2.21,3.175 -4.42,4.099 -2.371,1.005 -4.782,0.844 -6.992,0 1.728,-1.246 3.456,-2.492 5.144,-3.818 0.119,-0.08 0.119,-0.2 0.2,-0.361 z"
   id="path76"
   inkscape:connector-curvature="0" />
	<path
   style="fill:#1d1d1b;stroke-width:1.84595287"
   d="m 34.368,205.134 c 0.402,1.005 -1.085,1.487 -1.607,0.683 -1.286,-2.049 -2.692,-3.858 -4.782,-5.144 -0.924,-0.563 -0.121,-1.929 0.804,-1.447 2.531,1.367 4.54,3.256 5.585,5.908 z"
   id="path78"
   inkscape:connector-curvature="0" />
	<path
   style="fill:#1d1d1b;stroke-width:1.84595287"
   d="m 30.551,206.299 c 0.723,0.844 -0.402,2.009 -1.206,1.206 -1.849,-1.808 -3.778,-3.335 -6.189,-4.34 -0.844,-0.322 -0.522,-1.688 0.402,-1.366 2.652,0.883 5.184,2.29 6.993,4.5 z"
   id="path80"
   inkscape:connector-curvature="0" />
	<path
   style="fill:#a9805f;stroke-width:1.84595287"
   d="m 23.518,63.479 c 0.603,0.924 1.085,1.929 1.447,3.014 -3.416,-0.442 -7.113,-0.884 -10.448,-0.643 2.21,-1.728 4.38,-3.456 6.55,-5.224 0.643,1.045 1.768,1.808 2.451,2.853 z"
   id="path82"
   inkscape:connector-curvature="0" />
	<path
   style="fill:#a9805f;stroke-width:1.84595287"
   d="m 23.116,70.793 c 0.121,0 0.241,0 0.321,0 C 21.066,78.911 14.958,86.144 6.117,84.094 6.197,83.652 6.318,83.17 6.358,82.728 8.85,72.159 14.436,68.181 23.116,70.793 Z"
   id="path84"
   inkscape:connector-curvature="0" />
	<path
   style="fill:#a9805f;stroke-width:1.84595287"
   d="m 5.796,203.687 c 9.323,2.009 16.315,9.363 16.798,19.169 -3.617,-0.482 -7.233,-1.005 -10.89,-1.728 C 8.006,217.069 6.519,208.59 5.796,203.687 Z"
   id="path86"
   inkscape:connector-curvature="0" />
	<path
   style="fill:#1d1d1b;stroke-width:1.84595287"
   d="m 14.516,160.005 c 0.402,-1.045 2.009,-0.683 1.728,0.482 -0.844,3.135 -1.728,6.269 -3.054,9.283 -0.442,1.005 -1.889,0.241 -1.688,-0.723 0.684,-3.134 1.809,-6.108 3.014,-9.042 z"
   id="path88"
   inkscape:connector-curvature="0" />
	<path
   style="fill:#1d1d1b;stroke-width:1.84595287"
   d="m 11.502,159.041 c 0.683,2.893 0.402,6.068 -0.321,8.921 -0.161,0.683 -1.206,0.522 -1.206,-0.161 -0.08,-2.813 -0.201,-5.787 0.08,-8.559 0.041,-0.804 1.247,-1.085 1.447,-0.201 z"
   id="path90"
   inkscape:connector-curvature="0" />
</g>
<g
   id="g94"
   transform="translate(0,245.705)">
</g>
<g
   id="g96"
   transform="translate(0,245.705)">
</g>
<g
   id="g98"
   transform="translate(0,245.705)">
</g>
<g
   id="g100"
   transform="translate(0,245.705)">
</g>
<g
   id="g102"
   transform="translate(0,245.705)">
</g>
<g
   id="g104"
   transform="translate(0,245.705)">
</g>
<g
   id="g106"
   transform="translate(0,245.705)">
</g>
<g
   id="g108"
   transform="translate(0,245.705)">
</g>
<g
   id="g110"
   transform="translate(0,245.705)">
</g>
<g
   id="g112"
   transform="translate(0,245.705)">
</g>
<g
   id="g114"
   transform="translate(0,245.705)">
</g>
<g
   id="g116"
   transform="translate(0,245.705)">
</g>
<g
   id="g118"
   transform="translate(0,245.705)">
</g>
<g
   id="g120"
   transform="translate(0,245.705)">
</g>
<g
   id="g122"
   transform="translate(0,245.705)">
</g>
<text
   xml:space="preserve"
   style="font-style:normal;font-variant:normal;font-weight:normal;font-stretch:normal;font-size:24px;line-height:1.25;font-family:Odelette;-inkscape-font-specification:'Odelette, Normal';font-variant-ligatures:normal;font-variant-caps:normal;font-variant-numeric:normal;font-feature-settings:normal;text-align:start;letter-spacing:0px;word-spacing:0px;writing-mode:lr-tb;text-anchor:start;fill:#838383;fill-opacity:1;stroke:none;stroke-width:0.99999994"
   x="5.3317161"
   y="82.670517"
   id="text1115"><tspan
     sodipodi:role="line"
     id="tspan1018"
     x="5.3317161"
     y="82.670517">Il nostro nido d'amore piccino picciò è già </tspan><tspan
     sodipodi:role="line"
     id="tspan1020"
     x="5.3317161"
     y="112.67052">completo!</tspan><tspan
     sodipodi:role="line"
     id="tspan1022"
     x="5.3317161"
     y="142.67052">Con tutto il fuggi fuggi dei preparativi adesso </tspan><tspan
     sodipodi:role="line"
     id="tspan1024"
     x="5.3317161"
     y="172.67052">avremmo proprio bisogno di una vacanza...</tspan></text>
<text
   xml:space="preserve"
   style="font-style:normal;font-variant:normal;font-weight:normal;font-stretch:normal;font-size:26.66666603px;line-height:1.25;font-family:Odelette;-inkscape-font-specification:'Odelette, Normal';font-variant-ligatures:normal;font-variant-caps:normal;font-variant-numeric:normal;font-feature-settings:normal;text-align:start;letter-spacing:0px;word-spacing:0px;writing-mode:lr-tb;text-anchor:start;fill:#f3795e;fill-opacity:1;stroke:none;stroke-width:0.99999994"
   x="105.62704"
   y="36.03812"
   id="text1115-3"><tspan
     sodipodi:role="line"
     id="tspan1012"
     x="105.62704"
     y="36.03812">Lista Nozze</tspan></text>
<text
   xml:space="preserve"
   style="font-style:normal;font-variant:normal;font-weight:normal;font-stretch:normal;font-size:26.66666667px;line-height:1.25;font-family:Odelette;-inkscape-font-specification:'Odelette, Normal';font-variant-ligatures:normal;font-variant-caps:normal;font-variant-numeric:normal;font-feature-settings:normal;text-align:center;letter-spacing:0px;word-spacing:0px;writing-mode:lr;text-anchor:middle;fill:#f3795e;fill-opacity:1;stroke:none;stroke-width:0.99999994;"
   x="150.50774"
   y="397.60959"
   id="text1115-9"><tspan
     sodipodi:role="line"
     id="tspan1053"
     x="150.50774"
     y="397.60959">Grazie a tutti quelli che</tspan><tspan
     sodipodi:role="line"
     id="tspan1055"
     x="150.50774"
     y="427.60959">hanno contribuito al viaggio</tspan><tspan
     sodipodi:role="line"
     id="tspan1057"
     x="150.50774"
     y="457.60959">più dolce della nostra vita!</tspan></text>
</svg>