<?xml version="1.0" encoding="iso-8859-1"?>
<!-- Generator: Adobe Illustrator 19.0.0, SVG Export Plug-In . SVG Version: 6.00 Build 0)  -->
<svg version="1.1" id="Capa_1" xmlns="http://www.w3.org/2000/svg" xmlns:xlink="http://www.w3.org/1999/xlink" x="0px" y="0px"
	 viewBox="0 0 512 512" style="enable-background:new 0 0 512 512;" xml:space="preserve">
<polygon style="fill:#DADBDC;" points="485,242.499 445.5,228.499 374,216.999 253,196.999 152,188.499 88,212.499 25,249.999 
	4.5,276.499 7,302.999 35.5,324.499 129.5,344.999 213,343.499 243.5,354.999 338,380.499 425,388.999 458.5,382.499 458.5,368.999 
	363.5,318.499 426.5,299.999 474.5,309.499 495.5,302.999 503,288.999 489.5,270.999 495.5,256.499 "/>
<g>
	<polygon style="fill:#939598;" points="498,160.499 407,221.499 465,233.499 485,242.499 508,173.499 505.5,160.499 	"/>
	<polygon style="fill:#939598;" points="475.5,267.499 445.5,264.499 409.5,269.999 389,278.999 393,287.499 474.5,309.499 
		495.5,302.999 503,288.999 489.5,270.999 	"/>
	<polygon style="fill:#939598;" points="187.667,312.332 204.333,306.332 218.333,320.332 267.333,344.999 310,356.666 
		364.667,361.999 414,356.999 431.333,352.332 458.5,368.999 458.5,382.499 438.667,388.999 395.667,388.666 351.333,381.999 
		283.333,366.999 233.667,351.332 200,332.666 186.667,322.999 	"/>
	<polygon style="fill:#939598;" points="18.333,252.332 35,273.332 39.333,299.332 35.5,324.499 7,302.999 4.5,276.499 	"/>
</g>
<g>
	<path style="fill:#4D4D4F;" d="M97.937,232.121c-3.977-5.02-9.9-4.655-15.194-7.163c-5.771-2.734-12.201-4.67-17.423,0.494
		c-1.282,1.268-2.182,2.817-2.72,4.489c-0.313-0.144-0.608-0.305-0.937-0.434c-4.055-1.586-6.727,3.513-5.161,6.714
		c5.019,10.258,17.003,21.609,29.18,20.637C97.396,255.923,105.893,242.163,97.937,232.121z"/>
	<path style="fill:#4D4D4F;" d="M150.683,245.471c-1.841-6.813-8.455-10.889-15.337-9.015c-6.623,1.804-10.401,8.557-10.207,15.12
		c0.189,6.408,3.34,14.192,10.817,14.43c1.995,0.063,3.817-0.481,5.433-1.448c1.127-0.236,2.263-0.681,3.369-1.392
		C149.887,259.87,152.212,251.131,150.683,245.471z"/>
	<path style="fill:#4D4D4F;" d="M203.577,245.635c-0.2-1.906-0.716-3.756-1.631-5.294c-2.742-4.606-8.635-6.201-13.326-3.651
		c-1.626,0.884-2.997,2.18-4.117,3.71c-5.287,5.053-7.769,13.353-2.903,19.587c4.292,5.499,12.381,5.598,16.851,1.451
		c3.484-2.501,4.898-6.486,5.285-10.78C203.888,248.977,203.859,247.274,203.577,245.635z"/>
	<path style="fill:#4D4D4F;" d="M253.546,236.04c-4.167-3.142-8.656-2.492-12.225-0.006c-10.993,4.559-12.452,24.868,0.852,27.314
		C254.818,265.672,263.466,243.519,253.546,236.04z"/>
	<path style="fill:#4D4D4F;" d="M311.404,244.818c0.001-5.589-2.031-12.175-7.527-13.736c-5.298-1.505-9.362,1.806-11.896,6.142
		c-2.667,2.817-4.328,6.832-4.496,10.708c-0.187,4.287,1.557,8.466,4.978,11.089c0.202,0.155,0.409,0.298,0.618,0.436
		c0.694,0.574,1.475,1.086,2.374,1.507C305.792,265.801,312.382,254.398,311.404,244.818z"/>
	<path style="fill:#4D4D4F;" d="M363.734,236.799c-2.538-6.859-10.44-9.285-16.133-4.454c-4.12,3.497-6.22,9.369-6.391,14.677
		c-0.21,6.542,3.956,13.204,11.019,13.433c2.504,0.081,4.723-0.735,6.562-2.103c1.781-0.942,3.345-2.392,4.436-4.279
		C365.983,249.311,365.581,241.788,363.734,236.799z"/>
</g>
<g>
	<path style="fill:#FFFFFF;" d="M152,378.999l-28.333,9.333l-19,30.667l-0.333,10.667l-27.333-8l-18,18l1.666,14.333
		c0,0-31,5-30.667,6s2.333,11.667,2.333,11.667l23.667,8l183.333,1l13.333-16l-1-21l-15.333-13.333l-28,2.333l-9-19.667l-15-23
		L152,378.999z"/>
	<path style="fill:#FFFFFF;" d="M385.667,414.666l-22.333,6l-8.667,19.333l0.333,8c0,0-36.667-2-36.333-1c0.333,1-9.667,9-9.333,10
		c0.333,1,6.667,13.667,6.667,13.667l154.666,5.333l5.667-10.333l-17-17.667l-23.667-6.333l-17,4.333l-9.333-23.333L385.667,414.666
		z"/>
</g>
<g>
	<path style="fill:#F28291;" d="M95.513,62.231c-13.764,5.475-24.32,20.754-20.496,35.065c2.547,9.531,10.515,16.564,18.599,22.219
		c20.881,14.609,44.964,23.986,69.304,31.536c5.981,1.855,12.788,3.533,18.231,0.436c4.051-2.305,6.34-6.746,8.139-11.045
		c11.032-26.365,11.817-56.088,7.405-84.325c-1.384-8.861-3.876-18.586-11.412-23.448c-8.61-5.555-20.679-2.115-27.99,5.064
		c-7.129,7-9.387,23.32-20.607,24.311c-5.91,0.521-12.159-2.117-18.02-2.664C110.851,58.65,102.853,59.312,95.513,62.231z"/>
	<path style="fill:#F28291;" d="M280.447,62.965c-9.411-3.426-21.089-2.473-27.955,4.819c-6.477,6.878-7.137,17.711-4.097,26.656
		s9.165,16.454,15.168,23.749c4.863,5.909,9.788,11.878,15.905,16.474c6.118,4.597,13.641,7.759,21.275,7.23
		c7.797-0.54,14.836-4.803,21.016-9.589c9.329-7.224,17.514-15.923,24.158-25.674c3.76-5.519,7.083-11.523,8.189-18.109
		c1.106-6.585-0.307-13.871-4.973-18.648c-5.872-6.012-15.661-6.747-23.513-3.752c-6.511,2.484-16.024,15.019-22.263,12.708
		c-3.898-1.443-7.721-6.867-11.138-9.363C288.584,66.809,284.688,64.509,280.447,62.965z"/>
	<path style="fill:#F28291;" d="M409.204,96.223c-3.303-0.525-6.964-0.438-9.627,1.586c-2.533,1.925-3.648,5.298-3.524,8.477
		s1.326,6.214,2.696,9.085c4.932,10.33,12.315,19.481,21.368,26.486c3.871,2.996,8.432,5.709,13.314,5.35
		c4.635-0.341,8.628-3.407,11.756-6.845c8.658-9.518,12.792-22.983,10.967-35.719c-0.751-5.238-2.961-10.914-7.823-13.002
		c-4.258-1.829-9.366-0.234-12.91,2.752c-3.66,3.084-5.454,9.918-10.488,9.056c-2.029-0.348-5.128-3.602-7.13-4.552
		C415.083,97.608,412.178,96.695,409.204,96.223z"/>
</g>
<path d="M507.577,184.506c2.108-7.138,6.158-15.532,3.606-23.025c-2.066-6.069-8.116-9.571-14.356-7.662
	c-3.904,1.195-7.032,4.084-10.219,6.495c-3.8,2.876-7.611,5.737-11.401,8.627c-7.34,5.596-14.561,11.353-21.831,17.04
	c-26.852,21.005-51.664,32.615-86.217,25.388c-22.563-4.719-45.198-9.109-67.956-12.786c-26.442-4.273-52.949-8.103-79.577-11.016
	c-24.265-2.655-48.63-4.631-72.925-1.154c-11.825,1.693-23.408,4.663-34.426,9.309c-11.016,4.645-20.934,11.062-31.32,16.883
	c-10.288,5.767-20.724,11.145-31.427,16.098c-10.176,4.71-20.265,9.838-28.983,16.967C5.77,257.754-4.657,278.978,2.107,298.08
	c7.148,20.185,30.215,27.671,48.492,34.22c52.576,18.838,111.659,24.704,166.871,16.559c0.566-0.084,1.045-0.275,1.442-0.543
	c0.958,0.422,1.917,0.844,2.86,1.266c10.629,4.761,21.422,9.114,32.419,12.952c22.63,7.899,45.897,13.826,69.364,18.637
	c24.276,4.978,48.946,9.571,73.624,11.967c13.09,1.271,26.255,1.881,39.379,0.731c8.976-0.787,21.862-1.121,26.847-10.152
	c5.028-9.11-2.194-18.023-9.306-23.179c-9.527-6.907-20.326-12.545-30.549-18.35c-14.459-8.211-29.242-15.882-44.416-22.685
	c6.076-0.846,12.116-1.928,18.14-3.334c11.017-2.572,22.937-5.346,32.842-11.117c11.783,3.431,23.76,5.949,35.995,7.243
	c11.512,1.218,25.188,2.099,34.201-6.645c7.492-7.268,7.51-18.832,1.939-27.251c-1.517-2.293-3.357-4.271-5.411-5.999
	c0.072-0.125,0.145-0.249,0.211-0.385c5.496-11.312,1.872-22.119-5.712-29.993c0.327-0.429,0.618-0.914,0.828-1.504
	C498.626,222.325,502.109,203.021,507.577,184.506z M78.857,223.716c1.851,2.016,4.463,3.389,7.195,4.357
	c3.845,1.362,7.872,2.041,10.305,5.714c2.204,3.328,2.414,7.658,0.685,11.204c-3.791,7.774-13.273,9.278-20.649,6.213
	c-7.478-3.107-11.544-9.586-16.185-15.75C66.551,231.722,72.734,227.801,78.857,223.716z M31.191,315.967
	c-6.152-2.388-12.046-5.479-16.471-10.325c-12.881-14.104-4.363-32.939,7.408-45.129C35.766,275.448,40.041,297.096,31.191,315.967z
	 M427.477,358.086c4.616,2.716,9.174,5.46,13.657,8.22c3.752,2.31,7.876,4.498,10.685,8.002c4.031,5.027-0.558,6.912-5.322,7.979
	c-10.864,2.434-22.212,3.063-33.317,3.016c-22.485-0.094-44.788-3.91-66.829-8.031c-40.937-7.655-82.204-17.696-120.112-35.332
	c-5.398-2.511-10.694-5.265-15.915-8.123c-4.886-2.674-10.836-5.296-14.773-9.335c-1.531-1.571-3.266-3.901-2.731-6.266
	c0.626-2.764,3.463-3.534,5.882-4.288c1.786-0.557,3.587-1.068,5.395-1.56c49.294,37.394,110.94,54.225,172.521,52.287
	C393.752,364.115,410.776,361.923,427.477,358.086z M417.854,352.527c-57.386,11.43-116.45,3.534-169.745-20.953
	c-13.046-5.994-25.721-12.989-37.802-20.794c2.198-0.532,4.398-1.047,6.598-1.546c13.798-3.126,27.71-5.386,41.716-6.836
	C314.141,301.898,369.204,324.94,417.854,352.527z M394.777,307.111c-9.148,2.655-18.411,5.114-27.728,7.182
	c-2.841-1.164-5.695-2.297-8.566-3.392c-15.977-6.094-32.116-9.719-48.648-13.643c-13.789-3.272-25.994-3.613-40.213-4.023
	c-16.48-0.475-31.856,3.2-47.928,5.815c-1.723,0.28-3.45,0.545-5.169,0.847c-5.922,1.041-11.818,2.231-17.696,3.493
	c-4.948,1.063-10.031,2.259-13.622,6.084c-7.346,7.825-2.025,18.87,5.438,24.233c3.995,2.871,8.392,5.332,12.922,7.59
	c-19.334,0.666-38.812,0.546-58.036-0.961c-23.808-1.866-47.242-6.22-70.463-11.701c-11.332-2.675-22.599-5.675-33.7-9.194
	c-0.766-0.243-1.541-0.49-2.317-0.739c8.416-21.841,3.447-45.91-13.54-61.434c1.001-0.888,2.012-1.73,3.024-2.508
	c7.551-5.807,15.882-10.368,24.17-14.998c6.871,16.791,29.831,28.793,45.358,15.449c6.266-5.385,8.822-14.025,5.536-21.759
	c-1.56-3.672-4.253-6.603-7.876-8.3c-3.54-1.659-9.256-1.809-12.568-4.315c0.084-0.057,0.169-0.112,0.253-0.169
	c19.031-12.971,39.712-21.468,62.75-23.692c22.386-2.161,45.07-0.285,67.357,2.14c25.065,2.727,50.113,5.832,75.08,9.34
	c27.886,3.917,56.913,8.166,85.074,13.229c14.694,2.642,29.347,5.528,43.923,8.762c12.384,2.748,24.492,2.591,36.979,5.125
	c1.067,0.297,2.137,0.585,3.202,0.889c7.924,2.262,16.836,4.664,23.307,10.028c5.547,4.598,9.963,12.934,6.526,20.008
	c-0.032,0.067-0.056,0.133-0.085,0.2c-3.241-1.45-6.65-2.577-10.035-3.473c-0.226-0.385-0.628-0.674-1.207-0.706
	c-0.692-0.038-1.385-0.062-2.077-0.095c-0.23-0.052-0.462-0.109-0.692-0.16c-23.595-5.203-48.566-2.962-70.828,6.27
	c-2.853,0.743-5.651,1.594-8.352,2.595c-8.409,3.118-12.613,12.412-4.511,18.7c4.512,3.502,10.766,5.102,16.038,7.065
	c3.113,1.159,6.239,2.287,9.377,3.378C408.389,302.508,401.624,305.124,394.777,307.111z M497.508,294.963
	c-3.255,10.392-17.864,9.342-26.249,8.615c-10.589-0.918-20.988-3.067-31.294-5.608c-10.409-2.567-20.641-5.811-30.75-9.372
	c-4.259-1.5-9.237-2.701-13.119-5.041c-6.308-3.802,5.22-6.576,7.917-7.378c11.506-3.42,23.233-6.002,35.081-7.778
	c4.466-0.168,8.959-0.098,13.471,0.24c9.589,0.719,18.941,2.846,28.05,5.886C488.621,277.199,500.76,284.578,497.508,294.963z
	 M483.368,235.66c-3.49-2.137-7.298-3.78-11.171-4.81c-10.826-2.879-22.239-3.992-33.246-6.054
	c-6.46-1.211-12.921-2.421-19.381-3.632c23.372-15.757,46.385-31.966,69.004-48.828c3.085-2.3,6.1-4.895,9.36-6.943
	c1.522-0.956,2.722-2.147,4.413-1.133c1.696,1.017,1.499,3.401,1.414,5.119c-0.201,4.025-2.033,8.252-3.165,12.087
	c-1.118,3.788-2.262,7.56-3.493,11.313C492.454,206.949,487.013,221.173,483.368,235.66z"/>
<path d="M140.005,232.525c-12.687-0.972-21.334,14.54-18.764,25.754c1.787,7.798,9.365,13.487,17.394,12.569
	c6.368-0.729,11.798-5.216,14.215-11.075C157.072,249.541,152.897,233.512,140.005,232.525z M146.234,256.466
	c-2.979,8.008-13.272,10.608-17.752,2.458c-1.331-7.991-0.124-18.962,10-19.077C146.64,239.753,148.452,250.503,146.234,256.466z"/>
<path d="M194.017,231.182c-12.687-0.972-21.334,14.54-18.764,25.754c1.787,7.797,9.365,13.487,17.394,12.569
	c6.368-0.729,11.798-5.216,14.215-11.075C211.084,248.197,206.909,232.169,194.017,231.182z M200.246,255.123
	c-2.979,8.008-13.272,10.608-17.753,2.458c-1.331-7.991-0.123-18.962,10-19.077C200.653,238.41,202.465,249.159,200.246,255.123z"/>
<path d="M248.03,229.838c-12.688-0.971-21.334,14.54-18.764,25.754c1.787,7.797,9.365,13.487,17.394,12.569
	c6.368-0.729,11.798-5.216,14.215-11.076C265.096,246.854,260.922,230.825,248.03,229.838z M254.259,253.779
	c-2.979,8.008-13.272,10.608-17.753,2.458c-1.331-7.991-0.124-18.962,10-19.077C254.665,237.066,256.477,247.816,254.259,253.779z"
	/>
<path d="M302.042,228.495c-12.688-0.972-21.334,14.54-18.764,25.754c1.787,7.798,9.365,13.487,17.394,12.569
	c6.368-0.728,11.798-5.216,14.215-11.075C319.109,245.51,314.934,229.482,302.042,228.495z M308.271,252.436
	c-2.979,8.007-13.272,10.608-17.753,2.458c-1.331-7.991-0.123-18.962,10-19.077C308.677,235.723,310.49,246.472,308.271,252.436z"/>
<path d="M356.055,227.151c-12.687-0.971-21.334,14.54-18.764,25.754c1.787,7.798,9.365,13.487,17.394,12.568
	c6.368-0.728,11.798-5.216,14.215-11.075C373.122,244.167,368.947,228.138,356.055,227.151z M362.284,251.092
	c-2.979,8.008-13.272,10.608-17.752,2.458c-1.331-7.991-0.124-18.962,10-19.077C362.69,234.379,364.503,245.129,362.284,251.092z"/>
<path d="M246.757,431.91c-5.298-3.884-11.614-6.194-18.167-6.642c-6.404-0.439-16.546,5.224-20.689-1.339
	c-3.393-5.375-3.867-12.435-6.404-18.252c-2.598-5.96-6.428-11.383-11.047-15.954c-9.27-9.174-21.779-14.881-34.764-15.927
	c-27.621-2.225-51.665,20.422-56.11,46.707c-12.011-5.452-26.753-5.708-36.831,3.842c-6.891,6.53-10.135,16.318-8.332,25.223
	c-13.189-1.017-29.971,2.186-29.257,16.924c0.948,19.575,26.802,17.867,40.145,18.232c39.377,1.079,78.717,1.129,118.099,0.992
	c13.727,0.172,27.453,0.37,41.18,0.567c14.668,0.21,28.747-3.77,34.012-18.882C263.14,454.348,257.695,439.929,246.757,431.91z
	 M247.363,461.915c-3.617,16.1-20.489,14.632-33.564,14.906c-16.279,0.342-32.573,0.284-48.855,0.399
	c-4.944,0.035-9.887,0.099-14.83,0.151c-18.685-0.723-37.376-1.322-56.06-1.441c-8.11-0.051-16.219-0.103-24.329-0.154
	c-8.164-0.051-16.925,0.785-25.007-0.527c-5.636-0.915-15.285-7.649-6.904-12.554c6.673-3.905,16.747-3.423,23.895-1.387
	c5.315,1.514,8.158-4.883,5.033-8.645c-5.45-6.562-1.611-16.901,5.028-21.019c9.35-5.799,21.768-1.338,30.062,4.219
	c3.617,2.423,9.471-0.73,9.068-5.204c-2.193-24.323,17.46-47.733,42.499-47.248c11.831,0.229,23.277,5.631,31.581,13.95
	c3.952,3.96,7.215,8.647,9.336,13.841c2.197,5.379,3.019,11.288,5.98,16.368c2.503,4.295,6.176,7.537,11.202,8.342
	c6.044,0.968,11.892-1.815,17.999-0.383C241.109,438.249,250.059,449.913,247.363,461.915z"/>
<path d="M120.026,140.642c14.717,6.96,30.3,12.294,46.25,15.601c6.582,1.364,13.876,2.055,19.995-1.365
	c6.499-3.633,9.849-10.605,12.154-17.359c5.457-15.99,8.064-33.332,8.502-50.187c0.384-14.782-0.22-31.901-7.863-45.035
	c-7.563-12.999-22.936-20.797-37.352-14.192c-12.424,5.693-19.12,18.721-21.938,31.743c-12.852-5.068-26.746-8.665-40.497-5.421
	c-12.21,2.88-23.58,11.623-27.374,23.87C62.37,109.075,97.215,129.854,120.026,140.642z M100.22,63.861
	c7.891-2.373,18.215-2.576,26.054,0.285c7.964,2.907,16.959,10.012,22.379-0.019c5.381-9.958,2.885-20.312,14.861-26.581
	c10.798-5.652,21.633,1.01,26.466,11.156c5.259,11.043,4.676,24.645,4.172,36.558c-0.546,12.893-2.587,25.627-6.087,38.048
	c-1.441,5.114-2.763,10.906-5.677,15.428c-3.366,5.223-8.678,5.268-14.367,4.609c-12.382-1.437-24.852-5.298-36.49-9.639
	c-19.62-7.319-49.213-19.827-51.403-44.045C78.97,76.843,88.647,67.341,100.22,63.861z"/>
<path d="M288.898,147.659c12.62,5.342,24.863-1.008,34.811-8.801c9.686-7.587,18.297-16.806,25.248-26.964
	c6.683-9.765,12.82-21.496,11.056-33.695c-1.788-12.368-11.764-21.364-24.498-20.273c-12.283,1.053-20.767,9.73-27.966,18.905
	c-7.701-8.332-16.116-16.674-27.273-19.938c-9.385-2.745-20.581-1.717-28.164,4.898c-18.746,16.353-2.656,46.28,8.965,61.643
	C268.374,133.08,277.56,142.859,288.898,147.659z M254.634,73.545c4.183-8.492,14.833-9.819,23.039-7.206
	c10.04,3.197,17.789,11.644,24.874,19.021c1.466,1.527,3.209,1.731,4.692,1.162c1.196,0.317,2.469,0.085,3.374-1.077
	c5.586-7.169,11.825-15.221,20.958-17.827c9.734-2.778,18.4,2.502,19.176,12.826c0.72,9.572-5.339,18.819-10.715,26.232
	c-5.392,7.435-11.875,13.957-19.384,19.252c-7.273,5.129-15.303,9.457-24.457,8.318c-9.119-1.134-16.309-7.096-22.67-13.365
	C262.984,110.495,246.824,89.399,254.634,73.545z"/>
<path d="M462.622,445.926c-11.798-6.755-26.18-8.128-39.022-4.09c-4.985-18.458-20.609-33.978-40.799-33.279
	c-17.281,0.599-30.769,14.627-31.106,31.113c-12.905-2.372-27.607-1.066-38.838,5.034c-12.763,6.931-11.207,22.814,1.654,28.674
	c7.149,3.257,15.539,2.987,23.222,3.438c9.225,0.541,18.428,1.044,27.667,1.287c6.72,0.176,13.441,0.266,20.162,0.333
	c8.808,0.401,17.617,0.798,26.425,1.199l32.745,1.49c5.822,0.265,11.645,0.522,17.464,0.84c4.091,0.224,8.465,0.598,12.22-1.427
	c7.307-3.939,6.963-13.089,3.589-19.564C474.709,454.647,468.733,449.426,462.622,445.926z M470.1,469.126
	c-0.484,5.265-16.989,2.722-21.002,2.651c-21.191-0.376-42.383-0.757-63.574-1.135c-15.539-1.365-31.082-2.648-46.684-3.319
	c-6.074-0.261-13.192,0.323-19.002-1.711c-6.5-2.276-7.917-8.474-1.456-11.519c11.591-5.462,25.691-4.954,37.906-2.489
	c4.772,0.963,7.781-3.493,5.928-7.711c-6.91-15.736,11.093-28.378,25.209-26.237c15.995,2.427,25.25,16.716,28.481,31.461
	c0.658,3.003,4.206,3.989,6.67,2.714c11.58-5.993,25.222-4.583,36.005,2.483C462.67,456.992,470.622,463.442,470.1,469.126z"/>
<path d="M430.306,152.332c8.341,0.762,15.502-4.308,20.456-10.606c9.193-11.687,15.827-31.428,9.866-45.91
	c-2.843-6.908-9.356-11.568-17.011-10.269c-8.453,1.434-13.33,8.186-16.912,15.326c-4.297-3.954-9.147-7.367-15.005-8.345
	c-6.284-1.049-13.289,0.751-17.086,6.184c-9.395,13.442,4.823,31.604,13.965,40.955C414.393,145.612,421.73,151.549,430.306,152.332
	z M408.434,100.361c6.937-0.559,12.651,4.913,17.301,9.291c1.363,1.284,2.99,1.184,4.197,0.41c1.038-0.167,2.019-0.803,2.686-2.096
	c2.554-4.954,6.939-14.387,14.024-13.059c5.564,1.044,5.715,9.127,5.358,13.443c-0.557,6.713-2.823,13.418-6.132,19.255
	c-2.937,5.181-7.353,12.067-13.844,12.799c-6.564,0.74-13.17-4.922-17.66-9.087c-4.828-4.478-9.242-10.075-11.921-16.132
	C399.665,108.906,400.108,101.032,408.434,100.361z"/>
<g>
</g>
<g>
</g>
<g>
</g>
<g>
</g>
<g>
</g>
<g>
</g>
<g>
</g>
<g>
</g>
<g>
</g>
<g>
</g>
<g>
</g>
<g>
</g>
<g>
</g>
<g>
</g>
<g>
</g>
</svg>
