<?xml version="1.0" encoding="UTF-8" standalone="no"?>
<svg
   xmlns:dc="http://purl.org/dc/elements/1.1/"
   xmlns:cc="http://creativecommons.org/ns#"
   xmlns:rdf="http://www.w3.org/1999/02/22-rdf-syntax-ns#"
   xmlns:svg="http://www.w3.org/2000/svg"
   xmlns="http://www.w3.org/2000/svg"
   xmlns:sodipodi="http://sodipodi.sourceforge.net/DTD/sodipodi-0.dtd"
   xmlns:inkscape="http://www.inkscape.org/namespaces/inkscape"
   id="Capa_1"
   enable-background="new 0 0 512 512"
   height="128"
   viewBox="0 0 300 128"
   width="300"
   version="1.1"
   sodipodi:docname="logo_anelli_con_scritta.svg"
   inkscape:version="0.92.3 (2405546, 2018-03-11)"
   inkscape:export-filename="C:\Deto\GitHub\100giorni\il-matrimonio-di-claudia-e-samuele\assets\images\logo_anelli_con_scritta.png"
   inkscape:export-xdpi="96"
   inkscape:export-ydpi="96">
  <metadata
     id="metadata61">
    <rdf:RDF>
      <cc:Work
         rdf:about="">
        <dc:format>image/svg+xml</dc:format>
        <dc:type
           rdf:resource="http://purl.org/dc/dcmitype/StillImage" />
        <dc:title></dc:title>
      </cc:Work>
    </rdf:RDF>
  </metadata>
  <defs
     id="defs59" />
  <sodipodi:namedview
     pagecolor="#ffffff"
     bordercolor="#666666"
     borderopacity="1"
     objecttolerance="10"
     gridtolerance="10"
     guidetolerance="10"
     inkscape:pageopacity="0"
     inkscape:pageshadow="2"
     inkscape:window-width="1366"
     inkscape:window-height="745"
     id="namedview57"
     showgrid="false"
     inkscape:zoom="2.6074563"
     inkscape:cx="87.113714"
     inkscape:cy="77.552749"
     inkscape:window-x="-8"
     inkscape:window-y="-8"
     inkscape:window-maximized="1"
     inkscape:current-layer="Capa_1" />
  <g
     id="g54"
     transform="matrix(0.12499972,0,0,0.12499972,4.3454649,31.318266)"
     style="stroke-width:8.00001812">
    <g
       id="g50"
       style="stroke-width:8.00001812">
      <g
         id="g48"
         style="stroke-width:8.00001812">
        <g
           id="g46"
           style="stroke-width:8.00001812">
          <path
             d="m 338.825,65.419 c -10.849,-0.428 -16.246,5.473 -18.477,8.968 -0.626,0.981 -2.033,1.008 -2.68,0.042 -2.387,-3.565 -8.123,-9.696 -19.052,-8.973 -12.44,0.823 -22.065,11.468 -21.949,23.935 0.226,24.187 28.388,39.609 38.671,44.437 2.349,1.103 5.06,1.102 7.409,-0.001 10.335,-4.853 38.721,-20.403 38.67,-44.795 -0.025,-12.277 -10.325,-23.129 -22.592,-23.613 z"
             id="path2"
             inkscape:connector-curvature="0"
             style="fill:#fdabdf;stroke-width:8.00001812" />
          <path
             d="m 319.042,129.982 c -44.537,0 -80.642,36.105 -80.642,80.642 0,44.537 36.105,80.642 80.642,80.642 44.537,0 80.642,-36.105 80.642,-80.642 0,-44.537 -36.105,-80.642 -80.642,-80.642 z m 0,131.747 c -28.224,0 -51.105,-22.88 -51.105,-51.105 0,-28.225 22.88,-51.105 51.105,-51.105 28.225,0 51.105,22.88 51.105,51.105 0,28.225 -22.881,51.105 -51.105,51.105 z"
             id="path4"
             inkscape:connector-curvature="0"
             style="fill:#fbd307;stroke-width:8.00001812" />
          <g
             id="g44"
             style="stroke-width:8.00001812">
            <path
               d="M 99.108,202.899 V 65.172 c 0,-30.961 25.099,-56.06 56.06,-56.06 h 32.025 c 5.205,0 9.424,4.219 9.424,9.424 V 258.96 h -41.449 c -30.961,0 -56.06,-25.099 -56.06,-56.061 z"
               id="path6"
               inkscape:connector-curvature="0"
               style="fill:#ff646f;stroke-width:8.00001812" />
            <path
               d="M 99.108,202.899 V 65.172 c 0,-30.961 25.099,-56.06 56.06,-56.06 V 258.96 c -30.961,0 -56.06,-25.099 -56.06,-56.061 z"
               id="path8"
               inkscape:connector-curvature="0"
               style="fill:#ff4755;stroke-width:8.00001812" />
            <path
               d="M 443.966,373.329 H 194.118 v -120.82 c 0,-14.258 11.559,-25.817 25.817,-25.817 h 198.214 c 14.258,0 25.817,11.559 25.817,25.817 z"
               id="path10"
               inkscape:connector-curvature="0"
               style="fill:#ff4755;stroke-width:8.00001812" />
            <path
               d="m 418.149,226.692 h -40.562 c 14.258,0 25.817,11.559 25.817,25.817 v 120.819 h 40.562 V 252.509 c 0,-14.258 -11.559,-25.817 -25.817,-25.817 z"
               id="path12"
               inkscape:connector-curvature="0"
               style="fill:#fc2b3a;stroke-width:8.00001812" />
            <path
               d="M 418.148,226.692 H 219.935 c -14.258,0 -25.817,11.559 -25.817,25.817 v 6.45 h 249.848 v -6.45 c 0,-14.258 -11.559,-25.817 -25.818,-25.817 z"
               id="path14"
               inkscape:connector-curvature="0"
               style="fill:#ff646f;stroke-width:8.00001812" />
            <path
               d="m 403.403,252.509 v 6.45 h 40.562 v -6.45 c 0,-14.258 -11.559,-25.817 -25.817,-25.817 h -40.562 c 14.258,0 25.817,11.559 25.817,25.817 z"
               id="path16"
               inkscape:connector-curvature="0"
               style="fill:#ff4755;stroke-width:8.00001812" />
            <g
               id="g42"
               style="stroke-width:8.00001812">
              <g
                 id="g40"
                 style="stroke-width:8.00001812">
                <g
                   id="g38"
                   style="stroke-width:8.00001812">
                  <g
                     id="g36"
                     style="stroke-width:8.00001812">
                    <g
                       id="g34"
                       style="stroke-width:8.00001812">
                      <g
                         id="g32"
                         style="stroke-width:8.00001812">
                        <g
                           id="g30"
                           style="stroke-width:8.00001812">
                          <g
                             id="g28"
                             style="stroke-width:8.00001812">
                            <path
                               d="m 140.704,496.055 4.422,-18.897 c 6.235,-26.645 27.304,-47.808 53.678,-53.915 22.124,-5.122 46.909,-3.634 67.053,-1.002 10.615,1.387 21.326,1.843 32.018,1.295 68.542,-3.51 134.029,-29.461 186.37,-73.853 l 12.977,-11.006 c 8.667,-7.351 9.783,-20.315 2.5,-29.039 -6.755,-8.092 -18.514,-9.811 -27.304,-3.993 l -15.51,10.267 c -19.49,12.902 -40.159,23.929 -61.729,32.933 -31.659,13.216 -66.516,16.783 -100.196,10.254 l 59.233,-20.734 c 10.83,-5.571 15.464,-18.674 10.55,-29.831 -1.702,-3.864 -4.468,-7.175 -8,-9.575 -5.299,-3.6 -11.969,-4.907 -18.303,-3.587 l -40.178,8.378 c -28.379,5.918 -57.846,3.806 -85.091,-6.098 -43.498,-15.812 -92.242,-2.804 -122.078,32.578 l -70.842,84.012 z"
                               id="path18"
                               inkscape:connector-curvature="0"
                               style="fill:#ffece3;stroke-width:8.00001812" />
                            <g
                               id="g22"
                               style="stroke-width:8.00001812">
                              <path
                                 d="m 499.723,309.638 c -2.272,-2.721 -5.116,-4.704 -8.217,-5.939 -0.933,4.865 -3.583,9.416 -7.848,12.628 l -13.592,10.237 c -91.623,69.004 -186.01,62.254 -190.332,62.945 -33.336,-0.224 -60.604,-15.078 -98.888,-6.026 -34.125,8.069 -70.439,50.458 -87.448,80.435 l 47.307,32.137 4.422,-18.897 c 6.235,-26.645 27.304,-47.808 53.678,-53.915 22.124,-5.122 46.909,-3.634 67.053,-1.002 10.615,1.387 21.326,1.843 32.018,1.295 68.542,-3.51 134.029,-29.461 186.37,-73.853 l 12.977,-11.006 c 8.666,-7.35 9.782,-20.315 2.5,-29.039 z"
                                 id="path20"
                                 inkscape:connector-curvature="0"
                                 style="fill:#ffddce;stroke-width:8.00001812" />
                            </g>
                            <path
                               d="M 156.358,455.58 47.968,381.946 c -11.799,-8.015 -27.858,-4.983 -35.921,6.783 -8.11,11.834 -5.056,28.006 6.811,36.068 l 108.391,73.634 c 11.799,8.015 27.858,4.983 35.921,-6.783 8.109,-11.834 5.056,-28.006 -6.812,-36.068 z"
                               id="path24"
                               inkscape:connector-curvature="0"
                               style="fill:#665e66;stroke-width:8.00001812" />
                            <path
                               d="m 156.359,455.58 -11.907,-8.089 -5.702,8.32 c -8.063,11.766 -24.122,14.798 -35.921,6.783 L 8.028,398.192 c -2.021,9.928 1.92,20.553 10.83,26.605 l 108.391,73.634 c 11.799,8.015 27.858,4.983 35.921,-6.783 8.11,-11.834 5.056,-28.006 -6.811,-36.068 z"
                               id="path26"
                               inkscape:connector-curvature="0"
                               style="fill:#454045;stroke-width:8.00001812" />
                          </g>
                        </g>
                      </g>
                    </g>
                  </g>
                </g>
              </g>
            </g>
          </g>
        </g>
      </g>
    </g>
    <path
       d="m 505.48,304.831 c -9.217,-11.04 -25.21,-13.379 -37.201,-5.44 -5.468,3.613 -10.201,6.77 -16.813,11.107 v -57.989 c 0,-18.371 -14.946,-33.317 -33.317,-33.317 h -11.386 c 0.276,-2.848 0.421,-5.709 0.421,-8.568 0,-38.626 -24.976,-71.526 -59.626,-83.406 10.955,-8.861 21.394,-21.647 21.36,-38.202 -0.034,-16.217 -13.679,-30.456 -29.797,-31.092 -9.535,-0.385 -16.032,3.106 -20.157,6.716 -5.547,-4.814 -12.833,-7.202 -20.843,-6.668 -16.391,1.085 -29.109,14.917 -28.953,31.49 0.153,16.341 10.51,28.979 21.36,37.756 -34.65,11.879 -59.628,44.779 -59.628,83.406 0,2.86 0.145,5.721 0.421,8.568 h -11.386 c -5.721,0 -11.108,1.45 -15.817,4.001 V 18.536 c 0,-9.332 -7.592,-16.925 -16.925,-16.925 h -32.025 c -35.047,0 -63.56,28.513 -63.56,63.56 v 137.727 c 0,35.047 28.513,63.56 63.56,63.56 h 31.449 v 17.632 c -37.83,-3.515 -76.046,11.433 -101.236,41.305 L 45.785,372.353 C 31.6,366.702 14.832,371.394 5.858,384.488 -4.608,399.759 -0.676,420.595 14.641,431 l 108.391,73.635 c 15.228,10.345 35.991,6.327 46.322,-8.748 9.485,-13.84 7.033,-31.908 -4.29,-42.851 9.035,-11.229 21.632,-19.292 35.43,-22.487 36.663,-8.488 63.831,2.213 97.763,0.478 124.844,-6.394 197.322,-82.607 203.815,-86.63 11.764,-9.976 13.293,-27.725 3.408,-39.566 z M 284.167,89.32 c -0.146,-15.68 19.71,-22.006 27.269,-10.718 1.715,2.561 4.566,4.082 7.652,4.036 3.084,-0.034 5.918,-1.609 7.581,-4.215 6.977,-10.931 27.217,-4.696 27.248,10.624 0.032,15.68 -15.713,27.556 -26.47,33.837 -5.645,-0.537 -11.155,-0.538 -16.81,0 -10.679,-6.235 -26.324,-18.016 -26.47,-33.564 z M 245.9,210.624 c 0,-40.33 32.811,-73.141 73.141,-73.141 40.33,0 73.142,32.811 73.142,73.141 0,2.862 -0.188,5.725 -0.52,8.568 h -14.656 c 0.419,-2.831 0.639,-5.692 0.639,-8.568 0,-32.315 -26.29,-58.605 -58.605,-58.605 -32.315,0 -58.605,26.29 -58.605,58.605 0,2.877 0.221,5.737 0.639,8.568 H 246.42 c -0.332,-2.842 -0.52,-5.705 -0.52,-8.568 z m 30.389,8.568 c -0.565,-2.816 -0.852,-5.682 -0.852,-8.568 0,-24.044 19.56,-43.604 43.604,-43.604 24.044,0 43.605,19.56 43.605,43.604 0,2.886 -0.287,5.752 -0.852,8.568 z M 189.118,18.536 v 221.327 c -1.481,3.595 -2.346,7.504 -2.473,11.596 H 162.67 V 16.612 h 24.525 c 1.06,0 1.923,0.863 1.923,1.924 z M 106.609,202.899 V 65.172 c 0,-24.226 17.832,-44.362 41.059,-47.979 v 233.685 c -23.227,-3.617 -41.059,-23.753 -41.059,-47.979 z m 95.009,63.561 h 25.95 c 4.142,0 7.5,-3.358 7.5,-7.5 0,-4.142 -3.358,-7.5 -7.5,-7.5 h -25.897 c 0.549,-9.61 8.518,-17.266 18.264,-17.266 h 198.214 c 9.746,0 17.714,7.656 18.264,17.266 h -173.78 c -4.142,0 -7.5,3.358 -7.5,7.5 0,4.142 3.358,7.5 7.5,7.5 h 173.833 v 53.355 c -36.73,21.6 -68.733,34.569 -106.467,34.974 l 26.697,-9.345 c 0.327,-0.115 0.645,-0.251 0.953,-0.41 14.351,-7.383 20.493,-24.743 13.983,-39.523 -2.27,-5.154 -5.952,-9.564 -10.65,-12.756 -6.97,-4.736 -15.734,-6.456 -24.048,-4.725 l -40.179,8.378 c -27.033,5.639 -55.043,3.631 -80.997,-5.805 -4.659,-1.694 -9.382,-3.059 -14.138,-4.135 V 266.46 Z m 290.753,66.497 c -6.43,3.992 -74.919,76.945 -194.879,83.089 -33.061,1.695 -60.4,-9.367 -100.38,-0.11 -17.281,4.002 -33.025,14.139 -44.182,28.247 L 99.504,407.89 c -3.426,-2.326 -8.09,-1.437 -10.419,1.99 -2.327,3.426 -1.437,8.091 1.99,10.419 l 61.069,41.485 c 8.437,5.732 10.605,17.21 4.839,25.624 -5.713,8.336 -17.16,10.498 -25.52,4.82 L 23.072,418.593 c -8.437,-5.732 -10.605,-17.21 -4.839,-25.624 5.708,-8.328 17.141,-10.493 25.497,-4.832 l 0.034,0.022 c 10e-4,0 0.002,0.001 0.003,0.001 l 18.406,12.504 c 3.425,2.327 8.091,1.437 10.418,-1.99 2.328,-3.426 1.437,-8.091 -1.989,-10.419 L 58.775,380.22 96.851,335.066 c 27.689,-32.836 73.414,-45.039 113.781,-30.364 28.578,10.389 59.417,12.599 89.185,6.392 l 40.179,-8.378 c 4.354,-0.909 8.932,-0.015 12.557,2.448 2.367,1.608 4.217,3.819 5.351,6.394 3.255,7.389 0.309,16.041 -6.702,19.917 l -58.695,20.545 c -0.011,0.004 -0.021,0.01 -0.033,0.015 -0.018,0.007 -0.037,0.01 -0.056,0.017 l -28.459,10.365 c -3.892,1.418 -5.899,5.722 -4.481,9.614 1.109,3.045 3.985,4.936 7.048,4.936 2.345,0 1.294,-0.158 29.107,-10.121 90.39,16.453 157.58,-42.125 180.927,-54.946 5.609,-3.715 13.092,-2.621 17.406,2.546 4.624,5.539 3.909,13.843 -1.595,18.511 z"
       id="path52"
       inkscape:connector-curvature="0"
       style="stroke-width:8.00001812" />
  </g>
  <text
     xml:space="preserve"
     style="font-style:normal;font-variant:normal;font-weight:normal;font-stretch:normal;font-size:48px;line-height:1.25;font-family:Odelette;-inkscape-font-specification:'Odelette, Normal';font-variant-ligatures:normal;font-variant-caps:normal;font-variant-numeric:normal;font-feature-settings:normal;text-align:center;letter-spacing:0px;word-spacing:0px;writing-mode:lr-tb;text-anchor:middle;fill:#ff646f;fill-opacity:1;stroke:none;stroke-width:1;"
     x="147.08308"
     y="76.082161"
     id="text869"><tspan
       sodipodi:role="line"
       id="tspan879"
       x="147.08308"
       y="76.082161">Anelli</tspan></text>
</svg>
