<?xml version="1.0" encoding="UTF-8" standalone="no"?>
<!-- Generator: Adobe Illustrator 18.0.0, SVG Export Plug-In . SVG Version: 6.00 Build 0)  -->

<svg
   xmlns:dc="http://purl.org/dc/elements/1.1/"
   xmlns:cc="http://creativecommons.org/ns#"
   xmlns:rdf="http://www.w3.org/1999/02/22-rdf-syntax-ns#"
   xmlns:svg="http://www.w3.org/2000/svg"
   xmlns="http://www.w3.org/2000/svg"
   xmlns:sodipodi="http://sodipodi.sourceforge.net/DTD/sodipodi-0.dtd"
   xmlns:inkscape="http://www.inkscape.org/namespaces/inkscape"
   version="1.1"
   id="Capa_1"
   x="0px"
   y="0px"
   viewBox="0 0 300 128"
   xml:space="preserve"
   sodipodi:docname="logo_luna_di_miele_con_scritta.svg"
   width="300"
   height="128"
   inkscape:version="0.92.3 (2405546, 2018-03-11)"
   inkscape:export-filename="C:\Deto\GitHub\100giorni\il-matrimonio-di-claudia-e-samuele\html5\assets\images\logo_luna_di_miele_con_scritta.png"
   inkscape:export-xdpi="96"
   inkscape:export-ydpi="96"><metadata
   id="metadata107"><rdf:RDF><cc:Work
       rdf:about=""><dc:format>image/svg+xml</dc:format><dc:type
         rdf:resource="http://purl.org/dc/dcmitype/StillImage" /><dc:title /></cc:Work></rdf:RDF></metadata><defs
   id="defs105">
	
	
	
	
	
	
	
	
	
	
	
	
	
	
	
	
	
	
	
	
	
	
	
	
	
	
	
	
	
	
	
	
	
	
</defs><sodipodi:namedview
   pagecolor="#ffffff"
   bordercolor="#666666"
   borderopacity="1"
   objecttolerance="10"
   gridtolerance="10"
   guidetolerance="10"
   inkscape:pageopacity="0"
   inkscape:pageshadow="2"
   inkscape:window-width="1920"
   inkscape:window-height="1057"
   id="namedview103"
   showgrid="false"
   fit-margin-top="0"
   fit-margin-left="0"
   fit-margin-right="0"
   fit-margin-bottom="0"
   inkscape:zoom="2.2003738"
   inkscape:cx="69.265062"
   inkscape:cy="-28.724574"
   inkscape:window-x="-8"
   inkscape:window-y="-8"
   inkscape:window-maximized="1"
   inkscape:current-layer="Capa_1" />
<g
   id="g1048"
   transform="matrix(0.82010362,0,0,0.82010362,52.391532,395.97374)"
   style="stroke-width:1.21935809"><path
     style="fill:#f57547;stroke-width:1.21935809"
     d="m 57.589686,-441.93706 c 0.921919,2.9746 0.274487,5.91937 -0.301339,8.7985 -1.321715,6.61753 -3.833868,8.04665 -10.272381,5.94623 -2.389828,-0.7817 -4.764738,-1.71555 -6.993453,-2.87018 -4.347041,-2.24662 -4.705067,-6.00292 -0.954738,-9.19234 2.885098,-2.45248 6.074518,-3.51463 9.81888,-1.41719 0.587761,-0.90998 1.07408,-1.73046 1.623054,-2.50618 0.954738,-1.35454 2.213798,-2.17203 3.932326,-1.79312 1.629022,0.36101 2.646414,1.42017 3.147651,3.03428 z m -1.56935,3.53253 c 0.110392,-0.62357 0.09547,-1.36946 -0.149178,-1.93633 -0.40278,-0.93386 -0.844346,-2.19292 -1.623054,-2.54796 -1.211323,-0.55494 -1.861738,0.76379 -2.422647,1.67974 -0.563892,0.92192 -1.023359,1.90649 -1.682725,3.15064 -0.76379,-0.35206 -1.256077,-0.56688 -1.736429,-0.80258 -3.243125,-1.59918 -6.193861,-1.01441 -8.51805,1.68869 -1.661841,1.93633 -1.414206,4.07554 0.871198,5.11978 2.774706,1.26802 5.68964,2.22872 8.55982,3.27296 0.49527,0.17902 1.077063,0.14918 1.62007,0.1641 2.464417,0.0746 2.944769,-0.12531 3.577283,-2.41966 0.665333,-2.4137 1.065129,-4.90198 1.503712,-7.36938 z"
     id="path6"
     inkscape:connector-curvature="0" /><path
     style="fill:#fbb03b;stroke-width:1.21935809"
     d="m 55.871158,-440.34086 c 0.244652,0.56687 0.25957,1.31276 0.149178,1.93633 -0.438583,2.4674 -0.838379,4.95568 -1.503712,7.36938 -0.632514,2.29435 -1.112866,2.49425 -3.577283,2.41966 -0.543007,-0.0149 -1.1248,0.0149 -1.62007,-0.1641 -2.87018,-1.04424 -5.785114,-2.00494 -8.55982,-3.27296 -2.285404,-1.04424 -2.533039,-3.18345 -0.871198,-5.11978 2.324189,-2.7031 5.274925,-3.28787 8.51805,-1.68869 0.480352,0.2357 0.972639,0.45052 1.736429,0.80258 0.659366,-1.24415 1.118833,-2.22872 1.682725,-3.15064 0.560909,-0.91595 1.211324,-2.23468 2.422647,-1.67974 0.778708,0.35504 1.220274,1.6141 1.623054,2.54796 z"
     id="path8"
     inkscape:connector-curvature="0" /><path
     style="fill:#f57547;stroke-width:1.21935809"
     d="m 54.006436,-465.51312 c 0.325208,1.68869 0.223767,3.48479 0.119342,5.22421 -0.09249,1.52161 -0.355043,3.04919 -0.719036,4.53202 -0.525106,2.14816 -1.646923,2.98654 -3.84282,2.58674 -2.136225,-0.39085 -4.278418,-0.97264 -6.286351,-1.7961 -2.709068,-1.10988 -3.58325,-3.03428 -2.897032,-5.49571 0.6713,-2.41071 2.950736,-3.96514 5.501676,-3.70557 0.632514,0.0627 1.253093,0.25956 2.001966,0.42068 0.874181,-1.11585 1.479843,-2.04672 2.24065,-2.82543 1.551449,-1.58427 3.45794,-1.13375 3.881605,1.05916 z m -2.849295,10.38277 c 1.285912,-3.42512 1.414205,-6.7488 1.014409,-10.10828 -0.232718,-0.0597 -0.465435,-0.12233 -0.695169,-0.18498 -0.978606,1.41122 -1.957212,2.82244 -2.977588,4.29333 -1.190438,-0.50123 -2.043735,-1.04424 -2.965654,-1.21132 -1.512662,-0.2715 -2.50917,0.64147 -3.049193,1.95721 -0.477369,1.16956 -0.602678,2.49724 0.644448,3.23716 2.434581,1.44106 5.003422,2.56287 8.028747,2.01688 z"
     id="path10"
     inkscape:connector-curvature="0" /><path
     style="fill:#f57547;stroke-width:1.21935809"
     d="m 51.76877,-366.4203 c 1.241159,3.01041 1.256077,6.19088 0.787658,9.35942 -0.256585,1.73344 -1.670791,2.26153 -3.153618,2.29137 -3.595184,0.0716 -6.918864,-1.0353 -9.887502,-2.98057 -1.978097,-1.29785 -1.990031,-3.89056 0.06862,-5.20332 1.441057,-0.91596 3.311746,-1.15762 5.468857,-1.85279 0.223766,-0.39383 0.638481,-1.43211 1.303813,-2.2675 1.754331,-2.20485 4.358975,-1.90351 5.41217,0.65339 z m -1.700627,9.57125 c 1.220274,-3.48181 0.534057,-6.4952 -0.853297,-10.33504 -0.909984,1.36647 -1.417188,2.02285 -1.805051,2.74189 -0.456483,0.83838 -0.808543,1.73345 -1.178504,2.54199 -4.690149,-0.67428 -4.836343,-0.61461 -5.817933,2.38088 2.986539,1.74538 6.038716,3.1924 9.654785,2.67028 z"
     id="path12"
     inkscape:connector-curvature="0" /><path
     style="fill:#fbb03b;stroke-width:1.21935809"
     d="m 52.17155,-465.23863 c 0.399796,3.35948 0.271503,6.68316 -1.014409,10.10828 -3.025325,0.54599 -5.594166,-0.57582 -8.028747,-2.01688 -1.247126,-0.73992 -1.121817,-2.0676 -0.644448,-3.23716 0.540023,-1.31574 1.536531,-2.22871 3.049193,-1.95721 0.921919,0.16708 1.775216,0.71009 2.965654,1.21132 1.020376,-1.47089 1.998982,-2.88211 2.977588,-4.29333 0.229734,0.0627 0.462451,0.12531 0.695169,0.18498 z"
     id="path14"
     inkscape:connector-curvature="0" /><path
     style="fill:#fbb03b;stroke-width:1.21935809"
     d="m 49.214846,-367.18409 c 1.387354,3.83984 2.073571,6.85323 0.853297,10.33504 -3.616069,0.52212 -6.668246,-0.9249 -9.654785,-2.67028 0.98159,-2.99549 1.127784,-3.05516 5.817933,-2.38088 0.369961,-0.80854 0.722021,-1.70361 1.178504,-2.54199 0.387863,-0.71904 0.895067,-1.37542 1.805051,-2.74189 z"
     id="path16"
     inkscape:connector-curvature="0" /><path
     style="fill:#f57547;stroke-width:1.21935809"
     d="m 31.796851,-351.13256 c 0.244651,2.74487 0.229733,5.48676 -1.673775,7.81393 -1.306797,1.5962 -2.908966,2.33314 -4.92585,1.70958 -1.98108,-0.61461 -3.974095,-1.24414 -5.868653,-2.07059 -1.232208,-0.53704 -2.261535,-1.53653 -1.867706,-3.09991 0.381895,-1.5246 1.488794,-2.54796 3.052177,-2.53602 1.691676,0.0119 3.383352,0.40576 5.173485,0.64743 0.698152,-1.1248 1.348567,-2.54497 2.351042,-3.64591 0.540023,-0.59372 1.74538,-0.98159 2.521104,-0.82644 0.543007,0.10741 1.172537,1.27099 1.238176,2.00793 z m -2.446516,5.07801 c 0.554942,-1.38735 0.736938,-2.80752 0.265537,-4.87513 -1.050212,1.69168 -1.763282,2.84035 -2.55094,4.10836 -1.193422,-0.34908 -2.210815,-0.72501 -3.261026,-0.9249 -0.951754,-0.182 -1.978097,-0.34908 -2.902999,-0.17305 -0.62058,0.12233 -1.464926,0.78766 -1.575318,1.33663 -0.09547,0.47439 0.572843,1.39631 1.124801,1.65588 1.273978,0.59372 2.667298,0.96368 4.039734,1.32171 2.658347,0.69517 3.839835,0.0895 4.860211,-2.4495 z"
     id="path18"
     inkscape:connector-curvature="0" /><path
     style="fill:#fbb03b;stroke-width:1.21935809"
     d="m 29.615872,-350.92968 c 0.471401,2.06761 0.289405,3.48778 -0.265537,4.87513 -1.020376,2.53901 -2.201864,3.14467 -4.860211,2.4495 -1.372436,-0.35803 -2.765756,-0.72799 -4.039734,-1.32171 -0.551958,-0.25957 -1.220274,-1.18149 -1.124801,-1.65588 0.110392,-0.54897 0.954738,-1.2143 1.575318,-1.33663 0.924902,-0.17603 1.951245,-0.009 2.902999,0.17305 1.050211,0.19989 2.067604,0.57582 3.261026,0.9249 0.787658,-1.26801 1.500728,-2.41668 2.55094,-4.10836 z"
     id="path20"
     inkscape:connector-curvature="0" /><path
     style="fill:#f57547;stroke-width:1.21935809"
     d="m 25.674595,-454.33374 c 0.680251,4.4634 0.101441,8.75674 -2.691167,12.51303 -1.065129,1.43211 -2.565857,2.09744 -4.314221,1.90351 -5.170501,-0.57284 -9.7711433,-2.44651 -13.3663275,-6.33409 -3.3505326,-3.62203 -2.5211042,-7.40816 2.1929132,-8.85519 1.9661629,-0.60268 4.2754343,-0.18796 6.4206113,-0.0567 0.80556,0.0477 1.5783,0.60567 2.500219,0.98756 0.396813,-0.63251 0.719037,-1.18447 1.080047,-1.70958 1.068113,-1.55443 2.440548,-2.57779 4.43058,-2.16606 2.02285,0.4177 3.446006,1.74538 3.747345,3.71751 z m -4.43953,10.09337 c 1.584268,-2.76874 2.139209,-5.75826 1.781182,-8.87011 -0.104424,-0.90103 -0.912968,-1.72151 -1.646922,-3.01936 -1.766265,1.9781 -3.126766,3.49971 -4.764738,5.32863 -0.829428,-0.61163 -1.581284,-1.22325 -2.386844,-1.75433 -1.661841,-1.09795 -3.505678,-1.24712 -5.3614491,-0.71008 -3.2311904,0.93683 -3.884589,3.17152 -1.6081363,5.64488 2.8850984,3.12975 6.6533284,4.51412 10.7646674,5.11382 1.491778,0.2178 2.485302,-0.44754 3.22224,-1.73345 z"
     id="path22"
     inkscape:connector-curvature="0" /><path
     d="m 25.203193,-383.65928 c 0.13426,2.35701 0.07459,4.96762 -0.802576,7.08893 -2.73592,6.60559 -5.820916,13.10974 -11.125678,18.143 -1.969146,1.8677 -4.1352073,3.63695 -6.4832654,4.97657 -6.2654661,3.57131 -12.9396793,5.99098 -20.2643076,6.26248 -2.518121,0.0925 -5.030274,0.37891 -7.66177,0.58776 -13.085874,-0.37294 -24.363713,-5.20929 -33.269625,-14.87899 -5.910423,-6.42061 -8.837291,-14.40759 -9.368364,-23.10763 -0.808543,-13.25296 2.765756,-25.28265 11.009319,-35.73106 7.810948,-9.90242 18.143,-15.48167 30.718686,-16.54978 3.628003,-0.31029 7.270924,0.49228 10.296249,2.7926 1.363485,1.0353 3.0670948,2.16308 2.4793345,4.2635 -0.5280893,1.88263 -2.4196635,2.04076 -3.9949805,2.44354 -1.265028,0.3252 -2.655364,0.31625 -3.830885,0.82346 -13.455835,5.78809 -25.631724,19.83169 -22.114112,39.61863 0.617596,3.47286 1.3426,6.89201 3.141684,10.00088 4.812474,8.32113 13.864581,12.88299 23.370188,11.59111 7.4678393,-1.01441 14.5507996,-3.18644 21.0340653,-7.19037 1.8856067,-1.16657 3.2103057,-2.60166 3.9979637,-4.61854 0.79661,-2.04672 1.548466,-4.11731 2.455466,-6.11629 0.942804,-2.08849 2.467401,-3.63994 4.776672,-4.21577 2.971622,-0.73992 5.465874,0.76379 5.635936,3.81597 z m -4.045701,6.60858 c 0.996508,-2.52409 1.527581,-5.18542 0.298356,-7.85869 -2.028818,-0.12531 -3.037259,1.00844 -3.804033,2.38983 -0.742905,1.33962 -1.339616,2.76277 -2.034785,4.13222 -1.870689,3.70558 -3.496727,7.47679 -7.3962334,9.78606 -7.68563843,4.55291 -16.0246755,6.68914 -24.8112456,6.63842 -10.290282,-0.0627 -20.875937,-6.48625 -24.154864,-18.86204 -0.504221,-1.90649 -0.909984,-3.85475 -1.169554,-5.80898 -1.396304,-10.52002 0.07459,-20.38962 6.853227,-28.98226 5.695607,-7.2202 12.557784,-12.57569 22.042506,-13.7154 0.396813,-0.0477 0.766774,-0.30433 1.700627,-0.69517 -0.98159,-0.96966 -1.608136,-1.814 -2.431598,-2.36596 -2.058653,-1.37542 -4.388809,-1.97213 -6.862177,-1.96318 -6.307236,0.0239 -12.098317,1.90351 -17.555239,4.94077 -3.780165,2.1034 -6.98152,4.92286 -10.033697,7.96609 -3.463907,3.45197 -5.227189,7.97803 -7.879569,11.94019 -0.265537,0.39979 -0.366978,0.90998 -0.811527,2.06163 3.353516,-2.4674 6.098387,-4.48726 8.840274,-6.50713 0.140227,0.18796 0.277471,0.37593 0.417698,0.56389 -2.834378,2.34508 -5.588199,4.79458 -8.527001,6.99942 -2.32419,1.7424 -3.010407,3.992 -3.079029,7.00241 3.043226,-2.40773 5.811965,-4.59766 8.577721,-6.78759 0.164096,0.19393 0.325208,0.38488 0.48632,0.57583 -0.835396,0.79959 -1.65289,1.61708 -2.506187,2.38982 -1.954228,1.77224 -3.959178,3.48778 -5.886554,5.28686 -1.903509,1.77522 -2.14816,2.81051 -1.554433,5.75827 2.109374,-1.76627 4.194879,-3.51165 6.277401,-5.25703 -1.262044,1.90351 -2.598677,3.68768 -4.293336,5.01536 -3.246109,2.54795 -2.947753,5.68367 -2.160094,9.69357 3.252075,-3.60115 6.065568,-6.87411 9.812913,-9.12073 -0.569859,1.05021 -1.291879,1.95423 -2.073571,2.80156 -1.790133,1.93633 -3.517612,3.94426 -5.444988,5.73439 -2.180979,2.01987 -2.50022,4.13223 -0.862248,6.83234 3.067095,-2.78365 5.424104,-6.22071 9.156531,-8.13914 -2.9209,3.2491 -5.841801,6.50117 -9.034205,10.0516 0.886116,1.37542 1.74538,2.70907 2.604644,4.0457 l 0.181997,0.1641 c 0.03879,1.87069 1.086014,3.1745 2.380877,4.55589 1.834886,-2.0497 3.544463,-3.95321 5.254041,-5.85672 0.149177,0.12232 0.301339,0.24763 0.450516,0.37294 -1.679741,2.20485 -3.359483,4.41268 -5.125748,6.73389 0.915952,1.01142 1.626038,1.7961 2.339108,2.58674 2.163077,-2.16009 4.021832,-4.01885 5.880587,-5.87462 0.137244,0.14023 0.271504,0.28344 0.408747,0.42366 -1.694659,2.09148 -3.389318,4.18295 -5.221221,6.4415 3.756296,3.00742 7.118763,5.90147 11.716421,6.70107 0.006,-0.009 0.01492,-0.0149 0.02088,-0.0239 2.914934,2.2854 6.363924,3.08798 9.884519,3.67574 2.267502,-2.34806 4.323171,-4.74684 7.214237,-6.20878 -1.766265,1.98108 -3.53253,3.96216 -5.474824,6.14016 0.85628,0.29835 1.262043,0.56389 1.664823,0.5609 6.587691,-0.0388 13.151512,-0.22376 19.5721232,-2.01091 13.163446,-3.66679 21.2846838,-12.60254 26.1508618,-24.92462 z"
     id="path24"
     inkscape:connector-curvature="0"
     style="stroke-width:1.21935809" /><path
     style="fill:#fbb03b;stroke-width:1.21935809"
     d="m 23.016247,-453.11048 c 0.358027,3.11185 -0.196914,6.10137 -1.781182,8.87011 -0.736938,1.28591 -1.730462,1.95125 -3.22224,1.73345 -4.111339,-0.5997 -7.879569,-1.98407 -10.7646674,-5.11382 -2.2764527,-2.47336 -1.6230541,-4.70805 1.6081363,-5.64488 1.8557711,-0.53704 3.6996081,-0.38787 5.3614491,0.71008 0.80556,0.53108 1.557416,1.1427 2.386844,1.75433 1.637972,-1.82892 2.998473,-3.35053 4.764738,-5.32863 0.733954,1.29785 1.542498,2.11833 1.646922,3.01936 z"
     id="path26"
     inkscape:connector-curvature="0" /><path
     style="fill:#fbb03b;stroke-width:1.21935809"
     d="m 21.455848,-384.90939 c 1.229225,2.67327 0.698152,5.3346 -0.298356,7.85869 -4.866178,12.32208 -12.9874158,21.25783 -26.1508618,24.92462 -6.4206112,1.78715 -12.9844322,1.97213 -19.5721232,2.01091 -0.40278,0.003 -0.808543,-0.26255 -1.664823,-0.5609 1.942294,-2.178 3.708559,-4.15908 5.474824,-6.14016 -2.891066,1.46194 -4.946735,3.86072 -7.214237,6.20878 -3.520595,-0.58776 -6.969585,-1.39034 -9.884519,-3.67574 0.009,-0.009 0.0179,-0.0179 0.02387,-0.0269 0.384878,0.0686 0.901033,0.25659 1.053195,0.10145 1.673774,-1.75135 3.278927,-3.56834 4.904964,-5.36444 -0.208848,-0.19393 -0.420681,-0.38488 -0.632513,-0.57582 -1.775216,1.94528 -3.550431,3.89354 -5.325646,5.83881 -0.02685,-0.003 -0.05072,-0.009 -0.07459,-0.0119 h -0.003 c -0.003,-0.003 -0.006,-0.006 -0.009,-0.009 l 0.02387,0.0388 c 0.006,0.0119 0.0179,0.0328 0.0179,0.0328 -4.597658,-0.7996 -7.960125,-3.69365 -11.716421,-6.70107 1.831903,-2.25855 3.526562,-4.35002 5.221221,-6.4415 -0.137243,-0.14022 -0.271503,-0.28343 -0.408747,-0.42366 -1.858755,1.85577 -3.71751,3.71453 -5.880587,5.87462 -0.71307,-0.79064 -1.423156,-1.57532 -2.339108,-2.58674 1.766265,-2.32121 3.446007,-4.52904 5.125748,-6.73389 -0.149177,-0.12531 -0.301339,-0.25062 -0.450516,-0.37294 -1.709578,1.90351 -3.419155,3.80702 -5.254041,5.85672 -1.294863,-1.38139 -2.342091,-2.6852 -2.380877,-4.55589 2.503202,-2.78366 5.003422,-5.5703 7.506625,-8.35396 -3.052177,2.30629 -6.271434,4.45147 -7.688622,8.18986 -0.859264,-1.33663 -1.718528,-2.67028 -2.604644,-4.0457 3.192404,-3.55043 6.113305,-6.8025 9.034205,-10.0516 -3.732427,1.91843 -6.089436,5.35549 -9.156531,8.13914 -1.637972,-2.70011 -1.318731,-4.81247 0.862248,-6.83234 1.927376,-1.79013 3.654855,-3.79806 5.444988,-5.73439 0.781692,-0.84733 1.503712,-1.75135 2.073571,-2.80156 -3.747345,2.24662 -6.560838,5.51958 -9.812913,9.12073 -0.787659,-4.0099 -1.086015,-7.14562 2.160094,-9.69357 1.694659,-1.32768 3.031292,-3.11185 4.293336,-5.01536 -2.082522,1.74538 -4.168027,3.49076 -6.277401,5.25703 -0.593727,-2.94776 -0.349076,-3.98305 1.554433,-5.75827 1.927376,-1.79908 3.932326,-3.51462 5.886554,-5.28686 0.853297,-0.77274 1.670791,-1.59023 2.506187,-2.38982 -0.161112,-0.19095 -0.322224,-0.3819 -0.48632,-0.57583 -2.765756,2.18993 -5.534495,4.37986 -8.577721,6.78759 0.06862,-3.01041 0.754839,-5.26001 3.079029,-7.00241 2.938802,-2.20484 5.692623,-4.65434 8.527001,-6.99942 -0.140227,-0.18796 -0.277471,-0.37593 -0.417698,-0.56389 -2.741887,2.01987 -5.486758,4.03973 -8.840274,6.50713 0.444549,-1.15165 0.54599,-1.66184 0.811527,-2.06163 2.65238,-3.96216 4.415662,-8.48822 7.879569,-11.94019 3.052177,-3.04323 6.253532,-5.86269 10.033697,-7.96609 5.456922,-3.03726 11.248003,-4.9169 17.555239,-4.94077 2.473368,-0.009 4.803524,0.58776 6.862177,1.96318 0.823462,0.55196 1.450008,1.3963 2.431598,2.36596 -0.933853,0.39084 -1.303814,0.64743 -1.700627,0.69517 -9.484722,1.13971 -16.346899,6.4952 -22.042506,13.7154 -6.778638,8.59264 -8.249531,18.46224 -6.853227,28.98226 0.25957,1.95423 0.665333,3.90249 1.169554,5.80898 3.278927,12.37579 13.864582,18.79938 24.154864,18.86204 8.7865701,0.0507 17.12560717,-2.08551 24.8112456,-6.63842 3.8995064,-2.30927 5.5255444,-6.08048 7.3962334,-9.78606 0.695169,-1.36945 1.29188,-2.7926 2.034785,-4.13222 0.766774,-1.38139 1.775215,-2.51514 3.804033,-2.38983 z m -28.3676439,28.40046 c -0.1611119,-0.16707 -0.3222239,-0.33714 -0.4833359,-0.50422 -1.5544323,1.42913 -3.1088642,2.85825 -4.6632972,4.29036 0.170063,0.17603 0.340126,0.35504 0.510188,0.53405 1.545482,-1.44105 3.0909635,-2.87913 4.6364451,-4.32019 z m -13.1902981,5.4987 c 1.995999,-2.11833 3.991997,-4.23367 5.985012,-6.34901 -2.712052,1.42614 -4.991488,3.26699 -5.985012,6.34901 z m -10.940697,-1.29487 c 1.488794,-1.75134 2.974605,-3.49971 4.460415,-5.25105 -0.179013,-0.15515 -0.36101,-0.31029 -0.540023,-0.46245 -1.554433,1.68272 -3.105882,3.36843 -4.660314,5.05414 0.247635,0.22078 0.49527,0.44156 0.739922,0.65936 z m -9.254989,-4.03973 c 2.166061,-2.41071 4.332123,-4.81844 6.498184,-7.22915 -0.184981,-0.16708 -0.366978,-0.33118 -0.548974,-0.49826 -2.228716,2.33911 -4.958669,4.21278 -6.539954,7.15755 0.196915,0.18796 0.39383,0.37891 0.590744,0.56986 z m -4.645395,-3.65486 c 1.035293,-1.19043 2.070587,-2.38087 3.105881,-3.57429 -0.167079,-0.1462 -0.334158,-0.29538 -0.501237,-0.44157 -1.062146,1.13673 -2.124292,2.27347 -3.186438,3.4102 0.193932,0.20288 0.387863,0.40577 0.581794,0.60566 z"
     id="path28"
     inkscape:connector-curvature="0" /><path
     style="fill:#f57547;stroke-width:1.21935809"
     d="m 11.67277,-415.38044 c 1.336633,3.45197 1.011425,7.0949 0.435599,10.69605 -0.214816,1.34856 -0.987557,2.25258 -2.2824196,2.4853 -4.7856227,0.8533 -9.57422899,1.09496 -14.2643779,-0.53406 -2.2376665,-0.77572 -4.421629,-1.82295 -4.6573298,-4.51412 -0.2327174,-2.67625 1.7185278,-4.20979 3.7592796,-5.31968 1.6827252,-0.91595 3.6071184,-1.39033 5.74334399,-2.17501 0.56389195,-1.31873 1.01739231,-2.81051 1.79311671,-4.11134 1.5753172,-2.64044 4.0904543,-3.1208 6.3370715,-1.03529 1.3187314,1.22326 2.4882855,2.84034 3.1357165,4.50815 z m -2.434581,10.3231 c 0.029835,-4.86618 1.679742,-9.94717 -3.2729602,-13.57816 -2.1481598,1.34559 -2.4405482,3.32368 -2.6822162,5.26896 -0.161112,1.28293 -0.8204777,2.52111 -1.9751136,1.81997 -2.9059829,-1.76328 -4.8154583,0.0537 -6.715983,1.53355 -2.428614,1.88859 -2.0377683,3.75033 0.9428035,4.68418 4.44549738,1.39034 8.9626001,1.60814 13.7034695,0.2715 z"
     id="path30"
     inkscape:connector-curvature="0" /><path
     style="fill:#fbb03b;stroke-width:1.21935809"
     d="m 5.9652288,-418.6355 c 4.9527022,3.63099 3.3027957,8.71198 3.2729602,13.57816 -4.7408694,1.33664 -9.25797212,1.11884 -13.7034695,-0.2715 -2.9805718,-0.93385 -3.3714175,-2.79559 -0.9428035,-4.68418 1.9005247,-1.47985 3.8100001,-3.29683 6.715983,-1.53355 1.1546359,0.70114 1.8140016,-0.53704 1.9751136,-1.81997 0.241668,-1.94528 0.5340564,-3.92337 2.6822162,-5.26896 z"
     id="path32"
     inkscape:connector-curvature="0" /><path
     d="m -7.3951318,-357.01315 c 0.161112,0.16708 0.322224,0.33715 0.4833359,0.50422 -1.5454816,1.44106 -3.0909631,2.87914 -4.6364451,4.32019 -0.170062,-0.17901 -0.340125,-0.35802 -0.510188,-0.53405 1.554433,-1.43211 3.1088649,-2.86123 4.6632972,-4.29036 z"
     id="path34"
     inkscape:connector-curvature="0"
     style="stroke-width:1.21935809" /><path
     style="fill:#f57547;stroke-width:1.21935809"
     d="m -10.148953,-389.0983 c 1.9452777,3.3744 2.0914719,7.12175 1.4917773,10.83926 -0.1193422,0.73992 -1.5603993,1.79013 -2.3957953,1.79311 -3.258042,0.0149 -6.578739,-0.0149 -9.759209,-0.63251 -3.171519,-0.61461 -3.842819,-3.1566 -1.822952,-5.70456 1.596202,-2.01688 3.628003,-3.17748 6.420611,-2.46442 0.683234,-1.52161 1.080047,-2.79857 1.781182,-3.8816 1.130768,-1.7424 3.252076,-1.7424 4.284386,0.0507 z m -0.295372,10.58267 c 0.0716,-3.6459 0.26852,-6.82339 -2.082522,-10.23359 -0.748872,2.17799 -1.297846,3.77419 -1.843837,5.35846 -5.23614,-0.78169 -6.626476,-0.0477 -7.235122,4.06659 3.604135,1.34558 7.25899,1.33663 11.161481,0.80854 z"
     id="path36"
     inkscape:connector-curvature="0" /><path
     style="fill:#fbb03b;stroke-width:1.21935809"
     d="m -12.526847,-388.74922 c 2.351042,3.4102 2.154127,6.58769 2.082522,10.23359 -3.902491,0.52809 -7.557346,0.53704 -11.161481,-0.80854 0.608646,-4.11433 1.998982,-4.84828 7.235122,-4.06659 0.545991,-1.58427 1.094965,-3.18047 1.843837,-5.35846 z"
     id="path38"
     inkscape:connector-curvature="0" /><path
     d="m -14.117082,-357.35924 c -1.993015,2.11534 -3.989013,4.23068 -5.985012,6.34901 0.993524,-3.08202 3.27296,-4.92287 5.985012,-6.34901 z"
     id="path40"
     inkscape:connector-curvature="0"
     style="stroke-width:1.21935809" /><path
     style="fill:#f57547;stroke-width:1.21935809"
     d="m -16.930575,-466.69759 c 2.473368,4.56782 3.058145,9.62495 1.691676,14.67909 -0.313273,1.15762 -1.685708,2.4316 -2.864213,2.88808 -5.949209,2.29734 -11.928254,1.90351 -17.516453,-1.06811 -4.260517,-2.26153 -4.43953,-6.61752 -0.680251,-9.70252 2.404746,-1.97213 5.092929,-3.02234 8.052616,-1.78715 1.273978,-2.02583 2.222749,-3.90249 3.511645,-5.50466 2.452482,-3.05218 5.940258,-2.95372 7.80498,0.49527 z m -2.718018,15.84865 c 1.75433,-0.41472 2.697134,-1.56935 2.616578,-3.29683 -0.140228,-3.05815 -0.408748,-6.11629 -0.760807,-9.15653 -0.09249,-0.82347 -0.572843,-1.66483 -1.059162,-2.37193 -1.414205,-2.05567 -2.613595,-2.12429 -4.135208,-0.182 -1.691676,2.1601 -3.147651,4.45445 -2.279436,7.80498 -1.044244,-0.45051 -1.724495,-0.69218 -2.359992,-1.02037 -2.882115,-1.49178 -4.845294,-1.25906 -7.172467,0.89208 -2.568841,2.36894 -2.237667,5.05414 0.972639,6.49222 4.588708,2.05567 9.362396,1.98108 14.177855,0.83838 z"
     id="path42"
     inkscape:connector-curvature="0" /><path
     style="fill:#fbb03b;stroke-width:1.21935809"
     d="m -17.032015,-454.14577 c 0.08056,1.72748 -0.862248,2.88211 -2.616578,3.29683 -4.815459,1.1427 -9.589147,1.21729 -14.177855,-0.83838 -3.210306,-1.43808 -3.54148,-4.12328 -0.972639,-6.49222 2.327173,-2.15114 4.290352,-2.38386 7.172467,-0.89208 0.635497,0.32819 1.315748,0.56986 2.359992,1.02037 -0.868215,-3.35053 0.58776,-5.64488 2.279436,-7.80498 1.521613,-1.94229 2.721003,-1.87367 4.135208,0.182 0.486319,0.7071 0.966672,1.54846 1.059162,2.37193 0.352059,3.04024 0.620579,6.09838 0.760807,9.15653 z"
     id="path44"
     inkscape:connector-curvature="0" /><path
     d="m -26.582376,-357.55615 c -1.48581,1.75134 -2.971621,3.49971 -4.460415,5.25105 -0.244652,-0.2178 -0.492287,-0.43858 -0.739922,-0.65936 1.554432,-1.68571 3.105881,-3.37142 4.660314,-5.05414 0.179013,0.15216 0.36101,0.3073 0.540023,0.46245 z"
     id="path46"
     inkscape:connector-curvature="0"
     style="stroke-width:1.21935809" /><path
     d="m -32.504733,-360.14886 c 0.211832,0.19094 0.423665,0.38189 0.632513,0.57582 -1.626037,1.7961 -3.23119,3.61309 -4.904964,5.36444 -0.152162,0.15514 -0.668317,-0.0328 -1.053195,-0.10145 1.775215,-1.94527 3.55043,-3.89353 5.325646,-5.83881 z"
     id="path48"
     inkscape:connector-curvature="0"
     style="stroke-width:1.21935809" /><path
     d="m -33.799596,-363.57398 c -2.166061,2.41071 -4.332123,4.81844 -6.498184,7.22915 -0.196914,-0.19095 -0.393829,-0.3819 -0.590744,-0.56986 1.581285,-2.94477 4.311238,-4.81844 6.539954,-7.15755 0.181996,0.16708 0.363993,0.33118 0.548974,0.49826 z"
     id="path50"
     inkscape:connector-curvature="0"
     style="stroke-width:1.21935809" /><path
     d="m -37.830379,-354.31005 c -0.006,0.009 -0.01492,0.0179 -0.02387,0.0269 -0.0179,-0.0119 -0.03282,-0.0239 -0.05072,-0.0388 0.02387,0.003 0.04774,0.009 0.07459,0.0119 z"
     id="path52"
     inkscape:connector-curvature="0"
     style="stroke-width:1.21935809" /><path
     d="m -37.854248,-354.28319 c -0.006,0.009 -0.01492,0.0149 -0.02088,0.0239 0,0 -0.01193,-0.0209 -0.0179,-0.0328 -0.009,-0.0149 -0.01492,-0.0298 -0.01492,-0.0298 h 0.003 c 0.0179,0.0149 0.03282,0.0269 0.05072,0.0388 z"
     id="path54"
     inkscape:connector-curvature="0"
     style="stroke-width:1.21935809" /><path
     d="m -37.893034,-354.29214 -0.02387,-0.0388 c 0.003,0.003 0.006,0.006 0.009,0.009 0,0 0.006,0.0149 0.01492,0.0298 z"
     id="path56"
     inkscape:connector-curvature="0"
     style="stroke-width:1.21935809" /><path
     d="m -41.837294,-363.57398 c -1.035294,1.19342 -2.070588,2.38386 -3.105881,3.57429 -0.193931,-0.19989 -0.387862,-0.40278 -0.581794,-0.60566 1.062146,-1.13673 2.124292,-2.27347 3.186438,-3.4102 0.167079,0.14619 0.334158,0.29537 0.501237,0.44157 z"
     id="path58"
     inkscape:connector-curvature="0"
     style="stroke-width:1.21935809" /><path
     style="fill:#f57547;stroke-width:1.21935809"
     d="m -45.080419,-444.12401 c 0.856281,3.07903 0.411731,6.15507 -1.444041,8.76867 -0.593727,0.83539 -1.995998,1.44106 -3.073062,1.52161 -3.123782,0.23272 -6.10137,-0.61163 -8.717948,-2.32717 -2.524088,-1.65289 -2.419663,-4.28439 0.253602,-5.70754 1.077064,-0.57583 2.470384,-0.6892 3.729444,-0.74589 0.93982,-0.0418 1.897541,0.34907 2.905983,0.55792 0.716053,-1.02932 1.306797,-2.08252 2.094456,-2.95968 1.56935,-1.73942 3.622036,-1.36647 4.251566,0.89208 z m -2.562874,7.08594 c 1.059162,-2.0676 1.196406,-4.2635 0.680251,-6.62051 -2.747855,0.73396 -1.447025,4.47832 -4.427596,4.74087 -1.259061,-1.814 -2.992506,-2.68221 -5.248074,-1.68869 -1.748363,0.76976 -1.951245,2.2675 -0.349076,3.20732 2.32419,1.36349 4.904965,1.98108 7.596132,1.64096 0.641464,-0.0806 1.447024,-0.69219 1.748363,-1.27995 z"
     id="path60"
     inkscape:connector-curvature="0" /><path
     style="fill:#fbb03b;stroke-width:1.21935809"
     d="m -46.963042,-443.65858 c 0.516155,2.35701 0.378911,4.55291 -0.680251,6.62051 -0.301339,0.58776 -1.106899,1.19939 -1.748363,1.27995 -2.691167,0.34012 -5.271942,-0.27747 -7.596132,-1.64096 -1.602169,-0.93982 -1.399287,-2.43756 0.349076,-3.20732 2.255568,-0.99352 3.989013,-0.12531 5.248074,1.68869 2.980571,-0.26255 1.679741,-4.00691 4.427596,-4.74087 z"
     id="path62"
     inkscape:connector-curvature="0" /><path
     style="fill:#f57547;stroke-width:1.21935809"
     d="m -49.645258,-353.10171 c 1.408238,1.9602 1.88859,4.17698 1.184471,6.55786 -1.497745,5.06309 -4.021833,6.22966 -8.843258,4.0994 -2.536022,-1.12181 -3.639937,-2.43458 -3.317713,-3.93829 0.358026,-1.67974 2.076554,-2.80156 4.621527,-2.98952 0.540023,-0.0388 1.086014,-0.006 1.861738,-0.006 0.435599,-1.32768 0.674284,-2.41369 1.142702,-3.38932 0.772741,-1.61708 2.297338,-1.79311 3.350533,-0.33416 z m -2.136226,9.23709 c 2.001966,-1.71554 2.288387,-5.04221 0.680251,-7.67967 -0.164096,0.31327 -0.358027,0.57583 -0.450517,0.86523 -0.886116,2.79559 -0.886116,2.72697 -3.80105,2.97759 -1.238175,0.10741 -2.667298,0.20587 -3.201355,1.95124 1.273979,1.83787 3.261026,2.26452 5.31968,2.4495 0.468418,0.0418 1.074079,-0.23868 1.452991,-0.56389 z"
     id="path64"
     inkscape:connector-curvature="0" /><path
     d="m -48.451836,-378.69763 c -2.503203,2.78366 -5.003423,5.5703 -7.506625,8.35396 l -0.181997,-0.1641 c 1.417188,-3.73839 4.636445,-5.88357 7.688622,-8.18986 z"
     id="path66"
     inkscape:connector-curvature="0"
     style="stroke-width:1.21935809" /><path
     style="fill:#fbb03b;stroke-width:1.21935809"
     d="m -51.101233,-351.54429 c 1.608136,2.63746 1.321715,5.96413 -0.680251,7.67967 -0.378912,0.32521 -0.984573,0.60566 -1.452991,0.56389 -2.058654,-0.18498 -4.045701,-0.61163 -5.31968,-2.4495 0.534057,-1.74537 1.96318,-1.84383 3.201355,-1.95124 2.914934,-0.25062 2.914934,-0.182 3.80105,-2.97759 0.09249,-0.2894 0.286421,-0.55196 0.450517,-0.86523 z"
     id="path68"
     inkscape:connector-curvature="0" /></g>
<g
   id="g72"
   transform="translate(63.884039,168.37024)">
</g>
<g
   id="g74"
   transform="translate(63.884039,168.37024)">
</g>
<g
   id="g76"
   transform="translate(63.884039,168.37024)">
</g>
<g
   id="g78"
   transform="translate(63.884039,168.37024)">
</g>
<g
   id="g80"
   transform="translate(63.884039,168.37024)">
</g>
<g
   id="g82"
   transform="translate(63.884039,168.37024)">
</g>
<g
   id="g84"
   transform="translate(63.884039,168.37024)">
</g>
<g
   id="g86"
   transform="translate(63.884039,168.37024)">
</g>
<g
   id="g88"
   transform="translate(63.884039,168.37024)">
</g>
<g
   id="g90"
   transform="translate(63.884039,168.37024)">
</g>
<g
   id="g92"
   transform="translate(63.884039,168.37024)">
</g>
<g
   id="g94"
   transform="translate(63.884039,168.37024)">
</g>
<g
   id="g96"
   transform="translate(63.884039,168.37024)">
</g>
<g
   id="g98"
   transform="translate(63.884039,168.37024)">
</g>
<g
   id="g100"
   transform="translate(63.884039,168.37024)">
</g>
<text
   xml:space="preserve"
   style="font-style:normal;font-variant:normal;font-weight:normal;font-stretch:normal;font-size:48px;line-height:1.25;font-family:Odelette;-inkscape-font-specification:'Odelette, Normal';font-variant-ligatures:normal;font-variant-caps:normal;font-variant-numeric:normal;font-feature-settings:normal;text-align:center;letter-spacing:0px;word-spacing:0px;writing-mode:lr-tb;text-anchor:middle;fill:#f57547;fill-opacity:1;stroke:none"
   x="199.11263"
   y="79.277351"
   id="text869"><tspan
     sodipodi:role="line"
     id="tspan930"
     x="199.11263"
     y="79.277351">Luna di Miele</tspan></text>

</svg>