<svg height="458pt" viewBox="0 -3 458.34667 458" width="458pt" xmlns="http://www.w3.org/2000/svg"><path d="m27.371094 252.492188 179.199218 179.199218 185.367188-179.199218-266.648438-66.472657zm0 0" fill="#ffb74d"/><path d="m415.742188 236.664062-139.328126-139.328124-47.335937-47.339844c-49.492187-49.492188-129.730469-49.492188-179.199219 0-49.496094 49.496094-49.496094 129.730468 0 179.203125l186.664063 186.664062c12.375 12.375 32.425781 12.375 44.800781 0 12.375-12.371093 12.375-32.425781 0-44.800781 12.375 12.375 32.425781 12.375 44.800781 0 12.371094-12.371094 12.371094-32.425781 0-44.796875 12.371094 12.371094 32.425781 12.371094 44.800781 0 12.371094-12.375 12.371094-32.429687 0-44.800781 12.371094 12.371094 32.425782 12.371094 44.796876 0 12.375-12.375 12.375-32.425782 0-44.800782zm0 0" fill="#ffe0b2"/><g fill="#ffb74d"><path d="m215.59375 410.316406c0 17.496094-14.183594 31.679688-31.679688 31.679688-17.496093 0-31.679687-14.183594-31.679687-31.679688s14.183594-31.679687 31.679687-31.679687c17.496094 0 31.679688 14.183593 31.679688 31.679687zm0 0"/><path d="m170.347656 365.070312c0 17.496094-14.183594 31.679688-31.679687 31.679688-17.496094 0-31.679688-14.183594-31.679688-31.679688 0-17.496093 14.183594-31.679687 31.679688-31.679687 17.496093 0 31.679687 14.183594 31.679687 31.679687zm0 0"/><path d="m125.097656 319.800781c0 17.496094-14.183594 31.679688-31.679687 31.679688-17.496094 0-31.679688-14.183594-31.679688-31.679688 0-17.496093 14.183594-31.679687 31.679688-31.679687 17.496093 0 31.679687 14.183594 31.679687 31.679687zm0 0"/><path d="m79.828125 274.550781c0 17.496094-14.183594 31.679688-31.679687 31.679688-17.496094 0-31.679688-14.183594-31.679688-31.679688 0-17.496093 14.183594-31.679687 31.679688-31.679687 17.496093 0 31.679687 14.183594 31.679687 31.679687zm0 0"/><path d="m409.046875 48.996094c-49.496094-49.496094-129.730469-49.496094-179.203125 0l-14.933594 14.933594-62.695312 62.675781c-17.898438 17.898437-8.621094 48.511719 16.191406 53.460937 10.386719 2.070313 21.117188-1.171875 28.605469-8.660156l77.613281-77.613281 134.398438 134.402343c49.492187-49.472656 49.492187-129.707031.023437-179.199218zm0 0"/></g><path d="m259.347656 437.902344c-11.390625 0-22.101562-4.4375-30.164062-12.503906l-188.566406-188.542969c-26.195313-26.195313-40.617188-61.011719-40.617188-98.070313 0-37.054687 14.421875-71.847656 40.617188-98.046875 54.058593-54.058593 142.039062-54.078125 196.097656 0 4.160156 4.160157 4.160156 10.921875 0 15.082031-4.160156 4.160157-10.921875 4.160157-15.082032 0-45.761718-45.757812-120.191406-45.757812-165.929687 0-22.167969 22.167969-34.371094 51.628907-34.371094 82.964844 0 31.339844 12.203125 60.800782 34.371094 82.96875l188.5625 188.542969c8.066406 8.0625 22.101563 8.0625 30.167969 0 4.03125-4.03125 6.25-9.386719 6.25-15.082031 0-5.699219-2.21875-11.050782-6.25-15.085938l-22.636719-22.632812c-2.089844-2.089844-3.113281-4.820313-3.113281-7.550782 0-2.730468 1.042968-5.460937 3.113281-7.554687 4.160156-4.160156 10.921875-4.160156 15.082031 0l22.636719 22.636719c8.296875 8.296875 21.84375 8.320312 30.1875 0 4.03125-4.03125 6.25-9.386719 6.25-15.082032 0-5.699218-2.21875-11.050781-6.25-15.082031l-22.636719-22.636719c-2.089844-2.089843-3.113281-4.820312-3.113281-7.550781s1.042969-5.460937 3.113281-7.554687c4.160156-4.160156 10.921875-4.160156 15.082032 0l22.636718 22.636718c8.320313 8.320313 21.867188 8.296876 30.164063 0 8.320312-8.320312 8.320312-21.847656 0-30.1875l-22.632813-22.632812c-2.09375-2.09375-3.117187-4.824219-3.117187-7.554688 0-2.730468 1.046875-5.460937 3.117187-7.550781 4.160156-4.160156 10.921875-4.160156 15.082032 0l22.632812 22.632813c8.320312 8.320312 21.867188 8.300781 30.1875 0 4.03125-4.03125 6.25-9.386719 6.25-15.082032 0-5.695312-2.21875-11.050781-6.25-15.082031l-140.734375-140.734375c-4.160156-4.160156-4.160156-10.921875 0-15.082031s10.921875-4.160156 15.082031 0l140.734375 140.734375c8.066407 8.042969 12.5 18.75 12.5 30.164062 0 11.394532-4.433593 22.101563-12.5 30.167969-8.703125 8.679688-20.671875 13.054688-32.851562 12.414063.042969.898437.085937 1.769531.085937 2.667968 0 11.390626-4.4375 22.101563-12.503906 30.164063-8.980469 8.980469-21.054688 13.140625-32.832031 12.394531.042969.898438.085937 1.792969.085937 2.6875 0 11.394532-4.4375 22.101563-12.5 30.167969-9.003906 8.980469-21.121094 13.054687-32.855468 12.394531.042968.894532.085937 1.789063.085937 2.6875 0 11.414063-4.4375 22.121094-12.5 30.164063-8.066406 8.171875-18.773437 12.609375-30.167969 12.609375zm0 0"/><path d="m183.914062 452.960938c-10.921874 0-21.84375-4.160157-30.164062-12.457032-16.621094-16.640625-16.621094-43.710937 0-60.351562 16.617188-16.640625 43.691406-16.640625 60.351562 0 16.617188 16.640625 16.617188 43.710937 0 60.351562-8.320312 8.296875-19.265624 12.457032-30.1875 12.457032zm-15.082031-27.5625c8.296875 8.300781 21.84375 8.320312 30.1875 0 8.320313-8.320313 8.320313-21.84375 0-30.183594-8.34375-8.34375-21.867187-8.300782-30.1875 0-8.320312 8.320312-8.320312 21.863281 0 30.183594zm0 0"/><path d="m138.667969 407.734375c-11.394531 0-22.125-4.4375-30.167969-12.5-8.0625-8.0625-12.5-18.773437-12.5-30.164063 0-11.414062 4.4375-22.125 12.5-30.167968 16.109375-16.125 44.226562-16.125 60.332031 0 8.0625 8.042968 12.5 18.753906 12.5 30.167968 0 11.390626-4.4375 22.101563-12.5 30.164063-8.042969 8.0625-18.773437 12.5-30.164062 12.5zm0-64c-5.699219 0-11.050781 2.21875-15.082031 6.253906-4.035157 4.03125-6.253907 9.386719-6.253907 15.082031 0 5.695313 2.21875 11.050782 6.253907 15.082032 8.0625 8.0625 22.097656 8.0625 30.164062 0 4.03125-4.03125 6.25-9.386719 6.25-15.082032 0-5.695312-2.21875-11.050781-6.25-15.082031-4.03125-4.035156-9.386719-6.253906-15.082031-6.253906zm0 0"/><path d="m93.398438 362.445312c-10.921876 0-21.847657-4.160156-30.167969-12.457031-16.617188-16.640625-16.617188-43.714843 0-60.355469 16.621093-16.617187 43.691406-16.617187 60.355469 0 16.617187 16.640626 16.617187 43.714844 0 60.355469-8.320313 8.296875-19.246094 12.457031-30.1875 12.457031zm-15.082032-27.542968c8.316406 8.320312 21.863282 8.320312 30.183594 0 8.320312-8.316406 8.320312-21.84375 0-30.183594-8.320312-8.320312-21.867188-8.300781-30.183594 0-8.300781 8.320312-8.300781 21.84375 0 30.183594zm0 0"/><path d="m48.148438 317.21875c-11.390626 0-22.101563-4.4375-30.164063-12.5-8.0625-8.042969-12.5-18.773438-12.5-30.167969 0-11.390625 4.4375-22.121093 12.5-30.164062 16.128906-16.128907 44.246094-16.105469 60.332031 0 8.0625 8.042969 12.5 18.773437 12.5 30.164062 0 11.394531-4.4375 22.125-12.5 30.167969-8.042968 8.0625-18.753906 12.5-30.167968 12.5zm0-64c-5.695313 0-11.050782 2.21875-15.082032 6.25s-6.25 9.386719-6.25 15.082031c0 5.695313 2.21875 11.050781 6.25 15.082031 8.0625 8.066407 22.101563 8.066407 30.164063 0 4.035156-4.03125 6.253906-9.386718 6.253906-15.082031 0-5.695312-2.21875-11.050781-6.253906-15.082031-4.03125-4.03125-9.386719-6.25-15.082031-6.25zm0 0"/><path d="m410.199219 239.96875c-2.734375 0-5.464844-1.042969-7.554688-3.113281-4.160156-4.160157-4.160156-10.921875 0-15.082031 22.167969-22.164063 34.367188-51.625 34.367188-82.964844s-12.199219-60.820313-34.367188-82.964844c-45.757812-45.761719-120.191406-45.738281-165.929687 0l-78.398438 78.378906c-5.65625 5.652344-7.660156 13.609375-5.335937 21.269532 2.328125 7.65625 8.386719 13.160156 16.234375 14.738281 7.019531 1.410156 14.230468-.789063 19.265625-5.824219l78.398437-78.398438c4.160156-4.160156 10.921875-4.160156 15.082032 0 4.160156 4.160157 4.160156 10.921876 0 15.082032l-78.398438 78.402344c-10.113281 10.109374-24.53125 14.460937-38.527344 11.667968-15.703125-3.15625-27.839844-14.1875-32.46875-29.503906s-.640625-31.210938 10.664063-42.539062l78.402343-78.398438c54.058594-54.058594 142.035157-54.058594 196.09375 0 26.199219 26.195312 40.621094 61.011719 40.621094 98.046875s-14.421875 71.871094-40.621094 98.046875c-2.066406 2.113281-4.796874 3.15625-7.527343 3.15625zm0 0"/><path d="m277.332031 352.121094c-2.664062 0-5.351562-1.003906-7.421875-3.007813-4.226562-4.097656-4.332031-10.859375-.234375-15.082031l20.714844-21.335938c4.09375-4.222656 10.855469-4.328124 15.082031-.234374 4.222656 4.097656 4.328125 10.859374.234375 15.082031l-20.714843 21.335937c-2.089844 2.152344-4.886719 3.242188-7.660157 3.242188zm0 0"/></svg>