<?xml version="1.0" encoding="UTF-8" standalone="no"?>
<!-- Generator: Adobe Illustrator 19.0.0, SVG Export Plug-In . SVG Version: 6.00 Build 0)  -->

<svg
   xmlns:dc="http://purl.org/dc/elements/1.1/"
   xmlns:cc="http://creativecommons.org/ns#"
   xmlns:rdf="http://www.w3.org/1999/02/22-rdf-syntax-ns#"
   xmlns:svg="http://www.w3.org/2000/svg"
   xmlns="http://www.w3.org/2000/svg"
   xmlns:sodipodi="http://sodipodi.sourceforge.net/DTD/sodipodi-0.dtd"
   xmlns:inkscape="http://www.inkscape.org/namespaces/inkscape"
   version="1.1"
   id="Capa_1"
   x="0px"
   y="0px"
   viewBox="0 0 300 128"
   xml:space="preserve"
   sodipodi:docname="logo_fedi_con_scritta.svg"
   width="300"
   height="128"
   inkscape:version="0.92.3 (2405546, 2018-03-11)"
   inkscape:export-filename="C:\Deto\GitHub\100giorni\il-matrimonio-di-claudia-e-samuele\html5\assets\images\logo_fedi_con_scritta.png"
   inkscape:export-xdpi="96"
   inkscape:export-ydpi="96"><metadata
   id="metadata97"><rdf:RDF><cc:Work
       rdf:about=""><dc:format>image/svg+xml</dc:format><dc:type
         rdf:resource="http://purl.org/dc/dcmitype/StillImage" /><dc:title></dc:title></cc:Work></rdf:RDF></metadata><defs
   id="defs95" /><sodipodi:namedview
   pagecolor="#ffffff"
   bordercolor="#666666"
   borderopacity="1"
   objecttolerance="10"
   gridtolerance="10"
   guidetolerance="10"
   inkscape:pageopacity="0"
   inkscape:pageshadow="2"
   inkscape:window-width="1920"
   inkscape:window-height="1057"
   id="namedview93"
   showgrid="false"
   inkscape:zoom="2.6074563"
   inkscape:cx="-34.335655"
   inkscape:cy="84.706768"
   inkscape:window-x="-8"
   inkscape:window-y="-8"
   inkscape:window-maximized="1"
   inkscape:current-layer="Capa_1" />


















<g
   id="g934"
   transform="matrix(0.125,0,0,0.125,1.3559322,78.858657)"
   style="stroke-width:8"><path
     inkscape:connector-curvature="0"
     id="path2"
     d="m 317.37,-63.008 c 0,31.88 -9.63,61.51 -26.14,86.14 C 276.21,12.952 264,-1.058 256,-17.488 c 6.71,-13.75 10.47,-29.2 10.47,-45.52 0,-16.33 -3.76,-31.78 -10.47,-45.53 -8,-16.43 -20.21,-30.44 -35.23,-40.62 -16.64,-11.3 -36.72,-17.89 -58.33,-17.89 -57.46,0 -104.04,46.58 -104.04,104.04 0,57.45 46.58,104.03 104.04,104.03 21.61,0 41.69,-6.6 58.33,-17.89 9.6,14.32 21.52,26.95 35.23,37.36 -26,19.72 -58.41,31.43 -93.56,31.43 -85.57,0 -154.94,-69.37 -154.94,-154.93 0,-85.57 69.37,-154.94 154.94,-154.94 35.15,0 67.56,11.71 93.56,31.43 13.71,10.41 25.63,23.04 35.23,37.36 16.51,24.64 26.14,54.27 26.14,86.15 z"
     style="fill:#feda44;stroke-width:8" /><g
     transform="translate(0,-384)"
     id="g8"
     style="stroke-width:8">
	<path
   inkscape:connector-curvature="0"
   id="path4"
   d="m 28.961,320.992 c 0,-81.971 63.66,-149.065 144.235,-154.565 -3.554,-0.244 -7.14,-0.375 -10.756,-0.375 -85.57,0 -154.94,69.37 -154.94,154.94 0,85.56 69.37,154.93 154.94,154.93 3.616,0 7.202,-0.131 10.756,-0.375 C 92.621,470.047 28.961,402.953 28.961,320.992 Z"
   style="fill:#ff9911;stroke-width:8" />
	<path
   inkscape:connector-curvature="0"
   id="path6"
   d="m 277.461,366.512 c 6.71,-13.75 10.47,-29.2 10.47,-45.52 0,-16.33 -3.76,-31.78 -10.47,-45.53 -8,-16.43 -20.21,-30.44 -35.23,-40.62 -16.64,-11.3 -36.72,-17.89 -58.33,-17.89 -3.648,0 -7.252,0.19 -10.804,0.556 17.542,1.786 33.805,7.916 47.673,17.334 15.02,10.18 27.23,24.19 35.23,40.62 6.71,13.75 10.47,29.2 10.47,45.53 0,16.32 -3.76,31.77 -10.47,45.52 8,16.43 20.21,30.44 35.23,40.62 2.542,-3.793 4.9,-7.718 7.106,-11.738 -8.512,-8.314 -15.61,-18.069 -20.875,-28.882 z"
   style="fill:#ff9911;stroke-width:8" />
</g><path
     inkscape:connector-curvature="0"
     id="path10"
     d="m 504.5,-63.008 c 0,85.56 -69.37,154.93 -154.94,154.93 -35.15,0 -67.56,-11.71 -93.56,-31.43 -13.71,-10.41 -25.63,-23.04 -35.23,-37.36 -16.51,-24.63 -26.14,-54.26 -26.14,-86.14 0,-31.88 9.63,-61.51 26.14,-86.15 15.02,10.18 27.23,24.19 35.23,40.62 -6.71,13.75 -10.47,29.2 -10.47,45.53 0,16.32 3.76,31.77 10.47,45.52 8,16.43 20.21,30.44 35.23,40.62 16.64,11.29 36.72,17.89 58.33,17.89 57.46,0 104.04,-46.58 104.04,-104.03 0,-57.46 -46.58,-104.04 -104.04,-104.04 -21.61,0 -41.69,6.59 -58.33,17.89 -9.6,-14.32 -21.52,-26.95 -35.23,-37.36 26,-19.72 58.41,-31.43 93.56,-31.43 85.57,0 154.94,69.37 154.94,154.94 z"
     style="fill:#feda44;stroke-width:8" /><g
     transform="translate(0,-384)"
     id="g18"
     style="stroke-width:8">
	<path
   inkscape:connector-curvature="0"
   id="path12"
   d="m 291.23,234.842 c 5.152,-3.499 10.636,-6.543 16.391,-9.083 -8.282,-10.61 -17.894,-20.131 -28.621,-28.276 23.145,-17.555 51.372,-28.754 82.088,-31.003 -3.807,-0.28 -7.65,-0.427 -11.528,-0.427 -35.15,0 -67.56,11.71 -93.56,31.43 13.71,10.409 25.63,23.039 35.23,37.359 z"
   style="fill:#ff9911;stroke-width:8" />
	<path
   inkscape:connector-curvature="0"
   id="path14"
   d="m 361.068,424.385 c 3.774,0.415 7.607,0.637 11.492,0.637 57.46,0 104.04,-46.58 104.04,-104.03 0,-57.46 -46.58,-104.04 -104.04,-104.04 -3.886,0 -7.72,0.221 -11.495,0.636 52.045,5.726 92.535,49.833 92.535,103.404 0,53.56 -40.488,97.665 -92.532,103.393 z"
   style="fill:#ff9911;stroke-width:8" />
	<path
   inkscape:connector-curvature="0"
   id="path16"
   d="m 279,444.492 c -13.71,-10.41 -25.63,-23.04 -35.23,-37.36 -16.51,-24.63 -26.14,-54.26 -26.14,-86.14 0,-26.573 6.71,-51.57 18.498,-73.43 -4.694,-4.71 -9.834,-8.976 -15.358,-12.72 -16.51,24.64 -26.14,54.27 -26.14,86.15 0,31.88 9.63,61.51 26.14,86.14 9.6,14.32 21.52,26.95 35.23,37.36 26,19.72 58.41,31.43 93.56,31.43 3.878,0 7.722,-0.147 11.528,-0.427 C 330.372,473.246 302.145,462.047 279,444.492 Z"
   style="fill:#ff9911;stroke-width:8" />
</g><path
     inkscape:connector-curvature="0"
     id="path20"
     d="m 256,-222.028 c 0,0 72.104,-26.07 72.104,-73.779 0,-22.029 -17.858,-39.888 -39.888,-39.888 -13.237,0 -24.961,6.452 -32.217,16.378 -7.256,-9.926 -18.98,-16.378 -32.217,-16.378 -22.029,0 -39.888,17.858 -39.888,39.888 0.002,47.709 72.106,73.779 72.106,73.779 z"
     style="fill:#eb358a;stroke-width:8" /><path
     inkscape:connector-curvature="0"
     id="path22"
     d="m 209.896,-295.807 c 0,-17.471 11.238,-32.309 26.876,-37.705 -4.073,-1.404 -8.437,-2.183 -12.988,-2.183 -22.029,0 -39.888,17.858 -39.888,39.888 0,47.709 72.104,73.779 72.104,73.779 0,0 5.291,-1.915 13,-5.649 -20.764,-10.058 -59.104,-33.339 -59.104,-68.13 z"
     style="fill:#943ec7;stroke-width:8" /><path
     inkscape:connector-curvature="0"
     id="path24"
     d="m 349.56,-225.448 c -33.868,0 -66.092,10.235 -93.56,29.644 -27.468,-19.409 -59.692,-29.644 -93.56,-29.644 -89.57,0 -162.44,72.87 -162.44,162.44 0,89.564 72.87,162.43 162.44,162.43 33.868,0 66.092,-10.235 93.56,-29.644 27.468,19.409 59.692,29.644 93.56,29.644 89.57,0 162.44,-72.866 162.44,-162.43 0,-89.57 -72.87,-162.44 -162.44,-162.44 z M 15,-63.008 c 0,-81.299 66.141,-147.44 147.44,-147.44 32.447,0 63.233,10.341 89.024,29.903 13.103,9.949 24.386,21.914 33.535,35.562 16.271,24.282 24.871,52.628 24.871,81.975 0,26.707 -7.144,52.569 -20.685,75.3 -10.21,-8.192 -18.684,-18.385 -24.842,-29.936 6.386,-14.285 9.627,-29.525 9.627,-45.363 0,-17.125 -3.778,-33.55 -11.227,-48.813 -8.534,-17.527 -21.593,-32.584 -37.76,-43.541 -18.482,-12.551 -40.109,-19.186 -62.543,-19.186 -61.503,0 -111.54,50.037 -111.54,111.54 0,61.498 50.037,111.53 111.54,111.53 19.943,0 39.254,-5.263 56.299,-15.258 7.264,9.859 15.605,18.822 24.883,26.813 C 219.529,76.033 191.659,84.423 162.44,84.423 81.141,84.422 15,18.285 15,-63.008 Z m 286.591,-83.791 c 14.55,-8.361 30.99,-12.749 47.969,-12.749 53.232,0 96.54,43.308 96.54,96.54 0,53.227 -43.308,96.53 -96.54,96.53 -16.965,0 -33.404,-4.388 -47.966,-12.75 15.238,-25.245 23.276,-54.04 23.276,-83.779 0,-29.738 -8.039,-58.537 -23.279,-83.792 z m -48.561,83.791 c 0,-8.175 0.999,-16.161 2.97,-23.896 1.971,7.735 2.97,15.722 2.97,23.896 0,8.171 -0.999,16.154 -2.97,23.888 -1.971,-7.734 -2.97,-15.717 -2.97,-23.888 z m -42.621,-83.791 c -15.24,25.254 -23.279,54.054 -23.279,83.791 0,29.739 8.038,58.534 23.277,83.779 -14.561,8.362 -31.001,12.75 -47.967,12.75 -53.232,0 -96.54,-43.303 -96.54,-96.53 0,-53.232 43.308,-96.54 96.54,-96.54 16.977,0.001 33.416,4.388 47.969,12.75 z M 349.56,84.422 c -32.447,0 -63.233,-10.341 -89.024,-29.903 C 247.433,44.57 236.15,32.605 227,18.956 210.73,-5.315 202.13,-33.658 202.13,-63.007 c 0,-26.705 7.144,-52.57 20.686,-75.309 10.209,8.192 18.683,18.385 24.841,29.936 -6.385,14.285 -9.627,29.529 -9.627,45.373 0,17.118 3.778,33.54 11.227,48.803 8.534,17.527 21.593,32.584 37.762,43.543 18.498,12.55 40.124,19.184 62.541,19.184 61.503,0 111.54,-50.032 111.54,-111.53 0,-61.503 -50.037,-111.54 -111.54,-111.54 -19.956,0 -39.267,5.262 -56.301,15.256 -7.263,-9.858 -15.604,-18.821 -24.882,-26.811 24.093,-15.955 51.963,-24.345 81.182,-24.345 81.299,0 147.44,66.141 147.44,147.44 C 497,18.285 430.859,84.422 349.56,84.422 Z"
     style="stroke-width:8" /><path
     inkscape:connector-curvature="0"
     id="path26"
     d="m 253.45,-214.975 2.55,0.922 2.55,-0.922 c 3.146,-1.138 77.054,-28.462 77.054,-80.833 0,-26.129 -21.258,-47.387 -47.388,-47.387 -12.002,0 -23.525,4.618 -32.217,12.658 -8.691,-8.04 -20.215,-12.658 -32.217,-12.658 -26.13,0 -47.388,21.258 -47.388,47.387 0.002,52.371 73.91,79.695 77.056,80.833 z m -29.667,-113.22 c 10.292,0 20.073,4.974 26.162,13.304 l 6.055,8.285 6.055,-8.284 c 6.089,-8.331 15.869,-13.304 26.162,-13.304 17.858,0 32.388,14.529 32.388,32.387 0,37.127 -52.32,60.702 -64.604,65.723 -12.284,-5.021 -64.604,-28.595 -64.604,-65.723 -0.001,-17.859 14.528,-32.388 32.386,-32.388 z"
     style="stroke-width:8" /><path
     inkscape:connector-curvature="0"
     id="path28"
     d="m 250.531,-254.357 c -11.505,-6.53 -21.036,-13.661 -28.328,-21.193 l -10.777,10.433 c 8.287,8.561 18.952,16.57 31.701,23.806 z"
     style="stroke-width:8" /><path
     inkscape:connector-curvature="0"
     id="path30"
     d="m 267.686,49.923 c 23.917,17.368 52.23,26.549 81.879,26.549 v -15 c -26.461,0 -51.727,-8.19 -73.064,-23.687 z"
     style="stroke-width:8" /><g
     transform="translate(0,-384)"
     id="g36"
     style="stroke-width:8">
	<path
   inkscape:connector-curvature="0"
   id="path32"
   d="m 407.534,194.083 -6.24,13.641 c 44.197,20.22 72.756,64.679 72.756,113.264 h 15 c 0,-54.437 -31.997,-104.25 -81.516,-126.905 z"
   style="fill:#ffffff;stroke-width:8" />
	<path
   inkscape:connector-curvature="0"
   id="path34"
   d="m 349.565,196.502 c 11.057,0 22.02,1.449 32.586,4.307 l 3.916,-14.479 c -11.842,-3.203 -24.124,-4.827 -36.502,-4.827 z"
   style="fill:#ffffff;stroke-width:8" />
</g><path
     inkscape:connector-curvature="0"
     id="path38"
     d="m 162.435,61.472 c -9.447,0 -18.86,-1.062 -27.978,-3.155 l -3.356,14.62 c 10.216,2.345 20.759,3.535 31.334,3.535 22.403,0 44.676,-5.44 64.412,-15.732 l -6.936,-13.3 c -17.603,9.179 -37.478,14.032 -57.476,14.032 z"
     style="stroke-width:8" /><g
     transform="translate(0,-384)"
     id="g48"
     style="stroke-width:8">
	<path
   inkscape:connector-curvature="0"
   id="path40"
   d="m 286.92,320.987 h 15 c 0,-56.546 -33.735,-107.118 -85.944,-128.838 l -5.762,13.85 c 46.597,19.385 76.706,64.52 76.706,114.988 z"
   style="fill:#ffffff;stroke-width:8" />
	<path
   inkscape:connector-curvature="0"
   id="path42"
   d="m 193.624,185.004 c -10.172,-2.324 -20.665,-3.502 -31.188,-3.502 v 15 c 9.401,0 18.771,1.051 27.848,3.125 z"
   style="fill:#ffffff;stroke-width:8" />
	<path
   inkscape:connector-curvature="0"
   id="path44"
   d="m 300.5,88.513 h 15 c 0,-10.78 -6.335,-20.645 -16.139,-25.133 l -6.243,13.64 c 4.485,2.053 7.382,6.564 7.382,11.493 z"
   style="fill:#ffffff;stroke-width:8" />
	<path
   inkscape:connector-curvature="0"
   id="path46"
   d="m 287.87,75.884 v -15 c -6.232,0 -12.345,2.136 -17.21,6.014 l 9.349,11.73 c 2.252,-1.796 4.97,-2.744 7.861,-2.744 z"
   style="fill:#ffffff;stroke-width:8" />
</g><path
     inkscape:connector-curvature="0"
     id="path50"
     d="m 141.341,-272.454 c 12.7,0 23.032,-10.332 23.032,-23.032 0,-12.7 -10.332,-23.032 -23.032,-23.032 -12.7,0 -23.032,10.332 -23.032,23.032 0,12.7 10.332,23.032 23.032,23.032 z m 0,-31.065 c 4.429,0 8.032,3.603 8.032,8.032 0,4.429 -3.603,8.032 -8.032,8.032 -4.429,0 -8.032,-3.603 -8.032,-8.032 0,-4.429 3.603,-8.032 8.032,-8.032 z"
     style="stroke-width:8" /><polygon
     transform="translate(0,-384)"
     id="polygon52"
     points="349.565,81.013 349.565,96.013 365.286,96.013 365.286,111.734 380.286,111.734 380.286,96.013 396.006,96.013 396.006,81.013 380.286,81.013 380.286,65.293 365.286,65.293 365.286,81.013 "
     style="stroke-width:8" /><rect
     id="rect54"
     height="15"
     width="16.333"
     y="-255.33"
     x="154.27"
     style="stroke-width:8" /><rect
     id="rect56"
     height="15"
     width="16.333"
     y="-250.39"
     x="328.10001"
     style="stroke-width:8" /><rect
     id="rect58"
     height="15"
     width="16.333"
     y="-355.422"
     x="325.06"
     style="stroke-width:8" /><rect
     id="rect60"
     height="15"
     width="16.333"
     y="-355.422"
     x="169.03"
     style="stroke-width:8" /></g>
<g
   id="g62"
   transform="translate(0,-384)">
</g>
<g
   id="g64"
   transform="translate(0,-384)">
</g>
<g
   id="g66"
   transform="translate(0,-384)">
</g>
<g
   id="g68"
   transform="translate(0,-384)">
</g>
<g
   id="g70"
   transform="translate(0,-384)">
</g>
<g
   id="g72"
   transform="translate(0,-384)">
</g>
<g
   id="g74"
   transform="translate(0,-384)">
</g>
<g
   id="g76"
   transform="translate(0,-384)">
</g>
<g
   id="g78"
   transform="translate(0,-384)">
</g>
<g
   id="g80"
   transform="translate(0,-384)">
</g>
<g
   id="g82"
   transform="translate(0,-384)">
</g>
<g
   id="g84"
   transform="translate(0,-384)">
</g>
<g
   id="g86"
   transform="translate(0,-384)">
</g>
<g
   id="g88"
   transform="translate(0,-384)">
</g>
<g
   id="g90"
   transform="translate(0,-384)">
</g>
<text
   xml:space="preserve"
   style="font-style:normal;font-variant:normal;font-weight:normal;font-stretch:normal;font-size:48px;line-height:1.25;font-family:Odelette;-inkscape-font-specification:'Odelette, Normal';font-variant-ligatures:normal;font-variant-caps:normal;font-variant-numeric:normal;font-feature-settings:normal;text-align:center;letter-spacing:0px;word-spacing:0px;writing-mode:lr-tb;text-anchor:middle;fill:#ff9911;fill-opacity:1;stroke:none;stroke-width:1;"
   x="130.60713"
   y="77.835014"
   id="text869"><tspan
     sodipodi:role="line"
     id="tspan944"
     x="130.60713"
     y="77.835014">Fedi</tspan></text>
</svg>