<?xml version="1.0" encoding="UTF-8" standalone="no"?>
<!-- Generator: Adobe Illustrator 22.1.0, SVG Export Plug-In . SVG Version: 6.00 Build 0)  -->

<svg
   xmlns:dc="http://purl.org/dc/elements/1.1/"
   xmlns:cc="http://creativecommons.org/ns#"
   xmlns:rdf="http://www.w3.org/1999/02/22-rdf-syntax-ns#"
   xmlns:svg="http://www.w3.org/2000/svg"
   xmlns="http://www.w3.org/2000/svg"
   xmlns:sodipodi="http://sodipodi.sourceforge.net/DTD/sodipodi-0.dtd"
   xmlns:inkscape="http://www.inkscape.org/namespaces/inkscape"
   version="1.1"
   id="Layer_3"
   x="0px"
   y="0px"
   viewBox="0 0 37.5 16"
   xml:space="preserve"
   width="300"
   height="128"
   sodipodi:docname="logo_torta_con_scritta.svg"
   inkscape:version="0.92.3 (2405546, 2018-03-11)"
   inkscape:export-filename="C:\Deto\GitHub\100giorni\il-matrimonio-di-claudia-e-samuele.com\html5\images\logo_torta_con_scritta.png"
   inkscape:export-xdpi="96"
   inkscape:export-ydpi="96"><metadata
   id="metadata133"><rdf:RDF><cc:Work
       rdf:about=""><dc:format>image/svg+xml</dc:format><dc:type
         rdf:resource="http://purl.org/dc/dcmitype/StillImage" /><dc:title /></cc:Work></rdf:RDF></metadata><defs
   id="defs131" /><sodipodi:namedview
   pagecolor="#ffffff"
   bordercolor="#666666"
   borderopacity="1"
   objecttolerance="10"
   gridtolerance="10"
   guidetolerance="10"
   inkscape:pageopacity="0"
   inkscape:pageshadow="2"
   inkscape:window-width="1366"
   inkscape:window-height="745"
   id="namedview129"
   showgrid="false"
   inkscape:zoom="1.84375"
   inkscape:cx="-98.232221"
   inkscape:cy="47.815589"
   inkscape:window-x="-8"
   inkscape:window-y="-8"
   inkscape:window-maximized="1"
   inkscape:current-layer="Layer_3" />

<text
   xml:space="preserve"
   style="font-style:normal;font-variant:normal;font-weight:normal;font-stretch:normal;font-size:6px;line-height:1.25;font-family:Odelette;-inkscape-font-specification:'Odelette, Normal';font-variant-ligatures:normal;font-variant-caps:normal;font-variant-numeric:normal;font-feature-settings:normal;text-align:center;letter-spacing:0px;word-spacing:0px;writing-mode:lr-tb;text-anchor:middle;fill:#fd6064;fill-opacity:1;stroke:none;stroke-width:0.125;"
   x="17.254921"
   y="10.316446"
   id="text869"><tspan
     sodipodi:role="line"
     id="tspan948"
     x="17.254921"
     y="10.316446">Torta</tspan></text>

<g
   transform="matrix(0.01562494,0,0,0.01562494,0.40319636,4.691106)"
   id="g910"
   style="stroke-width:8.00003147"><rect
     id="rect2-2"
     height="93.349998"
     width="33.463001"
     style="fill:#d5d6e3;stroke-width:8.00003147"
     y="392.69"
     x="239.27" /><path
     inkscape:connector-curvature="0"
     id="path4"
     d="m 256,19.341 c -39.333,-38.44 -104.647,24.348 0,79.198 104.647,-54.85 39.333,-117.638 0,-79.198 z"
     style="fill:#fd6064;stroke-width:8.00003147" /><path
     inkscape:connector-curvature="0"
     id="path6-7"
     d="M 239.536,9.167 C 203.279,-2.397 166.924,48.415 249.757,95.141 205.48,55.691 216.675,17.481 239.536,9.167 Z"
     style="fill:#f0484a;stroke-width:8.00003147" /><path
     inkscape:connector-curvature="0"
     id="path8-6"
     d="m 239.268,442.613 c 5.511,0.372 11.096,0.572 16.732,0.572 5.636,0 11.22,-0.2 16.732,-0.572 v -49.924 h -33.463 z"
     style="fill:#abacbc;stroke-width:8.00003147" /><path
     inkscape:connector-curvature="0"
     id="path10-0"
     d="m 362.897,367.193 c 0,28.162 -47.859,50.992 -106.897,50.992 -59.038,0 -106.897,-22.83 -106.897,-50.992 z"
     style="fill:#f0484a;stroke-width:8.00003147" /><path
     inkscape:connector-curvature="0"
     id="path12-2"
     d="m 189.103,367.193 h -40 c 0,28.162 47.859,50.992 106.897,50.992 6.836,0 13.52,-0.31 20,-0.895 -49.477,-4.467 -86.897,-25.196 -86.897,-50.097 z"
     style="fill:#e33d41;stroke-width:8.00003147" /><polygon
     id="polygon14"
     points="256,239.405 108.482,210.385 108.482,140.758 123.076,120.922 380.559,120.922 403.518,140.758 403.518,210.385 "
     style="fill:#eaeaf1;stroke-width:8.00003147" /><polygon
     id="polygon16"
     points="108.482,210.385 256,239.405 271,236.454 138.482,210.385 138.482,140.758 153.076,120.922 123.076,120.922 108.482,140.758 "
     style="fill:#cccdd9;stroke-width:8.00003147" /><polygon
     id="polygon18"
     points="434.26,263.374 413.092,239.405 103.556,239.405 77.741,263.374 77.741,360.554 434.26,360.554 "
     style="fill:#eaeaf1;stroke-width:8.00003147" /><polygon
     id="polygon20"
     points="103.556,239.405 77.741,263.374 77.741,360.554 117.741,360.554 117.741,263.374 143.556,239.405 "
     style="fill:#cccdd9;stroke-width:8.00003147" /><path
     inkscape:connector-curvature="0"
     id="path22-1"
     d="M 385.788,96.907 H 126.212 c -18.844,0 -34.121,15.276 -34.121,34.121 v 0 c 0,8.413 9.005,13.759 16.391,9.73 10.217,-5.573 22.565,-5.573 32.782,0 10.217,5.573 22.565,5.573 32.782,0 10.217,-5.573 22.565,-5.573 32.782,0 10.217,5.573 22.565,5.573 32.782,0 10.217,-5.573 22.565,-5.573 32.782,0 10.217,5.573 22.565,5.573 32.782,0 10.217,-5.573 22.565,-5.573 32.782,0 10.217,5.573 22.565,5.573 32.782,0 10.217,-5.573 22.565,-5.573 32.782,0 7.386,4.029 16.391,-1.317 16.391,-9.73 v 0 C 419.909,112.183 404.633,96.907 385.788,96.907 Z"
     style="fill:#fbbed5;stroke-width:8.00003147" /><path
     inkscape:connector-curvature="0"
     id="path24-0"
     d="m 132.091,131.028 v 0 c 0,-18.845 15.276,-34.121 34.121,-34.121 h -40 c -18.844,0 -34.121,15.276 -34.121,34.121 v 0 c 0,8.413 9.005,13.759 16.391,9.73 8.063,-4.397 17.449,-5.31 26.072,-2.766 -1.517,-1.864 -2.463,-4.25 -2.463,-6.964 z"
     style="fill:#faa0c2;stroke-width:8.00003147" /><path
     inkscape:connector-curvature="0"
     id="path26-3"
     d="M 412.835,210.385 H 99.165 c -22.771,0 -41.231,18.46 -41.231,41.231 v 0 c 0,10.166 10.882,16.626 19.807,11.758 12.346,-6.734 27.267,-6.734 39.613,0 12.346,6.734 27.267,6.734 39.613,0 12.346,-6.734 27.267,-6.734 39.613,0 12.346,6.734 27.267,6.734 39.613,0 12.346,-6.734 27.267,-6.734 39.613,0 12.346,6.734 27.267,6.734 39.613,0 12.346,-6.734 27.267,-6.734 39.613,0 12.346,6.734 27.267,6.734 39.613,0 12.346,-6.734 27.267,-6.734 39.613,0 8.925,4.868 19.807,-1.592 19.807,-11.758 v 0 c 10e-4,-22.771 -18.458,-41.231 -41.23,-41.231 z"
     style="fill:#fbbed5;stroke-width:8.00003147" /><path
     inkscape:connector-curvature="0"
     id="path28-6"
     d="m 97.934,251.616 v 0 c 0,-22.771 18.46,-41.231 41.231,-41.231 h -40 c -22.771,0 -41.231,18.459 -41.231,41.231 v 0 c 0,10.167 10.882,16.626 19.807,11.758 6.839,-3.731 14.469,-5.385 22.014,-4.982 -1.148,-1.952 -1.821,-4.249 -1.821,-6.776 z"
     style="fill:#faa0c2;stroke-width:8.00003147" /><path
     inkscape:connector-curvature="0"
     id="path30"
     d="M 434.737,345.017 H 77.263 c -20.388,0 -36.916,16.528 -36.916,36.916 v 0 h 431.307 v 0 c -10e-4,-20.388 -16.529,-36.916 -36.917,-36.916 z"
     style="fill:#fd6064;stroke-width:8.00003147" /><path
     inkscape:connector-curvature="0"
     id="path32"
     d="m 117.263,345.017 h -40 c -20.388,0 -36.917,16.528 -36.917,36.917 h 40 c 10e-4,-20.39 16.529,-36.917 36.917,-36.917 z"
     style="fill:#f0484a;stroke-width:8.00003147" /><path
     inkscape:connector-curvature="0"
     id="path34"
     d="m 295.306,467.583 h -78.612 c -20.388,0 -36.916,16.528 -36.916,36.916 v 0 h 152.445 v 0 c -0.001,-20.388 -16.529,-36.916 -36.917,-36.916 z"
     style="fill:#abacbc;stroke-width:8.00003147" /><path
     inkscape:connector-curvature="0"
     id="path36"
     d="m 256.694,467.584 h -40 c -20.388,0 -36.916,16.528 -36.916,36.917 v 0 h 40 v 0 c 0,-20.39 16.528,-36.917 36.916,-36.917 z"
     style="fill:#9497a1;stroke-width:8.00003147" /><path
     inkscape:connector-curvature="0"
     id="path38"
     d="m 189.383,287.882 c -4.142,0 -7.5,3.358 -7.5,7.5 v 12.057 c 0,4.142 3.358,7.5 7.5,7.5 4.142,0 7.5,-3.358 7.5,-7.5 v -12.057 c 0,-4.142 -3.358,-7.5 -7.5,-7.5 z"
     style="stroke-width:8.00003147" /><path
     inkscape:connector-curvature="0"
     id="path40"
     d="m 322.617,287.882 c -4.142,0 -7.5,3.358 -7.5,7.5 v 12.057 c 0,4.142 3.358,7.5 7.5,7.5 4.142,0 7.5,-3.358 7.5,-7.5 v -12.057 c 0,-4.142 -3.358,-7.5 -7.5,-7.5 z"
     style="stroke-width:8.00003147" /><path
     inkscape:connector-curvature="0"
     id="path42"
     d="m 281.137,301.764 c -3.119,-2.726 -7.856,-2.408 -10.583,0.711 -3.541,4.051 -8.845,6.374 -14.555,6.374 -5.709,0 -11.014,-2.323 -14.555,-6.374 -2.727,-3.119 -7.463,-3.437 -10.583,-0.711 -3.119,2.727 -3.437,7.464 -0.71,10.583 6.39,7.31 15.811,11.502 25.848,11.502 10.038,0 19.459,-4.192 25.849,-11.502 2.726,-3.119 2.408,-7.857 -0.711,-10.583 z"
     style="stroke-width:8.00003147" /><path
     inkscape:connector-curvature="0"
     id="path44"
     d="m 362.216,389.433 h 109.438 c 4.142,0 7.5,-3.358 7.5,-7.5 0,-22.101 -16.228,-40.479 -37.394,-43.856 v -65.58 c 3.311,-0.175 6.589,-1.141 9.578,-2.916 6.405,-3.802 10.229,-10.518 10.229,-17.966 0,-26.871 -21.861,-48.731 -48.731,-48.731 h -1.817 v -53.403 c 4.005,-0.476 7.749,-2.227 10.715,-5.076 3.66,-3.517 5.676,-8.268 5.676,-13.377 0,-22.95 -18.671,-41.621 -41.621,-41.621 H 285.052 C 295.881,81.434 304.317,73.052 310.248,64.348 321.206,48.264 321.009,35.054 318.914,26.803 314.905,11.022 300.134,0 282.991,0 273.532,0 264.15,3.322 256,9.465 247.85,3.322 238.468,0 229.009,0 c -17.145,0 -31.918,11.022 -35.926,26.804 -2.095,8.25 -2.292,21.46 8.667,37.544 5.931,8.704 14.368,17.086 25.198,25.06 H 126.212 c -22.95,0 -41.621,18.671 -41.621,41.621 0,9.509 7.175,17.361 16.392,18.456 v 53.401 h -1.817 c -26.871,0 -48.731,21.861 -48.731,48.731 0,7.448 3.823,14.164 10.228,17.966 2.99,1.775 6.268,2.741 9.579,2.916 v 65.58 c -21.166,3.377 -37.394,21.754 -37.394,43.856 0,4.142 3.358,7.5 7.5,7.5 h 109.438 c 13.984,18.02 44.898,30.986 81.984,34.963 v 35.687 h -15.074 c -24.491,0 -44.417,19.925 -44.417,44.417 0,4.142 3.358,7.5 7.5,7.5 h 152.444 c 4.142,0 7.5,-3.358 7.5,-7.5 0,-24.491 -19.925,-44.417 -44.417,-44.417 h -15.074 v -35.687 c 37.086,-3.979 68,-16.945 81.984,-34.965 z M 207.622,30.496 C 209.975,21.227 218.57,15 229.009,15 c 5.392,0 13.542,1.684 21.749,9.705 2.915,2.848 7.569,2.848 10.484,0 C 269.45,16.684 277.6,15 282.991,15 c 10.437,0 19.03,6.227 21.383,15.495 5.364,21.123 -20.585,44.087 -47.247,58.912 h -2.256 C 228.209,74.582 202.258,51.617 207.622,30.496 Z M 99.591,131.028 c 0,-14.679 11.942,-26.621 26.621,-26.621 h 259.576 c 14.679,0 26.621,11.942 26.621,26.62 0,3.118 -3.285,4.23 -5.736,2.925 -12.423,-6.591 -27.16,-6.526 -39.528,0.221 -8.13,4.435 -17.953,4.081 -26.035,-0.221 -12.147,-6.445 -26.501,-6.508 -38.696,-0.2 -8.178,4.23 -18.205,4.906 -26.432,0.421 -12.509,-6.823 -27.444,-6.825 -39.964,0 -7.843,4.275 -17.753,4.277 -25.599,0 -12.509,-6.823 -27.444,-6.825 -39.964,0 -7.844,4.276 -17.669,4.323 -25.599,0 -12.513,-6.825 -27.453,-6.826 -39.965,0 -2.352,1.284 -5.3,-0.461 -5.3,-3.145 z M 65.434,251.616 c 0,-18.599 15.132,-33.731 33.731,-33.731 0,0 50.793,0 50.98,0 9.545,0 9.68,-15 10e-4,-15 h -34.163 v -57.269 c 7.339,-2.582 15.357,-1.631 22.185,1.977 12.411,6.56 27.12,6.486 39.469,-0.251 8.144,-4.416 17.985,-4.036 26.094,0.251 12.411,6.56 27.12,6.486 39.469,-0.251 8.145,-4.416 17.984,-4.036 26.094,0.251 12.411,6.56 27.12,6.486 39.469,-0.25 7.904,-4.311 17.696,-4.311 25.599,0 12.35,6.736 27.058,6.811 39.469,0.25 6.886,-3.64 14.775,-4.587 22.185,-1.977 v 57.269 c 0,0 -215.323,0 -215.871,0 -9.516,0 -9.738,15 -0.001,15 h 232.689 c 18.6,0 33.731,15.132 33.731,33.734 -0.002,4.424 -4.847,7.281 -8.715,5.171 -14.473,-7.893 -32.331,-7.891 -46.796,0 -9.979,5.442 -22.449,5.442 -32.431,0 -14.65,-7.992 -32.145,-7.992 -46.796,0 -9.972,5.436 -22.456,5.441 -32.43,0 -14.454,-7.885 -32.332,-7.89 -46.796,0 -9.993,5.451 -22.441,5.451 -32.431,0 -14.65,-7.992 -32.144,-7.992 -46.796,0 -11.984,6.537 -23.561,4.031 -35.21,-1.405 -13.882,-6.478 -30.578,-5.926 -44.017,1.405 -3.897,2.126 -8.712,-0.781 -8.712,-5.174 z m 11.829,100.901 h 287.002 c 4.142,0 7.5,-3.358 7.5,-7.5 0,-4.039 -3.455,-7.5 -7.5,-7.5 H 85.241 v -69.382 c 1.875,-0.735 3.758,-1.279 5.733,-1.673 7.694,-1.534 15.902,-0.259 22.788,3.496 14.651,7.992 32.145,7.992 46.796,0 10.047,-5.48 22.386,-5.479 32.431,0 14.651,7.992 32.146,7.992 46.796,0 10.153,-5.538 22.277,-5.538 32.431,0 14.651,7.992 32.145,7.992 46.796,0 10.046,-5.48 22.386,-5.479 32.431,0 8.445,4.606 18.152,6.634 27.728,5.777 6.572,-0.589 13.06,-2.5 19.068,-5.777 8.575,-4.678 19.239,-5.453 28.522,-1.823 v 69.382 h -32.749 c -4.049,0 -7.5,3.447 -7.5,7.5 0,4.142 3.358,7.5 7.5,7.5 h 40.726 c 13.63,0 25.124,9.317 28.448,21.917 H 48.815 c 3.325,-12.601 14.819,-21.917 28.448,-21.917 z m 94.222,36.916 h 169.029 c -6.054,4.308 -13.754,8.201 -22.738,11.435 -38.387,13.818 -85.181,13.812 -123.553,0 -8.983,-3.234 -16.684,-7.127 -22.738,-11.435 z M 323.754,497 H 188.247 c 3.324,-12.6 14.818,-21.917 28.448,-21.917 h 78.611 c 13.629,0 25.123,9.317 28.448,21.917 z m -58.522,-36.917 h -18.463 v -34.582 c 3.049,0.121 6.128,0.183 9.231,0.183 3.103,0 6.182,-0.062 9.231,-0.183 v 34.582 z"
     style="stroke-width:8.00003147" /></g></svg>