<?xml version="1.0" encoding="iso-8859-1"?>
<!-- Generator: Adobe Illustrator 19.0.0, SVG Export Plug-In . SVG Version: 6.00 Build 0)  -->
<svg version="1.1" id="Capa_1" xmlns="http://www.w3.org/2000/svg" xmlns:xlink="http://www.w3.org/1999/xlink" x="0px" y="0px"
	 viewBox="0 0 512 512" style="enable-background:new 0 0 512 512;" xml:space="preserve">
<path style="fill:#FEDA44;" d="M317.37,320.992c0,31.88-9.63,61.51-26.14,86.14c-15.02-10.18-27.23-24.19-35.23-40.62
	c6.71-13.75,10.47-29.2,10.47-45.52c0-16.33-3.76-31.78-10.47-45.53c-8-16.43-20.21-30.44-35.23-40.62
	c-16.64-11.3-36.72-17.89-58.33-17.89c-57.46,0-104.04,46.58-104.04,104.04c0,57.45,46.58,104.03,104.04,104.03
	c21.61,0,41.69-6.6,58.33-17.89c9.6,14.32,21.52,26.95,35.23,37.36c-26,19.72-58.41,31.43-93.56,31.43
	c-85.57,0-154.94-69.37-154.94-154.93c0-85.57,69.37-154.94,154.94-154.94c35.15,0,67.56,11.71,93.56,31.43
	c13.71,10.41,25.63,23.04,35.23,37.36C307.74,259.482,317.37,289.112,317.37,320.992z"/>
<g>
	<path style="fill:#FF9911;" d="M28.961,320.992c0-81.971,63.66-149.065,144.235-154.565c-3.554-0.244-7.14-0.375-10.756-0.375
		c-85.57,0-154.94,69.37-154.94,154.94c0,85.56,69.37,154.93,154.94,154.93c3.616,0,7.202-0.131,10.756-0.375
		C92.621,470.047,28.961,402.953,28.961,320.992z"/>
	<path style="fill:#FF9911;" d="M277.461,366.512c6.71-13.75,10.47-29.2,10.47-45.52c0-16.33-3.76-31.78-10.47-45.53
		c-8-16.43-20.21-30.44-35.23-40.62c-16.64-11.3-36.72-17.89-58.33-17.89c-3.648,0-7.252,0.19-10.804,0.556
		c17.542,1.786,33.805,7.916,47.673,17.334c15.02,10.18,27.23,24.19,35.23,40.62c6.71,13.75,10.47,29.2,10.47,45.53
		c0,16.32-3.76,31.77-10.47,45.52c8,16.43,20.21,30.44,35.23,40.62c2.542-3.793,4.9-7.718,7.106-11.738
		C289.824,387.08,282.726,377.325,277.461,366.512z"/>
</g>
<path style="fill:#FEDA44;" d="M504.5,320.992c0,85.56-69.37,154.93-154.94,154.93c-35.15,0-67.56-11.71-93.56-31.43
	c-13.71-10.41-25.63-23.04-35.23-37.36c-16.51-24.63-26.14-54.26-26.14-86.14s9.63-61.51,26.14-86.15
	c15.02,10.18,27.23,24.19,35.23,40.62c-6.71,13.75-10.47,29.2-10.47,45.53c0,16.32,3.76,31.77,10.47,45.52
	c8,16.43,20.21,30.44,35.23,40.62c16.64,11.29,36.72,17.89,58.33,17.89c57.46,0,104.04-46.58,104.04-104.03
	c0-57.46-46.58-104.04-104.04-104.04c-21.61,0-41.69,6.59-58.33,17.89c-9.6-14.32-21.52-26.95-35.23-37.36
	c26-19.72,58.41-31.43,93.56-31.43C435.13,166.052,504.5,235.422,504.5,320.992z"/>
<g>
	<path style="fill:#FF9911;" d="M291.23,234.842c5.152-3.499,10.636-6.543,16.391-9.083c-8.282-10.61-17.894-20.131-28.621-28.276
		c23.145-17.555,51.372-28.754,82.088-31.003c-3.807-0.28-7.65-0.427-11.528-0.427c-35.15,0-67.56,11.71-93.56,31.43
		C269.71,207.892,281.63,220.522,291.23,234.842z"/>
	<path style="fill:#FF9911;" d="M361.068,424.385c3.774,0.415,7.607,0.637,11.492,0.637c57.46,0,104.04-46.58,104.04-104.03
		c0-57.46-46.58-104.04-104.04-104.04c-3.886,0-7.72,0.221-11.495,0.636c52.045,5.726,92.535,49.833,92.535,103.404
		C453.6,374.552,413.112,418.657,361.068,424.385z"/>
	<path style="fill:#FF9911;" d="M279,444.492c-13.71-10.41-25.63-23.04-35.23-37.36c-16.51-24.63-26.14-54.26-26.14-86.14
		c0-26.573,6.71-51.57,18.498-73.43c-4.694-4.71-9.834-8.976-15.358-12.72c-16.51,24.64-26.14,54.27-26.14,86.15
		s9.63,61.51,26.14,86.14c9.6,14.32,21.52,26.95,35.23,37.36c26,19.72,58.41,31.43,93.56,31.43c3.878,0,7.722-0.147,11.528-0.427
		C330.372,473.246,302.145,462.047,279,444.492z"/>
</g>
<path style="fill:#EB358A;" d="M256,161.972c0,0,72.104-26.07,72.104-73.779c0-22.029-17.858-39.888-39.888-39.888
	c-13.237,0-24.961,6.452-32.217,16.378c-7.256-9.926-18.98-16.378-32.217-16.378c-22.029,0-39.888,17.858-39.888,39.888
	C183.896,135.902,256,161.972,256,161.972z"/>
<path style="fill:#943EC7;" d="M209.896,88.193c0-17.471,11.238-32.309,26.876-37.705c-4.073-1.404-8.437-2.183-12.988-2.183
	c-22.029,0-39.888,17.858-39.888,39.888c0,47.709,72.104,73.779,72.104,73.779s5.291-1.915,13-5.649
	C248.236,146.265,209.896,122.984,209.896,88.193z"/>
<path d="M349.56,158.552c-33.868,0-66.092,10.235-93.56,29.644c-27.468-19.409-59.692-29.644-93.56-29.644
	C72.87,158.552,0,231.422,0,320.992c0,89.564,72.87,162.43,162.44,162.43c33.868,0,66.092-10.235,93.56-29.644
	c27.468,19.409,59.692,29.644,93.56,29.644c89.57,0,162.44-72.866,162.44-162.43C512,231.422,439.13,158.552,349.56,158.552z
	 M15,320.992c0-81.299,66.141-147.44,147.44-147.44c32.447,0,63.233,10.341,89.024,29.903c13.103,9.949,24.386,21.914,33.535,35.562
	c16.271,24.282,24.871,52.628,24.871,81.975c0,26.707-7.144,52.569-20.685,75.3c-10.21-8.192-18.684-18.385-24.842-29.936
	c6.386-14.285,9.627-29.525,9.627-45.363c0-17.125-3.778-33.55-11.227-48.813c-8.534-17.527-21.593-32.584-37.76-43.541
	c-18.482-12.551-40.109-19.186-62.543-19.186c-61.503,0-111.54,50.037-111.54,111.54c0,61.498,50.037,111.53,111.54,111.53
	c19.943,0,39.254-5.263,56.299-15.258c7.264,9.859,15.605,18.822,24.883,26.813c-24.093,15.955-51.963,24.345-81.182,24.345
	C81.141,468.422,15,402.285,15,320.992z M301.591,237.201c14.55-8.361,30.99-12.749,47.969-12.749
	c53.232,0,96.54,43.308,96.54,96.54c0,53.227-43.308,96.53-96.54,96.53c-16.965,0-33.404-4.388-47.966-12.75
	c15.238-25.245,23.276-54.04,23.276-83.779C324.87,291.255,316.831,262.456,301.591,237.201z M253.03,320.992
	c0-8.175,0.999-16.161,2.97-23.896c1.971,7.735,2.97,15.722,2.97,23.896c0,8.171-0.999,16.154-2.97,23.888
	C254.029,337.146,253.03,329.163,253.03,320.992z M210.409,237.201c-15.24,25.254-23.279,54.054-23.279,83.791
	c0,29.739,8.038,58.534,23.277,83.779c-14.561,8.362-31.001,12.75-47.967,12.75c-53.232,0-96.54-43.303-96.54-96.53
	c0-53.232,43.308-96.54,96.54-96.54C179.417,224.452,195.856,228.839,210.409,237.201z M349.56,468.422
	c-32.447,0-63.233-10.341-89.024-29.903c-13.103-9.949-24.386-21.914-33.536-35.563c-16.27-24.271-24.87-52.614-24.87-81.963
	c0-26.705,7.144-52.57,20.686-75.309c10.209,8.192,18.683,18.385,24.841,29.936c-6.385,14.285-9.627,29.529-9.627,45.373
	c0,17.118,3.778,33.54,11.227,48.803c8.534,17.527,21.593,32.584,37.762,43.543c18.498,12.55,40.124,19.184,62.541,19.184
	c61.503,0,111.54-50.032,111.54-111.53c0-61.503-50.037-111.54-111.54-111.54c-19.956,0-39.267,5.262-56.301,15.256
	c-7.263-9.858-15.604-18.821-24.882-26.811c24.093-15.955,51.963-24.345,81.182-24.345c81.299,0,147.44,66.141,147.44,147.44
	C497,402.285,430.859,468.422,349.56,468.422z"/>
<path d="M253.45,169.025l2.55,0.922l2.55-0.922c3.146-1.138,77.054-28.462,77.054-80.833c0-26.129-21.258-47.387-47.388-47.387
	c-12.002,0-23.525,4.618-32.217,12.658c-8.691-8.04-20.215-12.658-32.217-12.658c-26.13,0-47.388,21.258-47.388,47.387
	C176.396,140.563,250.304,167.887,253.45,169.025z M223.783,55.805c10.292,0,20.073,4.974,26.162,13.304L256,77.394l6.055-8.284
	c6.089-8.331,15.869-13.304,26.162-13.304c17.858,0,32.388,14.529,32.388,32.387c0,37.127-52.32,60.702-64.604,65.723
	c-12.284-5.021-64.604-28.595-64.604-65.723C191.396,70.334,205.925,55.805,223.783,55.805z"/>
<path d="M250.531,129.643c-11.505-6.53-21.036-13.661-28.328-21.193l-10.777,10.433c8.287,8.561,18.952,16.57,31.701,23.806
	L250.531,129.643z"/>
<path d="M267.686,433.923c23.917,17.368,52.23,26.549,81.879,26.549v-15c-26.461,0-51.727-8.19-73.064-23.687L267.686,433.923z"/>
<g>
	<path style="fill:#FFFFFF;" d="M407.534,194.083l-6.24,13.641c44.197,20.22,72.756,64.679,72.756,113.264h15
		C489.05,266.551,457.053,216.738,407.534,194.083z"/>
	<path style="fill:#FFFFFF;" d="M349.565,196.502c11.057,0,22.02,1.449,32.586,4.307l3.916-14.479
		c-11.842-3.203-24.124-4.827-36.502-4.827V196.502z"/>
</g>
<path d="M162.435,445.472c-9.447,0-18.86-1.062-27.978-3.155l-3.356,14.62c10.216,2.345,20.759,3.535,31.334,3.535
	c22.403,0,44.676-5.44,64.412-15.732l-6.936-13.3C202.308,440.619,182.433,445.472,162.435,445.472z"/>
<g>
	<path style="fill:#FFFFFF;" d="M286.92,320.987h15c0-56.546-33.735-107.118-85.944-128.838l-5.762,13.85
		C256.811,225.384,286.92,270.519,286.92,320.987z"/>
	<path style="fill:#FFFFFF;" d="M193.624,185.004c-10.172-2.324-20.665-3.502-31.188-3.502v15c9.401,0,18.771,1.051,27.848,3.125
		L193.624,185.004z"/>
	<path style="fill:#FFFFFF;" d="M300.5,88.513h15c0-10.78-6.335-20.645-16.139-25.133l-6.243,13.64
		C297.603,79.073,300.5,83.584,300.5,88.513z"/>
	<path style="fill:#FFFFFF;" d="M287.87,75.884v-15c-6.232,0-12.345,2.136-17.21,6.014l9.349,11.73
		C282.261,76.832,284.979,75.884,287.87,75.884z"/>
</g>
<path d="M141.341,111.546c12.7,0,23.032-10.332,23.032-23.032s-10.332-23.032-23.032-23.032s-23.032,10.332-23.032,23.032
	S128.641,111.546,141.341,111.546z M141.341,80.481c4.429,0,8.032,3.603,8.032,8.032s-3.603,8.032-8.032,8.032
	s-8.032-3.603-8.032-8.032S136.912,80.481,141.341,80.481z"/>
<polygon points="365.286,111.734 380.286,111.734 380.286,96.013 396.006,96.013 396.006,81.013 380.286,81.013 380.286,65.293 
	365.286,65.293 365.286,81.013 349.565,81.013 349.565,96.013 365.286,96.013 "/>
<rect x="154.27" y="128.67" width="16.333" height="15"/>
<rect x="328.1" y="133.61" width="16.333" height="15"/>
<rect x="325.06" y="28.578" width="16.333" height="15"/>
<rect x="169.03" y="28.578" width="16.333" height="15"/>
<g>
</g>
<g>
</g>
<g>
</g>
<g>
</g>
<g>
</g>
<g>
</g>
<g>
</g>
<g>
</g>
<g>
</g>
<g>
</g>
<g>
</g>
<g>
</g>
<g>
</g>
<g>
</g>
<g>
</g>
</svg>
