<?xml version="1.0" encoding="iso-8859-1"?>
<!-- Generator: Adobe Illustrator 22.1.0, SVG Export Plug-In . SVG Version: 6.00 Build 0)  -->
<svg xmlns="http://www.w3.org/2000/svg" xmlns:xlink="http://www.w3.org/1999/xlink" version="1.1" id="Layer_3" x="0px" y="0px" viewBox="0 0 64 64" style="enable-background:new 0 0 64 64;" xml:space="preserve" width="512" height="512">
<g>
	<rect x="2" y="58" style="fill:#7E4E4D;" width="60" height="4"/>
	<rect x="2" y="58" style="fill:#8D5655;" width="52" height="4"/>
	<path style="fill:#DCB29C;" d="M54,42H10c-2.209,0-4,1.791-4,4v12h52V46C58,43.791,56.209,42,54,42z"/>
	<path style="fill:#DCB29C;" d="M50,26H14c-2.209,0-4,1.791-4,4v12h44V30C54,27.791,52.209,26,50,26z"/>
	<path style="fill:#F3C6B0;" d="M50,42H10c-2.209,0-4,1.791-4,4v12h48V46C54,43.791,52.209,42,50,42z"/>
	<path style="fill:#F3C6B0;" d="M46,26H14c-2.209,0-4,1.791-4,4v12h40V30C50,27.791,48.209,26,46,26z"/>
	<path style="fill:#D46B69;" d="M50,26H14c-2.209,0-4,1.791-4,4l2.586,2.586C13.491,33.491,14.719,34,16,34s2.509-0.509,3.414-1.414   l1.172-1.172C21.491,30.509,22.719,30,24,30s2.509,0.509,3.414,1.414l1.172,1.172C29.491,33.491,30.719,34,32,34   s2.509-0.509,3.414-1.414l1.172-1.172C37.491,30.509,38.719,30,40,30s2.509,0.509,3.414,1.414l1.172,1.172   C45.491,33.491,46.719,34,48,34s2.509-0.509,3.414-1.414L54,30C54,27.791,52.209,26,50,26z"/>
	<path style="fill:#ED7775;" d="M10,30l2.586,2.586c0.411,0.411,0.895,0.728,1.414,0.965c0.519-0.237,1.003-0.554,1.414-0.965   l1.172-1.172C17.491,30.509,18.719,30,20,30c0.699,0,1.376,0.164,2,0.449C22.624,30.164,23.301,30,24,30   c1.281,0,2.509,0.509,3.414,1.414l1.172,1.172c0.411,0.411,0.895,0.728,1.414,0.965c0.519-0.237,1.003-0.554,1.414-0.965   l1.172-1.172C33.491,30.509,34.719,30,36,30c0.699,0,1.376,0.164,2,0.449C38.624,30.164,39.301,30,40,30   c1.281,0,2.509,0.509,3.414,1.414l1.172,1.172c0.411,0.411,0.895,0.728,1.414,0.965c0.519-0.237,1.003-0.554,1.414-0.965L50,30   c0-2.209-1.791-4-4-4H14C11.791,26,10,27.791,10,30z"/>
	<path style="fill:#D46B69;" d="M54,42H10c-2.209,0-4,1.791-4,4h2c1.281,0,2.509,0.509,3.414,1.414l1.172,1.172   C13.491,49.491,14.719,50,16,50s2.509-0.509,3.414-1.414l1.172-1.172C21.491,46.509,22.719,46,24,46s2.509,0.509,3.414,1.414   l1.172,1.172C29.491,49.491,30.719,50,32,50s2.509-0.509,3.414-1.414l1.172-1.172C37.491,46.509,38.719,46,40,46   s2.509,0.509,3.414,1.414l1.172,1.172C45.491,49.491,46.719,50,48,50s2.509-0.509,3.414-1.414l1.172-1.172   C53.491,46.509,54.719,46,56,46h2C58,43.791,56.209,42,54,42z"/>
	<path style="fill:#ED7775;" d="M6,46h2c1.281,0,2.509,0.509,3.414,1.414l1.172,1.172c0.411,0.411,0.895,0.728,1.414,0.965   c0.519-0.237,1.003-0.554,1.414-0.965l1.172-1.172C17.491,46.509,18.719,46,20,46c0.699,0,1.376,0.164,2,0.449   C22.624,46.164,23.301,46,24,46c1.281,0,2.509,0.509,3.414,1.414l1.172,1.172c0.411,0.411,0.895,0.728,1.414,0.965   c0.519-0.237,1.003-0.554,1.414-0.965l1.172-1.172C33.491,46.509,34.719,46,36,46c0.699,0,1.376,0.164,2,0.449   C38.624,46.164,39.301,46,40,46c1.281,0,2.509,0.509,3.414,1.414l1.172,1.172c0.411,0.411,0.895,0.728,1.414,0.965   c0.519-0.237,1.003-0.554,1.414-0.965l1.172-1.172C49.491,46.509,50.719,46,52,46h2c0-2.209-1.791-4-4-4H10C7.791,42,6,43.791,6,46   z"/>
	<path style="fill:#656665;" d="M22,26v-8h-2v-6c0-1.105,0.895-2,2-2h6c1.105,0,2,0.895,2,2v6h-2v8"/>
	<path style="fill:#999999;" d="M26,10h-4c-1.105,0-2,0.895-2,2v6h2v8h4v-8h2v-6C28,10.895,27.105,10,26,10z"/>
	<path style="fill:#D9D7D8;" d="M31,26l3-8v-6c0-1.105,0.895-2,2-2h4c1.105,0,2,0.895,2,2v6l3,8"/>
	<path style="fill:#EFEDEE;" d="M40,12c0-1.105-0.895-2-2-2h-2c-1.105,0-2,0.895-2,2v6l-3,8h12l-3-8V12z"/>
	<circle style="fill:#DCB29C;" cx="25" cy="5" r="3"/>
	<circle style="fill:#DCB29C;" cx="38" cy="5" r="3"/>
	<ellipse style="fill:#F3C6B0;" cx="24" cy="5" rx="2" ry="2.816"/>
	<ellipse style="fill:#F3C6B0;" cx="37" cy="5" rx="2" ry="2.816"/>
	<g>
		<rect x="9" y="53" style="fill:#BC8F6F;" width="2" height="2"/>
	</g>
	<g>
		<rect x="13" y="53" style="fill:#BC8F6F;" width="2" height="2"/>
	</g>
	<g>
		<rect x="17" y="53" style="fill:#BC8F6F;" width="2" height="2"/>
	</g>
	<g>
		<rect x="21" y="53" style="fill:#BC8F6F;" width="2" height="2"/>
	</g>
	<g>
		<rect x="25" y="53" style="fill:#BC8F6F;" width="2" height="2"/>
	</g>
	<g>
		<rect x="29" y="53" style="fill:#BC8F6F;" width="2" height="2"/>
	</g>
	<g>
		<rect x="33" y="53" style="fill:#BC8F6F;" width="2" height="2"/>
	</g>
	<g>
		<rect x="37" y="53" style="fill:#BC8F6F;" width="2" height="2"/>
	</g>
	<g>
		<rect x="41" y="53" style="fill:#BC8F6F;" width="2" height="2"/>
	</g>
	<g>
		<rect x="45" y="53" style="fill:#BC8F6F;" width="2" height="2"/>
	</g>
	<g>
		<rect x="49" y="53" style="fill:#BC8F6F;" width="2" height="2"/>
	</g>
	<g>
		<rect x="13" y="37" style="fill:#BC8F6F;" width="2" height="2"/>
	</g>
	<g>
		<rect x="17" y="37" style="fill:#BC8F6F;" width="2" height="2"/>
	</g>
	<g>
		<rect x="21" y="37" style="fill:#BC8F6F;" width="2" height="2"/>
	</g>
	<g>
		<rect x="25" y="37" style="fill:#BC8F6F;" width="2" height="2"/>
	</g>
	<g>
		<rect x="29" y="37" style="fill:#BC8F6F;" width="2" height="2"/>
	</g>
	<g>
		<rect x="33" y="37" style="fill:#BC8F6F;" width="2" height="2"/>
	</g>
	<g>
		<rect x="37" y="37" style="fill:#BC8F6F;" width="2" height="2"/>
	</g>
	<g>
		<rect x="41" y="37" style="fill:#BC8F6F;" width="2" height="2"/>
	</g>
	<g>
		<rect x="45" y="37" style="fill:#BC8F6F;" width="2" height="2"/>
	</g>
	<g>
		<rect x="49" y="37" style="fill:#BC8F6F;" width="2" height="2"/>
	</g>
	<g>
		<rect x="53" y="53" style="fill:#BC8F6F;" width="2" height="2"/>
	</g>
</g>
</svg>
