<?xml version="1.0" encoding="UTF-8" standalone="no"?>
<!-- Generator: Adobe Illustrator 19.0.0, SVG Export Plug-In . SVG Version: 6.00 Build 0)  -->

<svg
   xmlns:dc="http://purl.org/dc/elements/1.1/"
   xmlns:cc="http://creativecommons.org/ns#"
   xmlns:rdf="http://www.w3.org/1999/02/22-rdf-syntax-ns#"
   xmlns:svg="http://www.w3.org/2000/svg"
   xmlns="http://www.w3.org/2000/svg"
   xmlns:sodipodi="http://sodipodi.sourceforge.net/DTD/sodipodi-0.dtd"
   xmlns:inkscape="http://www.inkscape.org/namespaces/inkscape"
   version="1.1"
   id="Capa_1"
   x="0px"
   y="0px"
   viewBox="0 0 300 128.00002"
   xml:space="preserve"
   sodipodi:docname="logo_lista_nozze_con_scritta.svg"
   width="300"
   height="128.00002"
   inkscape:version="0.92.3 (2405546, 2018-03-11)"
   inkscape:export-filename="C:\Deto\GitHub\100giorni\il-matrimonio-di-claudia-e-samuele\html5\assets\images\logo_lista_nozze_con_scritta.png"
   inkscape:export-xdpi="96"
   inkscape:export-ydpi="96"><metadata
   id="metadata99"><rdf:RDF><cc:Work
       rdf:about=""><dc:format>image/svg+xml</dc:format><dc:type
         rdf:resource="http://purl.org/dc/dcmitype/StillImage" /><dc:title /></cc:Work></rdf:RDF></metadata><defs
   id="defs97" /><sodipodi:namedview
   pagecolor="#ffffff"
   bordercolor="#666666"
   borderopacity="1"
   objecttolerance="10"
   gridtolerance="10"
   guidetolerance="10"
   inkscape:pageopacity="0"
   inkscape:pageshadow="2"
   inkscape:window-width="1920"
   inkscape:window-height="1057"
   id="namedview95"
   showgrid="false"
   fit-margin-top="0"
   fit-margin-left="0"
   fit-margin-right="0"
   fit-margin-bottom="0"
   inkscape:zoom="1.84375"
   inkscape:cx="53.541877"
   inkscape:cy="-113.2008"
   inkscape:window-x="-8"
   inkscape:window-y="-8"
   inkscape:window-maximized="1"
   inkscape:current-layer="Capa_1" />















<g
   id="g937"
   transform="matrix(0.19531258,0,0,0.19531258,-9.4075702e-5,88.02134)"
   style="stroke-width:5.11999798"><polygon
     transform="translate(0,-384)"
     id="polygon2"
     points="253,196.999 152,188.499 88,212.499 25,249.999 4.5,276.499 7,302.999 35.5,324.499 129.5,344.999 213,343.499 243.5,354.999 338,380.499 425,388.999 458.5,382.499 458.5,368.999 363.5,318.499 426.5,299.999 474.5,309.499 495.5,302.999 503,288.999 489.5,270.999 495.5,256.499 485,242.499 445.5,228.499 374,216.999 "
     style="fill:#dadbdc;stroke-width:5.11999798" /><g
     transform="translate(0,-384)"
     id="g12"
     style="stroke-width:5.11999798">
	<polygon
   id="polygon4"
   points="505.5,160.499 498,160.499 407,221.499 465,233.499 485,242.499 508,173.499 "
   style="fill:#939598;stroke-width:5.11999798" />
	<polygon
   id="polygon6"
   points="409.5,269.999 389,278.999 393,287.499 474.5,309.499 495.5,302.999 503,288.999 489.5,270.999 475.5,267.499 445.5,264.499 "
   style="fill:#939598;stroke-width:5.11999798" />
	<polygon
   id="polygon8"
   points="351.333,381.999 283.333,366.999 233.667,351.332 200,332.666 186.667,322.999 187.667,312.332 204.333,306.332 218.333,320.332 267.333,344.999 310,356.666 364.667,361.999 414,356.999 431.333,352.332 458.5,368.999 458.5,382.499 438.667,388.999 395.667,388.666 "
   style="fill:#939598;stroke-width:5.11999798" />
	<polygon
   id="polygon10"
   points="4.5,276.499 18.333,252.332 35,273.332 39.333,299.332 35.5,324.499 7,302.999 "
   style="fill:#939598;stroke-width:5.11999798" />
</g><g
     transform="translate(0,-384)"
     id="g26"
     style="stroke-width:5.11999798">
	<path
   inkscape:connector-curvature="0"
   id="path14"
   d="m 97.937,232.121 c -3.977,-5.02 -9.9,-4.655 -15.194,-7.163 -5.771,-2.734 -12.201,-4.67 -17.423,0.494 -1.282,1.268 -2.182,2.817 -2.72,4.489 -0.313,-0.144 -0.608,-0.305 -0.937,-0.434 -4.055,-1.586 -6.727,3.513 -5.161,6.714 5.019,10.258 17.003,21.609 29.18,20.637 11.714,-0.935 20.211,-14.695 12.255,-24.737 z"
   style="fill:#4d4d4f;stroke-width:5.11999798" />
	<path
   inkscape:connector-curvature="0"
   id="path16"
   d="m 150.683,245.471 c -1.841,-6.813 -8.455,-10.889 -15.337,-9.015 -6.623,1.804 -10.401,8.557 -10.207,15.12 0.189,6.408 3.34,14.192 10.817,14.43 1.995,0.063 3.817,-0.481 5.433,-1.448 1.127,-0.236 2.263,-0.681 3.369,-1.392 5.129,-3.296 7.454,-12.035 5.925,-17.695 z"
   style="fill:#4d4d4f;stroke-width:5.11999798" />
	<path
   inkscape:connector-curvature="0"
   id="path18"
   d="m 203.577,245.635 c -0.2,-1.906 -0.716,-3.756 -1.631,-5.294 -2.742,-4.606 -8.635,-6.201 -13.326,-3.651 -1.626,0.884 -2.997,2.18 -4.117,3.71 -5.287,5.053 -7.769,13.353 -2.903,19.587 4.292,5.499 12.381,5.598 16.851,1.451 3.484,-2.501 4.898,-6.486 5.285,-10.78 0.152,-1.681 0.123,-3.384 -0.159,-5.023 z"
   style="fill:#4d4d4f;stroke-width:5.11999798" />
	<path
   inkscape:connector-curvature="0"
   id="path20"
   d="m 253.546,236.04 c -4.167,-3.142 -8.656,-2.492 -12.225,-0.006 -10.993,4.559 -12.452,24.868 0.852,27.314 12.645,2.324 21.293,-19.829 11.373,-27.308 z"
   style="fill:#4d4d4f;stroke-width:5.11999798" />
	<path
   inkscape:connector-curvature="0"
   id="path22"
   d="m 311.404,244.818 c 10e-4,-5.589 -2.031,-12.175 -7.527,-13.736 -5.298,-1.505 -9.362,1.806 -11.896,6.142 -2.667,2.817 -4.328,6.832 -4.496,10.708 -0.187,4.287 1.557,8.466 4.978,11.089 0.202,0.155 0.409,0.298 0.618,0.436 0.694,0.574 1.475,1.086 2.374,1.507 10.337,4.837 16.927,-6.566 15.949,-16.146 z"
   style="fill:#4d4d4f;stroke-width:5.11999798" />
	<path
   inkscape:connector-curvature="0"
   id="path24"
   d="m 363.734,236.799 c -2.538,-6.859 -10.44,-9.285 -16.133,-4.454 -4.12,3.497 -6.22,9.369 -6.391,14.677 -0.21,6.542 3.956,13.204 11.019,13.433 2.504,0.081 4.723,-0.735 6.562,-2.103 1.781,-0.942 3.345,-2.392 4.436,-4.279 2.756,-4.762 2.354,-12.285 0.507,-17.274 z"
   style="fill:#4d4d4f;stroke-width:5.11999798" />
</g><g
     transform="translate(0,-384)"
     id="g32"
     style="stroke-width:5.11999798">
	<path
   inkscape:connector-curvature="0"
   id="path28"
   d="m 152,378.999 -28.333,9.333 -19,30.667 -0.333,10.667 -27.333,-8 -18,18 1.666,14.333 c 0,0 -31,5 -30.667,6 0.333,1 2.333,11.667 2.333,11.667 l 23.667,8 183.333,1 13.333,-16 -1,-21 -15.333,-13.333 -28,2.333 -9,-19.667 -15,-23 z"
   style="fill:#ffffff;stroke-width:5.11999798" />
	<path
   inkscape:connector-curvature="0"
   id="path30"
   d="m 385.667,414.666 -22.333,6 -8.667,19.333 0.333,8 c 0,0 -36.667,-2 -36.333,-1 0.333,1 -9.667,9 -9.333,10 0.333,1 6.667,13.667 6.667,13.667 l 154.666,5.333 5.667,-10.333 -17,-17.667 -23.667,-6.333 -17,4.333 -9.333,-23.333 z"
   style="fill:#ffffff;stroke-width:5.11999798" />
</g><g
     transform="translate(0,-384)"
     id="g40"
     style="stroke-width:5.11999798">
	<path
   inkscape:connector-curvature="0"
   id="path34"
   d="m 95.513,62.231 c -13.764,5.475 -24.32,20.754 -20.496,35.065 2.547,9.531 10.515,16.564 18.599,22.219 20.881,14.609 44.964,23.986 69.304,31.536 5.981,1.855 12.788,3.533 18.231,0.436 4.051,-2.305 6.34,-6.746 8.139,-11.045 11.032,-26.365 11.817,-56.088 7.405,-84.325 -1.384,-8.861 -3.876,-18.586 -11.412,-23.448 -8.61,-5.555 -20.679,-2.115 -27.99,5.064 -7.129,7 -9.387,23.32 -20.607,24.311 -5.91,0.521 -12.159,-2.117 -18.02,-2.664 -7.815,-0.73 -15.813,-0.068 -23.153,2.851 z"
   style="fill:#f28291;stroke-width:5.11999798" />
	<path
   inkscape:connector-curvature="0"
   id="path36"
   d="m 280.447,62.965 c -9.411,-3.426 -21.089,-2.473 -27.955,4.819 -6.477,6.878 -7.137,17.711 -4.097,26.656 3.04,8.945 9.165,16.454 15.168,23.749 4.863,5.909 9.788,11.878 15.905,16.474 6.118,4.597 13.641,7.759 21.275,7.23 7.797,-0.54 14.836,-4.803 21.016,-9.589 9.329,-7.224 17.514,-15.923 24.158,-25.674 3.76,-5.519 7.083,-11.523 8.189,-18.109 1.106,-6.585 -0.307,-13.871 -4.973,-18.648 -5.872,-6.012 -15.661,-6.747 -23.513,-3.752 -6.511,2.484 -16.024,15.019 -22.263,12.708 -3.898,-1.443 -7.721,-6.867 -11.138,-9.363 -3.635,-2.657 -7.531,-4.957 -11.772,-6.501 z"
   style="fill:#f28291;stroke-width:5.11999798" />
	<path
   inkscape:connector-curvature="0"
   id="path38"
   d="m 409.204,96.223 c -3.303,-0.525 -6.964,-0.438 -9.627,1.586 -2.533,1.925 -3.648,5.298 -3.524,8.477 0.124,3.179 1.326,6.214 2.696,9.085 4.932,10.33 12.315,19.481 21.368,26.486 3.871,2.996 8.432,5.709 13.314,5.35 4.635,-0.341 8.628,-3.407 11.756,-6.845 8.658,-9.518 12.792,-22.983 10.967,-35.719 -0.751,-5.238 -2.961,-10.914 -7.823,-13.002 -4.258,-1.829 -9.366,-0.234 -12.91,2.752 -3.66,3.084 -5.454,9.918 -10.488,9.056 -2.029,-0.348 -5.128,-3.602 -7.13,-4.552 -2.72,-1.289 -5.625,-2.202 -8.599,-2.674 z"
   style="fill:#f28291;stroke-width:5.11999798" />
</g><path
     inkscape:connector-curvature="0"
     id="path42"
     d="m 507.577,-199.494 c 2.108,-7.138 6.158,-15.532 3.606,-23.025 -2.066,-6.069 -8.116,-9.571 -14.356,-7.662 -3.904,1.195 -7.032,4.084 -10.219,6.495 -3.8,2.876 -7.611,5.737 -11.401,8.627 -7.34,5.596 -14.561,11.353 -21.831,17.04 -26.852,21.005 -51.664,32.615 -86.217,25.388 -22.563,-4.719 -45.198,-9.109 -67.956,-12.786 -26.442,-4.273 -52.949,-8.103 -79.577,-11.016 -24.265,-2.655 -48.63,-4.631 -72.925,-1.154 -11.825,1.693 -23.408,4.663 -34.426,9.309 -11.016,4.645 -20.934,11.062 -31.32,16.883 -10.288,5.767 -20.724,11.145 -31.427,16.098 -10.176,4.71 -20.265,9.838 -28.983,16.967 -14.775,12.084 -25.202,33.308 -18.438,52.41 7.148,20.185 30.215,27.671 48.492,34.22 52.576,18.838 111.659,24.704 166.871,16.559 0.566,-0.084 1.045,-0.275 1.442,-0.543 0.958,0.422 1.917,0.844 2.86,1.266 10.629,4.761 21.422,9.114 32.419,12.952 22.63,7.899 45.897,13.826 69.364,18.637 24.276,4.978 48.946,9.571 73.624,11.967 13.09,1.271 26.255,1.881 39.379,0.731 8.976,-0.787 21.862,-1.121 26.847,-10.152 5.028,-9.11 -2.194,-18.023 -9.306,-23.179 -9.527,-6.907 -20.326,-12.545 -30.549,-18.35 -14.459,-8.211 -29.242,-15.882 -44.416,-22.685 6.076,-0.846 12.116,-1.928 18.14,-3.334 11.017,-2.572 22.937,-5.346 32.842,-11.117 11.783,3.431 23.76,5.949 35.995,7.243 11.512,1.218 25.188,2.099 34.201,-6.645 7.492,-7.268 7.51,-18.832 1.939,-27.251 -1.517,-2.293 -3.357,-4.271 -5.411,-5.999 0.072,-0.125 0.145,-0.249 0.211,-0.385 5.496,-11.312 1.872,-22.119 -5.712,-29.993 0.327,-0.429 0.618,-0.914 0.828,-1.504 6.459,-18.193 9.942,-37.497 15.41,-56.012 z m -428.72,39.21 c 1.851,2.016 4.463,3.389 7.195,4.357 3.845,1.362 7.872,2.041 10.305,5.714 2.204,3.328 2.414,7.658 0.685,11.204 -3.791,7.774 -13.273,9.278 -20.649,6.213 -7.478,-3.107 -11.544,-9.586 -16.185,-15.75 6.343,-3.732 12.526,-7.653 18.649,-11.738 z m -47.666,92.251 c -6.152,-2.388 -12.046,-5.479 -16.471,-10.325 -12.881,-14.104 -4.363,-32.939 7.408,-45.129 13.638,14.935 17.913,36.583 9.063,55.454 z m 396.286,42.119 c 4.616,2.716 9.174,5.46 13.657,8.22 3.752,2.31 7.876,4.498 10.685,8.002 4.031,5.027 -0.558,6.912 -5.322,7.979 -10.864,2.434 -22.212,3.063 -33.317,3.016 -22.485,-0.094 -44.788,-3.91 -66.829,-8.031 -40.937,-7.655 -82.204,-17.696 -120.112,-35.332 -5.398,-2.511 -10.694,-5.265 -15.915,-8.123 -4.886,-2.674 -10.836,-5.296 -14.773,-9.335 -1.531,-1.571 -3.266,-3.901 -2.731,-6.266 0.626,-2.764 3.463,-3.534 5.882,-4.288 1.786,-0.557 3.587,-1.068 5.395,-1.56 49.294,37.394 110.94,54.225 172.521,52.287 17.134,-0.54 34.158,-2.732 50.859,-6.569 z m -9.623,-5.559 c -57.386,11.43 -116.45,3.534 -169.745,-20.953 -13.046,-5.994 -25.721,-12.989 -37.802,-20.794 2.198,-0.532 4.398,-1.047 6.598,-1.546 13.798,-3.126 27.71,-5.386 41.716,-6.836 55.52,-0.5 110.583,22.542 159.233,50.129 z m -23.077,-45.416 c -9.148,2.655 -18.411,5.114 -27.728,7.182 -2.841,-1.164 -5.695,-2.297 -8.566,-3.392 -15.977,-6.094 -32.116,-9.719 -48.648,-13.643 -13.789,-3.272 -25.994,-3.613 -40.213,-4.023 -16.48,-0.475 -31.856,3.2 -47.928,5.815 -1.723,0.28 -3.45,0.545 -5.169,0.847 -5.922,1.041 -11.818,2.231 -17.696,3.493 -4.948,1.063 -10.031,2.259 -13.622,6.084 -7.346,7.825 -2.025,18.87 5.438,24.233 3.995,2.871 8.392,5.332 12.922,7.59 -19.334,0.666 -38.812,0.546 -58.036,-0.961 -23.808,-1.866 -47.242,-6.22 -70.463,-11.701 -11.332,-2.675 -22.599,-5.675 -33.7,-9.194 -0.766,-0.243 -1.541,-0.49 -2.317,-0.739 8.416,-21.841 3.447,-45.91 -13.54,-61.434 1.001,-0.888 2.012,-1.73 3.024,-2.508 7.551,-5.807 15.882,-10.368 24.17,-14.998 6.871,16.791 29.831,28.793 45.358,15.449 6.266,-5.385 8.822,-14.025 5.536,-21.759 -1.56,-3.672 -4.253,-6.603 -7.876,-8.3 -3.54,-1.659 -9.256,-1.809 -12.568,-4.315 0.084,-0.057 0.169,-0.112 0.253,-0.169 19.031,-12.971 39.712,-21.468 62.75,-23.692 22.386,-2.161 45.07,-0.285 67.357,2.14 25.065,2.727 50.113,5.832 75.08,9.34 27.886,3.917 56.913,8.166 85.074,13.229 14.694,2.642 29.347,5.528 43.923,8.762 12.384,2.748 24.492,2.591 36.979,5.125 1.067,0.297 2.137,0.585 3.202,0.889 7.924,2.262 16.836,4.664 23.307,10.028 5.547,4.598 9.963,12.934 6.526,20.008 -0.032,0.067 -0.056,0.133 -0.085,0.2 -3.241,-1.45 -6.65,-2.577 -10.035,-3.473 -0.226,-0.385 -0.628,-0.674 -1.207,-0.706 -0.692,-0.038 -1.385,-0.062 -2.077,-0.095 -0.23,-0.052 -0.462,-0.109 -0.692,-0.16 -23.595,-5.203 -48.566,-2.962 -70.828,6.27 -2.853,0.743 -5.651,1.594 -8.352,2.595 -8.409,3.118 -12.613,12.412 -4.511,18.7 4.512,3.502 10.766,5.102 16.038,7.065 3.113,1.159 6.239,2.287 9.377,3.378 -6.845,2.237 -13.61,4.853 -20.457,6.84 z m 102.731,-12.148 c -3.255,10.392 -17.864,9.342 -26.249,8.615 -10.589,-0.918 -20.988,-3.067 -31.294,-5.608 -10.409,-2.567 -20.641,-5.811 -30.75,-9.372 -4.259,-1.5 -9.237,-2.701 -13.119,-5.041 -6.308,-3.802 5.22,-6.576 7.917,-7.378 11.506,-3.42 23.233,-6.002 35.081,-7.778 4.466,-0.168 8.959,-0.098 13.471,0.24 9.589,0.719 18.941,2.846 28.05,5.886 8.006,2.672 20.145,10.051 16.893,20.436 z m -14.14,-59.303 c -3.49,-2.137 -7.298,-3.78 -11.171,-4.81 -10.826,-2.879 -22.239,-3.992 -33.246,-6.054 -6.46,-1.211 -12.921,-2.421 -19.381,-3.632 23.372,-15.757 46.385,-31.966 69.004,-48.828 3.085,-2.3 6.1,-4.895 9.36,-6.943 1.522,-0.956 2.722,-2.147 4.413,-1.133 1.696,1.017 1.499,3.401 1.414,5.119 -0.201,4.025 -2.033,8.252 -3.165,12.087 -1.118,3.788 -2.262,7.56 -3.493,11.313 -4.649,14.17 -10.09,28.394 -13.735,42.881 z"
     style="stroke-width:5.11999798" /><path
     inkscape:connector-curvature="0"
     id="path44"
     d="m 140.005,-151.475 c -12.687,-0.972 -21.334,14.54 -18.764,25.754 1.787,7.798 9.365,13.487 17.394,12.569 6.368,-0.729 11.798,-5.216 14.215,-11.075 4.222,-10.232 0.047,-26.261 -12.845,-27.248 z m 6.229,23.941 c -2.979,8.008 -13.272,10.608 -17.752,2.458 -1.331,-7.991 -0.124,-18.962 10,-19.077 8.158,-0.094 9.97,10.656 7.752,16.619 z"
     style="stroke-width:5.11999798" /><path
     inkscape:connector-curvature="0"
     id="path46"
     d="m 194.017,-152.818 c -12.687,-0.972 -21.334,14.54 -18.764,25.754 1.787,7.797 9.365,13.487 17.394,12.569 6.368,-0.729 11.798,-5.216 14.215,-11.075 4.222,-10.233 0.047,-26.261 -12.845,-27.248 z m 6.229,23.941 c -2.979,8.008 -13.272,10.608 -17.753,2.458 -1.331,-7.991 -0.123,-18.962 10,-19.077 8.16,-0.094 9.972,10.655 7.753,16.619 z"
     style="stroke-width:5.11999798" /><path
     inkscape:connector-curvature="0"
     id="path48"
     d="m 248.03,-154.162 c -12.688,-0.971 -21.334,14.54 -18.764,25.754 1.787,7.797 9.365,13.487 17.394,12.569 6.368,-0.729 11.798,-5.216 14.215,-11.076 4.221,-10.231 0.047,-26.26 -12.845,-27.247 z m 6.229,23.941 c -2.979,8.008 -13.272,10.608 -17.753,2.458 -1.331,-7.991 -0.124,-18.962 10,-19.077 8.159,-0.094 9.971,10.656 7.753,16.619 z"
     style="stroke-width:5.11999798" /><path
     inkscape:connector-curvature="0"
     id="path50"
     d="m 302.042,-155.505 c -12.688,-0.972 -21.334,14.54 -18.764,25.754 1.787,7.798 9.365,13.487 17.394,12.569 6.368,-0.728 11.798,-5.216 14.215,-11.075 4.222,-10.233 0.047,-26.261 -12.845,-27.248 z m 6.229,23.941 c -2.979,8.007 -13.272,10.608 -17.753,2.458 -1.331,-7.991 -0.123,-18.962 10,-19.077 8.159,-0.094 9.972,10.655 7.753,16.619 z"
     style="stroke-width:5.11999798" /><path
     inkscape:connector-curvature="0"
     id="path52"
     d="m 356.055,-156.849 c -12.687,-0.971 -21.334,14.54 -18.764,25.754 1.787,7.798 9.365,13.487 17.394,12.568 6.368,-0.728 11.798,-5.216 14.215,-11.075 4.222,-10.231 0.047,-26.26 -12.845,-27.247 z m 6.229,23.941 c -2.979,8.008 -13.272,10.608 -17.752,2.458 -1.331,-7.991 -0.124,-18.962 10,-19.077 8.158,-0.094 9.971,10.656 7.752,16.619 z"
     style="stroke-width:5.11999798" /><path
     inkscape:connector-curvature="0"
     id="path54"
     d="m 246.757,47.91 c -5.298,-3.884 -11.614,-6.194 -18.167,-6.642 -6.404,-0.439 -16.546,5.224 -20.689,-1.339 -3.393,-5.375 -3.867,-12.435 -6.404,-18.252 -2.598,-5.96 -6.428,-11.383 -11.047,-15.954 -9.27,-9.174 -21.779,-14.881 -34.764,-15.927 -27.621,-2.225 -51.665,20.422 -56.11,46.707 -12.011,-5.452 -26.753,-5.708 -36.831,3.842 -6.891,6.53 -10.135,16.318 -8.332,25.223 -13.189,-1.017 -29.971,2.186 -29.257,16.924 0.948,19.575 26.802,17.867 40.145,18.232 39.377,1.079 78.717,1.129 118.099,0.992 13.727,0.172 27.453,0.37 41.18,0.567 14.668,0.21 28.747,-3.77 34.012,-18.882 4.548,-13.053 -0.897,-27.472 -11.835,-35.491 z m 0.606,30.005 c -3.617,16.1 -20.489,14.632 -33.564,14.906 -16.279,0.342 -32.573,0.284 -48.855,0.399 -4.944,0.035 -9.887,0.099 -14.83,0.151 C 131.429,92.648 112.738,92.049 94.054,91.93 85.944,91.879 77.835,91.827 69.725,91.776 61.561,91.725 52.8,92.561 44.718,91.249 39.082,90.334 29.433,83.6 37.814,78.695 c 6.673,-3.905 16.747,-3.423 23.895,-1.387 5.315,1.514 8.158,-4.883 5.033,-8.645 -5.45,-6.562 -1.611,-16.901 5.028,-21.019 9.35,-5.799 21.768,-1.338 30.062,4.219 3.617,2.423 9.471,-0.73 9.068,-5.204 -2.193,-24.323 17.46,-47.733 42.499,-47.248 11.831,0.229 23.277,5.631 31.581,13.95 3.952,3.96 7.215,8.647 9.336,13.841 2.197,5.379 3.019,11.288 5.98,16.368 2.503,4.295 6.176,7.537 11.202,8.342 6.044,0.968 11.892,-1.815 17.999,-0.383 11.612,2.72 20.562,14.384 17.866,26.386 z"
     style="stroke-width:5.11999798" /><path
     inkscape:connector-curvature="0"
     id="path56"
     d="m 120.026,-243.358 c 14.717,6.96 30.3,12.294 46.25,15.601 6.582,1.364 13.876,2.055 19.995,-1.365 6.499,-3.633 9.849,-10.605 12.154,-17.359 5.457,-15.99 8.064,-33.332 8.502,-50.187 0.384,-14.782 -0.22,-31.901 -7.863,-45.035 -7.563,-12.999 -22.936,-20.797 -37.352,-14.192 -12.424,5.693 -19.12,18.721 -21.938,31.743 -12.852,-5.068 -26.746,-8.665 -40.497,-5.421 -12.21,2.88 -23.58,11.623 -27.374,23.87 -9.533,30.778 25.312,51.557 48.123,62.345 z m -19.806,-76.781 c 7.891,-2.373 18.215,-2.576 26.054,0.285 7.964,2.907 16.959,10.012 22.379,-0.019 5.381,-9.958 2.885,-20.312 14.861,-26.581 10.798,-5.652 21.633,1.01 26.466,11.156 5.259,11.043 4.676,24.645 4.172,36.558 -0.546,12.893 -2.587,25.627 -6.087,38.048 -1.441,5.114 -2.763,10.906 -5.677,15.428 -3.366,5.223 -8.678,5.268 -14.367,4.609 -12.382,-1.437 -24.852,-5.298 -36.49,-9.639 -19.62,-7.319 -49.213,-19.827 -51.403,-44.045 -1.158,-12.818 8.519,-22.32 20.092,-25.8 z"
     style="stroke-width:5.11999798" /><path
     inkscape:connector-curvature="0"
     id="path58"
     d="m 288.898,-236.341 c 12.62,5.342 24.863,-1.008 34.811,-8.801 9.686,-7.587 18.297,-16.806 25.248,-26.964 6.683,-9.765 12.82,-21.496 11.056,-33.695 -1.788,-12.368 -11.764,-21.364 -24.498,-20.273 -12.283,1.053 -20.767,9.73 -27.966,18.905 -7.701,-8.332 -16.116,-16.674 -27.273,-19.938 -9.385,-2.745 -20.581,-1.717 -28.164,4.898 -18.746,16.353 -2.656,46.28 8.965,61.643 7.297,9.646 16.483,19.425 27.821,24.225 z m -34.264,-74.114 c 4.183,-8.492 14.833,-9.819 23.039,-7.206 10.04,3.197 17.789,11.644 24.874,19.021 1.466,1.527 3.209,1.731 4.692,1.162 1.196,0.317 2.469,0.085 3.374,-1.077 5.586,-7.169 11.825,-15.221 20.958,-17.827 9.734,-2.778 18.4,2.502 19.176,12.826 0.72,9.572 -5.339,18.819 -10.715,26.232 -5.392,7.435 -11.875,13.957 -19.384,19.252 -7.273,5.129 -15.303,9.457 -24.457,8.318 -9.119,-1.134 -16.309,-7.096 -22.67,-13.365 -10.537,-10.386 -26.697,-31.482 -18.887,-47.336 z"
     style="stroke-width:5.11999798" /><path
     inkscape:connector-curvature="0"
     id="path60"
     d="M 462.622,61.926 C 450.824,55.171 436.442,53.798 423.6,57.836 418.615,39.378 402.991,23.858 382.801,24.557 365.52,25.156 352.032,39.184 351.695,55.67 c -12.905,-2.372 -27.607,-1.066 -38.838,5.034 -12.763,6.931 -11.207,22.814 1.654,28.674 7.149,3.257 15.539,2.987 23.222,3.438 9.225,0.541 18.428,1.044 27.667,1.287 6.72,0.176 13.441,0.266 20.162,0.333 8.808,0.401 17.617,0.798 26.425,1.199 l 32.745,1.49 c 5.822,0.265 11.645,0.522 17.464,0.84 4.091,0.224 8.465,0.598 12.22,-1.427 7.307,-3.939 6.963,-13.089 3.589,-19.564 -3.296,-6.327 -9.272,-11.548 -15.383,-15.048 z m 7.478,23.2 c -0.484,5.265 -16.989,2.722 -21.002,2.651 -21.191,-0.376 -42.383,-0.757 -63.574,-1.135 -15.539,-1.365 -31.082,-2.648 -46.684,-3.319 -6.074,-0.261 -13.192,0.323 -19.002,-1.711 -6.5,-2.276 -7.917,-8.474 -1.456,-11.519 11.591,-5.462 25.691,-4.954 37.906,-2.489 4.772,0.963 7.781,-3.493 5.928,-7.711 -6.91,-15.736 11.093,-28.378 25.209,-26.237 15.995,2.427 25.25,16.716 28.481,31.461 0.658,3.003 4.206,3.989 6.67,2.714 11.58,-5.993 25.222,-4.583 36.005,2.483 4.089,2.678 12.041,9.128 11.519,14.812 z"
     style="stroke-width:5.11999798" /><path
     inkscape:connector-curvature="0"
     id="path62"
     d="m 430.306,-231.668 c 8.341,0.762 15.502,-4.308 20.456,-10.606 9.193,-11.687 15.827,-31.428 9.866,-45.91 -2.843,-6.908 -9.356,-11.568 -17.011,-10.269 -8.453,1.434 -13.33,8.186 -16.912,15.326 -4.297,-3.954 -9.147,-7.367 -15.005,-8.345 -6.284,-1.049 -13.289,0.751 -17.086,6.184 -9.395,13.442 4.823,31.604 13.965,40.955 5.814,5.945 13.151,11.882 21.727,12.665 z m -21.872,-51.971 c 6.937,-0.559 12.651,4.913 17.301,9.291 1.363,1.284 2.99,1.184 4.197,0.41 1.038,-0.167 2.019,-0.803 2.686,-2.096 2.554,-4.954 6.939,-14.387 14.024,-13.059 5.564,1.044 5.715,9.127 5.358,13.443 -0.557,6.713 -2.823,13.418 -6.132,19.255 -2.937,5.181 -7.353,12.067 -13.844,12.799 -6.564,0.74 -13.17,-4.922 -17.66,-9.087 -4.828,-4.478 -9.242,-10.075 -11.921,-16.132 -2.778,-6.279 -2.335,-14.153 5.991,-14.824 z"
     style="stroke-width:5.11999798" /></g>
<g
   id="g64"
   transform="translate(93.101881,211.75098)">
</g>
<g
   id="g66"
   transform="translate(93.101881,211.75098)">
</g>
<g
   id="g68"
   transform="translate(93.101881,211.75098)">
</g>
<g
   id="g70"
   transform="translate(93.101881,211.75098)">
</g>
<g
   id="g72"
   transform="translate(93.101881,211.75098)">
</g>
<g
   id="g74"
   transform="translate(93.101881,211.75098)">
</g>
<g
   id="g76"
   transform="translate(93.101881,211.75098)">
</g>
<g
   id="g78"
   transform="translate(93.101881,211.75098)">
</g>
<g
   id="g80"
   transform="translate(93.101881,211.75098)">
</g>
<g
   id="g82"
   transform="translate(93.101881,211.75098)">
</g>
<g
   id="g84"
   transform="translate(93.101881,211.75098)">
</g>
<g
   id="g86"
   transform="translate(93.101881,211.75098)">
</g>
<g
   id="g88"
   transform="translate(93.101881,211.75098)">
</g>
<g
   id="g90"
   transform="translate(93.101881,211.75098)">
</g>
<g
   id="g92"
   transform="translate(93.101881,211.75098)">
</g>
<text
   xml:space="preserve"
   style="font-style:normal;font-variant:normal;font-weight:normal;font-stretch:normal;font-size:48px;line-height:1.25;font-family:Odelette;-inkscape-font-specification:'Odelette, Normal';font-variant-ligatures:normal;font-variant-caps:normal;font-variant-numeric:normal;font-feature-settings:normal;text-align:center;letter-spacing:0px;word-spacing:0px;writing-mode:lr-tb;text-anchor:middle;fill:#939598;fill-opacity:1;stroke:none"
   x="184.76888"
   y="71.022224"
   id="text869"><tspan
     sodipodi:role="line"
     id="tspan955"
     x="184.76888"
     y="71.022224">Lista Nozze</tspan></text>

</svg>