<?xml version="1.0" encoding="UTF-8" standalone="no"?>
<svg
   xmlns:dc="http://purl.org/dc/elements/1.1/"
   xmlns:cc="http://creativecommons.org/ns#"
   xmlns:rdf="http://www.w3.org/1999/02/22-rdf-syntax-ns#"
   xmlns:svg="http://www.w3.org/2000/svg"
   xmlns="http://www.w3.org/2000/svg"
   xmlns:sodipodi="http://sodipodi.sourceforge.net/DTD/sodipodi-0.dtd"
   xmlns:inkscape="http://www.inkscape.org/namespaces/inkscape"
   id="_x33_0"
   enable-background="new 0 0 64 64"
   height="128"
   viewBox="0 0 37.5 16"
   width="300"
   version="1.1"
   sodipodi:docname="logo_bomboniere_con_scritta.svg"
   inkscape:version="0.92.3 (2405546, 2018-03-11)"
   inkscape:export-filename="C:\Deto\GitHub\100giorni\il-matrimonio-di-claudia-e-samuele\html5\assets\images\logo_bomboniere_con_scritta.png"
   inkscape:export-xdpi="96"
   inkscape:export-ydpi="96">
  <metadata
     id="metadata47">
    <rdf:RDF>
      <cc:Work
         rdf:about="">
        <dc:format>image/svg+xml</dc:format>
        <dc:type
           rdf:resource="http://purl.org/dc/dcmitype/StillImage" />
        <dc:title></dc:title>
      </cc:Work>
    </rdf:RDF>
  </metadata>
  <defs
     id="defs45" />
  <sodipodi:namedview
     pagecolor="#ffffff"
     bordercolor="#666666"
     borderopacity="1"
     objecttolerance="10"
     gridtolerance="10"
     guidetolerance="10"
     inkscape:pageopacity="0"
     inkscape:pageshadow="2"
     inkscape:window-width="1920"
     inkscape:window-height="1057"
     id="namedview43"
     showgrid="false"
     inkscape:zoom="2.6074563"
     inkscape:cx="157.46263"
     inkscape:cy="43.507403"
     inkscape:window-x="-8"
     inkscape:window-y="-8"
     inkscape:window-maximized="1"
     inkscape:current-layer="_x33_0" />
  <g
     id="g40"
     transform="matrix(0.12903226,0,0,0.12903226,0.00805777,3.898722)"
     style="stroke-width:7.75">
    <g
       id="g30"
       style="stroke-width:7.75">
      <path
         d="m 16,30 v 1.76 c 0,1 -0.28,1.94 -0.78,2.76 C 14.72,35.33 14,36 13.11,36.45 12.38,36.81 11.58,37 10.76,37 9.86,37 9.06,36.73 8.41,36.25 8.33,36.19 8.25,36.13 7.24,34.94 L 7.25,34.93 C 9.9,34.16 10.68,32.01 10.91,30.82 11,30.34 11.41,30 11.89,30 Z"
         id="path2"
         inkscape:connector-curvature="0"
         style="fill:#ffeaa7;stroke-width:7.75" />
      <path
         d="m 53.09,30.82 c 0.23,1.19 1.01,3.34 3.66,4.11 l 0.01,0.01 c -1.01,1.19 -1.09,1.25 -1.17,1.31 C 54.94,36.73 54.14,37 53.24,37 52.42,37 51.62,36.81 50.89,36.45 50,36 49.28,35.33 48.78,34.52 48.28,33.7 48,32.76 48,31.76 V 30 h 4.11 c 0.48,0 0.89,0.34 0.98,0.82 z"
         id="path4"
         inkscape:connector-curvature="0"
         style="fill:#ffeaa7;stroke-width:7.75" />
      <path
         d="m 59.67,34.5 c -0.52,0.78 -1.22,1.4 -2.03,1.84 -0.8,0.42 -1.71,0.66 -2.65,0.66 h -1.75 c 0.9,0 1.7,-0.27 2.35,-0.75 0.08,-0.06 0.16,-0.12 1.17,-1.31 L 57.1,34.25 C 57.69,32.76 58,31.18 58,29.58 58,27.88 57.65,26.19 56.98,24.63 55.69,21.6 53.58,18.99 50.9,17.07 L 48,15 v -1 c 1.36,0 3.85,-0.34 5.69,-1.26 l 3.2,2.79 c 3.25,2.84 5.11,6.95 5.11,11.26 0,2.75 -0.81,5.43 -2.33,7.71 z"
         id="path6"
         inkscape:connector-curvature="0"
         style="fill:#fcd770;stroke-width:7.75" />
      <path
         d="m 16,14 v 1 l -2.9,2.07 C 10.42,18.99 8.31,21.6 7.02,24.63 6.35,26.19 6,27.88 6,29.58 c 0,1.6 0.31,3.18 0.9,4.67 l 0.34,0.69 c 1.01,1.19 1.09,1.25 1.17,1.31 C 9.06,36.73 9.86,37 10.76,37 H 9.01 C 8.07,37 7.16,36.76 6.36,36.34 5.55,35.9 4.85,35.28 4.33,34.5 2.81,32.22 2,29.54 2,26.79 2,22.48 3.86,18.37 7.11,15.53 l 3.2,-2.79 C 12.15,13.66 14.64,14 16,14 Z"
         id="path8"
         inkscape:connector-curvature="0"
         style="fill:#fcd770;stroke-width:7.75" />
      <path
         d="M 10.31,12.74 C 9.59,12.38 8.98,11.93 8.56,11.38 9.51,10.51 11.75,9 16,9 c 5,0 13,3 13,3 0,0 -6,2 -13,2 -1.36,0 -3.85,-0.34 -5.69,-1.26 z"
         id="path10"
         inkscape:connector-curvature="0"
         style="fill:#ffeaa7;stroke-width:7.75" />
      <path
         d="m 55.44,11.38 c -0.42,0.55 -1.03,1 -1.75,1.36 C 51.85,13.66 49.36,14 48,14 41,14 35,12 35,12 c 0,0 8,-3 13,-3 4.25,0 6.49,1.51 7.44,2.38 z"
         id="path12"
         inkscape:connector-curvature="0"
         style="fill:#ffeaa7;stroke-width:7.75" />
      <path
         d="m 29,9 0.17,0.18 h 0.01 C 29.06,9.43 29,9.71 29,10 v 2 C 29,12 21,9 16,9 11.75,9 9.51,10.51 8.56,11.38 8.21,10.92 8,10.38 8,9.76 V 5.78 C 8,5.21 8.23,4.67 8.65,4.3 9.65,3.41 11.89,2 16,2 18.47,2 20.82,2.87 22.82,4 26.49,6.07 29,9 29,9 Z"
         id="path14"
         inkscape:connector-curvature="0"
         style="fill:#fcd770;stroke-width:7.75" />
      <path
         d="M 48,9 C 43,9 35,12 35,12 V 10 C 35,9.71 34.94,9.43 34.82,9.18 L 35,9 c 0,0 2.51,-2.93 6.18,-5 2,-1.13 4.35,-2 6.82,-2 4.11,0 6.35,1.41 7.35,2.3 C 55.77,4.67 56,5.21 56,5.78 v 3.98 c 0,0.62 -0.21,1.16 -0.56,1.62 C 54.49,10.51 52.25,9 48,9 Z"
         id="path16"
         inkscape:connector-curvature="0"
         style="fill:#fcd770;stroke-width:7.75" />
      <path
         d="m 35,10 v 2 c 0,1.1 -0.9,2 -2,2 h -2 c -1.1,0 -2,-0.9 -2,-2 V 10 C 29,9.71 29.06,9.43 29.18,9.18 29.49,8.49 30.19,8 31,8 h 2 c 0.81,0 1.51,0.49 1.82,1.18 C 34.94,9.43 35,9.71 35,10 Z"
         id="path18"
         inkscape:connector-curvature="0"
         style="fill:#ffc729;stroke-width:7.75" />
      <path
         d="M 29,9 C 29,9 26.49,6.07 22.82,4 H 41.18 C 37.51,6.07 35,9 35,9 L 34.82,9.18 C 34.51,8.49 33.81,8 33,8 h -2 c -0.81,0 -1.51,0.49 -1.82,1.18 h -0.01 z"
         id="path20"
         inkscape:connector-curvature="0"
         style="fill:#aab2bd;stroke-width:7.75" />
      <path
         d="M 46,18 H 18 c -1.1,0 -2,0.9 -2,2 v -5 -1 c 7,0 13,-2 13,-2 0,1.1 0.9,2 2,2 h 2 c 1.1,0 2,-0.9 2,-2 0,0 6,2 13,2 v 1 5 c 0,-1.1 -0.9,-2 -2,-2 z"
         id="path22"
         inkscape:connector-curvature="0"
         style="fill:#aab2bd;stroke-width:7.75" />
      <path
         d="M 48,31.76 V 60 c 0,1.1 -0.9,2 -2,2 H 18 c -1.1,0 -2,-0.9 -2,-2 V 31.76 30 20 c 0,-1.1 0.9,-2 2,-2 h 28 c 1.1,0 2,0.9 2,2 v 10 z"
         id="path24"
         inkscape:connector-curvature="0"
         style="fill:#f29ed0;stroke-width:7.75" />
      <path
         d="M 44,24 V 56 H 20 V 24 Z"
         id="path26"
         inkscape:connector-curvature="0"
         style="fill:#e6e9ed;stroke-width:7.75" />
      <path
         d="m 40,37.35 v 0.25 c 0,1.53 -0.66,2.98 -1.81,3.98 L 32,47 25.81,41.58 C 24.66,40.58 24,39.13 24,37.6 v -0.25 c 0,-0.88 0.26,-1.74 0.75,-2.47 0.78,-1.18 2.1,-1.88 3.5,-1.88 1.12,0 2.19,0.44 2.98,1.23 L 32,35 32.77,34.23 C 33.56,33.44 34.63,33 35.75,33 c 1.4,0 2.72,0.7 3.5,1.88 0.49,0.73 0.75,1.59 0.75,2.47 z"
         id="path28"
         inkscape:connector-curvature="0"
         style="fill:#ff826e;stroke-width:7.75" />
    </g>
    <g
       id="g38"
       style="stroke-width:7.75">
      <path
         d="m 35.745,32 c -1.392,0 -2.701,0.542 -3.686,1.527 L 32,33.586 31.941,33.527 C 30.956,32.542 29.647,32 28.255,32 26.508,32 24.887,32.868 23.917,34.322 23.317,35.222 23,36.269 23,37.35 v 0.25 c 0,1.813 0.783,3.538 2.147,4.732 L 32,48.329 38.853,42.333 C 40.217,41.139 41,39.414 41,37.601 v -0.25 C 41,36.27 40.683,35.223 40.083,34.322 39.113,32.868 37.492,32 35.745,32 Z M 39,37.601 c 0,1.236 -0.534,2.413 -1.464,3.227 L 32,45.671 26.464,40.827 C 25.534,40.014 25,38.837 25,37.601 v -0.25 c 0,-0.685 0.201,-1.349 0.581,-1.92 C 26.179,34.535 27.178,34 28.255,34 c 0.846,0 1.673,0.343 2.272,0.941 L 32,36.414 33.473,34.941 C 34.072,34.343 34.899,34 35.745,34 c 1.077,0 2.076,0.535 2.673,1.43 0.381,0.572 0.582,1.236 0.582,1.921 z"
         id="path32"
         inkscape:connector-curvature="0"
         style="stroke-width:7.75" />
      <path
         d="M 19,57 H 45 V 23 H 19 Z M 21,25 H 43 V 55 H 21 Z"
         id="path34"
         inkscape:connector-curvature="0"
         style="stroke-width:7.75" />
      <path
         d="M 57.545,14.773 55.376,12.877 C 56.346,12.116 57,11.103 57,9.765 V 5.78 C 57,4.922 56.639,4.108 56.01,3.55 54.938,2.598 52.474,1 48,1 45.421,1 43.002,1.868 40.929,3 H 23.069 C 20.994,1.867 18.577,1 16,1 11.526,1 9.062,2.598 7.991,3.549 7.361,4.108 7,4.922 7,5.78 v 3.984 c 0,1.338 0.654,2.352 1.624,3.113 L 6.455,14.773 C 2.988,17.807 1,22.188 1,26.794 1,29.744 1.865,32.601 3.501,35.055 4.731,36.899 6.789,38 9.005,38 h 1.759 c 0.962,0 1.927,-0.228 2.789,-0.658 C 14.09,37.074 14.574,36.736 15,36.344 V 60 c 0,1.654 1.346,3 3,3 h 28 c 1.654,0 3,-1.346 3,-3 V 36.344 c 0.426,0.392 0.911,0.729 1.448,0.998 0.861,0.43 1.825,0.658 2.788,0.658 h 1.759 c 2.217,0 4.275,-1.102 5.504,-2.946 C 62.135,32.601 63,29.744 63,26.794 63,22.188 61.012,17.807 57.545,14.773 Z M 56.248,33.658 C 54.819,32.937 54.272,31.655 54.076,30.63 53.895,29.686 53.069,29 52.111,29 H 49 V 16.943 l 1.321,0.943 c 2.531,1.808 4.518,4.275 5.744,7.136 0.621,1.449 0.935,2.982 0.935,4.558 0,1.401 -0.258,2.77 -0.752,4.078 z M 15,29 H 11.889 C 10.931,29 10.105,29.686 9.924,30.631 9.729,31.656 9.181,32.937 7.752,33.659 7.258,32.35 7,30.981 7,29.58 7,28.004 7.314,26.471 7.935,25.022 9.162,22.162 11.148,19.694 13.68,17.886 L 15,16.943 Z M 16,13 C 14.266,13 11.592,12.484 10.101,11.457 11.208,10.749 13.071,10 16,10 c 2.853,0 6.794,1.044 9.518,1.887 C 23.155,12.416 19.711,13 16,13 Z m 1,1.983 C 22.04,14.854 26.381,13.797 28.286,13.258 28.764,14.284 29.797,15 31,15 h 2 c 1.203,0 2.236,-0.716 2.714,-1.742 1.905,0.539 6.246,1.596 11.286,1.725 v 2.201 C 46.686,17.072 46.352,17 46,17 H 18 c -0.352,0 -0.686,0.072 -1,0.184 z M 30,12 v -2 c 0,-0.552 0.449,-1 1,-1 h 2 c 0.551,0 1,0.448 1,1 v 2 c 0,0.552 -0.449,1 -1,1 h -2 c -0.551,0 -1,-0.448 -1,-1 z m 18,1 C 44.288,13 40.844,12.416 38.481,11.887 41.204,11.043 45.144,10 48,10 c 2.929,0 4.792,0.749 5.899,1.457 C 52.408,12.484 49.734,13 48,13 Z M 54.681,5.045 C 54.884,5.225 55,5.492 55,5.78 V 9.764 C 55,9.773 54.997,9.781 54.997,9.79 53.632,8.914 51.398,8 48,8 44.074,8 38.531,9.723 36,10.585 V 10 C 36,9.811 35.978,9.627 35.944,9.447 36.943,8.362 42.173,3 48,3 c 3.812,0 5.822,1.281 6.681,2.045 z M 37.869,5 C 36.499,6.051 35.462,7.052 34.867,7.671 34.353,7.258 33.709,7 33,7 H 31 C 30.291,7 29.647,7.258 29.132,7.671 28.52,7.036 27.482,6.04 26.127,5 Z M 9,5.78 C 9,5.492 9.116,5.224 9.319,5.044 10.178,4.281 12.188,3 16,3 21.775,3 26.966,8.269 28.056,9.447 28.022,9.627 28,9.811 28,10 v 0.585 C 25.469,9.723 19.926,8 16,8 12.602,8 10.368,8.914 9.003,9.79 9.003,9.781 9,9.773 9,9.765 Z M 5.165,33.944 C 3.749,31.82 3,29.348 3,26.794 3,22.765 4.739,18.932 7.771,16.279 l 2.701,-2.361 c 1.312,0.542 2.766,0.84 3.953,0.978 L 12.516,16.26 C 9.687,18.28 7.467,21.037 6.096,24.236 5.369,25.934 5,27.731 5,29.58 c 0,1.733 0.327,3.429 0.97,5.038 0.054,0.136 0.123,0.258 0.185,0.387 C 5.778,34.708 5.44,34.356 5.165,33.944 Z m 7.494,1.609 C 12.073,35.846 11.418,36 10.764,36 10.035,36 9.387,35.758 8.858,35.323 10.437,34.439 11.521,32.93 11.888,31 H 15 v 0.764 c 0,1.615 -0.897,3.067 -2.341,3.789 z M 47,60 c 0,0.552 -0.449,1 -1,1 H 18 c -0.551,0 -1,-0.448 -1,-1 V 20 c 0,-0.552 0.449,-1 1,-1 h 28 c 0.551,0 1,0.448 1,1 z M 51.342,35.553 C 49.897,34.831 49,33.379 49,31.764 v -0.762 l 3.111,0.004 c 0.367,1.926 1.451,3.434 3.03,4.318 C 54.613,35.758 53.965,36 53.236,36 52.582,36 51.927,35.846 51.342,35.553 Z m 7.493,-1.608 c -0.275,0.412 -0.613,0.763 -0.991,1.061 0.062,-0.129 0.131,-0.251 0.186,-0.388 C 58.673,33.009 59,31.313 59,29.58 59,27.731 58.631,25.934 57.903,24.235 56.532,21.037 54.312,18.279 51.484,16.259 l -1.909,-1.364 c 1.188,-0.138 2.641,-0.436 3.953,-0.978 l 2.701,2.361 C 59.261,18.932 61,22.765 61,26.794 c 0,2.554 -0.749,5.026 -2.165,7.151 z"
         id="path36"
         inkscape:connector-curvature="0"
         style="stroke-width:7.75" />
    </g>
  </g>
  <text
     xml:space="preserve"
     style="font-style:normal;font-variant:normal;font-weight:normal;font-stretch:normal;font-size:6px;line-height:1.25;font-family:Odelette;-inkscape-font-specification:'Odelette, Normal';font-variant-ligatures:normal;font-variant-caps:normal;font-variant-numeric:normal;font-feature-settings:normal;text-align:center;letter-spacing:0px;word-spacing:0px;writing-mode:lr-tb;text-anchor:middle;fill:#f29ed0;fill-opacity:1;stroke:none;stroke-width:0.125;"
     x="23.248453"
     y="9.8344841"
     id="text869"><tspan
       sodipodi:role="line"
       id="tspan4565"
       x="23.248453"
       y="9.8344841">Bomboniere</tspan></text>
</svg>
