<?xml version="1.0" encoding="UTF-8" standalone="no"?>
<!-- Generator: Adobe Illustrator 19.0.0, SVG Export Plug-In . SVG Version: 6.00 Build 0)  -->

<svg
   xmlns:dc="http://purl.org/dc/elements/1.1/"
   xmlns:cc="http://creativecommons.org/ns#"
   xmlns:rdf="http://www.w3.org/1999/02/22-rdf-syntax-ns#"
   xmlns:svg="http://www.w3.org/2000/svg"
   xmlns="http://www.w3.org/2000/svg"
   xmlns:sodipodi="http://sodipodi.sourceforge.net/DTD/sodipodi-0.dtd"
   xmlns:inkscape="http://www.inkscape.org/namespaces/inkscape"
   version="1.1"
   id="Layer_1"
   x="0px"
   y="0px"
   viewBox="0 0 511.997 511.997"
   style="enable-background:new 0 0 511.997 511.997;"
   xml:space="preserve"
   sodipodi:docname="heart.svg"
   inkscape:version="0.92.3 (2405546, 2018-03-11)"><metadata
   id="metadata43"><rdf:RDF><cc:Work
       rdf:about=""><dc:format>image/svg+xml</dc:format><dc:type
         rdf:resource="http://purl.org/dc/dcmitype/StillImage" /></cc:Work></rdf:RDF></metadata><defs
   id="defs41" /><sodipodi:namedview
   pagecolor="#ffffff"
   bordercolor="#666666"
   borderopacity="1"
   objecttolerance="10"
   gridtolerance="10"
   guidetolerance="10"
   inkscape:pageopacity="0"
   inkscape:pageshadow="2"
   inkscape:window-width="1366"
   inkscape:window-height="705"
   id="namedview39"
   showgrid="false"
   inkscape:zoom="0.46094019"
   inkscape:cx="270.10012"
   inkscape:cy="255.9985"
   inkscape:window-x="-8"
   inkscape:window-y="-8"
   inkscape:window-maximized="1"
   inkscape:current-layer="Layer_1" />
<path
   style="fill:#f3795e;fill-opacity:1"
   d="M428.241,49.943l-14.157-15.337c0,0-34.122-17.649-34.213-17.696  c-5.88-3.041-18.704-4.081-25.242-4.653c-12.477-1.09-25.085,1.744-36.785,5.899c-23.803,8.455-41.282,22.918-61,38.291  c-3.191,2.487-6.504,5.036-10.425,6.034c-8.687,2.21-17.103-3.631-24.743-8.318c-24.555-15.068-54.412-20.541-83.063-17.51  c-29.394,3.107-59.878,14.734-83.52,32.621C23.605,93.099,7.018,133.631,7.737,173.109c0.84,46.035,23.968,92.139,54.763,125.741  c12.713,13.873,23.877,28.092,39.214,39.418c1.297,0.957,2.653,1.917,4.224,2.275c2.166,0.492,4.403-0.225,6.508-0.936  c7.533-2.541,15.316-5.227,21.12-10.659c15.728-14.716,6.89-47.472,6.246-66.473c-0.067-1.96-0.131-3.94,0.265-5.86  c0.678-3.282,2.643-6.129,4.563-8.875c2.187-3.129,4.802-6.53,8.582-7.056c3.262-0.453,6.492,1.509,8.418,4.18  c1.925,2.671,2.777,5.952,3.457,9.174c2.206,10.449,3.012,21.194,2.389,31.856c8.06-13.4,16.282-26.662,24.636-39.883  c1.356-2.146,2.722-4.305,4.446-6.177c5.613-6.088,19.375-16.111,24.337-4.306c4.422,10.52,1.524,39.561-8.523,46.801  c13.187-9.504,24.082-17.399,39.588-22.683c1.011-0.344,2.093-0.693,3.126-0.428c0.735,0.189,1.354,0.665,1.952,1.131  c2.347,1.827,4.692,3.655,7.038,5.482c2.489,1.94-3,15.934-4.339,18.082c-2.741,4.395-7.02,8.337-10.332,12.34  c-5.278,6.378-10.556,12.755-15.835,19.133c13.293-4.835,37.879-20.262,50.331-8.095c-0.201,10.456-7.168,19.751-15.583,25.962  c-10.458,7.718-23.115,12.205-34.38,18.596c-13.109,7.441-25.582,16.006-37.226,25.578c-5.63,4.627-11.197,9.655-14.477,16.164  c-5.699,11.309-3.422,25.236,2.286,36.54c7.214,14.286,19.303,25.519,32.138,35.079c11.65,8.677,24.137,16.223,37.212,22.557  c15.312,7.417,30.157,15.763,46.883,7.18c15.58-7.994,31.123-18.626,45.116-29.241c29.953-22.722,55.453-51.004,76.679-81.947  c50.773-74.015,68.221-161.435,81.812-248.486c1.268-8.132-5.541-11.808-12.595-7.435c-7.34,4.551-13.362,19.213-16.344,27.102  c-6.674,17.654-11.564,36.588-21.118,52.937c-9.641,16.495-22.701,30.489-33.132,46.395c-9.449,14.407-16.29,31.455-30.683,41.863  c-12.672,9.165-12.181-3.336-14.166-12.602l7.078-33.033c-15.989,11.992-29.913,23.055-49.492,28.752  c-1.409,0.409-2.884,0.799-4.327,0.532c-2.485-0.461-4.22-2.742-5.238-5.054c-4.568-10.382,0.912-15.49,6.171-25.021  c4.553-8.259,6.491-18.044,12.639-25.408c-3.191,3.822-15.424,6.879-20.085,9.055c-4.664,2.177-9.315,4.378-13.991,6.529  c-5.052,0.252-10.103,0.503-15.155,0.759c-6.397,0.322-9.276-1.878-12.22-7.182c-6.23-11.229,8.965-21.908,15.561-29.455  c1.856-2.124,10.362-14.852,12.993-14.85c-11.807,0-24.736,1.772-36.329,0.855c-3.13-0.248-6.336-1.647-7.979-4.324  c-1.396-2.276-1.481-5.127-1.088-7.767c2.291-15.382,22.768-25.708,34.88-32.949c7.611-4.549,15.462-8.679,23.35-12.724  c3.118-1.599,19.873-12.691,22.556-11.517c-16.009-7.004-36.794-13.836-36.819-34.932c-0.005-3.788,0.803-7.658,2.873-10.831  c4.284-6.569,12.84-8.784,20.662-9.358c10.481-0.767,20.954,0.486,31.254,2.364c8.156,1.486,18.536,5.797,26.864,3.209l25.954-8.258  L428.241,49.943z"
   id="path2" />
<path
   d="M203.749,360.12c0.444-0.344,0.892-0.688,1.335-1.035c0.013-0.009,0.025-0.02,0.038-0.031  C204.66,359.41,204.212,359.765,203.749,360.12z"
   id="path4" />
<path
   d="M511.961,136.381c-0.047-2.011-0.308-3.988-0.615-5.975c-0.355-2.212-1.68-4.674-3.266-6.26  c-1.798-1.822-4.011-3.041-6.532-3.49c-9.618-1.704-17.038,5.691-22.328,12.707c-3.018,3.999-4.756,8.803-6.484,13.466  c-1.123,3.018-2.177,6.071-3.148,9.135c-2.07,6.543-3.893,13.158-6.033,19.677c-1.247,3.815-2.555,7.599-3.98,11.35  c-1.87,4.157-4.006,8.117-6.315,12.066c-2.362,4.024-5.088,7.756-7.889,11.474c-4.19,5.141-8.428,10.244-12.51,15.468  c-4.602,5.881-9.194,11.774-13.276,18.021c-3.668,5.597-6.815,11.537-10.116,17.358c-3.384,5.987-6.661,12.045-10.152,17.974  c-0.625,1.056-1.352,2.085-2.095,3.08c-1.824,2.199-3.808,4.246-5.99,6.075c-0.801,0.546-1.614,1.041-2.474,1.481  c-0.744,0.242-1.488,0.436-2.247,0.588c-1.199,0.07-2.378,0.061-3.572-0.024c-0.012-0.019-0.022-0.038-0.032-0.055  c-0.208-0.637-0.375-1.273-0.508-1.927c-0.206-2.855-0.139-5.686,0.15-8.532c0.527-3.421,1.372-6.747,2.276-10.092  c0.426-1.586,1.089-3.136,1.633-4.673c0.498-1.397,1.042-2.769,1.586-4.142c2.247-5.634,4.538-11.26,6.88-16.865  c0.562-1.248,1.307-2.408,1.698-3.723c0.52-1.74-0.047-3.715-1.313-4.982c-1.525-1.527-4.353-2.118-6.213-0.805  c-3.503,2.473-6.732,5.277-9.987,8.059c-2.816,2.414-5.609,4.851-8.425,7.253c-5.071,4.35-10.205,8.611-15.395,12.81  c-4.201,3.132-8.433,6.197-13.207,8.401c-2.79,1.033-5.68,1.859-8.623,2.312c-1.218,0.188-2.434,0.356-3.643,0.547  c-1.242,0.144-2.482,0.245-3.727,0.247c0.004-0.385,0.021-0.763,0.05-1.144c0.425-2.115,1.124-4.123,1.915-6.135  c2.482-5.677,5.394-11.199,8.471-16.566c1.419-2.461,2.816-4.969,4.437-7.313c1.496-2.174,3.02-4.301,4.597-6.414  c1.601-1.976,3.224-3.921,4.891-5.856c0.805-0.934,1.633-1.857,2.461-2.781c0.8-0.907,1.579-1.902,2.482-2.717  c0.448-0.333,0.882-0.682,1.255-1.092c1.006-1.089,1.621-2.39,1.621-3.893c0-1.858-1.029-3.893-2.732-4.757  c-1.017-0.52-2.083-1.089-3.277-0.995c-1.054,0.083-2.083,0.202-3.112,0.485c-1.656,0.462-3.267,1.195-4.851,1.87  c-1.586,0.687-3.195,1.35-4.769,2.07c-3.514,1.586-7.041,3.159-10.543,4.78c-6.136,2.834-12.273,5.689-18.478,8.376  c-1.427,0.572-2.863,1.143-4.299,1.705c-3.388,1.343-6.879,2.285-10.464,2.906c-1.42,0.145-2.824,0.19-4.248,0.087  c-0.877-0.197-1.722-0.438-2.564-0.736c-0.901-0.454-1.755-0.951-2.585-1.512c-0.25-0.23-0.486-0.464-0.714-0.708  c-0.065-0.105-0.126-0.21-0.185-0.317c-0.048-0.156-0.092-0.315-0.132-0.473c-0.002-0.125-0.004-0.249-0.001-0.373  c0.238-1.23,0.575-2.42,1.003-3.61c1.859-3.98,4.234-7.648,6.869-11.159c3.681-4.628,7.644-8.983,11.793-13.199  c3.066-3.131,6.354-5.968,9.753-8.718c3.348-2.416,6.741-4.726,10.232-6.949c1.917-1.23,3.834-2.473,5.751-3.727  c1.822-1.183,3.585-2.402,5.501-3.419c0.995-0.591,1.787-1.397,2.38-2.39c0.982-1.68,0.959-3.277,0.674-5.124  c-0.024-0.131-0.035-0.249-0.059-0.379c-0.355-2.296-2.627-4.035-4.686-4.686c-2.58-0.816-5.383-0.19-7.94,0.426  c-1.372,0.332-2.722,0.805-4.07,1.242c-1.845,0.615-3.691,1.229-5.537,1.869c-3.585,1.219-7.171,2.508-10.791,3.634  c-3.975,1.242-7.95,2.378-11.963,3.467c-3.498,0.947-7.134,1.478-10.692,2.096c-3.786,0.481-7.609,0.936-11.424,0.649  c-0.767-0.162-1.505-0.366-2.251-0.621c-0.046-0.025-0.091-0.048-0.136-0.073c0.113-0.457,0.243-0.905,0.394-1.359  c1.171-2.472,2.62-4.753,4.244-6.97c4.154-5.206,8.888-9.967,14.093-14.123c5.721-4.266,12.002-7.788,18.338-11.052  c5.124-2.638,10.318-5.159,15.501-7.703c9.506-4.656,18.924-9.455,28.635-13.667c0.427-0.165,0.849-0.309,1.301-0.46  c0.746-0.143,1.455-0.402,2.131-0.793c0.567-0.379,1.089-0.805,1.586-1.266c2.308-2.082,2.319-5.432,1.042-8.012  c-1.503-3.04-4.957-4.413-7.916-5.584c-1.385-0.533-2.745-1.089-4.142-1.597c-2.699-0.99-5.381-1.998-8.068-3.046  c-2.739-1.258-5.495-2.519-8.059-4.09c-3.093-1.902-6.156-3.806-9.069-5.973c-1.553-1.246-3.045-2.545-4.365-4.03  c-0.503-0.736-0.956-1.484-1.372-2.273c-0.261-0.754-0.471-1.505-0.635-2.28c-0.018-0.598-0.009-1.183,0.025-1.774  c0.202-1.025,0.471-2.013,0.816-2.999c0.698-1.41,1.514-2.735,2.428-4.018c1.359-1.616,2.826-3.069,4.443-4.425  c1.45-1.035,2.943-1.909,4.556-2.663c2.338-0.855,4.73-1.47,7.178-1.877c3.192-0.35,6.353-0.296,9.554,0.044  c6.231,1.107,12.282,2.849,18.401,4.477c2.981,0.793,6.034,1.397,9.088,1.858c3.667,0.556,7.396,1.148,11.11,1.266  c7.017,0.236,14.011-0.426,20.767-2.402c6.141-1.787,12.081-4.366,18.044-6.638c3.289-1.254,6.449-2.757,9.596-4.319  c1.183-0.591,2.367-1.183,3.514-1.845c1.538-0.864,3.218-1.799,4.365-3.159c1.279-1.491,1.894-2.84,2.58-4.686  c0.711-1.904,0.485-4.082,0.035-6.011c-0.532-2.296-2.083-4.378-3.55-6.154c-0.532-0.626-1.054-1.266-1.633-1.845  c-2.58-2.651-5.491-4.981-8.556-7.041c-2.638-1.774-5.289-3.55-8.022-5.183c-1.123-0.68-2.265-1.332-3.413-1.974  c-4.829-3.517-9.916-6.64-15.069-9.659c-1.55-0.911-3.242-1.645-4.851-2.461c-1.444-0.734-2.959-1.326-4.461-1.964  c-2.71-1.148-5.408-2.284-8.177-3.266c-5.124-1.811-10.412-3.064-15.772-3.893c-4.422-0.688-8.832-1.194-13.289-1.194  c-0.374,0-0.749,0.002-1.123,0.011c-4.757,0.083-9.644,0.544-14.329,1.42c-1.917,0.355-3.846,0.71-5.775,1.077  c-1.798,0.33-3.584,0.852-5.36,1.289c-6.556,1.597-12.898,3.834-19.204,6.213c-2.165,0.816-4.271,1.835-6.39,2.757  c-1.337,0.579-2.65,1.171-3.963,1.81c-3.432,1.669-6.827,3.385-10.224,5.135c-12.4,6.449-23.688,14.802-34.255,23.925  c-2.555,2.207-5.206,4.376-7.645,6.738c-0.646-0.406-1.292-0.813-1.939-1.212c-1.527-0.946-3.159-1.751-4.721-2.616  c-1.443-0.793-3.018-1.407-4.508-2.106c-1.823-0.852-3.668-1.645-5.526-2.426c-6.401-2.698-12.814-5.395-19.322-7.844  c-3.395-1.278-6.756-2.557-10.2-3.668c-7.23-2.331-14.565-4.176-22.138-4.969c-6.508-0.675-13.052-1.491-19.606-1.491  c-3.526-0.012-7.076-0.13-10.614,0.035c-3.479,0.178-7.029,0.155-10.495,0.58c-4.011,0.485-8.117,0.781-12.081,1.574  c-2.249,0.449-4.484,0.887-6.721,1.337c-1.278,0.261-2.58,0.449-3.846,0.793c-1.988,0.533-3.988,1.054-5.987,1.586  c-1.527,0.403-3.089,0.746-4.602,1.23c-3.195,1.03-6.46,1.929-9.596,3.124c-3.811,1.444-7.644,2.816-11.372,4.472  c-3.183,1.407-6.484,2.674-9.561,4.307c-1.964,1.041-3.929,2.082-5.893,3.124c-1.219,0.65-2.496,1.242-3.68,1.976  c-3.775,2.343-7.596,4.615-11.252,7.135c-8.543,5.881-15.548,13.358-21.535,21.771c-3.668,5.171-6.674,10.779-9.69,16.341  c-3.597,6.603-6.39,13.607-9.158,20.589c-1.278,3.266-2.26,6.59-3.301,9.939c-0.947,3.076-1.503,6.283-2.237,9.407  c-0.84,3.644-1.373,7.383-2.047,11.063c-0.628,3.408-1.077,6.851-1.621,10.271c-1.468,9.384-1.976,19.039-1.16,28.517  c0.628,7.265,1.976,14.376,3.691,21.44c0.355,1.444,0.626,2.934,1.064,4.354c0.628,2.011,1.242,4.035,1.858,6.046  c1.065,3.455,2.402,6.78,3.691,10.152c1.431,3.715,3.183,7.312,4.828,10.934c1.254,2.804,2.71,5.56,4.154,8.27  c1.727,3.218,3.432,6.449,5.265,9.62c1.905,3.301,3.87,6.543,5.916,9.773c3.479,5.514,7.336,10.791,11.17,16.056  c2.319,3.171,4.639,6.331,6.981,9.489c2.154,2.9,4.366,5.834,6.733,8.567c4.437,5.135,9.005,10.128,13.631,15.11  s9.123,10.081,13.939,14.885c2.367,2.378,4.792,4.733,7.396,6.851c3.087,2.508,6.211,5.207,9.749,7.088  c3.336,1.799,6.768,2.52,10.483,2.91c2.118,0.214,4.378,0,6.449-0.426c2.84-0.569,5.514-1.717,8.022-3.136  c2.059-1.172,4.058-2.71,5.881-4.201c2.047-1.693,4.047-3.397,5.775-5.432c2.508-2.958,4.957-5.998,7.005-9.3  c2.508-4.058,3.786-8.803,3.976-13.56c0.486-12.151-1.597-24.174-3.538-36.125c0.007,0.064,0.017,0.127,0.025,0.192  c-0.185-1.361-0.366-2.726-0.545-4.085c-0.527-3.947-0.473-7.936-0.025-11.891c0.717-4.402,2.047-8.61,3.628-12.752  c0.421-0.91,0.89-1.758,1.45-2.599c0.238-0.269,0.492-0.521,0.762-0.759c0.636-0.449,1.289-0.855,1.976-1.229  c0.425-0.147,0.852-0.264,1.301-0.361c0.162-0.005,0.322-0.004,0.484,0.005c0.287,0.057,0.571,0.126,0.852,0.212  c0.503,0.261,0.965,0.54,1.424,0.856c0.755,0.711,1.432,1.472,2.091,2.267c1.17,1.59,2.173,3.23,3.004,5.023  c0.753,2.1,1.265,4.233,1.619,6.44c0.722,6.248,0.481,12.568,0.402,18.844c-0.024,2.296-0.083,4.592-0.201,6.886  c-0.118,2.449-0.473,4.875-0.639,7.324c-0.13,2.059,1.242,4.141,2.958,5.159c1.858,1.077,4.178,1.065,6.034,0  c2.58-1.495,3.608-4.136,4.622-6.775c3.599-8.274,7.944-16.24,12.085-24.26c1.811-3.514,3.644-7.016,5.668-10.412  c1.183-1.989,2.378-3.929,3.668-5.846c1.096-1.623,2.259-3.171,3.447-4.715c1.209-1.538,2.625-2.978,4.019-4.349  c1.573-1.551,3.181-3.032,4.902-4.418c1.636-1.21,3.286-2.288,5.093-3.21c0.636-0.232,1.255-0.419,1.925-0.57  c0.124-0.004,0.247-0.004,0.369-0.001c0.122,0.031,0.243,0.064,0.365,0.093c0.018,0.008,0.034,0.017,0.051,0.025  c0.129,0.118,0.252,0.241,0.37,0.369c0.275,0.425,0.517,0.853,0.742,1.302c0.536,1.54,0.872,3.091,1.122,4.699  c0.368,3.144,0.511,6.29,0.199,9.455c-1.149,7.075-4.104,13.785-6.789,20.403c-2.007,4.575-4.137,9.026-6.505,13.433  c-1.195,2.225-2.449,4.425-3.644,6.65c-0.532,0.993-1.054,1.988-1.574,2.993c-0.959,1.846-2.331,3.94-2.07,6.095  c0.012,1.101,0.284,2.141,0.84,3.089c0.544,0.923,1.278,1.656,2.188,2.201c2.39,1.396,5.466,0.97,7.419-0.959  c1.621-1.586,2.91-3.455,4.294-5.242c0.6-0.769,1.195-1.54,1.792-2.314c1.957-2.387,3.897-4.738,5.971-7.022  c2.319-2.544,4.733-4.994,7.147-7.443c1.964-2,4.011-3.94,6.058-5.844c2.732-2.561,5.443-5.166,8.301-7.574  c0.89-0.644,1.793-1.229,2.782-1.732c1.171-0.426,2.351-0.748,3.581-0.983c1.353-0.138,2.691-0.188,4.055-0.099  c0.628,0.125,1.226,0.296,1.827,0.512c0.931,0.46,1.797,0.959,2.644,1.549c0.229,0.201,0.451,0.411,0.663,0.632  c0.307,0.465,0.577,0.932,0.835,1.431c0.197,0.577,0.361,1.138,0.488,1.729c0.008,0.345,0,0.688-0.025,1.03  c-0.287,1.524-0.696,2.964-1.243,4.415c-2.133,4.691-5.079,8.92-8.09,13.074c-1.943,2.365-3.929,4.639-5.984,6.911  c-2.284,2.544-4.769,4.935-7.171,7.359c-2.225,2.26-4.579,4.39-6.945,6.497c-1.135,1.017-2.343,1.988-3.526,2.946  c-0.579,0.473-1.16,0.946-1.74,1.407c-1.183,0.971-2.047,2.011-2.958,3.277c-1.124,1.586-1.254,4.035-0.757,5.846  c0.698,2.556,2.745,4.568,5.289,5.289c2.094,0.591,4.106,0.295,5.999-0.71c1.23-0.651,2.2-1.586,3.195-2.545  c0.875-0.852,1.952-1.574,2.922-2.319c-0.473,0.367-0.959,0.746-1.432,1.112c7.09-5.108,14.447-9.851,22.455-13.401  c2.979-1.174,6.026-2.039,9.183-2.578c1.681-0.181,3.332-0.248,5.026-0.129c0.892,0.166,1.757,0.387,2.618,0.684  c0.395,0.21,0.77,0.433,1.138,0.68c0.132,0.142,0.265,0.284,0.396,0.425c0.113,0.178,0.221,0.361,0.32,0.549  c0.046,0.145,0.088,0.294,0.126,0.442c0.025,0.48,0.025,0.946-0.004,1.432c-0.215,1.006-0.501,1.971-0.848,2.941  c-0.651,1.356-1.391,2.64-2.251,3.877c-2.253,2.628-4.883,4.837-7.581,6.984c-2.673,1.891-5.395,3.655-8.298,5.181  c-3.288,1.738-6.61,3.348-9.977,4.915c-0.971,0.406-1.941,0.812-2.908,1.216c-3.306,1.366-6.647,2.708-9.88,4.234  c-2.627,1.247-5.217,2.519-7.852,3.721c-2.324,0.855-4.74,1.609-6.867,2.846c-1.798,1.054-3.597,2.166-5.312,3.348  c-4.104,2.829-8.052,5.918-11.989,8.987c-5.417,4.181-10.541,8.832-15.522,13.541c-2.555,2.427-5.075,4.888-7.467,7.478  c-2.557,2.769-4.769,5.94-6.898,9.052c-2.047,2.981-3.621,6.129-4.78,9.584c-0.793,2.355-1.101,4.875-1.409,7.336  c-0.332,2.58-0.343,5.016-0.012,7.585c0.295,2.295,0.626,4.472,1.444,6.637c0.84,2.237,1.952,4.378,3.146,6.46  c0.983,1.715,2.059,3.408,3.171,5.063c6.177,9.241,11.892,19.18,20.305,26.623c10.768,9.537,22.126,18.329,34.409,25.841  c5.916,3.621,11.856,7.218,17.76,10.85c7.928,4.863,16.199,10.01,25.405,11.88c5.005,1.018,10.009,1.112,15.051,0.367  c4.733-0.687,9.241-2.131,13.641-3.952c4.331-1.774,8.685-3.739,12.708-6.141c1.798-1.077,3.597-2.141,5.395-3.218  c6.021-3.597,11.773-7.727,17.24-12.128c5.668-4.568,11.241-9.217,16.706-14.045c5.006-4.413,9.857-9.005,14.743-13.56  c9.975-9.312,19.524-19.098,28.362-29.497c3.598-4.228,7.16-8.493,10.569-12.879c0.25-0.276,0.473-0.566,0.671-0.867  c0.834-1.085,1.659-2.178,2.473-3.281c4.508-6.105,8.922-12.259,13.289-18.458c7.939-11.276,15.501-22.801,22.73-34.538  c7.1-11.525,13.063-23.676,18.435-36.089c3.006-6.933,6.082-13.892,8.556-21.05c2.355-6.851,4.614-13.737,6.814-20.647  c4.142-13.039,8.354-26.043,12.094-39.201c1.835-6.437,3.395-12.921,4.839-19.452c1.444-6.566,2.686-13.17,4.225-19.712  c1.656-7.076,3.266-14.139,4.555-21.298c1.206-6.638,2.141-13.358,3.053-20.044C511.725,150.378,512.127,143.386,511.961,136.381z   M326.191,274.572c-0.034-0.004-0.07-0.009-0.104-0.013l0,0C326.123,274.563,326.157,274.567,326.191,274.572z M270.378,182.847  c-0.241-0.163-0.468-0.339-0.685-0.526c0.001-0.002,0.001-0.006,0.002-0.008C269.924,182.488,270.151,182.667,270.378,182.847z   M216.517,231.183c0.236,0.153,0.459,0.323,0.67,0.507c-0.007,0-0.015-0.002-0.024-0.004  C216.949,231.514,216.736,231.344,216.517,231.183z M217.227,231.735c-0.014-0.011-0.027-0.021-0.041-0.032  c0.006,0,0.013,0,0.019,0.001c0.015,0.014,0.029,0.027,0.045,0.04C217.242,231.741,217.235,231.738,217.227,231.735z M217.3,231.793  c0,0,0.002,0,0.004,0.001c0.004,0.004,0.008,0.008,0.012,0.013C217.311,231.802,217.306,231.797,217.3,231.793z M278.165,308.061  c-0.136-0.175-0.27-0.349-0.403-0.524c0.147,0.172,0.287,0.35,0.418,0.534C278.174,308.068,278.169,308.065,278.165,308.061z   M278.214,308.124c0.002,0.001,0.005,0.004,0.005,0.004c0.009,0.012,0.017,0.022,0.024,0.033  C278.233,308.148,278.224,308.137,278.214,308.124z M278.342,307.999c0.048,0.101,0.094,0.203,0.138,0.307  c-0.004-0.004-0.008-0.006-0.012-0.009C278.427,308.197,278.384,308.099,278.342,307.999z M278.474,308.309  c0.004,0.002,0.007,0.006,0.012,0.008c0.048,0.116,0.096,0.231,0.138,0.349C278.574,308.547,278.524,308.429,278.474,308.309z   M496.685,141.445c-0.097,3.123-0.321,6.207-0.672,9.305c-0.951,6.156-2.013,12.293-3.149,18.418  c-1.242,6.768-2.745,13.466-4.353,20.151c-1.609,6.661-3.065,13.347-4.402,20.079c-1.397,7.017-2.863,14.01-4.614,20.955  c-3.325,13.158-7.136,26.174-11.111,39.142c-1.845,6.023-3.621,12.082-5.632,18.044c-1.195,3.514-2.402,6.994-3.691,10.471  c-1.075,2.868-2.237,5.705-3.398,8.54c-2.519,5.83-5.068,11.656-7.821,17.384c-1.561,3.254-3.123,6.484-4.803,9.667  c-1.764,3.348-3.61,6.627-5.502,9.904c-3.267,5.656-6.768,11.193-10.283,16.696c-3.963,6.2-7.998,12.353-12.14,18.423  c-5.301,7.786-10.638,15.607-16.4,23.061c0.379-0.485,0.759-0.982,1.136-1.466c-0.698,0.911-1.397,1.81-2.106,2.722  c-0.047,0.063-0.094,0.125-0.139,0.189c-0.166,0.215-0.333,0.428-0.499,0.642c0.11-0.139,0.219-0.278,0.33-0.418  c-0.734,0.934-1.455,1.882-2.188,2.817c0.379-0.486,0.757-0.983,1.136-1.468c-4.201,5.432-8.78,10.614-13.346,15.737  c-4.343,4.864-8.731,9.703-13.358,14.294c-5.052,5.017-10.177,9.951-15.37,14.826c-2.474,2.319-5.006,4.615-7.573,6.839  c-2.509,2.165-4.97,4.402-7.561,6.472c-1.489,1.194-2.975,2.375-4.454,3.568c-1.809,1.412-3.609,2.835-5.474,4.182  c-2.426,1.751-4.816,3.609-7.349,5.218c-6.964,4.405-14.028,8.612-21.569,11.947c-4.193,1.7-8.474,3.072-12.929,3.864  c-2.469,0.224-4.907,0.188-7.377-0.06c-2.507-0.449-4.925-1.14-7.3-2.048c-5.04-2.357-9.777-5.338-14.459-8.333  c-4.733-3.041-9.455-6.082-14.199-9.076c-4.556-2.875-9.158-5.691-13.608-8.709c-4.641-3.151-9.213-6.349-13.716-9.694  c-1.614-1.243-3.222-2.488-4.79-3.782c-1.183-0.983-2.378-1.964-3.562-2.947c-3.204-2.638-6.083-5.678-8.699-8.889  c-2.641-3.51-5.12-7.146-7.618-10.764c-2.721-3.946-5.57-7.808-7.724-12.1c-0.42-1.227-0.716-2.463-0.951-3.746  c-0.182-2.178-0.097-4.308,0.133-6.48c0.308-1.702,0.715-3.343,1.292-4.971c1.379-2.925,3.198-5.563,5.032-8.229  c1.404-1.774,2.846-3.499,4.455-5.119c2.035-2.047,4.129-4.047,6.272-5.999c3.907-3.57,7.868-7.055,11.993-10.364  c2.164-1.589,4.365-3.124,6.596-4.64c2.338-1.586,4.685-3.145,7.206-4.404c0.86-0.234,1.735-0.321,2.627-0.494  c1.42-0.283,2.84-0.757,4.201-1.254c3.479-1.278,6.756-2.947,10.069-4.627c6.034-3.077,12.4-5.561,18.305-8.922  c3.018-1.715,5.952-3.55,8.839-5.489c3.148-2.118,5.916-4.745,8.578-7.408c1.87-1.869,3.503-3.976,5.065-6.093  c1.302-1.764,2.247-3.656,3.076-5.679c1.065-2.557,1.823-5.088,2.166-7.834c0.271-2.177,0.142-4.177-0.308-6.331  c-0.225-1.077-0.816-2.129-1.291-3.112c-0.426-0.887-1.278-2-1.951-2.685c-3.23-3.302-7.49-4.84-11.998-5.408  c-5.14-0.651-10.193-0.008-15.102,1.352c0.796-1.182,1.562-2.384,2.286-3.611c3.572-6.046,7.359-12.271,8.721-19.251  c0.438-2.271,0.71-4.828,0.166-7.112c-0.532-2.177-1.444-4.201-2.723-6.034c-2.449-3.538-6.874-5.986-11.015-6.957  c-3.597-0.84-7.467-0.449-11.064,0.142c-4.035,0.651-7.596,2.757-10.768,5.242c-2.769,2.178-5.443,4.425-8.117,6.709  c-0.63,0.538-1.258,1.082-1.882,1.632c0.913-2.654,1.78-5.328,2.616-8.021c1.101-3.538,1.751-7.194,2.094-10.886  c0.426-4.52-0.426-9.194-1.325-13.619c-0.746-3.715-2.284-7.679-5.408-10.022c-3.786-2.851-8.554-1.964-12.577-0.071  c-4.662,2.201-8.662,5.442-12.602,8.733c-1.183,0.983-2.271,2.129-3.395,3.195c-0.567,0.532-1.064,1.148-1.586,1.727  c-0.557,0.592-1.148,1.16-1.645,1.787c-2.757,3.443-5.561,6.933-7.845,10.72c-2.129,3.514-4.201,7.041-6.189,10.638  c-1.53,2.785-3.07,5.568-4.574,8.367c-0.1-1.105-0.204-2.211-0.313-3.314c-0.332-3.385-0.757-6.745-1.36-10.093  c-0.828-4.568-2.485-8.827-5.063-12.685c-1.113-1.645-2.426-3.218-3.774-4.674c-1.23-1.337-2.887-2.426-4.58-3.1  c-1.633-0.65-3.325-0.91-5.088-0.744c-2.059,0.201-3.881,0.97-5.716,1.929c-3.183,1.656-5.514,4.839-7.04,8.022  c-1.337,2.792-2.58,5.62-3.55,8.566c-1.432,4.343-2.011,9.027-2.212,13.572c-0.13,2.816,0.13,5.632,0.32,8.436  c0.461,6.556,1.384,13.063,1.764,19.618c0.165,3.005,0.308,5.999,0.39,9.004c0.063,2.316-0.07,4.615-0.257,6.917  c-0.268,1.351-0.604,2.646-1.051,3.947c-0.657,1.193-1.429,2.285-2.24,3.368c-2.293,2.796-4.646,5.518-7.395,7.89  c-2.31,1.694-4.744,3.271-7.296,4.575c-0.664,0.227-1.325,0.415-2.007,0.565c-0.531,0.019-1.054,0.015-1.58-0.012  c-0.591-0.123-1.173-0.267-1.747-0.444c-1.461-0.787-2.752-1.794-4.081-2.81c0.046,0.037,0.092,0.072,0.138,0.107  c-1.177-0.904-2.356-1.804-3.531-2.704c-3.407-2.683-6.746-5.454-9.847-8.502c-3.668-3.621-7.23-7.324-10.779-11.052  c-3.656-3.822-7.288-7.655-10.887-11.537c-3.096-3.347-5.959-6.897-8.804-10.451c-3.301-4.437-6.582-8.887-9.82-13.368  c-3.774-5.23-7.371-10.53-10.815-15.974c-6.242-9.871-11.405-20.425-16.223-31.055c-0.891-2.317-1.78-4.635-2.662-6.963  c-0.946-2.461-1.597-5.063-2.378-7.595c-0.663-2.131-1.16-4.307-1.692-6.485c-1.033-4.187-1.923-8.375-2.566-12.639  c-0.577-4.812-0.871-9.61-0.794-14.458c0.074-4.568,0.466-9.125,1-13.665c1.221-7.66,2.4-15.378,4.266-22.908  c0.52-2.106,0.899-4.319,1.574-6.378c0.769-2.367,1.549-4.733,2.331-7.1c0.52-1.586,1.207-3.1,1.845-4.639  c0.586-1.44,1.179-2.875,1.768-4.307c1.601-3.342,3.076-6.751,4.882-9.974c3.73-6.697,7.44-13.375,12.002-19.533  c3.642-4.522,7.678-8.704,12.194-12.357c5.196-3.827,10.706-7.251,16.367-10.342c2.26-1.242,4.484-2.603,6.839-3.691  c2.801-1.289,5.612-2.579,8.414-3.868c3.165-1.288,6.332-2.582,9.56-3.693c2.249-0.769,4.496-1.538,6.756-2.308  c2.26-0.769,4.626-1.314,6.922-1.964c1.527-0.426,3.041-0.923,4.592-1.254c2.71-0.591,5.419-1.183,8.128-1.764  c3.262-0.713,6.563-1.143,9.865-1.591c3.507-0.234,7.003-0.457,10.499-0.691c2.343-0.143,4.733-0.143,7.1-0.143  c1.148,0.012,2.296,0.012,3.443-0.012c2.994-0.035,6.011,0.214,9.005,0.343c1.633,0.072,3.277,0.296,4.91,0.449  c1.714,0.152,3.438,0.288,5.156,0.487c4.928,0.726,9.836,1.691,14.582,3.228c2.318,0.757,4.697,1.407,6.969,2.296  c4.363,1.699,8.688,3.445,13.009,5.257c2.647,1.177,5.284,2.348,7.898,3.582c3.242,1.538,6.401,3.159,9.561,4.828  c2.781,1.456,5.349,3.313,7.857,5.194c1.183,0.887,2.355,1.774,3.573,2.604c1.089,0.734,2.378,1.111,3.573,1.609  c1.68,0.698,3.703,0.438,5.432,0.118c3.575-0.652,5.561-3.125,7.537-5.789c2.653-3.229,5.678-6.079,8.731-8.941  c3.484-3.256,7.186-6.282,10.876-9.299c2.654-1.998,5.328-3.939,8.08-5.835c3.028-2.082,6.331-3.858,9.525-5.668  c6.016-3.421,12.262-6.378,18.553-9.228c10.762-4.22,21.821-7.901,33.274-9.666c3.076-0.374,6.152-0.615,9.237-0.682  c0.566,0.061,1.131,0.124,1.696,0.188c10.027,1.626,19.569,5.038,28.986,8.794c2.27,0.983,4.526,1.984,6.782,3.01  c2.827,1.278,5.526,2.863,8.283,4.295c2.638,1.373,5.312,2.698,7.916,4.142c2.608,1.455,5.101,3.092,7.504,4.863  c2.67,2.152,5.107,4.536,7.352,7.122c0.077,0.109,0.152,0.218,0.227,0.327c-2.212,1.374-4.602,2.5-6.971,3.553  c-4.984,2.032-10.002,4.052-15.07,5.883c-2.58,0.934-5.171,1.845-7.81,2.603c-2.522,0.726-5.091,1.199-7.674,1.619  c-3.01,0.297-5.968,0.44-8.998,0.428c-2.974-0.011-5.939-0.313-8.893-0.628c-2.803-0.413-5.594-0.917-8.359-1.574  c-3.159-0.757-6.294-1.586-9.465-2.296c-5.668-1.289-11.372-2.237-17.204-2.047c-4.047,0.13-8.224,0.805-12.068,2.047  c-4.734,1.538-8.827,4.295-12.496,7.608c-1.751,1.597-3.171,3.514-4.592,5.395c-1.407,1.894-2.295,3.999-3.183,6.165  c-0.875,2.118-1.101,4.521-1.278,6.768c-0.106,1.301,0.107,2.792,0.355,4.047c0.343,1.787,0.864,3.408,1.621,5.076  c3.112,6.852,9.407,11.064,15.37,15.252c2.745,1.917,5.751,3.479,8.697,5.063c3.152,1.694,6.545,2.967,9.893,4.226  c-2.368,1.207-4.72,2.444-7.064,3.69c-5.916,3.136-11.892,6.165-17.903,9.135c-6.012,2.958-11.998,5.974-17.867,9.217  c-2.296,1.278-4.568,2.568-6.805,3.952c-4.224,2.627-8.187,5.739-11.915,9.029c-3.372,2.969-6.532,6.188-9.418,9.631  c-3.267,3.905-6.213,8.14-7.775,13.027c-0.449,1.397-0.544,2.982-0.626,4.437c-0.106,2.094,0.71,3.94,1.514,5.797  c0.391,0.757,0.875,1.456,1.468,2.083c0.828,1.006,1.727,1.822,2.828,2.555c1.62,1.089,3.408,1.835,5.253,2.474  c1.798,0.626,3.798,0.757,5.668,0.959c1.278,0.13,2.604,0.106,3.881,0.035c1.384-0.071,2.78-0.096,4.154-0.249  c5.614-0.609,11.34-1.275,16.841-2.66c-1.056,0.976-2.099,1.965-3.128,2.98c-2.651,2.615-5.135,5.349-7.644,8.105  c-2.426,2.674-4.661,5.526-6.814,8.426c-3.065,4.106-5.621,8.531-7.349,13.358c-1.74,4.828-1.409,10.152,1.313,14.542  c2.65,4.26,7.443,6.827,12.092,8.295c2.295,0.722,4.898,0.852,7.277,0.734c2.332-0.118,4.662-0.579,6.935-1.088  c3.999-0.887,7.773-2.39,11.536-3.999c7.041-3.018,13.927-6.354,20.814-9.714c0.019-0.008,0.035-0.018,0.055-0.026  c-1.589,2.121-3.164,4.252-4.588,6.487c-2.023,3.183-3.976,6.39-5.905,9.62c-2.792,4.662-5.442,9.536-7.478,14.577  c-0.78,1.917-1.372,3.834-1.68,5.893c-0.367,2.496-0.271,4.851,0.415,7.3c0.638,2.237,2.011,4.331,3.75,5.857  c1.207,1.064,2.474,1.81,4.001,2.331c1.561,0.532,3.146,0.722,4.78,0.887c3.112,0.32,6.342-0.391,9.407-0.852  c4.01-0.604,7.797-1.693,11.536-3.267c5.348-2.26,10.057-5.893,14.507-9.584c4.497-3.727,8.776-7.71,13.027-11.724  c-0.419,0.996-0.838,1.994-1.254,2.993c-1.219,2.946-2.083,6.07-2.994,9.122c-0.638,2.153-1.006,4.402-1.313,6.614  c-0.33,2.402-0.52,4.78-0.485,7.206c0.072,5.218,2.225,10.933,6.768,13.856c1.951,1.242,4.117,2,6.39,2.437  c2.851,0.557,5.548,0.532,8.413,0.106c4.888-0.698,8.922-3.385,12.542-6.603c4.627-4.094,8.011-9.359,10.862-14.779  c1.54-2.922,2.982-5.905,4.533-8.827c2.864-5.373,5.785-10.709,8.791-15.997c1.407-2.496,2.84-4.993,4.437-7.371  c1.822-2.687,3.697-5.299,5.626-7.908c4.041-5.13,8.078-10.271,12.229-15.319c4.662-5.691,9.371-11.3,13.442-17.453  c3.953-5.974,6.969-12.66,9.512-19.334c2.355-6.176,3.94-12.708,5.679-19.086c1.089-4.011,2.036-8.069,3.242-12.045  c1.308-4.3,2.803-8.533,4.412-12.73c0.367-0.86,0.735-1.72,1.125-2.571c0.877-1.925,2.006-3.628,3.22-5.327  c1.534-1.859,3.198-3.57,5.049-5.115c0.524-0.356,1.046-0.682,1.603-0.984c0.12-0.04,0.238-0.079,0.359-0.117  C496.887,136.575,496.763,139.017,496.685,141.445z M269.509,182.097c-0.007-0.004-0.014-0.007-0.021-0.012  c-0.037-0.206-0.06-0.418-0.068-0.634C269.449,181.667,269.479,181.882,269.509,182.097z M497.281,133.372  c-0.001-0.002-0.004-0.006-0.005-0.009c0,0,0.002,0,0.004,0c0.001,0.004,0.002,0.006,0.004,0.011L497.281,133.372z"
   id="path6" />
<g
   id="g8">
</g>
<g
   id="g10">
</g>
<g
   id="g12">
</g>
<g
   id="g14">
</g>
<g
   id="g16">
</g>
<g
   id="g18">
</g>
<g
   id="g20">
</g>
<g
   id="g22">
</g>
<g
   id="g24">
</g>
<g
   id="g26">
</g>
<g
   id="g28">
</g>
<g
   id="g30">
</g>
<g
   id="g32">
</g>
<g
   id="g34">
</g>
<g
   id="g36">
</g>
</svg>