<?xml version="1.0" encoding="iso-8859-1"?>
<!-- Generator: Adobe Illustrator 21.0.0, SVG Export Plug-In . SVG Version: 6.00 Build 0)  -->
<svg version="1.1" id="Capa_1" xmlns="http://www.w3.org/2000/svg" xmlns:xlink="http://www.w3.org/1999/xlink" x="0px" y="0px"
	 viewBox="0 0 511.359 511.359" style="enable-background:new 0 0 511.359 511.359;" xml:space="preserve">
<g>
	<g transform="translate(1 1)">
		<path style="fill:#C52828;" d="M417.133,133.588v307.2c0,4.713-3.821,8.533-8.533,8.533H263.533c-4.713,0-8.533,3.82-8.533,8.533
			v17.067c0,4.713-3.821,8.533-8.533,8.533H178.2c-4.713,0-8.533-3.821-8.533-8.533v-17.067c0-4.713-3.821-8.533-8.533-8.533H16.067
			c-4.713,0-8.533-3.821-8.533-8.533v-307.2c0-4.713,3.821-8.533,8.533-8.533h25.6L417.133,133.588z"/>
		<path style="fill:#F44335;" d="M391.533,133.588v307.2c0,4.713-3.82,8.533-8.533,8.533H237.933c-4.713,0-8.533,3.82-8.533,8.533
			v17.067c0,4.713-3.821,8.533-8.533,8.533H178.2c-4.713,0-8.533-3.821-8.533-8.533v-17.067c0-4.713-3.821-8.533-8.533-8.533H16.067
			c-4.713,0-8.533-3.821-8.533-8.533v-307.2c0-4.713,3.821-8.533,8.533-8.533L391.533,133.588z"/>
		<path style="fill:#CFD8DC;" d="M212.333,116.521v307.2c-2.816-0.683-5.632-1.365-8.533-2.048
			c-1.451-0.341-2.816-0.597-4.267-0.853c-4.181-0.939-8.448-1.707-12.8-2.475c-45.229-7.156-90.916-11.034-136.704-11.605
			c-4.662-0.056-8.401-3.871-8.363-8.533V108.073c-0.017-3.476,2.075-6.615,5.291-7.936h0.256c0.969-0.418,2.017-0.622,3.072-0.597
			c50.059,0.521,99.985,5.259,149.248,14.165c1.451,0.256,2.901,0.512,4.267,0.853C206.701,115.156,209.517,115.839,212.333,116.521
			z"/>
		<path style="fill:#F5F5F5;" d="M186.733,116.521v301.824c-45.229-7.156-90.916-11.034-136.704-11.605
			c-4.662-0.056-8.401-3.871-8.363-8.533V108.073c-0.017-3.476,2.075-6.615,5.291-7.936h0.256
			c42.526,1.252,84.893,5.788,126.72,13.568c1.451,0.256,2.901,0.512,4.267,0.853C181.101,115.156,183.917,115.839,186.733,116.521z
			"/>
		<path style="fill:#CFD8DC;" d="M383,108.073v290.133c0.038,4.662-3.701,8.477-8.363,8.533
			c-24.491,0.427-97.963,2.56-153.771,14.933c-2.901,0.683-5.717,1.365-8.533,2.048v-307.2c2.816-0.683,5.632-1.365,8.533-1.963
			c50.628-9.525,102-14.551,153.515-15.019c2.283-0.039,4.485,0.845,6.107,2.451C382.111,103.597,383.016,105.79,383,108.073z"/>
		<path style="fill:#F5F5F5;" d="M357.4,108.073v290.133c0.347,4.305-2.812,8.097-7.108,8.533
			c-38.991,0.577-77.863,4.459-116.198,11.605c-3.703,0.768-7.33,1.536-10.88,2.475c-1.229,0.256-2.398,0.512-3.627,0.853
			c-2.466,0.683-4.855,1.365-7.253,2.048v-307.2c2.398-0.683,4.787-1.365,7.253-1.963c1.161-0.341,2.398-0.597,3.627-0.853
			c41.715-8.89,84.208-13.635,126.857-14.165c0.907-0.024,1.805,0.182,2.611,0.597c0.077-0.085,0.077-0.085,0.145,0
			C355.771,101.661,357.558,104.761,357.4,108.073z"/>
		<path style="fill:#35495E;" d="M351.469,178.857l-28.715,28.373c-9.757,8.998-23.041,13.134-36.181,11.264l-21.163-2.816
			l67.115-64.299L351.469,178.857z"/>
		<g>
			<path style="fill:#607D8B;" d="M501.869,25.983l-0.085,0.085c-18.432,40.363-30.976,96.427-60.416,125.867
				c-55.125,55.125-97.792,54.869-118.357,49.835h-0.085c-1.109-0.256-2.048-0.597-2.987-0.853c-2.59-0.773-5.127-1.714-7.595-2.816
				c-0.683-0.341-1.28-0.597-1.707-0.853c-0.768-0.427-1.195-0.683-1.195-0.683s-3.669-22.528,11.947-57.856
				c8.785-19.252,20.185-37.199,33.877-53.333c29.867-36.011,72.277-50.261,103.765-55.893c1.536-0.256,3.072-0.512,4.523-0.768
				C476.209,26.579,489.04,25.664,501.869,25.983z"/>
			<path style="fill:#607D8B;" d="M501.784,26.068c-18.432,40.363-30.976,96.427-60.416,125.867
				c-55.125,55.125-97.792,54.869-118.357,49.835h-0.085c-1.109-0.256-2.048-0.597-2.987-0.853c-2.59-0.773-5.127-1.714-7.595-2.816
				c-0.683-0.341-1.28-0.597-1.707-0.853c-0.768-0.427-1.195-0.683-1.195-0.683c42.923-59.733,100.949-107.691,141.995-137.301
				C479.939,38.697,500.333,26.921,501.784,26.068z"/>
		</g>
		<g>
			<path style="fill:#CFD8DC;" d="M464.749,26.068c-0.427,0.853-0.768,1.792-1.195,2.645c-4.267,9.557-8.192,19.968-12.117,30.549
				c-12.629,34.048-25.173,70.741-47.104,92.672c-31.829,31.829-59.563,45.227-81.323,49.835h-0.085
				c-1.109-0.256-2.048-0.597-2.987-0.853c-2.59-0.773-5.127-1.714-7.595-2.816c-0.683-0.341-1.28-0.597-1.707-0.853
				c-0.768-0.427-1.195-0.683-1.195-0.683s-3.669-22.528,11.947-57.856c8.785-19.252,20.185-37.199,33.877-53.333
				c29.867-36.011,72.277-50.261,103.765-55.893C462.36,27.433,464.323,26.324,464.749,26.068z"/>
			<path style="fill:#CFD8DC;" d="M464.749,26.068c-0.427,0.853-0.768,1.792-1.195,2.645c-4.267,9.557-8.192,19.968-12.117,30.549
				c-12.629,34.048-25.173,70.741-47.104,92.672c-31.829,31.829-59.563,45.227-81.323,49.835h-0.085
				c-1.109-0.256-2.048-0.597-2.987-0.853c-2.59-0.773-5.127-1.714-7.595-2.816c-0.683-0.341-1.28-0.597-1.707-0.853
				c-0.768-0.427-1.195-0.683-1.195-0.683s-3.669-22.528,11.947-57.856c41.412-41.711,87.614-78.374,137.643-109.227
				C462.36,27.433,464.323,26.324,464.749,26.068z"/>
		</g>
		<path style="fill:#7D6599;" d="M220.867,114.559v307.115c-2.901,0.683-5.717,1.365-8.533,2.048
			c-2.816-0.683-5.632-1.365-8.533-2.048V114.559c2.901,0.597,5.717,1.28,8.533,1.963
			C215.149,115.839,217.965,115.156,220.867,114.559z"/>
	</g>
	<path d="M17.067,458.855h145.067v17.067c0,9.426,7.641,17.067,17.067,17.067h68.267c9.426,0,17.067-7.641,17.067-17.067v-17.067
		H409.6c9.426,0,17.067-7.641,17.067-17.067v-263.27c7.604-6.115,14.866-12.644,21.751-19.558
		c21.734-21.726,34.295-55.748,46.447-88.653c5.248-14.225,10.24-27.657,15.753-39.723c0.123-0.32,0.226-0.648,0.307-0.981
		c0.068-0.196,0.137-0.375,0.188-0.58c0.224-0.924,0.296-1.878,0.213-2.825c0-0.171-0.068-0.341-0.094-0.521
		c-0.133-0.937-0.422-1.846-0.853-2.688c0-0.06,0-0.137-0.068-0.205v-0.051l-0.06-0.128c-0.511-0.807-1.155-1.522-1.903-2.116
		c-0.162-0.137-0.324-0.265-0.495-0.384c-0.776-0.565-1.641-0.995-2.56-1.271c-0.111,0-0.222,0-0.333-0.06
		c-0.508-0.138-1.028-0.229-1.553-0.273c-3.959-0.247-98.133-4.386-153.643,62.447c-3.413,4.147-6.616,8.22-9.609,12.22
		c-42.649,1.477-85.086,6.697-126.822,15.599C157.372,95.164,81.63,92.553,51.388,92.015c-4.544-0.036-8.919,1.714-12.186,4.873
		c-3.271,3.211-5.099,7.611-5.069,12.194v8.439H17.067C7.641,117.521,0,125.162,0,134.588v307.2
		C0,451.214,7.641,458.855,17.067,458.855z M436.352,146.893c-55.202,55.194-95.684,52.113-112.589,47.07
		c52.454-69.35,125.005-121.873,161.084-145.562c-1.985,5.222-3.977,10.564-5.973,16.026
		C467.345,95.574,455.441,127.812,436.352,146.893z M301.705,195.405c0.128,2.014,0.307,3.277,0.35,3.567
		c0.195,1.137,0.619,2.223,1.246,3.191c0.737,0.785,1.47,1.573,2.202,2.364c0.08,0.048,0.162,0.09,0.247,0.128
		c0.051,0,0.085,0.102,0.137,0.137c1.48,0.876,3.01,1.666,4.582,2.364c-6.668,3.551-14.285,4.909-21.769,3.883l-3.268-0.435
		L301.705,195.405z M362.803,91.853c30.857-37.163,76.484-49.886,107.11-54.195c-55.514,36.594-105.513,80.935-148.48,131.678
		C328.967,140.625,343.137,114.085,362.803,91.853z M303.667,170.505c-0.295,0.152-0.58,0.323-0.853,0.512l-42.24,39.424
		c-2.411,2.251-3.308,5.691-2.304,8.833c1.004,3.142,3.728,5.424,6.998,5.862l21.094,2.807c2.428,0.347,4.878,0.521,7.33,0.521
		c13.281,0.022,26.081-4.97,35.84-13.978l1.809-1.707c3.582,0.477,7.19,0.722,10.803,0.734c11.33-0.086,22.571-2.017,33.28-5.717
		l0.06,191.394c-51.535,0.528-102.929,5.478-153.617,14.797V124.348c35.016-7.221,70.538-11.718,106.249-13.449
		C316.41,129.116,308.125,149.315,303.667,170.505z M204.8,124.348v289.638c-50.683-9.313-102.071-14.258-153.6-14.78
		l-0.051-272.879c0-0.094,0.051-0.179,0.051-0.273s-0.051-0.179-0.051-0.273v-16.7C73.677,109.449,149.265,111.667,204.8,124.348z
		 M17.067,134.588h17.067v264.619c0.021,9.288,7.448,16.863,16.734,17.067c23.433,0.375,104.252,2.688,160.427,16.725
		c0.661,0.166,1.341,0.249,2.022,0.247h0.102c0.682,0.001,1.361-0.082,2.022-0.247c56.141-14.037,136.96-16.35,160.427-16.725
		c9.286-0.204,16.713-7.779,16.734-17.067V200.687c5.874-2.904,11.572-6.149,17.067-9.719v250.82H264.533
		c-9.426,0-17.067,7.641-17.067,17.067v17.067H179.2v-17.067c0-9.426-7.641-17.067-17.067-17.067H17.067V134.588z"/>
</g>
<g>
</g>
<g>
</g>
<g>
</g>
<g>
</g>
<g>
</g>
<g>
</g>
<g>
</g>
<g>
</g>
<g>
</g>
<g>
</g>
<g>
</g>
<g>
</g>
<g>
</g>
<g>
</g>
<g>
</g>
</svg>
