<?xml version="1.0" encoding="UTF-8" standalone="no"?>
<!-- Generator: Adobe Illustrator 19.0.0, SVG Export Plug-In . SVG Version: 6.00 Build 0)  -->

<svg
   xmlns:dc="http://purl.org/dc/elements/1.1/"
   xmlns:cc="http://creativecommons.org/ns#"
   xmlns:rdf="http://www.w3.org/1999/02/22-rdf-syntax-ns#"
   xmlns:svg="http://www.w3.org/2000/svg"
   xmlns="http://www.w3.org/2000/svg"
   xmlns:sodipodi="http://sodipodi.sourceforge.net/DTD/sodipodi-0.dtd"
   xmlns:inkscape="http://www.inkscape.org/namespaces/inkscape"
   version="1.1"
   id="Layer_1"
   x="0px"
   y="0px"
   viewBox="0 0 300 128"
   xml:space="preserve"
   sodipodi:docname="logo_partecipazioni_con_scritta.svg"
   width="300"
   height="128"
   inkscape:export-filename="C:\Deto\GitHub\100giorni\il-matrimonio-di-claudia-e-samuele\html5\assets\images\logo_partecipazioni_con_scritta.png"
   inkscape:export-xdpi="96"
   inkscape:export-ydpi="96"
   inkscape:version="0.92.3 (2405546, 2018-03-11)"><metadata
   id="metadata63"><rdf:RDF><cc:Work
       rdf:about=""><dc:format>image/svg+xml</dc:format><dc:type
         rdf:resource="http://purl.org/dc/dcmitype/StillImage" /><dc:title></dc:title></cc:Work></rdf:RDF></metadata><defs
   id="defs61" /><sodipodi:namedview
   pagecolor="#ffffff"
   bordercolor="#666666"
   borderopacity="1"
   objecttolerance="10"
   gridtolerance="10"
   guidetolerance="10"
   inkscape:pageopacity="0"
   inkscape:pageshadow="2"
   inkscape:window-width="1920"
   inkscape:window-height="1057"
   id="namedview59"
   showgrid="false"
   inkscape:zoom="1.84375"
   inkscape:cx="42.957396"
   inkscape:cy="-112.22102"
   inkscape:window-x="-8"
   inkscape:window-y="-8"
   inkscape:window-maximized="1"
   inkscape:current-layer="Layer_1" />












<g
   id="g883"
   transform="matrix(0.16659595,0,0,0.16659595,-8.8591649,83.829632)"
   style="stroke-width:6.00254679"><polygon
     transform="translate(0,-384)"
     id="polygon2"
     points="161.757,84.775 98.992,84.775 71.509,84.775 71.509,504.41 392.958,504.41 392.958,475.915 392.958,84.775 "
     style="fill:#bfab92;stroke-width:6.00254679" /><polygon
     transform="translate(0,-384)"
     id="polygon4"
     points="392.958,475.915 392.958,504.41 71.509,504.41 71.509,84.775 98.992,84.775 98.992,475.915 "
     style="fill:#b39a7c;stroke-width:6.00254679" /><path
     inkscape:connector-curvature="0"
     id="path6"
     d="m 302.709,-373.586 -229.113,73.69 c -0.382,0.122 -0.29,0.671 0.111,0.671 h 229.002 z"
     style="fill:#957755;stroke-width:6.00254679" /><path
     inkscape:connector-curvature="0"
     id="path8"
     d="m 194.521,-15.616 c -2.94,-5.957 -6.573,-13.026 -6.573,-25.549 0,-26.457 23.202,-52.13 49.659,-52.13 18.423,0 32.376,5.782 39.948,14.742 6.592,-10.855 24.804,-16.477 40.414,-16.477 9.902,0 20.744,5.432 29.736,13.782 0.616,-3.471 0.998,-7.281 0.998,-11.525 0,-34.349 -27.034,-62.194 -61.382,-62.194 -23.92,0 -44.681,13.505 -55.086,33.304 -10.405,-19.799 -31.167,-33.304 -55.086,-33.304 -34.349,0 -61.382,27.845 -61.382,62.194 0,16.257 4.849,25.437 8.666,33.17 15.758,31.924 107.802,108.198 107.802,108.198 0,0 4.608,-3.799 11.926,-10.046 -20.173,-18.411 -43.193,-41.106 -49.64,-54.165 z"
     style="fill:#c60024;stroke-width:6.00254679" /><path
     inkscape:connector-curvature="0"
     id="path10"
     d="m 340.036,-59.603 c 2.668,-5.63 6.028,-12.403 7.668,-21.644 -8.992,-8.35 -19.834,-13.782 -29.736,-13.782 -15.61,0 -33.821,5.622 -40.414,16.477 -7.572,-8.962 -21.525,-14.742 -39.948,-14.742 -26.457,0 -49.659,25.673 -49.659,52.13 0,12.523 3.633,19.592 6.573,25.549 6.447,13.059 29.467,35.753 49.638,54.165 25.547,-21.807 84.2,-73.507 95.878,-98.153 z"
     style="fill:#a50020;stroke-width:6.00254679" /><path
     inkscape:connector-curvature="0"
     id="path12"
     d="m 232.221,58.443 -4.83,-4.004 C 223.582,51.282 133.913,-23.247 117.625,-56.244 l -0.417,-0.843 c -3.812,-7.7 -9.033,-18.245 -9.033,-35.688 0,-18.665 7.097,-36.172 19.985,-49.295 12.974,-13.212 30.371,-20.489 48.988,-20.489 21.819,0 42,10.075 55.086,26.924 13.087,-16.848 33.268,-26.924 55.086,-26.924 18.616,0 36.013,7.276 48.988,20.489 12.887,13.124 19.985,30.631 19.985,49.295 0,16.651 -5.183,27.554 -8.967,35.515 l -0.429,0.905 C 331.328,-23.497 240.905,51.282 237.063,54.45 Z m -55.074,-205.819 c -30.164,0 -53.792,23.984 -53.792,54.604 0,13.89 3.791,21.547 7.457,28.951 l 0.424,0.858 c 11.621,23.542 72.825,77.939 101.009,101.676 28.366,-23.777 89.886,-78.254 100.932,-101.565 l 0.438,-0.922 c 3.514,-7.393 7.497,-15.771 7.497,-28.998 0,-30.619 -23.628,-54.604 -53.792,-54.604 -20.354,0 -38.887,11.206 -48.367,29.245 l -6.719,12.785 -6.719,-12.785 c -9.481,-18.04 -28.013,-29.245 -48.368,-29.245 z"
     style="stroke-width:6.00254679" /><path
     inkscape:connector-curvature="0"
     id="path14"
     d="m 348.702,-37.749 c 0,-20.98 -16.511,-37.987 -37.491,-37.987 -14.61,0 -27.29,8.248 -33.645,20.341 -6.356,-12.093 -19.035,-20.341 -33.645,-20.341 -20.98,0 -37.411,17.007 -37.411,37.987 0,9.93 2.881,15.536 5.213,20.259 9.624,19.498 65.843,66.084 65.843,66.084 0,0 56.667,-46.719 65.843,-66.084 2.242,-4.73 5.293,-10.765 5.293,-20.259 z"
     style="fill:#ff3e61;stroke-width:6.00254679" /><path
     inkscape:connector-curvature="0"
     id="path16"
     d="m 277.554,58.443 -4.83,-4.004 C 266.842,49.565 214.969,6.231 204.917,-14.13 l -0.154,-0.311 c -2.466,-4.99 -5.843,-11.825 -5.843,-23.308 0,-12.18 4.618,-23.605 13.005,-32.171 8.464,-8.645 19.827,-13.406 31.996,-13.406 13.011,0 25.131,5.485 33.645,14.815 8.514,-9.33 20.633,-14.815 33.645,-14.815 24.858,0 45.081,20.445 45.081,45.576 0,10.836 -3.467,18.132 -5.762,22.959 l -0.261,0.551 c -9.624,20.309 -61.941,63.8 -67.875,68.691 z M 243.921,-68.144 c -16.721,0 -29.82,13.351 -29.82,30.396 0,7.938 2.172,12.334 4.272,16.583 l 0.156,0.317 c 6.636,13.443 41.284,44.465 59.049,59.543 17.867,-15.096 52.678,-46.15 58.973,-59.434 l 0.269,-0.568 c 2.012,-4.233 4.292,-9.03 4.292,-16.443 0,-17.045 -13.134,-30.396 -29.901,-30.396 -11.331,0 -21.649,6.239 -26.925,16.282 l -6.719,12.785 -6.72,-12.784 c -5.279,-10.043 -15.595,-16.281 -26.926,-16.281 z"
     style="stroke-width:6.00254679" /><rect
     id="rect18"
     height="39.106998"
     width="15.181"
     y="-230.767"
     x="224.642"
     style="stroke-width:6.00254679" /><rect
     style="stroke-width:6.00245619"
     id="rect20"
     height="39.105408"
     width="15.179771"
     transform="rotate(24.822361)"
     y="-319.38171"
     x="166.62762" /><rect
     style="stroke-width:6.00245619"
     id="rect22"
     height="15.179771"
     width="39.105408"
     transform="rotate(65.177639)"
     y="-254.93344"
     x="-124.38414" /><path
     inkscape:connector-curvature="0"
     id="path24"
     d="m 310.299,-384 -239.024,76.877 c -0.274,0.088 -0.538,0.193 -0.796,0.308 h -6.56 V 128 h 336.63 V -306.816 H 310.3 Z m -15.18,20.829 v 56.355 h -175.22 z m 90.249,71.536 V 112.82 H 79.099 v -404.455 h 231.2 z"
     style="stroke-width:6.00254679" /><path
     inkscape:connector-curvature="0"
     id="path26"
     d="m 360.843,-358.261 v 15.181 c 39.733,0 72.058,32.326 72.058,72.058 h 15.181 c 0,-48.103 -39.136,-87.239 -87.239,-87.239 z"
     style="stroke-width:6.00254679" /></g>
<g
   id="g28"
   transform="translate(0,-384)">
</g>
<g
   id="g30"
   transform="translate(0,-384)">
</g>
<g
   id="g32"
   transform="translate(0,-384)">
</g>
<g
   id="g34"
   transform="translate(0,-384)">
</g>
<g
   id="g36"
   transform="translate(0,-384)">
</g>
<g
   id="g38"
   transform="translate(0,-384)">
</g>
<g
   id="g40"
   transform="translate(0,-384)">
</g>
<g
   id="g42"
   transform="translate(0,-384)">
</g>
<g
   id="g44"
   transform="translate(0,-384)">
</g>
<g
   id="g46"
   transform="translate(0,-384)">
</g>
<g
   id="g48"
   transform="translate(0,-384)">
</g>
<g
   id="g50"
   transform="translate(0,-384)">
</g>
<g
   id="g52"
   transform="translate(0,-384)">
</g>
<g
   id="g54"
   transform="translate(0,-384)">
</g>
<g
   id="g56"
   transform="translate(0,-384)">
</g>
<text
   xml:space="preserve"
   style="font-style:normal;font-variant:normal;font-weight:normal;font-stretch:normal;font-size:48px;line-height:1.25;font-family:Odelette;-inkscape-font-specification:'Odelette, Normal';font-variant-ligatures:normal;font-variant-caps:normal;font-variant-numeric:normal;font-feature-settings:normal;text-align:center;letter-spacing:0px;word-spacing:0px;writing-mode:lr-tb;text-anchor:middle;fill:#bfab92;fill-opacity:1;stroke:none;stroke-width:1"
   x="197.63071"
   y="71.943436"
   id="text869"><tspan
     sodipodi:role="line"
     id="tspan893"
     x="197.63071"
     y="71.943436">Partecipazioni</tspan></text>
</svg>