<?xml version="1.0" encoding="UTF-8" standalone="no"?>
<!-- Generator: Adobe Illustrator 21.0.0, SVG Export Plug-In . SVG Version: 6.00 Build 0)  -->

<svg
   xmlns:dc="http://purl.org/dc/elements/1.1/"
   xmlns:cc="http://creativecommons.org/ns#"
   xmlns:rdf="http://www.w3.org/1999/02/22-rdf-syntax-ns#"
   xmlns:svg="http://www.w3.org/2000/svg"
   xmlns="http://www.w3.org/2000/svg"
   xmlns:sodipodi="http://sodipodi.sourceforge.net/DTD/sodipodi-0.dtd"
   xmlns:inkscape="http://www.inkscape.org/namespaces/inkscape"
   version="1.1"
   id="Capa_1"
   x="0px"
   y="0px"
   viewBox="0 0 300 128"
   xml:space="preserve"
   sodipodi:docname="lost_guests_book_con_scritta.svg"
   width="300"
   height="128"
   inkscape:version="0.92.3 (2405546, 2018-03-11)"
   inkscape:export-filename="C:\Deto\GitHub\100giorni\il-matrimonio-di-claudia-e-samuele.com\html5\images\lost_guests_book_con_scritta.png"
   inkscape:export-xdpi="96"
   inkscape:export-ydpi="96"><metadata
   id="metadata71"><rdf:RDF><cc:Work
       rdf:about=""><dc:format>image/svg+xml</dc:format><dc:type
         rdf:resource="http://purl.org/dc/dcmitype/StillImage" /><dc:title /></cc:Work></rdf:RDF></metadata><defs
   id="defs69" /><sodipodi:namedview
   pagecolor="#ffffff"
   bordercolor="#666666"
   borderopacity="1"
   objecttolerance="10"
   gridtolerance="10"
   guidetolerance="10"
   inkscape:pageopacity="0"
   inkscape:pageshadow="2"
   inkscape:window-width="1366"
   inkscape:window-height="745"
   id="namedview67"
   showgrid="false"
   inkscape:zoom="2.6107247"
   inkscape:cx="172.29232"
   inkscape:cy="47.541999"
   inkscape:window-x="-8"
   inkscape:window-y="-8"
   inkscape:window-maximized="1"
   inkscape:current-layer="Capa_1" />
<g
   id="g34"
   transform="matrix(0.12515659,0,0,0.12515659,3.0642832,26.761706)"
   style="stroke-width:7.98999071">
	<g
   transform="translate(1,1)"
   id="g30"
   style="stroke-width:7.98999071">
		<path
   style="fill:#c52828;stroke-width:7.98999071"
   d="m 417.133,133.588 v 307.2 c 0,4.713 -3.821,8.533 -8.533,8.533 H 263.533 c -4.713,0 -8.533,3.82 -8.533,8.533 v 17.067 c 0,4.713 -3.821,8.533 -8.533,8.533 H 178.2 c -4.713,0 -8.533,-3.821 -8.533,-8.533 v -17.067 c 0,-4.713 -3.821,-8.533 -8.533,-8.533 H 16.067 c -4.713,0 -8.533,-3.821 -8.533,-8.533 v -307.2 c 0,-4.713 3.821,-8.533 8.533,-8.533 h 25.6 z"
   id="path2"
   inkscape:connector-curvature="0" />
		<path
   style="fill:#f44335;stroke-width:7.98999071"
   d="m 391.533,133.588 v 307.2 c 0,4.713 -3.82,8.533 -8.533,8.533 H 237.933 c -4.713,0 -8.533,3.82 -8.533,8.533 v 17.067 c 0,4.713 -3.821,8.533 -8.533,8.533 H 178.2 c -4.713,0 -8.533,-3.821 -8.533,-8.533 v -17.067 c 0,-4.713 -3.821,-8.533 -8.533,-8.533 H 16.067 c -4.713,0 -8.533,-3.821 -8.533,-8.533 v -307.2 c 0,-4.713 3.821,-8.533 8.533,-8.533 z"
   id="path4"
   inkscape:connector-curvature="0" />
		<path
   style="fill:#cfd8dc;stroke-width:7.98999071"
   d="m 212.333,116.521 v 307.2 c -2.816,-0.683 -5.632,-1.365 -8.533,-2.048 -1.451,-0.341 -2.816,-0.597 -4.267,-0.853 -4.181,-0.939 -8.448,-1.707 -12.8,-2.475 -45.229,-7.156 -90.916,-11.034 -136.704,-11.605 -4.662,-0.056 -8.401,-3.871 -8.363,-8.533 V 108.073 c -0.017,-3.476 2.075,-6.615 5.291,-7.936 h 0.256 c 0.969,-0.418 2.017,-0.622 3.072,-0.597 50.059,0.521 99.985,5.259 149.248,14.165 1.451,0.256 2.901,0.512 4.267,0.853 2.901,0.598 5.717,1.281 8.533,1.963 z"
   id="path6"
   inkscape:connector-curvature="0" />
		<path
   style="fill:#f5f5f5;stroke-width:7.98999071"
   d="M 186.733,116.521 V 418.345 C 141.504,411.189 95.817,407.311 50.029,406.74 c -4.662,-0.056 -8.401,-3.871 -8.363,-8.533 V 108.073 c -0.017,-3.476 2.075,-6.615 5.291,-7.936 h 0.256 c 42.526,1.252 84.893,5.788 126.72,13.568 1.451,0.256 2.901,0.512 4.267,0.853 2.901,0.598 5.717,1.281 8.533,1.963 z"
   id="path8"
   inkscape:connector-curvature="0" />
		<path
   style="fill:#cfd8dc;stroke-width:7.98999071"
   d="m 383,108.073 v 290.133 c 0.038,4.662 -3.701,8.477 -8.363,8.533 -24.491,0.427 -97.963,2.56 -153.771,14.933 -2.901,0.683 -5.717,1.365 -8.533,2.048 v -307.2 c 2.816,-0.683 5.632,-1.365 8.533,-1.963 50.628,-9.525 102,-14.551 153.515,-15.019 2.283,-0.039 4.485,0.845 6.107,2.451 1.623,1.608 2.528,3.801 2.512,6.084 z"
   id="path10"
   inkscape:connector-curvature="0" />
		<path
   style="fill:#f5f5f5;stroke-width:7.98999071"
   d="m 357.4,108.073 v 290.133 c 0.347,4.305 -2.812,8.097 -7.108,8.533 -38.991,0.577 -77.863,4.459 -116.198,11.605 -3.703,0.768 -7.33,1.536 -10.88,2.475 -1.229,0.256 -2.398,0.512 -3.627,0.853 -2.466,0.683 -4.855,1.365 -7.253,2.048 v -307.2 c 2.398,-0.683 4.787,-1.365 7.253,-1.963 1.161,-0.341 2.398,-0.597 3.627,-0.853 41.715,-8.89 84.208,-13.635 126.857,-14.165 0.907,-0.024 1.805,0.182 2.611,0.597 0.077,-0.085 0.077,-0.085 0.145,0 2.944,1.525 4.731,4.625 4.573,7.937 z"
   id="path12"
   inkscape:connector-curvature="0" />
		<path
   style="fill:#35495e;stroke-width:7.98999071"
   d="m 351.469,178.857 -28.715,28.373 c -9.757,8.998 -23.041,13.134 -36.181,11.264 l -21.163,-2.816 67.115,-64.299 z"
   id="path14"
   inkscape:connector-curvature="0" />
		<g
   id="g20"
   style="stroke-width:7.98999071">
			<path
   style="fill:#607d8b;stroke-width:7.98999071"
   d="m 501.869,25.983 -0.085,0.085 c -18.432,40.363 -30.976,96.427 -60.416,125.867 -55.125,55.125 -97.792,54.869 -118.357,49.835 h -0.085 c -1.109,-0.256 -2.048,-0.597 -2.987,-0.853 -2.59,-0.773 -5.127,-1.714 -7.595,-2.816 -0.683,-0.341 -1.28,-0.597 -1.707,-0.853 -0.768,-0.427 -1.195,-0.683 -1.195,-0.683 0,0 -3.669,-22.528 11.947,-57.856 8.785,-19.252 20.185,-37.199 33.877,-53.333 29.867,-36.011 72.277,-50.261 103.765,-55.893 1.536,-0.256 3.072,-0.512 4.523,-0.768 12.655,-2.136 25.486,-3.051 38.315,-2.732 z"
   id="path16"
   inkscape:connector-curvature="0" />
			<path
   style="fill:#607d8b;stroke-width:7.98999071"
   d="m 501.784,26.068 c -18.432,40.363 -30.976,96.427 -60.416,125.867 -55.125,55.125 -97.792,54.869 -118.357,49.835 h -0.085 c -1.109,-0.256 -2.048,-0.597 -2.987,-0.853 -2.59,-0.773 -5.127,-1.714 -7.595,-2.816 -0.683,-0.341 -1.28,-0.597 -1.707,-0.853 -0.768,-0.427 -1.195,-0.683 -1.195,-0.683 C 352.365,136.832 410.391,88.874 451.437,59.264 479.939,38.697 500.333,26.921 501.784,26.068 Z"
   id="path18"
   inkscape:connector-curvature="0" />
		</g>
		<g
   id="g26"
   style="stroke-width:7.98999071">
			<path
   style="fill:#cfd8dc;stroke-width:7.98999071"
   d="m 464.749,26.068 c -0.427,0.853 -0.768,1.792 -1.195,2.645 -4.267,9.557 -8.192,19.968 -12.117,30.549 -12.629,34.048 -25.173,70.741 -47.104,92.672 -31.829,31.829 -59.563,45.227 -81.323,49.835 h -0.085 c -1.109,-0.256 -2.048,-0.597 -2.987,-0.853 -2.59,-0.773 -5.127,-1.714 -7.595,-2.816 -0.683,-0.341 -1.28,-0.597 -1.707,-0.853 -0.768,-0.427 -1.195,-0.683 -1.195,-0.683 0,0 -3.669,-22.528 11.947,-57.856 8.785,-19.252 20.185,-37.199 33.877,-53.333 29.867,-36.011 72.277,-50.261 103.765,-55.893 3.33,-2.049 5.293,-3.158 5.719,-3.414 z"
   id="path22"
   inkscape:connector-curvature="0" />
			<path
   style="fill:#cfd8dc;stroke-width:7.98999071"
   d="m 464.749,26.068 c -0.427,0.853 -0.768,1.792 -1.195,2.645 -4.267,9.557 -8.192,19.968 -12.117,30.549 -12.629,34.048 -25.173,70.741 -47.104,92.672 -31.829,31.829 -59.563,45.227 -81.323,49.835 h -0.085 c -1.109,-0.256 -2.048,-0.597 -2.987,-0.853 -2.59,-0.773 -5.127,-1.714 -7.595,-2.816 -0.683,-0.341 -1.28,-0.597 -1.707,-0.853 -0.768,-0.427 -1.195,-0.683 -1.195,-0.683 0,0 -3.669,-22.528 11.947,-57.856 41.412,-41.711 87.614,-78.374 137.643,-109.227 3.329,-2.048 5.292,-3.157 5.718,-3.413 z"
   id="path24"
   inkscape:connector-curvature="0" />
		</g>
		<path
   style="fill:#7d6599;stroke-width:7.98999071"
   d="m 220.867,114.559 v 307.115 c -2.901,0.683 -5.717,1.365 -8.533,2.048 -2.816,-0.683 -5.632,-1.365 -8.533,-2.048 V 114.559 c 2.901,0.597 5.717,1.28 8.533,1.963 2.815,-0.683 5.631,-1.366 8.533,-1.963 z"
   id="path28"
   inkscape:connector-curvature="0" />
	</g>
	<path
   d="m 17.067,458.855 h 145.067 v 17.067 c 0,9.426 7.641,17.067 17.067,17.067 h 68.267 c 9.426,0 17.067,-7.641 17.067,-17.067 V 458.855 H 409.6 c 9.426,0 17.067,-7.641 17.067,-17.067 v -263.27 c 7.604,-6.115 14.866,-12.644 21.751,-19.558 21.734,-21.726 34.295,-55.748 46.447,-88.653 5.248,-14.225 10.24,-27.657 15.753,-39.723 0.123,-0.32 0.226,-0.648 0.307,-0.981 0.068,-0.196 0.137,-0.375 0.188,-0.58 0.224,-0.924 0.296,-1.878 0.213,-2.825 0,-0.171 -0.068,-0.341 -0.094,-0.521 -0.133,-0.937 -0.422,-1.846 -0.853,-2.688 0,-0.06 0,-0.137 -0.068,-0.205 v -0.051 l -0.06,-0.128 c -0.511,-0.807 -1.155,-1.522 -1.903,-2.116 -0.162,-0.137 -0.324,-0.265 -0.495,-0.384 -0.776,-0.565 -1.641,-0.995 -2.56,-1.271 -0.111,0 -0.222,0 -0.333,-0.06 -0.508,-0.138 -1.028,-0.229 -1.553,-0.273 -3.959,-0.247 -98.133,-4.386 -153.643,62.447 -3.413,4.147 -6.616,8.22 -9.609,12.22 -42.649,1.477 -85.086,6.697 -126.822,15.599 C 157.372,95.164 81.63,92.553 51.388,92.015 c -4.544,-0.036 -8.919,1.714 -12.186,4.873 -3.271,3.211 -5.099,7.611 -5.069,12.194 v 8.439 H 17.067 C 7.641,117.521 0,125.162 0,134.588 v 307.2 c 0,9.426 7.641,17.067 17.067,17.067 z M 436.352,146.893 c -55.202,55.194 -95.684,52.113 -112.589,47.07 52.454,-69.35 125.005,-121.873 161.084,-145.562 -1.985,5.222 -3.977,10.564 -5.973,16.026 -11.529,31.147 -23.433,63.385 -42.522,82.466 z m -134.647,48.512 c 0.128,2.014 0.307,3.277 0.35,3.567 0.195,1.137 0.619,2.223 1.246,3.191 0.737,0.785 1.47,1.573 2.202,2.364 0.08,0.048 0.162,0.09 0.247,0.128 0.051,0 0.085,0.102 0.137,0.137 1.48,0.876 3.01,1.666 4.582,2.364 -6.668,3.551 -14.285,4.909 -21.769,3.883 l -3.268,-0.435 z M 362.803,91.853 C 393.66,54.69 439.287,41.967 469.913,37.658 414.399,74.252 364.4,118.593 321.433,169.336 c 7.534,-28.711 21.704,-55.251 41.37,-77.483 z m -59.136,78.652 c -0.295,0.152 -0.58,0.323 -0.853,0.512 l -42.24,39.424 c -2.411,2.251 -3.308,5.691 -2.304,8.833 1.004,3.142 3.728,5.424 6.998,5.862 l 21.094,2.807 c 2.428,0.347 4.878,0.521 7.33,0.521 13.281,0.022 26.081,-4.97 35.84,-13.978 l 1.809,-1.707 c 3.582,0.477 7.19,0.722 10.803,0.734 11.33,-0.086 22.571,-2.017 33.28,-5.717 l 0.06,191.394 c -51.535,0.528 -102.929,5.478 -153.617,14.797 V 124.348 c 35.016,-7.221 70.538,-11.718 106.249,-13.449 -11.706,18.217 -19.991,38.416 -24.449,59.606 z M 204.8,124.348 V 413.986 C 154.117,404.673 102.729,399.728 51.2,399.206 L 51.149,126.327 c 0,-0.094 0.051,-0.179 0.051,-0.273 0,-0.094 -0.051,-0.179 -0.051,-0.273 v -16.7 c 22.528,0.368 98.116,2.586 153.651,15.267 z m -187.733,10.24 h 17.067 v 264.619 c 0.021,9.288 7.448,16.863 16.734,17.067 23.433,0.375 104.252,2.688 160.427,16.725 0.661,0.166 1.341,0.249 2.022,0.247 h 0.102 c 0.682,0.001 1.361,-0.082 2.022,-0.247 56.141,-14.037 136.96,-16.35 160.427,-16.725 9.286,-0.204 16.713,-7.779 16.734,-17.067 v -198.52 c 5.874,-2.904 11.572,-6.149 17.067,-9.719 v 250.82 H 264.533 c -9.426,0 -17.067,7.641 -17.067,17.067 v 17.067 H 179.2 v -17.067 c 0,-9.426 -7.641,-17.067 -17.067,-17.067 H 17.067 Z"
   id="path32"
   inkscape:connector-curvature="0"
   style="stroke-width:7.98999071" />
</g>
<g
   id="g36"
   transform="translate(379.18571,-5.3042775)">
</g>
<g
   id="g38"
   transform="translate(379.18571,-5.3042775)">
</g>
<g
   id="g40"
   transform="translate(379.18571,-5.3042775)">
</g>
<g
   id="g42"
   transform="translate(379.18571,-5.3042775)">
</g>
<g
   id="g44"
   transform="translate(379.18571,-5.3042775)">
</g>
<g
   id="g46"
   transform="translate(379.18571,-5.3042775)">
</g>
<g
   id="g48"
   transform="translate(379.18571,-5.3042775)">
</g>
<g
   id="g50"
   transform="translate(379.18571,-5.3042775)">
</g>
<g
   id="g52"
   transform="translate(379.18571,-5.3042775)">
</g>
<g
   id="g54"
   transform="translate(379.18571,-5.3042775)">
</g>
<g
   id="g56"
   transform="translate(379.18571,-5.3042775)">
</g>
<g
   id="g58"
   transform="translate(379.18571,-5.3042775)">
</g>
<g
   id="g60"
   transform="translate(379.18571,-5.3042775)">
</g>
<g
   id="g62"
   transform="translate(379.18571,-5.3042775)">
</g>
<g
   id="g64"
   transform="translate(379.18571,-5.3042775)">
</g>
<text
   xml:space="preserve"
   style="font-style:normal;font-variant:normal;font-weight:normal;font-stretch:normal;font-size:48px;line-height:1.25;font-family:Odelette;-inkscape-font-specification:'Odelette, Normal';font-variant-ligatures:normal;font-variant-caps:normal;font-variant-numeric:normal;font-feature-settings:normal;text-align:center;letter-spacing:0px;word-spacing:0px;writing-mode:lr-tb;text-anchor:middle;fill:#607d8b;fill-opacity:1;stroke:none;stroke-width:1"
   x="185.71326"
   y="71.64856"
   id="text869"><tspan
     sodipodi:role="line"
     id="tspan845"
     x="185.71326"
     y="71.64856">Guests Book</tspan></text>

</svg>