<svg id="_x33_0" enable-background="new 0 0 64 64" height="512" viewBox="0 0 64 64" width="512" xmlns="http://www.w3.org/2000/svg"><g><g><path d="m16 30v1.76c0 1-.28 1.94-.78 2.76-.5.81-1.22 1.48-2.11 1.93-.73.36-1.53.55-2.35.55-.9 0-1.7-.27-2.35-.75-.08-.06-.16-.12-1.17-1.31l.01-.01c2.65-.77 3.43-2.92 3.66-4.11.09-.48.5-.82.98-.82z" fill="#ffeaa7"/><path d="m53.09 30.82c.23 1.19 1.01 3.34 3.66 4.11l.01.01c-1.01 1.19-1.09 1.25-1.17 1.31-.65.48-1.45.75-2.35.75-.82 0-1.62-.19-2.35-.55-.89-.45-1.61-1.12-2.11-1.93-.5-.82-.78-1.76-.78-2.76v-1.76h4.11c.48 0 .89.34.98.82z" fill="#ffeaa7"/><path d="m59.67 34.5c-.52.78-1.22 1.4-2.03 1.84-.8.42-1.71.66-2.65.66h-1.75c.9 0 1.7-.27 2.35-.75.08-.06.16-.12 1.17-1.31l.34-.69c.59-1.49.9-3.07.9-4.67 0-1.7-.35-3.39-1.02-4.95-1.29-3.03-3.4-5.64-6.08-7.56l-2.9-2.07v-1c1.36 0 3.85-.34 5.69-1.26l3.2 2.79c3.25 2.84 5.11 6.95 5.11 11.26 0 2.75-.81 5.43-2.33 7.71z" fill="#fcd770"/><path d="m16 14v1l-2.9 2.07c-2.68 1.92-4.79 4.53-6.08 7.56-.67 1.56-1.02 3.25-1.02 4.95 0 1.6.31 3.18.9 4.67l.34.69c1.01 1.19 1.09 1.25 1.17 1.31.65.48 1.45.75 2.35.75h-1.75c-.94 0-1.85-.24-2.65-.66-.81-.44-1.51-1.06-2.03-1.84-1.52-2.28-2.33-4.96-2.33-7.71 0-4.31 1.86-8.42 5.11-11.26l3.2-2.79c1.84.92 4.33 1.26 5.69 1.26z" fill="#fcd770"/><path d="m10.31 12.74c-.72-.36-1.33-.81-1.75-1.36.95-.87 3.19-2.38 7.44-2.38 5 0 13 3 13 3s-6 2-13 2c-1.36 0-3.85-.34-5.69-1.26z" fill="#ffeaa7"/><path d="m55.44 11.38c-.42.55-1.03 1-1.75 1.36-1.84.92-4.33 1.26-5.69 1.26-7 0-13-2-13-2s8-3 13-3c4.25 0 6.49 1.51 7.44 2.38z" fill="#ffeaa7"/><path d="m29 9 .17.18h.01c-.12.25-.18.53-.18.82v2s-8-3-13-3c-4.25 0-6.49 1.51-7.44 2.38-.35-.46-.56-1-.56-1.62v-3.98c0-.57.23-1.11.65-1.48 1-.89 3.24-2.3 7.35-2.3 2.47 0 4.82.87 6.82 2 3.67 2.07 6.18 5 6.18 5z" fill="#fcd770"/><path d="m48 9c-5 0-13 3-13 3v-2c0-.29-.06-.57-.18-.82l.18-.18s2.51-2.93 6.18-5c2-1.13 4.35-2 6.82-2 4.11 0 6.35 1.41 7.35 2.3.42.37.65.91.65 1.48v3.98c0 .62-.21 1.16-.56 1.62-.95-.87-3.19-2.38-7.44-2.38z" fill="#fcd770"/><path d="m35 10v2c0 1.1-.9 2-2 2h-2c-1.1 0-2-.9-2-2v-2c0-.29.06-.57.18-.82.31-.69 1.01-1.18 1.82-1.18h2c.81 0 1.51.49 1.82 1.18.12.25.18.53.18.82z" fill="#ffc729"/><path d="m29 9s-2.51-2.93-6.18-5h18.36c-3.67 2.07-6.18 5-6.18 5l-.18.18c-.31-.69-1.01-1.18-1.82-1.18h-2c-.81 0-1.51.49-1.82 1.18h-.01z" fill="#aab2bd"/><path d="m46 18h-28c-1.1 0-2 .9-2 2v-5-1c7 0 13-2 13-2 0 1.1.9 2 2 2h2c1.1 0 2-.9 2-2 0 0 6 2 13 2v1 5c0-1.1-.9-2-2-2z" fill="#aab2bd"/><path d="m48 31.76v28.24c0 1.1-.9 2-2 2h-28c-1.1 0-2-.9-2-2v-28.24-1.76-10c0-1.1.9-2 2-2h28c1.1 0 2 .9 2 2v10z" fill="#f29ed0"/><path d="m44 24v32h-24v-32z" fill="#e6e9ed"/><path d="m40 37.35v.25c0 1.53-.66 2.98-1.81 3.98l-6.19 5.42-6.19-5.42c-1.15-1-1.81-2.45-1.81-3.98v-.25c0-.88.26-1.74.75-2.47.78-1.18 2.1-1.88 3.5-1.88 1.12 0 2.19.44 2.98 1.23l.77.77.77-.77c.79-.79 1.86-1.23 2.98-1.23 1.4 0 2.72.7 3.5 1.88.49.73.75 1.59.75 2.47z" fill="#ff826e"/></g><g><path d="m35.745 32c-1.392 0-2.701.542-3.686 1.527l-.059.059-.059-.059c-.985-.985-2.294-1.527-3.686-1.527-1.747 0-3.368.868-4.338 2.322-.6.9-.917 1.947-.917 3.028v.25c0 1.813.783 3.538 2.147 4.732l6.853 5.997 6.853-5.996c1.364-1.194 2.147-2.919 2.147-4.732v-.25c0-1.081-.317-2.128-.917-3.029-.97-1.454-2.591-2.322-4.338-2.322zm3.255 5.601c0 1.236-.534 2.413-1.464 3.227l-5.536 4.843-5.536-4.844c-.93-.813-1.464-1.99-1.464-3.226v-.25c0-.685.201-1.349.581-1.92.598-.896 1.597-1.431 2.674-1.431.846 0 1.673.343 2.272.941l1.473 1.473 1.473-1.473c.599-.598 1.426-.941 2.272-.941 1.077 0 2.076.535 2.673 1.43.381.572.582 1.236.582 1.921z"/><path d="m19 57h26v-34h-26zm2-32h22v30h-22z"/><path d="m57.545 14.773-2.169-1.896c.97-.761 1.624-1.774 1.624-3.112v-3.985c0-.858-.361-1.672-.99-2.23-1.072-.952-3.536-2.55-8.01-2.55-2.579 0-4.998.868-7.071 2h-17.86c-2.075-1.133-4.492-2-7.069-2-4.474 0-6.938 1.598-8.009 2.549-.63.559-.991 1.373-.991 2.231v3.984c0 1.338.654 2.352 1.624 3.113l-2.169 1.896c-3.467 3.034-5.455 7.415-5.455 12.021 0 2.95.865 5.807 2.501 8.261 1.23 1.844 3.288 2.945 5.504 2.945h1.759c.962 0 1.927-.228 2.789-.658.537-.268 1.021-.606 1.447-.998v23.656c0 1.654 1.346 3 3 3h28c1.654 0 3-1.346 3-3v-23.656c.426.392.911.729 1.448.998.861.43 1.825.658 2.788.658h1.759c2.217 0 4.275-1.102 5.504-2.946 1.636-2.453 2.501-5.31 2.501-8.26 0-4.606-1.988-8.987-5.455-12.021zm-1.297 18.885c-1.429-.721-1.976-2.003-2.172-3.028-.181-.944-1.007-1.63-1.965-1.63h-3.111v-12.057l1.321.943c2.531 1.808 4.518 4.275 5.744 7.136.621 1.449.935 2.982.935 4.558 0 1.401-.258 2.77-.752 4.078zm-41.248-4.658h-3.111c-.958 0-1.784.686-1.965 1.631-.195 1.025-.743 2.306-2.172 3.028-.494-1.309-.752-2.678-.752-4.079 0-1.576.314-3.109.935-4.558 1.227-2.86 3.213-5.328 5.745-7.136l1.32-.943zm1-16c-1.734 0-4.408-.516-5.899-1.543 1.107-.708 2.97-1.457 5.899-1.457 2.853 0 6.794 1.044 9.518 1.887-2.363.529-5.807 1.113-9.518 1.113zm1 1.983c5.04-.129 9.381-1.186 11.286-1.725.478 1.026 1.511 1.742 2.714 1.742h2c1.203 0 2.236-.716 2.714-1.742 1.905.539 6.246 1.596 11.286 1.725v2.201c-.314-.112-.648-.184-1-.184h-28c-.352 0-.686.072-1 .184zm13-2.983v-2c0-.552.449-1 1-1h2c.551 0 1 .448 1 1v2c0 .552-.449 1-1 1h-2c-.551 0-1-.448-1-1zm18 1c-3.712 0-7.156-.584-9.519-1.113 2.723-.844 6.663-1.887 9.519-1.887 2.929 0 4.792.749 5.899 1.457-1.491 1.027-4.165 1.543-5.899 1.543zm6.681-7.955c.203.18.319.447.319.735v3.984c0 .009-.003.017-.003.026-1.365-.876-3.599-1.79-6.997-1.79-3.926 0-9.469 1.723-12 2.585v-.585c0-.189-.022-.373-.056-.553.999-1.085 6.229-6.447 12.056-6.447 3.812 0 5.822 1.281 6.681 2.045zm-16.812-.045c-1.37 1.051-2.407 2.052-3.002 2.671-.514-.413-1.158-.671-1.867-.671h-2c-.709 0-1.353.258-1.868.671-.612-.635-1.65-1.631-3.005-2.671zm-28.869.78c0-.288.116-.556.319-.736.859-.763 2.869-2.044 6.681-2.044 5.775 0 10.966 5.269 12.056 6.447-.034.18-.056.364-.056.553v.585c-2.531-.862-8.074-2.585-12-2.585-3.398 0-5.632.914-6.997 1.79 0-.009-.003-.017-.003-.025zm-3.835 28.164c-1.416-2.124-2.165-4.596-2.165-7.15 0-4.029 1.739-7.862 4.771-10.515l2.701-2.361c1.312.542 2.766.84 3.953.978l-1.909 1.364c-2.829 2.02-5.049 4.777-6.42 7.976-.727 1.698-1.096 3.495-1.096 5.344 0 1.733.327 3.429.97 5.038.054.136.123.258.185.387-.377-.297-.715-.649-.99-1.061zm7.494 1.609c-.586.293-1.241.447-1.895.447-.729 0-1.377-.242-1.906-.677 1.579-.884 2.663-2.393 3.03-4.323h3.112v.764c0 1.615-.897 3.067-2.341 3.789zm34.341 24.447c0 .552-.449 1-1 1h-28c-.551 0-1-.448-1-1v-40c0-.552.449-1 1-1h28c.551 0 1 .448 1 1zm4.342-24.447c-1.445-.722-2.342-2.174-2.342-3.789v-.762l3.111.004c.367 1.926 1.451 3.434 3.03 4.318-.528.434-1.176.676-1.905.676-.654 0-1.309-.154-1.894-.447zm7.493-1.608c-.275.412-.613.763-.991 1.061.062-.129.131-.251.186-.388.643-1.609.97-3.305.97-5.038 0-1.849-.369-3.646-1.097-5.345-1.371-3.198-3.591-5.956-6.419-7.976l-1.909-1.364c1.188-.138 2.641-.436 3.953-.978l2.701 2.361c3.032 2.654 4.771 6.487 4.771 10.516 0 2.554-.749 5.026-2.165 7.151z"/></g></g></svg>