<svg id="Capa_1" enable-background="new 0 0 512 512" height="512" viewBox="0 0 512 512" width="512" xmlns="http://www.w3.org/2000/svg"><g><g><g><g><path d="m338.825 65.419c-10.849-.428-16.246 5.473-18.477 8.968-.626.981-2.033 1.008-2.68.042-2.387-3.565-8.123-9.696-19.052-8.973-12.44.823-22.065 11.468-21.949 23.935.226 24.187 28.388 39.609 38.671 44.437 2.349 1.103 5.06 1.102 7.409-.001 10.335-4.853 38.721-20.403 38.67-44.795-.025-12.277-10.325-23.129-22.592-23.613z" fill="#fdabdf"/><path d="m319.042 129.982c-44.537 0-80.642 36.105-80.642 80.642s36.105 80.642 80.642 80.642 80.642-36.105 80.642-80.642-36.105-80.642-80.642-80.642zm0 131.747c-28.224 0-51.105-22.88-51.105-51.105s22.88-51.105 51.105-51.105 51.105 22.88 51.105 51.105-22.881 51.105-51.105 51.105z" fill="#fbd307"/><g><path d="m99.108 202.899v-137.727c0-30.961 25.099-56.06 56.06-56.06h32.025c5.205 0 9.424 4.219 9.424 9.424v240.424h-41.449c-30.961 0-56.06-25.099-56.06-56.061z" fill="#ff646f"/><path d="m99.108 202.899v-137.727c0-30.961 25.099-56.06 56.06-56.06v249.848c-30.961 0-56.06-25.099-56.06-56.061z" fill="#ff4755"/><path d="m443.966 373.329h-249.848v-120.82c0-14.258 11.559-25.817 25.817-25.817h198.214c14.258 0 25.817 11.559 25.817 25.817z" fill="#ff4755"/><path d="m418.149 226.692h-40.562c14.258 0 25.817 11.559 25.817 25.817v120.819h40.562v-120.819c0-14.258-11.559-25.817-25.817-25.817z" fill="#fc2b3a"/><path d="m418.148 226.692h-198.213c-14.258 0-25.817 11.559-25.817 25.817v6.45h249.848v-6.45c0-14.258-11.559-25.817-25.818-25.817z" fill="#ff646f"/><path d="m403.403 252.509v6.45h40.562v-6.45c0-14.258-11.559-25.817-25.817-25.817h-40.562c14.258 0 25.817 11.559 25.817 25.817z" fill="#ff4755"/><g><g><g><g><g><g><g><g><path d="m140.704 496.055 4.422-18.897c6.235-26.645 27.304-47.808 53.678-53.915 22.124-5.122 46.909-3.634 67.053-1.002 10.615 1.387 21.326 1.843 32.018 1.295 68.542-3.51 134.029-29.461 186.37-73.853l12.977-11.006c8.667-7.351 9.783-20.315 2.5-29.039-6.755-8.092-18.514-9.811-27.304-3.993l-15.51 10.267c-19.49 12.902-40.159 23.929-61.729 32.933-31.659 13.216-66.516 16.783-100.196 10.254l59.233-20.734c10.83-5.571 15.464-18.674 10.55-29.831-1.702-3.864-4.468-7.175-8-9.575-5.299-3.6-11.969-4.907-18.303-3.587l-40.178 8.378c-28.379 5.918-57.846 3.806-85.091-6.098-43.498-15.812-92.242-2.804-122.078 32.578l-70.842 84.012z" fill="#ffece3"/><g><path d="m499.723 309.638c-2.272-2.721-5.116-4.704-8.217-5.939-.933 4.865-3.583 9.416-7.848 12.628l-13.592 10.237c-91.623 69.004-186.01 62.254-190.332 62.945-33.336-.224-60.604-15.078-98.888-6.026-34.125 8.069-70.439 50.458-87.448 80.435l47.307 32.137 4.422-18.897c6.235-26.645 27.304-47.808 53.678-53.915 22.124-5.122 46.909-3.634 67.053-1.002 10.615 1.387 21.326 1.843 32.018 1.295 68.542-3.51 134.029-29.461 186.37-73.853l12.977-11.006c8.666-7.35 9.782-20.315 2.5-29.039z" fill="#ffddce"/></g><path d="m156.358 455.58-108.39-73.634c-11.799-8.015-27.858-4.983-35.921 6.783-8.11 11.834-5.056 28.006 6.811 36.068l108.391 73.634c11.799 8.015 27.858 4.983 35.921-6.783 8.109-11.834 5.056-28.006-6.812-36.068z" fill="#665e66"/><path d="m156.359 455.58-11.907-8.089-5.702 8.32c-8.063 11.766-24.122 14.798-35.921 6.783l-94.801-64.402c-2.021 9.928 1.92 20.553 10.83 26.605l108.391 73.634c11.799 8.015 27.858 4.983 35.921-6.783 8.11-11.834 5.056-28.006-6.811-36.068z" fill="#454045"/></g></g></g></g></g></g></g></g></g></g></g></g><path d="m505.48 304.831c-9.217-11.04-25.21-13.379-37.201-5.44-5.468 3.613-10.201 6.77-16.813 11.107v-57.989c0-18.371-14.946-33.317-33.317-33.317h-11.386c.276-2.848.421-5.709.421-8.568 0-38.626-24.976-71.526-59.626-83.406 10.955-8.861 21.394-21.647 21.36-38.202-.034-16.217-13.679-30.456-29.797-31.092-9.535-.385-16.032 3.106-20.157 6.716-5.547-4.814-12.833-7.202-20.843-6.668-16.391 1.085-29.109 14.917-28.953 31.49.153 16.341 10.51 28.979 21.36 37.756-34.65 11.879-59.628 44.779-59.628 83.406 0 2.86.145 5.721.421 8.568h-11.386c-5.721 0-11.108 1.45-15.817 4.001v-204.657c0-9.332-7.592-16.925-16.925-16.925h-32.025c-35.047 0-63.56 28.513-63.56 63.56v137.727c0 35.047 28.513 63.56 63.56 63.56h31.449v17.632c-37.83-3.515-76.046 11.433-101.236 41.305l-39.596 46.958c-14.185-5.651-30.953-.959-39.927 12.135-10.466 15.271-6.534 36.107 8.783 46.512l108.391 73.635c15.228 10.345 35.991 6.327 46.322-8.748 9.485-13.84 7.033-31.908-4.29-42.851 9.035-11.229 21.632-19.292 35.43-22.487 36.663-8.488 63.831 2.213 97.763.478 124.844-6.394 197.322-82.607 203.815-86.63 11.764-9.976 13.293-27.725 3.408-39.566zm-221.313-215.511c-.146-15.68 19.71-22.006 27.269-10.718 1.715 2.561 4.566 4.082 7.652 4.036 3.084-.034 5.918-1.609 7.581-4.215 6.977-10.931 27.217-4.696 27.248 10.624.032 15.68-15.713 27.556-26.47 33.837-5.645-.537-11.155-.538-16.81 0-10.679-6.235-26.324-18.016-26.47-33.564zm-38.267 121.304c0-40.33 32.811-73.141 73.141-73.141s73.142 32.811 73.142 73.141c0 2.862-.188 5.725-.52 8.568h-14.656c.419-2.831.639-5.692.639-8.568 0-32.315-26.29-58.605-58.605-58.605s-58.605 26.29-58.605 58.605c0 2.877.221 5.737.639 8.568h-14.655c-.332-2.842-.52-5.705-.52-8.568zm30.389 8.568c-.565-2.816-.852-5.682-.852-8.568 0-24.044 19.56-43.604 43.604-43.604s43.605 19.56 43.605 43.604c0 2.886-.287 5.752-.852 8.568zm-87.171-200.656v221.327c-1.481 3.595-2.346 7.504-2.473 11.596h-23.975v-234.847h24.525c1.06 0 1.923.863 1.923 1.924zm-82.509 184.363v-137.727c0-24.226 17.832-44.362 41.059-47.979v233.685c-23.227-3.617-41.059-23.753-41.059-47.979zm95.009 63.561h25.95c4.142 0 7.5-3.358 7.5-7.5s-3.358-7.5-7.5-7.5h-25.897c.549-9.61 8.518-17.266 18.264-17.266h198.214c9.746 0 17.714 7.656 18.264 17.266h-173.78c-4.142 0-7.5 3.358-7.5 7.5s3.358 7.5 7.5 7.5h173.833v53.355c-36.73 21.6-68.733 34.569-106.467 34.974l26.697-9.345c.327-.115.645-.251.953-.41 14.351-7.383 20.493-24.743 13.983-39.523-2.27-5.154-5.952-9.564-10.65-12.756-6.97-4.736-15.734-6.456-24.048-4.725l-40.179 8.378c-27.033 5.639-55.043 3.631-80.997-5.805-4.659-1.694-9.382-3.059-14.138-4.135v-20.008zm290.753 66.497c-6.43 3.992-74.919 76.945-194.879 83.089-33.061 1.695-60.4-9.367-100.38-.11-17.281 4.002-33.025 14.139-44.182 28.247l-53.426-36.293c-3.426-2.326-8.09-1.437-10.419 1.99-2.327 3.426-1.437 8.091 1.99 10.419l61.069 41.485c8.437 5.732 10.605 17.21 4.839 25.624-5.713 8.336-17.16 10.498-25.52 4.82l-108.391-73.635c-8.437-5.732-10.605-17.21-4.839-25.624 5.708-8.328 17.141-10.493 25.497-4.832l.034.022c.001 0 .002.001.003.001l18.406 12.504c3.425 2.327 8.091 1.437 10.418-1.99 2.328-3.426 1.437-8.091-1.989-10.419l-11.827-8.035 38.076-45.154c27.689-32.836 73.414-45.039 113.781-30.364 28.578 10.389 59.417 12.599 89.185 6.392l40.179-8.378c4.354-.909 8.932-.015 12.557 2.448 2.367 1.608 4.217 3.819 5.351 6.394 3.255 7.389.309 16.041-6.702 19.917l-58.695 20.545c-.011.004-.021.01-.033.015-.018.007-.037.01-.056.017l-28.459 10.365c-3.892 1.418-5.899 5.722-4.481 9.614 1.109 3.045 3.985 4.936 7.048 4.936 2.345 0 1.294-.158 29.107-10.121 90.39 16.453 157.58-42.125 180.927-54.946 5.609-3.715 13.092-2.621 17.406 2.546 4.624 5.539 3.909 13.843-1.595 18.511z"/></g></svg>