<?xml version="1.0" encoding="UTF-8" standalone="no"?>
<!-- Generator: Adobe Illustrator 19.0.0, SVG Export Plug-In . SVG Version: 6.00 Build 0)  -->

<svg
   xmlns:dc="http://purl.org/dc/elements/1.1/"
   xmlns:cc="http://creativecommons.org/ns#"
   xmlns:rdf="http://www.w3.org/1999/02/22-rdf-syntax-ns#"
   xmlns:svg="http://www.w3.org/2000/svg"
   xmlns="http://www.w3.org/2000/svg"
   xmlns:sodipodi="http://sodipodi.sourceforge.net/DTD/sodipodi-0.dtd"
   xmlns:inkscape="http://www.inkscape.org/namespaces/inkscape"
   version="1.1"
   id="Capa_1"
   x="0px"
   y="0px"
   viewBox="0 0 300.00001 128.00001"
   xml:space="preserve"
   sodipodi:docname="logo_appuntamenti_con_scritta.svg"
   width="300"
   height="128"
   inkscape:version="0.92.3 (2405546, 2018-03-11)"
   inkscape:export-filename="C:\Deto\GitHub\100giorni\il-matrimonio-di-claudia-e-samuele\html5\assets\images\logo_appuntamenti_con_scritta.png"
   inkscape:export-xdpi="96"
   inkscape:export-ydpi="96"><metadata
   id="metadata71"><rdf:RDF><cc:Work
       rdf:about=""><dc:format>image/svg+xml</dc:format><dc:type
         rdf:resource="http://purl.org/dc/dcmitype/StillImage" /><dc:title /></cc:Work></rdf:RDF></metadata><defs
   id="defs69" /><sodipodi:namedview
   pagecolor="#ffffff"
   bordercolor="#666666"
   borderopacity="1"
   objecttolerance="10"
   gridtolerance="10"
   guidetolerance="10"
   inkscape:pageopacity="0"
   inkscape:pageshadow="2"
   inkscape:window-width="1920"
   inkscape:window-height="1057"
   id="namedview67"
   showgrid="false"
   fit-margin-top="0"
   fit-margin-left="0"
   fit-margin-right="0"
   fit-margin-bottom="0"
   inkscape:zoom="1.8437465"
   inkscape:cx="-16.986944"
   inkscape:cy="54.237592"
   inkscape:window-x="-8"
   inkscape:window-y="-8"
   inkscape:window-maximized="1"
   inkscape:current-layer="Capa_1" />












<g
   id="g895"
   transform="matrix(0.19531228,0,0,0.19531228,-5.6149692e-5,89.831911)"
   style="stroke-width:5.12000561"><path
     inkscape:connector-curvature="0"
     id="path2"
     d="m 147.634,-218.68698 c -4.821,13.212 -15.48,24.497 -22.458,36.724 -8.336,14.609 -18.509,28.028 -27.108,42.604 -22.042,37.356 -43.281,75.894003 -66.256,113.015003 -7.017,11.334 -17.201,21.4460004 -21.96,34.0950004 -2.907,7.7269996 -3.663,11.2579996 4.235,14.4909996 10.475,4.288 29.352,1.625 40.748,2.229 56.398,2.987 112.932,5.279 169.402,2.985 52.413,-2.129 104.601,-2.859 156.996,-2.855 22.46,0.002 44.971,1.084 67.291,3.037 13.409,1.173 29.322,3.167 42.562,0.709 37.747,-7.008 4.569,-50.217 -7.552,-67.379 -7.809,-11.055 -12.486,-23.875 -18.519,-35.898 -5.765,-11.488 -14.224,-20.116 -20.509,-31.216003 -13.125,-23.182 -21.642,-49.083 -38.338,-70.157 -12.291,-15.514 -23.918,-42.325 -45.129,-44.459 -36.992,-3.72 -74.636,-0.051 -111.625,-1.714 -18.563,-0.836 -37.396,0.048 -55.98,0.048 -7.297,0 -14.9,-0.603 -22.172,-0.021 -8.589,0.683 -12.323,5.973 -23.628,3.762 z"
     style="fill:#fcbc7e;stroke-width:5.12000561" /><g
     transform="translate(0,-384.00098)"
     id="g8"
     style="stroke-width:5.12000561">
	<path
   inkscape:connector-curvature="0"
   id="path4"
   d="m 55.933,312.222 c 5.784,-1.174 16.158,1.639 24.329,0.933 8.509,-0.735 19.888,-0.369 27.595,-1.824 24.403,-4.607 18.073,-35.711 37.006,-44.401 14.533,-6.671 30.352,-11.123 45.844,-14.363 10.012,-2.094 32.032,-1.147 30.637,-12.349 -0.803,-6.454 -7.715,-14.642 -10.08,-21.075 -3.442,-9.358 -8.445,-17.995 -12.173,-27.166 -4.817,-11.852 3.69,-26.745 -10.479,-29.49 -8.396,-1.626 -26.216,-1.639 -33.793,2.575 -4.15,2.31 -7.189,8.232 -9.941,11.876 -8.001,10.593 -15.846,20.326 -22.707,31.676 -11.659,19.285 -21.357,39.576 -35.373,57.315 -8.8,11.14 -24.109,26.777 -26.135,41.452 2.076,0.731 3.131,3.139 -4.73,4.841 z"
   style="fill:#8acdf1;stroke-width:5.12000561" />
	<path
   inkscape:connector-curvature="0"
   id="path6"
   d="m 312.319,165.314 c 0.432,11.326 -6.189,24.433 -9.357,35.089 -1.395,4.692 -9.756,19.357 -7.296,23.671 4.067,7.131 19.253,-2.018 24.369,-4.28 10.305,-4.559 12.405,-8.467 14.672,-20.31 2.031,-10.614 7.673,-23.436 7.414,-34.028 -12.244,-0.657 -22.777,2.078 -29.802,-0.142 z"
   style="fill:#8acdf1;stroke-width:5.12000561" />
</g><path
     inkscape:connector-curvature="0"
     id="path10"
     d="m 41.897,-51.192977 c 14.152,-3.305 30.17,-2.657 44.545,-4.599 15.365,-2.075 30.797,-3.668 46.219,-5.902 12.209,-1.77 25.023,-5.741 28.1,-17.801 4.002,-15.696 2.859,-21.309003 19.669,-27.453003 11.937,-4.364 23.922,-7.399 36.287,-9.719 5.508,-1.033 12.9,-4.669 18.87,-2.879 12.362,3.705 15.928,25.509003 29.735,12.255 3.081,-2.959 0.413,-6.433 5.874,-7.598 1.605,-0.343 7.023,3.143 8.878,3.799 8.76,3.094 17.047,5.679 25.46,9.603 7.148,3.334003 35.017,10.862003 36.771,19.920003 3.933,20.31 -98.644,30.702 -109.487,32.748 -38.479,7.261 -80.347,14.68 -116.905,28.742 4.227,7.36 10.794,14.9210004 16.388,21.8440004 4.949,6.126 20.238,16.0239996 21.785,22.6219996 -5.316,2.638 -12.334,0.077 -18.136,0.35 -18.716,0.875 -37.313,3.227 -56.129,3.053 -14.6,-0.135 -29.092,-0.507 -43.688,-0.373 -6.129,0.055 -16.766,1.855 -22.439,-0.977 C 1.377,20.294023 13.457,8.5530234 18.741,0.85602344 29.497,-14.812977 31.968,-34.186977 41.897,-51.192977 Z"
     style="fill:#b46133;stroke-width:5.12000561" /><path
     inkscape:connector-curvature="0"
     id="path12"
     d="m 360.041,-221.49398 c -5.21,13.682 3.695,32.868 5.406,46.059 0.912,7.038 2.392,16.724 -3.069,21.779 -6.002,5.557 -24.465,7.467 -32.672,9.145 -9.923,2.028 -27.086,1.748 -33.409,10.998 8.199,10.493 24.843,12.116 36.656,16.566 16.577,6.246 33.526,13.49 49.542,20.843003 8.479,3.893 15.701,9.657 25.268,9.146 12.146,-0.648 28.783,-5.158 40.072,-9.313 1.605,-8.283003 -7.34,-19.227003 -12.213,-25.309003 -11.813,-14.746 -21.347,-27.748 -29.652,-45.105 -6.262,-13.082 -12.514,-23.495 -22.501,-33.852 -6.348,-6.582 -13.071,-19.293 -23.428,-20.957 z"
     style="fill:#ffefe1;stroke-width:5.12000561" /><path
     inkscape:connector-curvature="0"
     id="path14"
     d="m 151.376,-12.828977 c 17.416,-9.558 39.834,-12.224 59.136,-16.159 23.006,-4.69 46.47,-6.926 69.284,-12.588 29.818,-7.402 74.948,-34.509 103.664,-13.357 29.422,21.672 56.369,50.7570004 88.397,68.921 2.687,1.523 13.302,4.219 11.575,8.789 -2.287,6.052 -39.227,0.956 -44.622,0.909 -27.536,-0.238 -54.95,-2.756 -82.546,-2.827 -22.583,-0.058 -45.252,2.581 -67.797,3.661 -23.914,1.145 -48.131,-0.764 -72.106,-0.855 -11.39,-0.043 -23.737,0.664 -33.174,-4.445 -7.823,-4.236 -15.385,-11.0509996 -22.268,-16.8679996 -5.776,-4.884 -17.739,-12.4570004 -9.543,-15.1810004 z"
     style="fill:#6ac17b;stroke-width:5.12000561" /><g
     transform="translate(0,-384.00098)"
     id="g20"
     style="stroke-width:5.12000561">
	<path
   inkscape:connector-curvature="0"
   id="path16"
   d="m 457.355,299.121 c -0.476,-0.593 -13.212,6.93 -14.188,7.463 -6.639,3.626 -11.475,4.048 -18.445,5.754 -17.766,4.347 -2.011,15.938 5.896,20.081 12.952,6.787 23.817,15.713 35.671,24.222 7.713,5.537 19.967,18.387 29.247,20.004 5.14,-12.528 -6.806,-26.569 -13.269,-36.702 -5.012,-7.859 -10.176,-15.498 -14.878,-23.508 -3.445,-5.868 -13.656,-15.855 -10.034,-17.314 z"
   style="fill:#8acdf1;stroke-width:5.12000561" />
	<path
   inkscape:connector-curvature="0"
   id="path18"
   d="m 232.783,162.507 c -5.094,12.346 7.079,23.531 19.183,23.393 16.471,-0.188 19.543,-11.895 25.639,-23.229 -10.946,-4.311 -29.432,-4.17 -44.822,-0.164 z"
   style="fill:#8acdf1;stroke-width:5.12000561" />
</g><path
     inkscape:connector-curvature="0"
     id="path22"
     d="m 311.193,-236.53398 c -1.012,-5.068 -3.562,-10.05 -7.238,-13.639 -0.012,-0.35 -0.027,-0.7 -0.057,-1.056 -1.076,-12.796 -16.244,-26.625 -28.105,-31.13 -7.513,-2.853 -17.835,-3.468 -25.874,-2.773 -5.666,0.489 -11.855,1.471 -17.202,3.708 -14.374,6.018 -27.749,29.645 -33.619,43.087 -10.7,33.198 13.235,71.377 28.026,99.126 3.76,7.052 18.896,36.818 29.027,36.571 8.954,-0.218 19.809,-27.214 23.453,-34.083 8.134,-15.333 13.849,-32.166 22.266,-47.339 8.718,-15.717 13.072,-33.697 9.323,-52.472 z m -49.378,37.494 c -34.535,13.634 -45.603,-58.726 -5.591,-55.273 12.865,1.109 13.781,15.682 23.258,19.956 0.005,0.053 0.011,0.107 0.017,0.16 1.326,14.166 -3.372,29.507 -17.684,35.157 z"
     style="fill:#db3333;stroke-width:5.12000561" /><path
     inkscape:connector-curvature="0"
     id="path24"
     d="m 207.933,-254.99898 c -5.005,10.872 -5.412,24.127 -5.979,35.773 -1.865,38.3 18.36,61.938 36.821,92.678 3.944,6.566 23.242,38.272003 25.865,14.548 1.728,-15.626 -13.52,-39.133 -20.196,-52.498 -8.365,-16.744 -19.277,-35.681 -21.812,-54.5 -2.282,-16.951 9.803,-28.307 10.898,-43.676 1.095,-15.395 -11.897,-9.407 -18.831,-2.312 -2.892,2.961 -5.089,6.34 -6.766,9.987 z"
     style="fill:#bc2222;stroke-width:5.12000561" /><path
     inkscape:connector-curvature="0"
     id="path26"
     d="m 148.569,-219.62298 c -18.07,33.371 -39.226,65.017 -58.482,97.816 -9.234,15.728 -18.099,32.013003 -27.693,47.217003 3.909,4.158 17.163,3.461 22.525,0.957 8.775,-4.097 13.648,-15.392 18.665,-23.216 10.508,-16.389003 19.999,-33.499003 30.274,-50.076003 11.283,-18.201 26.371,-39.819 31.832,-60.781 2.79,-10.71 -8.737,-21.86 -17.121,-11.917 z"
     style="fill:#67b4d6;stroke-width:5.12000561" /><path
     inkscape:connector-curvature="0"
     id="path28"
     d="m 44.704,-47.450977 c -5.807,13.761 -18.889,24.043 -26.2,37.17 -4.198,7.5390004 -13.539,18.5700004 -12.162,27.863 1.436,9.685 8.471,8.521 17.544,8.889 14.004,0.568 28.015,0.923 42.178,0.936 13.744,0.013 27.056,-1.959 40.58,-2.599 11.396,-0.538 23.105,1.928 34.254,0.728 7.105,-0.765 14.92,-2.779 8.369,-10.99 -9.102,-11.4079996 -36.59,-4.7359996 -47.975,-4.189 -22.65,1.088 -66.341,-3.9919996 -49.406,-34.833 6.736,-12.269 17.868,-36.95 -7.182,-22.975 z"
     style="fill:#964a24;stroke-width:5.12000561" /><path
     inkscape:connector-curvature="0"
     id="path30"
     d="m 185.997,21.793023 c -2.676,-1.38 -14.779,-8.445 -15.695,-11.441 -3.293,-10.76399956 31.274,-7.2729996 38.34,-7.2729996 63.521,0 127.074,-1.805 190.596,-0.021 22.466,0.631 47.16,-4.191 66.214,7.1299996 5.901,3.507 23.851,9.159 14.401,15.394 -5.213,3.439 -24.309,-1.762 -30,-1.938 -19.945,-0.617 -39.986,0.957 -59.974,0.957 -40.228,0 -80.342,-1.916 -120.552,-1.871 -19.266,0.021 -38.709,0.746 -57.939,-0.004 -8.358,-0.328 -19.365,-4.4 -25.391,-0.933 z"
     style="fill:#459b53;stroke-width:5.12000561" /><path
     inkscape:connector-curvature="0"
     id="path32"
     d="m 509.737,5.0740234 c -2.729,-7.273 -6.588,-14.146 -9.991,-21.1150004 -4.807,-9.845 -9.587,-19.702 -14.419,-29.534 -19.398,-39.479 -39.917,-78.234003 -65.078,-114.393003 -6.168,-8.864 -12.438,-17.657 -18.478,-26.61 -4.974,-7.372 -8.792,-15.403 -13.71,-22.794 -4.559,-6.851 -10.131,-12.671 -18.233,-15.032 -7.883,-2.297 -16.339,-1.682 -24.425,-1.27 -9.539,0.487 -19.123,0.298 -28.678,0.287 0.98,-17.725 -2.928,-35.289 -16.936,-47.836 -22.03,-19.734 -57.472,-22.241 -80.82,-3.546 -16.347,13.09 -23.938,32.432 -25.115,52.463 -8.646,-0.948 -17.162,-0.237 -25.922,-0.614 -6.388,-0.273 -13.491,-1.554 -19.509,1.313 -6.092,2.902 -9.173,8.947 -12.09,14.688 -4.735,9.32 -10.397,18.114 -16.211,26.788 -24.228,36.146 -46.391,73.592 -68.296,111.180003 -11.084,19.02 -22.845,37.632 -33.986,56.616 C 13.463,-6.8789766 9.222,0.62302344 4.648,7.9550234 1.603,12.834023 -2.18,19.450023 1.555,24.950023 c 3.036,4.469 9.026,5.83 14.022,6.658 6.324,1.049 12.744,1.336 19.145,1.396 16.94,0.163 33.862,0.664 50.808,0.428 45.39,-0.633 90.746,-3.084 136.135,-3.974 45.94,-0.901 92.045,-1.693 137.982,-0.284 43.281,1.326 86.438,4.75 129.768,2.938 7.091,-0.296 16.162,-1.224 20.34,-7.853 3.658,-5.804 2.254,-13.13 -0.018,-19.1849996 z m -49.9,-75.8810004 c 9.08,17.652 17.74,35.516 26.424,53.365 -4.666,-3.446 -9.412,-6.78 -14.207,-10.045 -11.195,-7.625 -22.426,-15.402 -34.014,-22.422 -5.961,-3.611 -12.254,-6.874 -17.525,-11.494 -2.908,-2.551 -1.652,-3.286 1.504,-5.247 3.082,-1.914 6.494,-3.129 9.945,-4.186 5.174,-1.583 10.484,-2.762 15.428,-5.022 2.665,-1.22 5.164,-2.681 7.754,-3.945 1.575,2.992 3.144,5.99 4.691,8.996 z M 366.803,-213.42798 c 7.347,2.146 11.449,9.469 15.007,15.712 4.414,7.749 8.918,15.221 13.976,22.583 11.667,16.98 23.738,33.65 34.499,51.234 5.211,8.516 10.211,17.157 15.053,25.887003 -5.855,1.067 -11.699,2.177 -17.533,3.355 -6.67,1.348 -13.688,3.564 -20.483,3.887 -6.166,0.292 -11.591,-2.238 -17.052,-4.774 -6.564,-3.048 -13.162,-6.011003 -19.814,-8.861003 -12.817,-5.493 -25.696,-11.032 -38.778,-15.868 -10.384,-3.84 -20.774,-7.23 -30.428,-12.445 11.492,-3.418 22.984,-7.41 34.687,-9.498 8.779,-1.566 18.021,-1.873 26.261,-5.615 3.147,-1.43 6.334,-3.573 7.508,-7.002 1.767,-5.162 -1.214,-11.471 -2.164,-16.546 -2.682,-14.319 -4.313,-28.823 -6.738,-43.167 2.031,0.2 4.039,0.546 5.999,1.118 z m -51.298,-0.747 c 6.828,0.022 13.678,0.168 20.515,0.094 -1.548,6.557 -2.491,13.234 -3.441,19.925 -0.696,4.905 -1.364,9.82 -2.382,14.672 -0.71,3.382 -1.34,7.318 -3.756,9.973 -3.82,4.201 -11.127,4.366 -16.307,5.525 -3.576,0.801 -7.105,1.766 -10.664,2.629 4.53,-11.592 8.524,-23.372 11.996,-35.201 1.655,-5.639 3.07,-11.577 4.039,-17.617 z m -98.852,-45.194 c 17.208,-22.696 48.898,-25.939 71.955,-10.025 22.287,15.383 20.365,44.277 13.943,67.432 -9.193,33.146 -23.126,65.916 -41.683,94.986 -3.594,-2.17 -6.783,-4.882 -9.791,-7.82 -15.16,-21.468 -31.132,-43.109 -40.045,-67.838 -8.977,-24.911 -11.22,-54.52 5.621,-76.735 z M 77.149,-93.765977 c 10.51,-17.704003 21.475,-35.132003 32.194,-52.709003 10.143,-16.63 22.069,-32.115 31.958,-48.891 2.239,-3.799 4.189,-7.733 6.311,-11.594 1.252,-2.28 2.641,-4.923 4.938,-6.325 4.444,-2.713 11.425,-1.173 16.298,-1.206 8.367,-0.057 16.566,-1.652 24.854,-2.352 0.14,7.414 1.109,14.828 2.8,21.964 4.107,17.341 12.071,33.204 21.441,48.251 1.19,1.91 2.416,3.798 3.651,5.68 -5.41,0.961 -10.888,2.89 -16.144,4.008 -8.391,1.784 -16.721,3.876 -25.091,5.758 -8.278,1.861 -16.557,3.729 -24.785,5.805 -5.881,1.482 -11.97,2.756 -16.751,6.727 -8.753,7.27 -8.533,18.810003 -11.831,28.775003 -3.561,10.757 -12.586,13.582 -22.983,14.724 -9.386,1.029 -18.825,0.969 -28.244,1.408 -3.485,0.163 -6.979,0.276 -10.466,0.44 3.903,-6.848 7.827,-13.684 11.85,-20.463 z m -14.997,25.999 c 3.587,0.432 7.77,-0.19 10.678,-0.254 8.826,-0.19 17.677,-0.222 26.486,-0.854 9.448,-0.68 20.513,-1.544 27.494,-8.785 7.675,-7.963 6.888,-19.435 10.942,-29.060003 2.471,-5.861 6.788,-9.141 12.854,-10.858 8.47,-2.399 17.147,-4.187 25.737,-6.094 9.444,-2.098 18.861,-4.323 28.309,-6.403 6.412,-1.412 14.663,-1.915 20.53,-5.519 0.481,0.706 0.951,1.42 1.437,2.123 1.916,4.332 4.534,8.578 7.307,12.579 -15.611,0.198 -31.426,3.93 -46.489,7.585 -5.732,1.392 -12.412,2.368 -17.564,5.447 -4.813,2.878 -7.028,7.912003 -8.446,13.128003 -1.006,3.702 -1.556,7.513 -2.244,11.282 -0.553,3.021 -0.82,7.773 -2.619,10.414 -0.97,1.424 -1.943,1.392 -3.709,1.697 -3.864,0.668 -7.71,1.262 -11.534,2.143 -8.349,1.926 -16.485,4.527 -24.977,5.822 -8.94,1.362 -17.991,1.838 -26.987,2.705 -8.648,0.833 -17.206,1.984 -25.879,2.595 -2.271,0.161 -4.7,0.295 -7.15,0.538 1.945,-3.407 3.886,-6.818 5.824,-10.231 z m 66.248,88.691 c -20.935,0.922 -41.881,1.75 -62.839,1.769 -13.142,0.013 -26.543,0.239 -39.672,-0.641 -2.669,-0.179 -5.338,-0.41 -7.971,-0.892 -2.099,-0.385 -4.219,-1.572 -6.224,-1.941 0.114,-0.451 0.239,-0.979 0.402,-1.34 1.31,-2.901 3.308,-5.494 5.015,-8.1629996 4.827,-7.549 8.879,-15.625 13.418,-23.3520004 5.332,-9.081 10.75,-18.11 16.11,-27.175 1.477,-2.497 2.938,-5.003 4.394,-7.514 11.623,-2.395 23.599,-2.981 35.426,-4.223 17.236,-1.808 33.818,-3.15 50.631,-7.614 6.615,-1.757 13.576,-2.37 20.118,-4.226 4.139,-1.174 5.99,-4.124 7.261,-8.069 2.389,-7.421 2.486,-15.395 5.015,-22.773 2.059,-6.009003 6.288,-7.350003 12.008,-8.874003 18.089,-4.824 36.976,-7.561 54.7,-13.613 0.899,1.233 1.801,2.445 2.685,3.614 5.421,7.17 12.896,14.438003 21.191,18.127003 2.615,1.163 5.291,0.679 6.94,-1.819 3.092,-4.684003 6.047,-9.470003 8.88,-14.337003 12.295,6.557 24.485,13.155003 37.189,18.938003 6.593,3.002 13.204,5.961 19.907,8.711 2.867,1.176 6.888,2.113 10.072,3.805 -34.932,13.146 -71.93,18.989 -108.227,27.188 -19.461,4.396 -38.707,9.626 -58.203,13.892 -20.347,4.453 -40.719,8.732 -60.813,14.25 -1.662,0.456 -2.758,2.002 -2.809,3.688 -0.275,9.063 11.057,16.9030004 17.083,22.13000044 6.697,5.80899996 11.896,13.63999956 18.51,19.62899956 -6.731,0.258 -13.464,0.528 -20.197,0.825 z m 348.089,-0.293 c -10.023,0.155 -20.016,0.572 -30.046,0.465 -21.218,-0.226 -42.405,-1.482 -63.597,-2.482 -42.179,-1.992 -84.46,-1.654 -126.674,-1.158 -23.374,0.275 -46.748,0.734 -70.116,1.397 -8.74,-10.9539996 -22.991,-16.5109996 -31.402,-27.6169996 9.364,-3.4210004 19.385,-5.1240004 29.114,-7.0350004 11.84,-2.325 23.615,-5.029 35.392,-7.657 25.353,-5.658 50.55,-12.009 75.823,-18.01 12.577,-2.986 25.143,-6.028 37.637,-9.345 6.064,-1.609 12.189,-3.154 18.17,-5.056 4.936,-1.569 11.459,-6.105 16.762,-4.424 4.689,1.486 9.342,5.591 13.139,8.589 4.578,3.616 8.871,7.55 13.232,11.417 9.029,8.006 18.609,15.395 28.384,22.463 11.14,8.0570004 22.58,15.6820004 33.722,23.7370004 7.037,5.0889996 14.113,10.1279996 21.469,14.7179996 -0.344,-0.004 -0.684,-0.007 -1.009,-0.002 z m 22.229,-1.636 c -1.424,0.837 -3.099,1.353 -4.904,1.661 C 482.695,15.010023 472.418,7.9740234 462.283,0.74002344 451.885,-6.6819766 441.31,-13.823977 430.849,-21.154977 c -10.654,-7.465 -21.055,-15.295 -30.82,-23.9 -8.098,-7.133 -16.055,-14.697 -25.428,-20.173 -4.182,-2.442 -8.277,-3.647 -13.111,-2.597 -5.955,1.294 -11.609,4.271 -17.502,5.946 -13.063,3.713 -26.233,7.038 -39.434,10.228 -25.855,6.248 -51.705,12.628 -77.639,18.544 -14.484,3.304 -28.993,6.646 -43.568,9.529 -12.443,2.462 -24.99,4.501 -36.734,9.479 -1.971,0.835 -2.455,3.822 -1.438,5.4830004 7.86,12.838 21.761,19.0729996 33.552,27.6879996 -6.209,0.188 -12.418,0.379 -18.626,0.596 -0.285,-0.405 -0.681,-0.773 -1.204,-1.076 -8.965,-5.189 -14.434,-15.2359996 -22.068,-22.0639996 -3.166,-2.833 -6.407,-5.58 -9.427,-8.5730004 -1.675,-1.659 -4.643,-4.188 -6.013,-6.826 19.004,-4.837 38.221,-8.803 57.374,-12.988 19.497,-4.261 38.745,-9.484 58.207,-13.875 38.487,-8.682 77.845,-14.573 114.488,-29.819 2.166,-0.902 3.921,-3.439 2.349,-5.775 -2.98,-4.428 -7.687,-6.432 -12.539,-8.234 -7.339,-2.727 -14.564,-5.72 -21.775,-8.773 -13.803,-5.846003 -27.184,-12.671003 -41.136,-18.148003 7.153,-12.749 13.479,-26.026 19.017,-39.613 4.691,0.357 11.573,-1.848 14.282,-2.372 6.252,-1.208 13.546,-1.429 18.485,-5.989 5.888,-5.436 6.717,-15.008 7.927,-22.43 1.493,-9.161 2.486,-18.374 4.765,-27.355 0.379,-0.015 0.759,-0.023 1.138,-0.04 3.976,-0.175 8.089,-0.52 12.167,-0.492 -0.988,11.812 1.689,24.158 3.371,35.721 0.91,6.251 2.664,12.513 3.424,18.743 0.612,5.027 -3.298,6.042 -7.518,7.213 -7.674,2.127 -15.682,2.358 -23.43,4.059 -13.842,3.037 -27.348,7.866 -41.068,11.424 -3.277,0.85 -3.498,5.138 -0.897,6.863 11.632,7.719 25.089,11.99 38.081,16.792 14.901,5.507 29.569,11.89 44.09,18.326003 11.094,4.917 23.26,13.232 35.898,12.416 6.671,-0.431 13.293,-2.538 19.766,-4.092 6.871,-1.65 13.73,-3.348 20.595,-5.03 1.444,2.652 2.864,5.319 4.284,7.985 -1.474,0.563 -2.883,1.261 -4.096,1.842 -6.377,3.057 -13.148,4.318 -19.855,6.424 -5.286,1.659 -12.747,4.252 -15.828,9.246 -2.82,4.571 1.275,8.12 4.582,10.915 5.795,4.897 12.338,8.641 18.643,12.814 7.207,4.773 14.255,9.812 21.412,14.662 6.66,4.513 13.3,9.059 19.803,13.795 3.719,2.708 7.396,5.4770004 10.986,8.3520004 1.957,1.566 3.83,3.34 5.834,4.894 1.001,2.04800004 1.99,4.1 2.947,6.165 1.557,3.367 5.93,11.6709996 1.556,14.2399996 z"
     style="stroke-width:5.12000561" /><path
     inkscape:connector-curvature="0"
     id="path34"
     d="m 240.66,-199.73598 c 11.535,9.273 28.959,3.266 36.789,-8.096 9.448,-13.708 4.507,-35.352 -8.828,-44.752 -7.905,-5.572 -18.744,-5.731 -26.65,0.03 -7.784,5.672 -13.708,17.606 -12.283,27.614 0.126,9.497 3.644,19.312 10.972,25.204 z m 30.44,-14.11 c -4.646,7.601 -16.798,13.762 -24.866,7.771 -3.869,-2.873 -6.322,-7.329 -7.633,-12.116 4.396,0.912 9.836,0.516 13.936,0.668 6.681,0.247 13.819,0.966 20.434,-0.463 -0.46,1.452 -1.079,2.843 -1.871,4.14 z m -33.628,-15.224 c 0.345,-5.879 2.649,-11.104 6.406,-14.872 0.368,-0.326 0.745,-0.644 1.143,-0.942 5.067,-3.818 12.187,-4.402 17.659,-1.19 6.398,3.757 10.521,11.407 11.196,19.108 -0.537,-0.076 -1.113,-0.092 -1.724,-0.031 -5.403,0.547 -10.524,0.969 -16.003,0.947 -3.592,-0.014 -7.179,-0.181 -10.77,-0.203 -2.371,-0.016 -5.397,-0.217 -7.938,0.432 -0.04,-1.107 -0.032,-2.195 0.031,-3.249 z"
     style="stroke-width:5.12000561" /></g>
<g
   id="g36"
   transform="translate(93.101774,218.03418)">
</g>
<g
   id="g38"
   transform="translate(93.101774,218.03418)">
</g>
<g
   id="g40"
   transform="translate(93.101774,218.03418)">
</g>
<g
   id="g42"
   transform="translate(93.101774,218.03418)">
</g>
<g
   id="g44"
   transform="translate(93.101774,218.03418)">
</g>
<g
   id="g46"
   transform="translate(93.101774,218.03418)">
</g>
<g
   id="g48"
   transform="translate(93.101774,218.03418)">
</g>
<g
   id="g50"
   transform="translate(93.101774,218.03418)">
</g>
<g
   id="g52"
   transform="translate(93.101774,218.03418)">
</g>
<g
   id="g54"
   transform="translate(93.101774,218.03418)">
</g>
<g
   id="g56"
   transform="translate(93.101774,218.03418)">
</g>
<g
   id="g58"
   transform="translate(93.101774,218.03418)">
</g>
<g
   id="g60"
   transform="translate(93.101774,218.03418)">
</g>
<g
   id="g62"
   transform="translate(93.101774,218.03418)">
</g>
<g
   id="g64"
   transform="translate(93.101774,218.03418)">
</g>
<text
   xml:space="preserve"
   style="font-style:normal;font-variant:normal;font-weight:normal;font-stretch:normal;font-size:48px;line-height:1.25;font-family:Odelette;-inkscape-font-specification:'Odelette, Normal';font-variant-ligatures:normal;font-variant-caps:normal;font-variant-numeric:normal;font-feature-settings:normal;text-align:center;letter-spacing:0px;word-spacing:0px;writing-mode:lr-tb;text-anchor:middle;fill:#459b53;fill-opacity:1;stroke:none"
   x="201.08308"
   y="71.121773"
   id="text869"><tspan
     sodipodi:role="line"
     id="tspan913"
     x="201.08308"
     y="71.121773">Appuntamenti</tspan></text>

</svg>