<?xml version="1.0" encoding="UTF-8" standalone="no"?>
<svg
   xmlns:dc="http://purl.org/dc/elements/1.1/"
   xmlns:cc="http://creativecommons.org/ns#"
   xmlns:rdf="http://www.w3.org/1999/02/22-rdf-syntax-ns#"
   xmlns:svg="http://www.w3.org/2000/svg"
   xmlns="http://www.w3.org/2000/svg"
   xmlns:sodipodi="http://sodipodi.sourceforge.net/DTD/sodipodi-0.dtd"
   xmlns:inkscape="http://www.inkscape.org/namespaces/inkscape"
   height="128"
   viewBox="0 -3 225.17031 95.999997"
   width="300"
   version="1.1"
   id="svg32"
   sodipodi:docname="logo_promesse_con_scritta.svg"
   inkscape:export-filename="C:\Deto\GitHub\100giorni\il-matrimonio-di-claudia-e-samuele\html5\assets\images\logo_promesse_con_scritta.png"
   inkscape:export-xdpi="96"
   inkscape:export-ydpi="96"
   inkscape:version="0.92.3 (2405546, 2018-03-11)">
  <metadata
     id="metadata38">
    <rdf:RDF>
      <cc:Work
         rdf:about="">
        <dc:format>image/svg+xml</dc:format>
        <dc:type
           rdf:resource="http://purl.org/dc/dcmitype/StillImage" />
        <dc:title></dc:title>
      </cc:Work>
    </rdf:RDF>
  </metadata>
  <defs
     id="defs36" />
  <sodipodi:namedview
     pagecolor="#ffffff"
     bordercolor="#666666"
     borderopacity="1"
     objecttolerance="10"
     gridtolerance="10"
     guidetolerance="10"
     inkscape:pageopacity="0"
     inkscape:pageshadow="2"
     inkscape:window-width="1920"
     inkscape:window-height="1057"
     id="namedview34"
     showgrid="false"
     inkscape:zoom="1.0930821"
     inkscape:cx="-325.85238"
     inkscape:cy="-71.510995"
     inkscape:window-x="-8"
     inkscape:window-y="-8"
     inkscape:window-maximized="1"
     inkscape:current-layer="svg32"
     units="px" />
  <g
     id="g892"
     transform="translate(0,-12.509474)">
    <path
       id="path2"
       d="M 5.0534955,60.916288 23.834159,79.696952 43.261247,60.916288 15.315618,53.949736 Z m 0,0"
       inkscape:connector-curvature="0"
       style="fill:#ffb74d;stroke-width:1" />
    <path
       id="path4"
       d="M 45.756056,59.257448 31.154013,44.655406 26.193051,39.694035 c -5.186942,-5.186943 -13.596176,-5.186943 -18.7806632,0 -5.1873526,5.187353 -5.1873526,13.596177 0,18.781074 L 26.975392,78.038113 c 1.296941,1.29694 3.398328,1.29694 4.695268,0 1.296941,-1.296531 1.296941,-3.398328 0,-4.695269 1.296941,1.296941 3.398328,1.296941 4.695269,0 1.29653,-1.29653 1.29653,-3.398327 0,-4.694859 1.29653,1.296532 3.398327,1.296532 4.695268,0 1.296532,-1.296941 1.296532,-3.398737 0,-4.695268 1.296532,1.296531 3.398328,1.296531 4.694859,0 1.296941,-1.296941 1.296941,-3.398328 0,-4.695269 z m 0,0"
       inkscape:connector-curvature="0"
       style="fill:#ff8080;stroke-width:1" />
    <g
       transform="matrix(0.10480327,0,0,0.10480327,2.1849153,34.454281)"
       id="g16"
       style="fill:#ff2a2a;stroke-width:9.54168701">
      <path
         id="path6"
         d="m 215.59375,410.31641 c 0,17.49609 -14.18359,31.67968 -31.67969,31.67968 -17.49609,0 -31.67969,-14.18359 -31.67969,-31.67968 0,-17.4961 14.1836,-31.67969 31.67969,-31.67969 17.4961,0 31.67969,14.18359 31.67969,31.67969 z m 0,0"
         inkscape:connector-curvature="0"
         style="fill:#ff2a2a;stroke-width:9.54168701" />
      <path
         id="path8"
         d="m 170.34766,365.07031 c 0,17.4961 -14.1836,31.67969 -31.67969,31.67969 -17.49609,0 -31.67969,-14.18359 -31.67969,-31.67969 0,-17.49609 14.1836,-31.67969 31.67969,-31.67969 17.49609,0 31.67969,14.1836 31.67969,31.67969 z m 0,0"
         inkscape:connector-curvature="0"
         style="fill:#ff2a2a;stroke-width:9.54168701" />
      <path
         id="path10"
         d="m 125.09766,319.80078 c 0,17.49609 -14.1836,31.67969 -31.679691,31.67969 -17.496094,0 -31.679688,-14.1836 -31.679688,-31.67969 0,-17.49609 14.183594,-31.67969 31.679688,-31.67969 17.496091,0 31.679691,14.1836 31.679691,31.67969 z m 0,0"
         inkscape:connector-curvature="0"
         style="fill:#ff2a2a;stroke-width:9.54168701" />
      <path
         id="path12"
         d="m 79.828125,274.55078 c 0,17.49609 -14.183594,31.67969 -31.679687,31.67969 -17.496094,0 -31.679688,-14.1836 -31.679688,-31.67969 0,-17.49609 14.183594,-31.67969 31.679688,-31.67969 17.496093,0 31.679687,14.1836 31.679687,31.67969 z m 0,0"
         inkscape:connector-curvature="0"
         style="fill:#ff2a2a;stroke-width:9.54168701" />
      <path
         id="path14"
         d="M 409.04687,48.996094 C 359.55078,-0.5 279.31641,-0.5 229.84375,48.996094 l -14.93359,14.933594 -62.69532,62.675782 c -17.89843,17.89844 -8.62109,48.51172 16.19141,53.46094 10.38672,2.07031 21.11719,-1.17188 28.60547,-8.66016 L 274.625,93.792969 409.02344,228.19531 c 49.49218,-49.47265 49.49218,-129.707029 0.0234,-179.199216 z m 0,0"
         inkscape:connector-curvature="0"
         style="fill:#ff2a2a;stroke-width:9.54168701" />
    </g>
    <path
       id="path18"
       d="m 29.365398,80.347878 c -1.193775,0 -2.316317,-0.465064 -3.161293,-1.310449 L 6.4417294,59.277509 C 3.696375,56.532155 2.1849153,52.883281 2.1849153,48.99942 c 0,-3.883453 1.5114597,-7.52987 4.2568141,-10.275634 5.6655176,-5.665517 14.8861586,-5.667564 20.5516756,0 0.435998,0.435998 0.435998,1.144648 0,1.580646 -0.435998,0.435998 -1.144648,0.435998 -1.580646,0 -4.795978,-4.795568 -12.596452,-4.795568 -17.3899741,0 -2.3232756,2.323276 -3.602203,5.410879 -3.602203,8.694988 0,3.284517 1.2789274,6.37212 3.602203,8.695396 l 19.7619661,19.75992 c 0.845386,0.844976 2.316317,0.844976 3.161702,0 0.422488,-0.422488 0.65502,-0.983759 0.65502,-1.580647 0,-0.597296 -0.232532,-1.158158 -0.65502,-1.581055 L 28.574051,71.92104 c -0.219022,-0.219022 -0.326282,-0.505184 -0.326282,-0.791346 0,-0.286162 0.109306,-0.572324 0.326282,-0.791755 0.435998,-0.435999 1.144648,-0.435999 1.580647,0 l 2.372401,2.372401 c 0.86954,0.86954 2.289296,0.871997 3.163749,0 0.422488,-0.422488 0.65502,-0.983758 0.65502,-1.580646 0,-0.597297 -0.232532,-1.158158 -0.65502,-1.580646 l -2.372402,-2.372403 c -0.219023,-0.219022 -0.326281,-0.505184 -0.326281,-0.791346 0,-0.286162 0.109305,-0.572324 0.326281,-0.791756 0.435998,-0.435998 1.144648,-0.435998 1.580647,0 l 2.372402,2.372402 c 0.871996,0.871997 2.291752,0.86954 3.161292,0 0.871996,-0.871996 0.871996,-2.289705 0,-3.163749 l -2.371993,-2.371992 c -0.219431,-0.219432 -0.326691,-0.505594 -0.326691,-0.791756 0,-0.286163 0.109715,-0.572324 0.326691,-0.791347 0.435998,-0.435997 1.144648,-0.435997 1.580647,0 l 2.371992,2.371993 c 0.871996,0.871996 2.291753,0.86995 3.163749,0 0.422488,-0.422488 0.65502,-0.983758 0.65502,-1.580646 0,-0.596887 -0.232532,-1.158158 -0.65502,-1.580646 L 30.42776,45.308379 c -0.435999,-0.435998 -0.435999,-1.144648 0,-1.580646 0.435997,-0.435998 1.144647,-0.435998 1.580646,0 l 14.749422,14.749423 c 0.845386,0.842929 1.310041,1.965061 1.310041,3.161292 0,1.194184 -0.464655,2.316316 -1.310041,3.161702 -0.912116,0.909659 -2.16648,1.368174 -3.442951,1.301034 0.0045,0.09416 0.009,0.185452 0.009,0.279612 0,1.193775 -0.465064,2.316315 -1.31045,3.161292 -0.941183,0.941182 -2.206601,1.377181 -3.440904,1.298988 0.0045,0.09416 0.009,0.187909 0.009,0.281659 0,1.194184 -0.465064,2.316316 -1.310041,3.161701 -0.943639,0.941182 -2.21356,1.368174 -3.44336,1.298988 0.0045,0.09375 0.009,0.187499 0.009,0.281659 0,1.196231 -0.465064,2.318362 -1.310041,3.161292 -0.845385,0.856439 -1.967516,1.321503 -3.1617,1.321503 z m 0,0"
       inkscape:connector-curvature="0"
       style="stroke-width:1" />
    <path
       id="path20"
       d="m 21.45971,81.926069 c -1.144648,0 -2.289296,-0.435999 -3.161292,-1.305538 -1.741945,-1.743992 -1.741945,-4.581049 0,-6.325042 1.741536,-1.743991 4.579003,-1.743991 6.325041,0 1.741536,1.743993 1.741536,4.58105 0,6.325042 -0.871996,0.869539 -2.0191,1.305538 -3.163749,1.305538 z m -1.580646,-2.88864 c 0.86954,0.869948 2.289297,0.871995 3.163749,0 0.871996,-0.871997 0.871996,-2.289297 0,-3.16334 -0.874452,-0.874453 -2.291753,-0.869949 -3.163749,0 -0.871996,0.871996 -0.871996,2.291343 0,3.16334 z m 0,0"
       inkscape:connector-curvature="0"
       style="stroke-width:1" />
    <path
       id="path22"
       d="m 16.717772,77.186176 c -1.194184,0 -2.318772,-0.465064 -3.161702,-1.310041 -0.844976,-0.844976 -1.310041,-1.967516 -1.310041,-3.161292 0,-1.196231 0.465065,-2.318772 1.310041,-3.161702 1.688316,-1.689952 4.635088,-1.689952 6.322994,0 0.844976,0.84293 1.310041,1.965471 1.310041,3.161702 0,1.193776 -0.465065,2.316316 -1.310041,3.161292 -0.842929,0.844977 -1.967518,1.310041 -3.161292,1.310041 z m 0,-6.707409 c -0.597297,0 -1.158158,0.232532 -1.580646,0.65543 -0.422898,0.422488 -0.65543,0.983759 -0.65543,1.580646 0,0.596887 0.232532,1.158158 0.65543,1.580646 0.844976,0.844977 2.315906,0.844977 3.161292,0 0.422488,-0.422488 0.65502,-0.983759 0.65502,-1.580646 0,-0.596887 -0.232532,-1.158158 -0.65502,-1.580646 -0.422488,-0.422898 -0.983759,-0.65543 -1.580646,-0.65543 z m 0,0"
       inkscape:connector-curvature="0"
       style="stroke-width:1" />
    <path
       id="path24"
       d="m 11.973377,72.439735 c -1.144648,0 -2.2897059,-0.435998 -3.1617018,-1.305538 -1.7415356,-1.743991 -1.7415356,-4.581458 0,-6.32545 1.7419448,-1.741535 4.5790028,-1.741535 6.3254508,0 1.741535,1.743992 1.741535,4.581459 0,6.32545 -0.871996,0.86954 -2.017054,1.305538 -3.163749,1.305538 z m -1.580646,-2.886594 c 0.871586,0.871997 2.291343,0.871997 3.163339,0 0.871996,-0.871586 0.871996,-2.289296 0,-3.163339 -0.871996,-0.871995 -2.291753,-0.869948 -3.163339,0 -0.8699492,0.871996 -0.8699492,2.289297 0,3.163339 z m 0,0"
       inkscape:connector-curvature="0"
       style="stroke-width:1" />
    <path
       id="path26"
       d="m 7.231029,67.699843 c -1.1937748,0 -2.316316,-0.465064 -3.1612924,-1.310041 -0.8449764,-0.842929 -1.3100409,-1.967517 -1.3100409,-3.161701 0,-1.193775 0.4650645,-2.318363 1.3100409,-3.161293 1.6903621,-1.690362 4.6371353,-1.687906 6.3229944,0 0.844976,0.84293 1.310041,1.967518 1.310041,3.161293 0,1.194184 -0.465065,2.318772 -1.310041,3.161701 -0.8429296,0.844977 -1.9654709,1.310041 -3.161702,1.310041 z m 0,-6.707409 c -0.5968874,0 -1.158158,0.232532 -1.5806462,0.65502 -0.4224882,0.422489 -0.6550205,0.983759 -0.6550205,1.580647 0,0.596887 0.2325323,1.158157 0.6550205,1.580646 0.8449763,0.845386 2.3163161,0.845386 3.1612924,0 0.4228976,-0.422489 0.6554298,-0.983759 0.6554298,-1.580646 0,-0.596888 -0.2325322,-1.158158 -0.6554298,-1.580647 C 8.389187,61.224966 7.8279164,60.992434 7.231029,60.992434 Z m 0,0"
       inkscape:connector-curvature="0"
       style="stroke-width:1" />
    <path
       id="path28"
       d="m 45.175135,59.603791 c -0.286572,0 -0.572734,-0.109307 -0.791756,-0.326282 -0.435998,-0.435999 -0.435998,-1.144649 0,-1.580646 2.323275,-2.322867 3.601794,-5.410469 3.601794,-8.694988 0,-3.284518 -1.278519,-6.374167 -3.601794,-8.694986 -4.795568,-4.795978 -12.596453,-4.793522 -17.389974,0 l -8.216412,8.214366 c -0.592794,0.592383 -0.80281,1.426306 -0.559224,2.229116 0.243994,0.8024 0.878955,1.379227 1.701415,1.54462 0.735671,0.147788 1.4914,-0.0827 2.019101,-0.610397 l 8.216413,-8.216413 c 0.435997,-0.435998 1.144647,-0.435998 1.580646,0 0.435997,0.435998 0.435997,1.144648 0,1.580646 l -8.216413,8.216822 c -1.059905,1.059495 -2.570955,1.515553 -4.037791,1.222842 -1.64574,-0.330785 -2.917708,-1.486897 -3.402831,-3.092106 -0.485125,-1.60521 -0.06714,-3.271009 1.117628,-4.458233 l 8.216822,-8.216413 c 5.665518,-5.665517 14.885749,-5.665517 20.551266,0 2.745764,2.745355 4.257224,6.394228 4.257224,10.275633 0,3.881406 -1.51146,7.532326 -4.257224,10.275633 -0.216566,0.221479 -0.502728,0.330786 -0.78889,0.330786 z m 0,0"
       inkscape:connector-curvature="0"
       style="stroke-width:1" />
    <path
       id="path30"
       d="m 31.250219,71.357723 c -0.279202,0 -0.560861,-0.105212 -0.777836,-0.315229 -0.442959,-0.429447 -0.454012,-1.138097 -0.02456,-1.580646 l 2.170983,-2.236076 c 0.429038,-0.442548 1.137689,-0.453601 1.580647,-0.02456 0.442547,0.429447 0.453601,1.138098 0.02456,1.580646 l -2.170983,2.236077 c -0.219023,0.225572 -0.512144,0.339791 -0.80281,0.339791 z m 0,0"
       inkscape:connector-curvature="0"
       style="stroke-width:1" />
  </g>
  <text
     xml:space="preserve"
     style="font-style:normal;font-variant:normal;font-weight:normal;font-stretch:normal;font-size:36.02724838px;line-height:1.25;font-family:Odelette;-inkscape-font-specification:'Odelette, Normal';font-variant-ligatures:normal;font-variant-caps:normal;font-variant-numeric:normal;font-feature-settings:normal;text-align:center;letter-spacing:0px;word-spacing:0px;writing-mode:lr-tb;text-anchor:middle;fill:#ff2a2a;fill-opacity:1;stroke:none;stroke-width:0.75056767"
     x="123.32021"
     y="56.119312"
     id="text869"><tspan
       sodipodi:role="line"
       id="tspan902"
       x="123.32021"
       y="56.119312">Promesse</tspan></text>
</svg>
