<?xml version="1.0" encoding="iso-8859-1"?>
<!-- Generator: Adobe Illustrator 19.0.0, SVG Export Plug-In . SVG Version: 6.00 Build 0)  -->
<svg version="1.1" id="Layer_1" xmlns="http://www.w3.org/2000/svg" xmlns:xlink="http://www.w3.org/1999/xlink" x="0px" y="0px"
	 viewBox="0 0 254.295 254.295" style="enable-background:new 0 0 254.295 254.295;" xml:space="preserve">
<g>
	<path style="fill:#1D1D1B;" d="M202.786,71.878c1.808-0.04,3.617-0.04,5.425-0.04c1.045,0,1.607,0.603,1.768,1.366
		c1.447,0.281,2.813,0.924,4.059,1.808c0.04-0.12,0-0.201,0.08-0.322c2.17-2.25,4.3-4.501,6.47-6.751
		c-4.34-0.482-8.359,0-12.578,1.527C206.282,70.11,204.554,71.074,202.786,71.878z M253.742,194.163
		c0.563,0.482,0.804,1.286,0.201,2.09c-4.501,6.59-11.051,10.85-17.481,15.431c-7.354,5.224-14.828,10.207-22.665,14.668
		c-2.331,2.974-5.706,4.581-10.689,3.577c-0.281,0.12-0.563,0.201-0.924,0.161c-35.926-0.964-71.772-3.014-107.698-2.371
		c-22.504,0.442-47.419,4.541-70.004-0.161c-3.134,0.402-6.51-0.12-9.644-0.964c-0.08,0-0.121,0.04-0.161,0.04
		c-18.927-1.93-13.502-30.663-13.824-43.924c-0.844-32.35-1.929-65.744,1.527-98.053c-0.08-0.362-0.04-0.683,0.121-0.965
		c0.201-1.889,0.362-3.777,0.603-5.666c0.08-3.134,0.683-5.988,2.652-8.238c0.04-0.161,0.04-0.281,0.161-0.402
		c6.028-6.269,13.101-11.654,19.932-17.079c4.621-3.737,9.484-7.917,15.19-9.765c0.121-0.201,0.281-0.362,0.563-0.482
		c5.264-2.17,10.247-1.005,15.793-0.522c7.274,0.643,14.427,0.241,21.74,0.322c0.322,0,0.603,0.121,0.804,0.281
		c5.425-10.167,15.311-16.356,29.778-17.883c14.266-1.527,24.875,6.269,31.425,17.159c34.479-1.889,69.923,0.482,104.282,3.335
		c0.924,0.08,1.406,0.683,1.527,1.406c0.08,0.04,0.121,0.04,0.201,0.121c9.363,16.155,5.345,44.727,5.988,62.89
		C254.103,137.501,254.304,165.832,253.742,194.163z M249.964,186.568c0.241-21.901,0.161-43.802-0.442-65.704
		c-0.563-19.611,0.241-40.989-2.09-61.002c-3.898,1.407-8.921,0.362-12.136-1.969c-0.08-0.04-0.121-0.121-0.201-0.161
		c-3.094,2.733-6.108,5.586-9.122,8.439c4.943,10.408,1.929,22.986-6.992,29.898c1.005,35.042,0.442,70.325-0.04,105.327
		c0,2.009-0.121,4.3-0.241,6.671c1.567,0.402,3.054,1.206,4.26,2.411c1.125,1.165,2.411,3.014,2.371,4.702
		c1.447-1.045,2.934-2.049,4.38-3.094c3.175-2.29,6.51-4.501,9.685-6.912c0-0.08-0.08-0.121-0.08-0.241
		c0-6.229,3.536-16.315,10.167-18.405C249.643,186.488,249.804,186.528,249.964,186.568z M249.884,194.886
		c0.04-1.849,0.04-3.657,0.08-5.506c-1.688,2.09-3.818,3.778-5.224,6.148c-1.447,2.451-2.331,5.063-2.893,7.756
		c2.974-2.371,5.787-4.943,8.118-7.957C249.964,195.168,249.884,195.047,249.884,194.886z M247.031,56.447
		c-0.362-2.451-0.723-4.903-1.165-7.314c-2.853,2.009-5.586,4.179-8.238,6.47C240.762,57.451,243.735,57.13,247.031,56.447z
		 M242.048,47.968c-3.255-0.161-6.55-0.241-9.846-0.402c0.522,2.13,1.407,4.139,2.773,5.787
		C237.145,51.263,239.436,49.294,242.048,47.968z M231.398,56.889c0.442-0.482,0.924-0.924,1.366-1.407
		c-1.808-2.25-2.813-5.063-2.813-7.997c-29.175-1.125-58.51-1.728-87.565-3.938c2.853,5.345,4.782,11.292,5.787,17.2
		c0.121,0.844-0.241,1.447-0.804,1.808c-0.683,2.692-4.34,3.898-7.073,3.898c-0.281,0-0.522,0-0.764-0.04
		c-2.733-0.201-6.148-0.965-6.952-3.456c-0.723,0-1.447-0.362-1.567-1.165c-0.844-5.907-2.451-12.297-5.706-16.838
		c-8.68-0.241-17.36-0.402-26.04-0.723c-5.023,4.179-7.997,10.328-10.328,17.24c-0.04,0.161-0.121,0.201-0.201,0.281
		c-0.04,0.08,0,0.121-0.04,0.161c-2.371,5.023-10.689,3.376-13.422-0.281c-0.08-0.08-0.08-0.161-0.121-0.241
		c-0.08-0.201-0.04-0.402,0-0.563c0-0.04-0.04-0.04-0.04-0.08c0.362-5.948,1.567-11.172,3.496-15.753
		c-5.586,0.804-11.252,0.764-16.878,0.402c-3.014-0.161-6.108-0.683-9.202-1.085c-0.964,2.974-3.978,5.465-6.791,6.47
		c-3.496,1.246-7.113,0.683-10.167-1.125c-3.416,2.371-6.872,4.742-10.127,7.394c-0.764,0.603-1.527,1.246-2.331,1.889
		c1.286,0.723,2.21,2.291,2.853,3.496c0.723,1.406,1.005,2.813,1.085,4.3c1.326,0.161,2.612,0.321,3.737,0.362
		c11.493,0.643,23.026,1.326,34.52,1.969c1.125,0.08,2.291,0.121,3.416,0.161c23.83,1.286,47.66,2.09,71.49,2.451
		c19.289,0.322,38.578,0.362,57.867,0.201c2.451-3.054,7.073-4.742,10.649-5.988c4.662-1.567,9.725-2.17,14.467-0.683
		C225.893,62.434,228.626,59.621,231.398,56.889z M218.901,93.096c5.827-6.992,7.394-15.351,4.702-24.674
		c-2.692,2.572-5.385,5.144-8.118,7.635c0,0,0,0-0.04,0.04c1.406,1.447,3.335,4.3,3.134,6.51c0,0.08,0.04,0.161,0.04,0.241
		C218.78,86.265,218.82,89.68,218.901,93.096z M216.369,221.489c2.21-1.527,4.42-3.094,6.631-4.662
		c-1.206-0.964-1.206-3.094-2.09-4.42c-0.643-0.924-1.447-1.648-2.371-2.21C218.218,214.095,217.615,218.114,216.369,221.489z
		 M215.083,196.614c1.487-18.566-0.362-40.065-0.362-46.575c0.04-16.838-0.241-33.716,0.04-50.554
		c-0.161,0.08-0.322,0.12-0.522,0.12c-6.189-0.08-10.488-4.822-14.145-9.243c-3.496-4.219-6.148-9.082-4.501-14.386
		c-31.907,0.804-63.775,0.603-95.642-0.764C81.988,74.45,64.065,73.325,46.143,72.2c-5.706-0.362-12.578-1.447-18.726-1.527
		c-1.125,5.465-3.657,10.729-8.278,14.025c-4.059,2.893-9.243,3.777-13.703,1.969c0,0.04,0,0.08-0.04,0.161
		c0.161,20.254-0.924,40.628-0.924,60.922c0,11.654,0.161,23.308,0.482,34.962c0.161,5.988-0.201,12.538,0.522,18.485
		c11.774,0.482,20.455,10.288,20.856,22.062c26.482,2.773,52.724,0,79.688-0.201c27.728-0.201,55.496,0.643,83.184,2.17
		c3.175-10.649,13.543-18.365,24.674-18.566c0.482-2.652,0.804-5.505,1.085-8.399c-0.161,0.04-0.281,0.08-0.442,0.04
		c-2.652-0.965-4.943-1.889-7.836-1.607c-1.085,0.08-1.326-1.768-0.241-1.929C209.417,194.324,212.712,194.645,215.083,196.614z
		 M214.842,96.15c0.08-4.059,0.161-8.118,0.321-12.176c-0.402-0.563-0.482-1.125-0.763-2.009c-0.322-1.125-0.884-2.09-1.688-2.934
		c-1.648-1.768-4.019-2.853-6.43-2.773c-0.482,0-0.844-0.201-1.085-0.482c-2.492,0.08-4.983,0.08-7.475,0.161
		c-0.241,5.264,2.371,9.283,5.827,13.181c2.893,3.175,6.068,6.872,10.689,6.912C214.48,96.03,214.681,96.07,214.842,96.15z
		 M203.108,226.231c5.063-1.607,8.158-7.716,10.006-15.793c-9.363,0.924-16.999,6.309-21.138,14.949
		c3.376,0.201,6.791,0.322,10.207,0.563C202.545,225.95,202.826,226.071,203.108,226.231z M144.557,60.385
		c0-0.04,0.04-0.04,0.04-0.08c-4.3-19.691-16.516-36.167-39.382-31.988c-18.887,3.456-24.232,15.311-27.849,31.907
		c1.487,1.005,3.094,1.728,4.943,1.728c1.728-0.04,3.134-0.844,4.742-1.366c1.969-13.743,10.93-24.513,25.88-25.116
		c14.828-0.563,20.012,13.422,21.419,25.839c0.563,1.808,3.737,1.848,5.184,1.969C142.146,63.439,143.834,62.957,144.557,60.385z
		 M102.443,42.06c6.43-1.125,13.342-1.206,19.812-0.321c-3.054-2.451-7.193-3.577-12.659-2.411
		C106.863,39.89,104.492,40.855,102.443,42.06z M49.237,43.989c-2.049-0.201-4.059-0.281-6.068-0.08
		c-0.08,0.161-0.08,0.281-0.201,0.362c-1.688,1.326-3.416,2.572-5.144,3.818c2.21,0.844,4.621,1.005,6.992,0
		C47.027,47.164,48.112,45.637,49.237,43.989z M24.965,66.493c-0.362-1.085-0.844-2.09-1.447-3.014
		c-0.683-1.045-1.808-1.808-2.451-2.853c-2.17,1.768-4.34,3.496-6.55,5.224C17.852,65.609,21.549,66.051,24.965,66.493z
		 M23.438,70.793c-0.08,0-0.201,0-0.321,0c-8.68-2.612-14.266,1.366-16.757,11.935c-0.04,0.442-0.161,0.924-0.241,1.366
		C14.958,86.144,21.067,78.911,23.438,70.793z M22.594,222.856c-0.482-9.805-7.475-17.159-16.798-19.169
		c0.723,4.903,2.21,13.382,5.907,17.441C15.36,221.851,18.977,222.373,22.594,222.856z"/>
	<path style="fill:#CA9E67;" d="M249.522,120.864c0.603,21.901,0.683,43.802,0.442,65.704c-0.161-0.04-0.322-0.08-0.482-0.04
		c-6.631,2.09-10.167,12.176-10.167,18.405c0,0.12,0.08,0.161,0.08,0.241c-3.175,2.411-6.51,4.621-9.685,6.912
		c-1.447,1.045-2.934,2.049-4.38,3.094c0.04-1.688-1.246-3.536-2.371-4.702c-1.206-1.206-2.693-2.009-4.26-2.411
		c0.12-2.371,0.241-4.662,0.241-6.671c0.482-35.002,1.045-70.285,0.04-105.327c8.921-6.912,11.935-19.49,6.992-29.898
		c3.014-2.853,6.028-5.706,9.122-8.439c0.08,0.04,0.121,0.12,0.201,0.161c3.215,2.331,8.238,3.376,12.136,1.969
		C249.763,79.875,248.96,101.254,249.522,120.864z M227.139,149.637c1.648-3.416,2.451-6.952,1.929-10.73
		c-0.121-0.924-1.567-0.643-1.607,0.241c-0.121,3.376-0.563,6.671-1.849,9.845C225.29,149.878,226.737,150.481,227.139,149.637z
		 M223.844,144.654c0.402-4.581,0.563-9.243-0.281-13.784c-0.161-0.884-1.648-0.683-1.567,0.201
		c0.281,4.541,0.764,9.042,0.764,13.583C222.759,145.378,223.803,145.337,223.844,144.654z"/>
	<path style="fill:#A9805F;" d="M249.964,189.381c-0.04,1.849-0.04,3.657-0.08,5.506c0,0.161,0.08,0.281,0.08,0.442
		c-2.331,3.014-5.144,5.586-8.118,7.957c0.563-2.693,1.447-5.305,2.893-7.756C246.147,193.158,248.276,191.471,249.964,189.381z"/>
	<path style="fill:#A9805F;" d="M245.865,49.133c0.442,2.411,0.804,4.862,1.165,7.314c-3.295,0.683-6.269,1.005-9.404-0.844
		C240.28,53.312,243.012,51.142,245.865,49.133z"/>
	<path style="fill:#A9805F;" d="M232.202,47.566c3.295,0.161,6.59,0.241,9.846,0.402c-2.612,1.326-4.903,3.295-7.073,5.385
		C233.609,51.705,232.725,49.696,232.202,47.566z"/>
	<path style="fill:#CA9E67;" d="M232.765,55.482c-0.442,0.482-0.924,0.924-1.366,1.407c-2.773,2.733-5.505,5.546-8.198,8.318
		c-4.742-1.487-9.805-0.884-14.467,0.683c-3.577,1.246-8.198,2.934-10.649,5.988c-19.289,0.161-38.578,0.121-57.867-0.201
		l0.08-5.224c2.733,0,6.389-1.206,7.073-3.898c0.563-0.362,0.924-0.965,0.804-1.808c-1.005-5.907-2.934-11.855-5.787-17.2
		c29.054,2.21,58.39,2.813,87.565,3.938C229.952,50.419,230.956,53.232,232.765,55.482z M224.848,59.541
		c1.045,0.522,1.929-1.005,0.924-1.567c-2.853-1.527-5.787-2.25-9.002-2.13c-1.165,0-1.165,1.768,0,1.808
		C219.584,57.652,222.317,58.295,224.848,59.541z M154.805,59.099c0.442,1.487,2.692,0.844,2.371-0.683
		c-0.281-1.326-0.563-2.692-0.884-4.059c-0.322-1.688-3.135-0.965-2.612,0.764C154.041,56.447,154.443,57.773,154.805,59.099z
		 M150.746,56.447c0.121,0.884,1.487,0.643,1.487-0.201c0-2.25-1.045-4.139-2.733-5.586c-0.723-0.603-1.808,0.402-1.085,1.085
		C149.781,53.071,150.424,54.638,150.746,56.447z"/>
	<path style="fill:#1D1D1B;" d="M229.068,138.908c0.522,3.777-0.281,7.314-1.929,10.73c-0.402,0.844-1.849,0.241-1.527-0.643
		c1.286-3.175,1.728-6.47,1.849-9.845C227.5,138.265,228.947,137.984,229.068,138.908z"/>
	<path style="fill:#1D1D1B;" d="M225.773,57.974c1.005,0.563,0.121,2.09-0.924,1.567c-2.532-1.246-5.264-1.889-8.077-1.889
		c-1.165-0.04-1.165-1.808,0-1.808C219.986,55.723,222.919,56.447,225.773,57.974z"/>
	<path style="fill:#A9805F;" d="M223.602,68.422c2.692,9.323,1.125,17.682-4.702,24.674c-0.08-3.416-0.121-6.832-0.281-10.247
		c0-0.08-0.04-0.161-0.04-0.241c0.201-2.21-1.728-5.063-3.134-6.51c0.04-0.04,0.04-0.04,0.04-0.04
		C218.218,73.566,220.91,70.994,223.602,68.422z"/>
	<path style="fill:#1D1D1B;" d="M223.562,130.871c0.844,4.541,0.683,9.202,0.281,13.784c-0.04,0.683-1.085,0.723-1.085,0
		c0-4.541-0.482-9.042-0.764-13.583C221.915,130.187,223.402,129.987,223.562,130.871z"/>
	<path style="fill:#A9805F;" d="M223,216.828c-2.21,1.567-4.42,3.134-6.631,4.662c1.246-3.376,1.848-7.394,2.17-11.292
		c0.924,0.563,1.728,1.286,2.371,2.21C221.794,213.734,221.794,215.863,223,216.828z"/>
	<path style="fill:#A9805F;" d="M220.589,67.94c-2.17,2.25-4.3,4.501-6.47,6.751c-0.08,0.121-0.04,0.201-0.08,0.322
		c-1.246-0.884-2.612-1.527-4.059-1.808c-0.161-0.764-0.723-1.366-1.768-1.366c-1.808,0-3.617,0-5.425,0.04
		c1.768-0.804,3.496-1.768,5.224-2.411C212.23,67.94,216.248,67.458,220.589,67.94z"/>
	<path style="fill:#CA9E67;" d="M214.721,150.039c0,6.51,1.848,28.009,0.362,46.575c-2.371-1.969-5.666-2.291-8.64-1.849
		c-1.085,0.161-0.844,2.009,0.241,1.929c2.893-0.281,5.184,0.643,7.836,1.607c0.161,0.04,0.281,0,0.442-0.04
		c-0.281,2.893-0.603,5.747-1.085,8.399c-11.131,0.201-21.499,7.917-24.674,18.566c-27.688-1.527-55.456-2.371-83.184-2.17
		c-26.965,0.201-53.206,2.974-79.688,0.201c-0.402-11.774-9.082-21.58-20.856-22.062c-0.723-5.947-0.362-12.498-0.522-18.485
		c-0.321-11.654-0.482-23.308-0.482-34.962c0-20.294,1.085-40.668,0.924-60.922c0.04-0.08,0.04-0.121,0.04-0.161
		c4.461,1.808,9.645,0.924,13.703-1.969c4.621-3.295,7.153-8.56,8.278-14.025c6.148,0.08,13.02,1.165,18.726,1.527
		c17.923,1.125,35.846,2.25,53.809,3.014c31.867,1.366,63.734,1.567,95.642,0.764c-1.648,5.304,1.005,10.167,4.501,14.386
		c3.657,4.421,7.957,9.162,14.145,9.243c0.201,0,0.362-0.04,0.522-0.12C214.48,116.323,214.762,133.201,214.721,150.039z
		 M209.738,203.245c0.964-0.04,1.165-1.406,0.241-1.648c-3.054-0.884-6.631-0.04-9.484,1.165c-0.804,0.321-0.482,1.648,0.402,1.366
		C203.911,203.124,206.644,203.325,209.738,203.245z M208.452,102.54c0.924-0.121,0.804-1.527,0-1.728
		c-3.576-0.884-6.59-2.21-8.198-5.747c-0.442-0.924-2.009-0.281-1.648,0.683C200.094,99.727,203.992,103.143,208.452,102.54z
		 M206.966,107.362c1.246,0.281,1.688-1.407,0.522-1.849c-3.295-1.286-6.269-3.094-8.72-5.626c-0.884-0.924-2.13,0.402-1.366,1.326
		C199.853,104.308,203.108,106.518,206.966,107.362z M123.862,152.973c0.322,1.246,2.21,0.723,1.969-0.563
		c-0.763-3.858-2.974-7.073-6.108-9.444c-0.723-0.522-1.648,0.683-0.965,1.246C121.45,146.543,123.098,149.517,123.862,152.973z
		 M117.432,149.919c0.362,1.045,1.929,0.643,1.648-0.442c-0.924-3.295-3.858-5.385-7.314-5.264c-1.125,0-1.165,1.808,0,1.808
		C114.338,145.98,116.548,147.508,117.432,149.919z M111.484,166.957c1.527-1.889,1.165-4.862,1.125-7.113
		c-0.08-3.898-0.522-7.756-1.165-11.614c-0.08-0.563-0.723-1.206-1.286-1.286c-5.747-1.005-15.23-1.889-20.133,2.13
		c-2.009,1.648-2.13,4.139-2.09,6.55c0.08,4.059,0.563,8.158,1.286,12.136c0.241,1.366,1.567,1.487,2.492,0.924
		c-0.08,0.522,0.241,1.125,0.965,1.165c3.978,0.281,7.917,0.121,11.855-0.402C106.823,169.127,109.877,168.926,111.484,166.957z
		 M82.109,209.393c6.108-0.161,14.065-11.373,11.935-17.24c-1.567-4.38-9.042-6.229-12.578-8.077
		c-8.278-4.26-16.557-8.519-24.835-12.779c-12.257-6.269-12.337-2.049-18.686,9.846c-0.281,0.522-0.241,0.964-0.04,1.366
		c-0.281,0.322-0.281,0.844,0.161,1.165c8.198,5.867,17.079,10.73,25.759,15.793C68.285,202.08,76.643,209.554,82.109,209.393z
		 M86.69,127.736c1.768-14.467-13.06-22.263-25.638-22.303c-0.924,0-1.366,0.603-1.407,1.246
		c-10.127,0.482-19.048,8.841-19.852,19.209c-0.884,11.774,8.76,22.986,20.495,23.79C72.906,150.562,85.123,140.274,86.69,127.736z
		 M86.288,215.863c0.482-0.844-0.683-1.447-1.246-0.764c-1.527,2.049-4.26,2.974-6.631,1.889c-0.764-0.322-1.487,0.764-0.683,1.206
		C80.783,219.721,84.56,218.877,86.288,215.863z M85.324,211.644c0.402-0.965-1.005-1.366-1.487-0.643
		c-1.808,2.451-5.184,3.456-7.876,1.889c-0.924-0.523-1.648,0.763-0.804,1.366C78.572,216.788,83.676,215.582,85.324,211.644z
		 M69.249,102.017c0.884,0.482,1.607-0.763,0.804-1.326c-4.34-3.054-9.243-4.421-14.547-4.461c-0.965-0.04-0.965,1.447,0,1.527
		C60.408,98.039,65.03,99.646,69.249,102.017z M60.529,102.982c0.723,0.04,0.683-0.964,0-1.045
		c-3.657-0.482-7.073,0.281-10.288,2.09c-0.563,0.362-0.08,1.205,0.522,0.924C53.818,103.504,57.194,102.901,60.529,102.982z
		 M32.761,205.817c0.522,0.804,2.009,0.322,1.607-0.683c-1.045-2.652-3.054-4.541-5.586-5.907c-0.924-0.482-1.728,0.884-0.804,1.447
		C30.068,201.959,31.475,203.767,32.761,205.817z M29.345,207.505c0.804,0.804,1.929-0.362,1.206-1.206
		c-1.808-2.21-4.34-3.617-6.992-4.501c-0.924-0.322-1.246,1.045-0.402,1.366C25.567,204.169,27.496,205.696,29.345,207.505z
		 M16.244,160.487c0.281-1.165-1.326-1.527-1.728-0.482c-1.206,2.934-2.331,5.907-3.014,9.042c-0.201,0.964,1.246,1.728,1.688,0.723
		C14.516,166.756,15.401,163.622,16.244,160.487z M11.181,167.962c0.723-2.853,1.005-6.028,0.321-8.921
		c-0.201-0.884-1.406-0.603-1.447,0.201c-0.281,2.773-0.161,5.746-0.08,8.559C9.975,168.484,11.02,168.645,11.181,167.962z"/>
	<path style="fill:#A9805F;" d="M215.163,83.974c-0.161,4.059-0.241,8.118-0.321,12.176c-0.161-0.08-0.362-0.121-0.603-0.121
		c-4.621-0.04-7.796-3.737-10.689-6.912c-3.456-3.898-6.068-7.917-5.827-13.181c2.492-0.08,4.983-0.08,7.475-0.161
		c0.241,0.281,0.603,0.482,1.085,0.482c2.411-0.08,4.782,1.005,6.43,2.773c0.804,0.844,1.366,1.808,1.688,2.934
		C214.681,82.849,214.762,83.411,215.163,83.974z"/>
	<path style="fill:#A9805F;" d="M213.114,210.438c-1.849,8.077-4.943,14.186-10.006,15.793c-0.281-0.161-0.563-0.281-0.924-0.281
		c-3.416-0.241-6.832-0.362-10.207-0.563C196.115,216.747,203.751,211.363,213.114,210.438z"/>
	<path style="fill:#1D1D1B;" d="M209.98,201.597c0.924,0.241,0.723,1.607-0.241,1.648c-3.094,0.08-5.827-0.121-8.841,0.884
		c-0.884,0.281-1.205-1.045-0.402-1.366C203.349,201.557,206.925,200.713,209.98,201.597z"/>
	<path style="fill:#1D1D1B;" d="M208.452,100.812c0.804,0.201,0.924,1.607,0,1.728c-4.461,0.603-8.359-2.813-9.845-6.791
		c-0.362-0.964,1.206-1.607,1.648-0.683C201.862,98.602,204.876,99.928,208.452,100.812z"/>
	<path style="fill:#1D1D1B;" d="M207.488,105.513c1.165,0.442,0.723,2.13-0.522,1.849c-3.858-0.844-7.113-3.054-9.564-6.148
		c-0.764-0.924,0.482-2.25,1.366-1.326C201.219,102.419,204.193,104.228,207.488,105.513z"/>
	<path style="fill:#1D1D1B;" d="M157.176,58.416c0.322,1.527-1.929,2.17-2.371,0.683c-0.362-1.326-0.764-2.652-1.125-3.978
		c-0.523-1.728,2.29-2.451,2.612-0.764C156.613,55.723,156.894,57.09,157.176,58.416z"/>
	<path style="fill:#1D1D1B;" d="M152.233,56.246c0,0.844-1.366,1.085-1.487,0.201c-0.322-1.808-0.965-3.376-2.331-4.702
		c-0.723-0.683,0.362-1.688,1.085-1.085C151.188,52.107,152.233,53.995,152.233,56.246z"/>
	<path style="fill:#7D4E24;" d="M144.597,60.305c0,0.04-0.04,0.04-0.04,0.08c-0.723,2.572-2.411,3.054-5.023,2.893
		c-1.447-0.121-4.621-0.161-5.184-1.969c-1.406-12.417-6.59-26.402-21.419-25.839c-14.949,0.603-23.91,11.373-25.88,25.116
		c-1.607,0.522-3.014,1.326-4.742,1.366c-1.849,0-3.456-0.723-4.943-1.728c3.617-16.597,8.961-28.451,27.849-31.907
		C128.081,24.137,140.298,40.614,144.597,60.305z"/>
	<path style="fill:#CA9E67;" d="M140.298,66.453l-0.08,5.224c-23.83-0.362-47.66-1.165-71.49-2.451l0.121-2.049
		c1.085,0.201,1.607-1.407,0.482-1.688c-3.536-0.884-6.068-4.34-5.465-7.957l3.094,0.241c0.08,2.773,2.451,5.144,5.305,4.621
		c0.442-0.08,0.563-0.442,0.442-0.764l2.451-0.241c0.04,0.08,0.04,0.161,0.121,0.241c2.733,3.657,11.051,5.305,13.422,0.281
		c0.04-0.04,0-0.08,0.04-0.161c0.08-0.08,0.161-0.121,0.201-0.281c2.331-6.912,5.304-13.06,10.328-17.24
		c8.68,0.321,17.36,0.482,26.04,0.723c3.255,4.541,4.862,10.931,5.706,16.838c0.121,0.804,0.844,1.165,1.567,1.165
		c0.804,2.491,4.219,3.255,6.952,3.456C139.775,66.453,140.016,66.453,140.298,66.453z"/>
	<path style="fill:#1D1D1B;" d="M125.831,152.41c0.241,1.286-1.648,1.808-1.969,0.563c-0.763-3.456-2.411-6.43-5.104-8.76
		c-0.683-0.563,0.241-1.768,0.965-1.246C122.857,145.337,125.067,148.552,125.831,152.41z"/>
	<path style="fill:#1D1D1B;" d="M119.08,149.477c0.281,1.085-1.286,1.487-1.648,0.442c-0.884-2.411-3.094-3.938-5.666-3.898
		c-1.165,0-1.125-1.808,0-1.808C115.222,144.092,118.155,146.181,119.08,149.477z"/>
	<path style="fill:#1D1D1B;" d="M112.61,159.845c0.04,2.25,0.402,5.224-1.125,7.113c-1.607,1.969-4.661,2.17-6.952,2.492
		c-3.938,0.523-7.876,0.683-11.855,0.402c-0.723-0.04-1.045-0.643-0.965-1.165c-0.924,0.563-2.25,0.442-2.492-0.924
		c-0.723-3.978-1.205-8.077-1.286-12.136c-0.04-2.411,0.08-4.903,2.09-6.55c4.903-4.019,14.386-3.134,20.133-2.13
		c0.563,0.08,1.206,0.723,1.286,1.286C112.087,152.089,112.529,155.947,112.61,159.845z M107.908,164.385
		c2.371-2.974,0.924-9.926,0.201-14.065c-4.38-0.723-10.328-1.165-14.186,0.723c-4.42,2.21-1.969,11.975-1.406,15.833
		c0.08,0.362-0.04,0.683-0.161,1.005c0.121-0.08,0.201-0.161,0.322-0.161C96.937,167.56,105.095,167.962,107.908,164.385z"/>
	<path style="fill:#E94E1B;" d="M108.109,150.321c0.723,4.139,2.17,11.091-0.201,14.065c-2.813,3.577-10.971,3.175-15.23,3.336
		c-0.121,0-0.201,0.08-0.322,0.161c0.121-0.321,0.241-0.643,0.161-1.005c-0.563-3.858-3.014-13.623,1.406-15.833
		C97.781,149.155,103.729,149.597,108.109,150.321z"/>
	<path style="fill:#1D1D1B;" d="M94.044,192.154c2.13,5.867-5.827,17.079-11.935,17.24c-5.465,0.161-13.824-7.314-18.284-9.926
		c-8.68-5.063-17.561-9.926-25.759-15.793c-0.442-0.321-0.442-0.844-0.161-1.165c-0.201-0.402-0.241-0.844,0.04-1.366
		c6.349-11.895,6.43-16.115,18.686-9.846c8.278,4.26,16.557,8.519,24.835,12.779C85.002,185.925,92.477,187.774,94.044,192.154z
		 M89.061,199.026c1.929-5.184,0.603-8.318-3.938-9.363c-6.229-5.385-17.521-8.961-24.875-12.779
		c-1.768-0.924-8.64-5.546-10.609-5.505c-4.903,0.161-7.032,7.716-9.042,11.332c-0.08,0.121-0.161,0.161-0.241,0.281
		c8.6,4.059,16.798,8.961,25.076,13.703c4.38,2.492,14.788,10.689,20.093,7.756L89.061,199.026z"/>
	<path style="fill:#F8BE66;" d="M85.123,189.662c4.541,1.045,5.867,4.179,3.938,9.363l-3.536,5.425
		c-5.305,2.934-15.713-5.264-20.093-7.756c-8.278-4.742-16.476-9.645-25.076-13.703c0.08-0.12,0.161-0.161,0.241-0.281
		c2.009-3.617,4.139-11.172,9.042-11.332c1.969-0.04,8.841,4.581,10.609,5.505C67.602,180.701,78.894,184.277,85.123,189.662z"/>
	<path style="fill:#1D1D1B;" d="M61.051,105.433c12.578,0.04,27.407,7.836,25.638,22.303c-1.567,12.538-13.784,22.826-26.402,21.941
		c-11.734-0.804-21.379-12.015-20.495-23.79c0.804-10.368,9.725-18.727,19.852-19.209C59.685,106.036,60.127,105.433,61.051,105.433
		z M82.149,130.308c3.938-13.583-9.524-20.655-20.897-21.901c-8.158,1.768-15.632,7.193-17.441,15.833
		c-1.889,9.042,4.822,18.887,13.623,21.178C67.883,148.15,79.256,140.274,82.149,130.308z"/>
	<path style="fill:#1D1D1B;" d="M85.042,215.1c0.563-0.683,1.728-0.08,1.246,0.764c-1.728,3.014-5.505,3.858-8.56,2.331
		c-0.804-0.442-0.08-1.527,0.683-1.206C80.783,218.074,83.515,217.149,85.042,215.1z"/>
	<path style="fill:#1D1D1B;" d="M83.837,211.001c0.482-0.723,1.889-0.322,1.487,0.643c-1.648,3.938-6.751,5.144-10.167,2.612
		c-0.844-0.603-0.12-1.889,0.804-1.366C78.653,214.457,82.028,213.452,83.837,211.001z"/>
	<path style="fill:#CCECF8;" d="M61.252,108.407c11.373,1.246,24.835,8.318,20.897,21.901c-2.893,9.966-14.266,17.842-24.714,15.11
		c-8.801-2.291-15.512-12.136-13.623-21.178C45.62,115.6,53.095,110.175,61.252,108.407z"/>
	<path style="fill:#CA9E67;" d="M78.613,44.994c-1.929,4.581-3.134,9.805-3.496,15.753c0,0.04,0.04,0.04,0.04,0.08
		c-0.04,0.161-0.08,0.362,0,0.563l-2.451,0.241c-0.08-0.241-0.322-0.442-0.603-0.482c-1.969-0.161-3.697-1.286-3.898-3.376
		c-0.08-0.804-1.286-0.844-1.246,0l-3.094-0.241v-0.04c0.201-0.965-1.206-1.366-1.447-0.402c-1.005,4.461,1.808,9.243,6.43,10.087
		l-0.121,2.049c-1.125-0.04-2.291-0.08-3.416-0.161c-11.493-0.643-23.026-1.326-34.52-1.969c-1.125-0.04-2.411-0.201-3.737-0.362
		c-0.08-1.487-0.362-2.893-1.085-4.3c-0.643-1.206-1.567-2.773-2.853-3.496c0.804-0.643,1.567-1.286,2.331-1.889
		c3.255-2.652,6.711-5.023,10.127-7.394c3.054,1.808,6.671,2.371,10.167,1.125c2.813-1.005,5.827-3.496,6.791-6.47
		c3.094,0.402,6.189,0.924,9.202,1.085C67.361,45.757,73.027,45.798,78.613,44.994z"/>
	<path style="fill:#1D1D1B;" d="M72.705,61.631c0.121,0.322,0,0.683-0.442,0.764c-2.853,0.522-5.224-1.848-5.305-4.621
		c-0.04-0.844,1.165-0.804,1.246,0c0.201,2.09,1.929,3.215,3.898,3.376C72.384,61.189,72.625,61.39,72.705,61.631z"/>
	<path style="fill:#1D1D1B;" d="M70.053,100.691c0.804,0.563,0.08,1.808-0.804,1.326c-4.219-2.371-8.841-3.978-13.743-4.26
		c-0.965-0.08-0.965-1.567,0-1.527C60.81,96.271,65.713,97.637,70.053,100.691z"/>
	<path style="fill:#1D1D1B;" d="M69.33,65.489c1.125,0.281,0.603,1.889-0.482,1.688c-4.621-0.844-7.434-5.626-6.43-10.087
		c0.241-0.964,1.648-0.563,1.447,0.402v0.04C63.262,61.149,65.793,64.604,69.33,65.489z"/>
	<path style="fill:#1D1D1B;" d="M60.529,101.937c0.683,0.08,0.723,1.085,0,1.045c-3.335-0.08-6.711,0.522-9.765,1.969
		c-0.603,0.281-1.085-0.563-0.522-0.924C53.456,102.218,56.872,101.455,60.529,101.937z"/>
	<path style="fill:#A9805F;" d="M43.169,43.909c2.009-0.201,4.019-0.121,6.068,0.08c-1.125,1.648-2.21,3.175-4.42,4.099
		c-2.371,1.005-4.782,0.844-6.992,0c1.728-1.246,3.456-2.492,5.144-3.818C43.088,44.19,43.088,44.07,43.169,43.909z"/>
	<path style="fill:#1D1D1B;" d="M34.368,205.134c0.402,1.005-1.085,1.487-1.607,0.683c-1.286-2.049-2.692-3.858-4.782-5.144
		c-0.924-0.563-0.121-1.929,0.804-1.447C31.314,200.593,33.323,202.482,34.368,205.134z"/>
	<path style="fill:#1D1D1B;" d="M30.551,206.299c0.723,0.844-0.402,2.009-1.206,1.206c-1.849-1.808-3.778-3.335-6.189-4.34
		c-0.844-0.322-0.522-1.688,0.402-1.366C26.21,202.682,28.742,204.089,30.551,206.299z"/>
	<path style="fill:#A9805F;" d="M23.518,63.479c0.603,0.924,1.085,1.929,1.447,3.014c-3.416-0.442-7.113-0.884-10.448-0.643
		c2.21-1.728,4.38-3.456,6.55-5.224C21.71,61.671,22.835,62.434,23.518,63.479z"/>
	<path style="fill:#A9805F;" d="M23.116,70.793c0.121,0,0.241,0,0.321,0c-2.371,8.118-8.479,15.351-17.32,13.301
		c0.08-0.442,0.201-0.924,0.241-1.366C8.85,72.159,14.436,68.181,23.116,70.793z"/>
	<path style="fill:#A9805F;" d="M5.796,203.687c9.323,2.009,16.315,9.363,16.798,19.169c-3.617-0.482-7.233-1.005-10.89-1.728
		C8.006,217.069,6.519,208.59,5.796,203.687z"/>
	<path style="fill:#1D1D1B;" d="M14.516,160.005c0.402-1.045,2.009-0.683,1.728,0.482c-0.844,3.135-1.728,6.269-3.054,9.283
		c-0.442,1.005-1.889,0.241-1.688-0.723C12.186,165.913,13.311,162.939,14.516,160.005z"/>
	<path style="fill:#1D1D1B;" d="M11.502,159.041c0.683,2.893,0.402,6.068-0.321,8.921c-0.161,0.683-1.206,0.522-1.206-0.161
		c-0.08-2.813-0.201-5.787,0.08-8.559C10.096,158.438,11.302,158.157,11.502,159.041z"/>
</g>
<g>
</g>
<g>
</g>
<g>
</g>
<g>
</g>
<g>
</g>
<g>
</g>
<g>
</g>
<g>
</g>
<g>
</g>
<g>
</g>
<g>
</g>
<g>
</g>
<g>
</g>
<g>
</g>
<g>
</g>
</svg>
